<?xml version="1.0" encoding="UTF-8" standalone="no"?>
<svg
   xmlns:dc="http://purl.org/dc/elements/1.1/"
   xmlns:cc="http://creativecommons.org/ns#"
   xmlns:rdf="http://www.w3.org/1999/02/22-rdf-syntax-ns#"
   xmlns:svg="http://www.w3.org/2000/svg"
   xmlns="http://www.w3.org/2000/svg"
   xmlns:xlink="http://www.w3.org/1999/xlink"
   version="1.1"
   id="svg2"
   viewBox="0 0 433.12877 305.56972"
   height="86.238564mm"
   width="122.23856mm">
  <defs
     id="defs4">
    <marker
       style="overflow:visible;"
       id="marker7869"
       refX="0.0"
       refY="0.0"
       orient="auto">
      <path
         transform="scale(0.8) rotate(180) translate(12.5,0)"
         style="fill-rule:evenodd;stroke:#000000;stroke-width:1pt;stroke-opacity:1;fill:#000000;fill-opacity:1"
         d="M 0.0,0.0 L 5.0,-5.0 L -12.5,0.0 L 5.0,5.0 L 0.0,0.0 z "
         id="path7871" />
    </marker>
    <marker
       style="overflow:visible"
       id="marker7799"
       refX="0.0"
       refY="0.0"
       orient="auto">
      <path
         transform="scale(0.8) translate(12.5,0)"
         style="fill-rule:evenodd;stroke:#000000;stroke-width:1pt;stroke-opacity:1;fill:#000000;fill-opacity:1"
         d="M 0.0,0.0 L 5.0,-5.0 L -12.5,0.0 L 5.0,5.0 L 0.0,0.0 z "
         id="path7801" />
    </marker>
    <marker
       orient="auto"
       refY="0.0"
       refX="0.0"
       id="marker6579"
       style="overflow:visible;">
      <path
         id="path6581"
         d="M 0.0,0.0 L 5.0,-5.0 L -12.5,0.0 L 5.0,5.0 L 0.0,0.0 z "
         style="fill-rule:evenodd;stroke:#000000;stroke-width:1pt;stroke-opacity:1;fill:#000000;fill-opacity:1"
         transform="scale(0.8) rotate(180) translate(12.5,0)" />
    </marker>
    <marker
       orient="auto"
       refY="0.0"
       refX="0.0"
       id="marker6527"
       style="overflow:visible">
      <path
         id="path6529"
         d="M 0.0,0.0 L 5.0,-5.0 L -12.5,0.0 L 5.0,5.0 L 0.0,0.0 z "
         style="fill-rule:evenodd;stroke:#000000;stroke-width:1pt;stroke-opacity:1;fill:#000000;fill-opacity:1"
         transform="scale(0.8) translate(12.5,0)" />
    </marker>
    <marker
       orient="auto"
       refY="0.0"
       refX="0.0"
       id="marker5771"
       style="overflow:visible;">
      <path
         id="path5773"
         d="M 0.0,0.0 L 5.0,-5.0 L -12.5,0.0 L 5.0,5.0 L 0.0,0.0 z "
         style="fill-rule:evenodd;stroke:#000000;stroke-width:1pt;stroke-opacity:1;fill:#000000;fill-opacity:1"
         transform="scale(0.8) rotate(180) translate(12.5,0)" />
    </marker>
    <marker
       orient="auto"
       refY="0.0"
       refX="0.0"
       id="marker5731"
       style="overflow:visible">
      <path
         id="path5733"
         d="M 0.0,0.0 L 5.0,-5.0 L -12.5,0.0 L 5.0,5.0 L 0.0,0.0 z "
         style="fill-rule:evenodd;stroke:#000000;stroke-width:1pt;stroke-opacity:1;fill:#000000;fill-opacity:1"
         transform="scale(0.8) translate(12.5,0)" />
    </marker>
    <marker
       orient="auto"
       refY="0.0"
       refX="0.0"
       id="marker4843"
       style="overflow:visible;">
      <path
         id="path4845"
         d="M 0.0,0.0 L 5.0,-5.0 L -12.5,0.0 L 5.0,5.0 L 0.0,0.0 z "
         style="fill-rule:evenodd;stroke:#000000;stroke-width:1pt;stroke-opacity:1;fill:#000000;fill-opacity:1"
         transform="scale(0.8) rotate(180) translate(12.5,0)" />
    </marker>
    <marker
       orient="auto"
       refY="0.0"
       refX="0.0"
       id="marker4815"
       style="overflow:visible">
      <path
         id="path4817"
         d="M 0.0,0.0 L 5.0,-5.0 L -12.5,0.0 L 5.0,5.0 L 0.0,0.0 z "
         style="fill-rule:evenodd;stroke:#000000;stroke-width:1pt;stroke-opacity:1;fill:#000000;fill-opacity:1"
         transform="scale(0.8) translate(12.5,0)" />
    </marker>
  </defs>
  <metadata
     id="metadata7">
    <rdf:RDF>
      <cc:Work
         rdf:about="">
        <dc:format>image/svg+xml</dc:format>
        <dc:type
           rdf:resource="http://purl.org/dc/dcmitype/StillImage" />
        <dc:title></dc:title>
      </cc:Work>
    </rdf:RDF>
  </metadata>
  <g
     style="display:none"
     id="layer7">
    <text
       id="text4417"
       y="289.20218"
       x="264.39899"
       style="font-style:normal;font-variant:normal;font-weight:normal;font-stretch:condensed;font-size:10.00000095px;line-height:125%;font-family:'Arial Narrow';-inkscape-font-specification:'Arial Narrow Condensed';letter-spacing:0px;word-spacing:0px;fill:#000000;fill-opacity:1;stroke:none;stroke-width:1px;stroke-linecap:butt;stroke-linejoin:miter;stroke-opacity:1"
       xml:space="preserve"><tspan
         y="289.20218"
         x="264.39899"
         id="tspan4419" /></text>
    <flowRoot
       transform="translate(41.590473,8.2493496)"
       style="font-style:normal;font-variant:normal;font-weight:normal;font-stretch:condensed;font-size:12.5px;line-height:125%;font-family:'Arial Narrow';-inkscape-font-specification:'Arial Narrow, Condensed';text-align:start;letter-spacing:0px;word-spacing:0px;writing-mode:lr-tb;text-anchor:start;fill:#000000;fill-opacity:1;stroke:none;stroke-width:1px;stroke-linecap:butt;stroke-linejoin:miter;stroke-opacity:1"
       id="flowRoot4421"
       xml:space="preserve"><flowRegion
         id="flowRegion4423"><rect
           y="280.3439"
           x="283.88721"
           height="19.594316"
           width="92.866486"
           id="rect4425" /></flowRegion><flowPara
         style="font-style:normal;font-variant:normal;font-weight:normal;font-stretch:condensed;font-size:5.00000048px;line-height:125%;font-family:'Arial Narrow';-inkscape-font-specification:'Arial Narrow, Condensed';text-align:start;writing-mode:lr-tb;text-anchor:start"
         id="flowPara4427">Copyright 2016 by Frank Andre</flowPara><flowPara
         style="font-style:normal;font-variant:normal;font-weight:normal;font-stretch:condensed;font-size:5.00000048px;line-height:125%;font-family:'Arial Narrow';-inkscape-font-specification:'Arial Narrow, Condensed';text-align:start;writing-mode:lr-tb;text-anchor:start"
         id="flowPara4431">released under creative commons 3.0 CC-BY-SA</flowPara><flowPara
         style="font-style:normal;font-variant:normal;font-weight:normal;font-stretch:condensed;font-size:5.00000048px;line-height:125%;font-family:'Arial Narrow';-inkscape-font-specification:'Arial Narrow, Condensed';text-align:start;writing-mode:lr-tb;text-anchor:start"
         id="flowPara4429" /></flowRoot>    <flowRoot
       xml:space="preserve"
       id="flowRoot4295"
       style="font-style:normal;font-variant:normal;font-weight:normal;font-stretch:condensed;font-size:12.5px;line-height:125%;font-family:'Arial Narrow';-inkscape-font-specification:'Arial Narrow, Condensed';text-align:start;letter-spacing:0px;word-spacing:0px;writing-mode:lr-tb;text-anchor:start;fill:#000000;fill-opacity:1;stroke:none;stroke-width:1px;stroke-linecap:butt;stroke-linejoin:miter;stroke-opacity:1"
       transform="translate(-211.04594,-273.2598)"><flowRegion
         id="flowRegion4297"><rect
           id="rect4299"
           width="88.801872"
           height="28.501501"
           x="283.88721"
           y="280.3439" /></flowRegion><flowPara
         id="flowPara4305"
         style="font-style:normal;font-variant:normal;font-weight:normal;font-stretch:condensed;font-size:7.50000095px;line-height:125%;font-family:'Arial Narrow';-inkscape-font-specification:'Arial Narrow, Condensed';text-align:start;writing-mode:lr-tb;text-anchor:start">material thickness = 3 mm</flowPara><flowPara
         id="flowPara4331"
         style="font-style:normal;font-variant:normal;font-weight:normal;font-stretch:condensed;font-size:7.50000095px;line-height:125%;font-family:'Arial Narrow';-inkscape-font-specification:'Arial Narrow, Condensed';text-align:start;writing-mode:lr-tb;text-anchor:start">sheet size 122 mm x 86 mm </flowPara></flowRoot>    <flowRoot
       xml:space="preserve"
       id="flowRoot4312"
       style="font-style:normal;font-variant:normal;font-weight:normal;font-stretch:condensed;font-size:12.5px;line-height:125%;font-family:'Arial Narrow';-inkscape-font-specification:'Arial Narrow, Condensed';text-align:start;letter-spacing:0px;word-spacing:0px;writing-mode:lr-tb;text-anchor:start;fill:#000000;fill-opacity:1;stroke:none;stroke-width:1px;stroke-linecap:butt;stroke-linejoin:miter;stroke-opacity:1"
       transform="translate(-8.5930856,-273.60351)"><flowRegion
         id="flowRegion4314"><rect
           id="rect4316"
           width="103.17821"
           height="31.938732"
           x="283.88721"
           y="280.3439" /></flowRegion><flowPara
         id="flowPara4322"
         style="font-style:normal;font-variant:normal;font-weight:normal;font-stretch:condensed;font-size:7.50000095px;line-height:125%;font-family:'Arial Narrow';-inkscape-font-specification:'Arial Narrow, Condensed';text-align:start;writing-mode:lr-tb;text-anchor:start">1. cut out inner shapes (red)</flowPara><flowPara
         id="flowPara4329"
         style="font-style:normal;font-variant:normal;font-weight:normal;font-stretch:condensed;font-size:7.50000095px;line-height:125%;font-family:'Arial Narrow';-inkscape-font-specification:'Arial Narrow, Condensed';text-align:start;writing-mode:lr-tb;text-anchor:start">2. cut outlines (either cyan or green)</flowPara></flowRoot>  </g>
  <g
     style="display:none"
     id="layer8">
    <flowRoot
       transform="matrix(0,-1,1,0,-278.45965,488.48186)"
       style="font-style:normal;font-variant:normal;font-weight:normal;font-stretch:condensed;font-size:12.5px;line-height:125%;font-family:'Arial Narrow';-inkscape-font-specification:'Arial Narrow, Condensed';text-align:start;letter-spacing:0px;word-spacing:0px;writing-mode:lr-tb;text-anchor:start;display:inline;fill:#000000;fill-opacity:1;stroke:none;stroke-width:1px;stroke-linecap:butt;stroke-linejoin:miter;stroke-opacity:1"
       id="flowRoot4649"
       xml:space="preserve"><flowRegion
         id="flowRegion4651"><rect
           y="280.3439"
           x="283.88721"
           height="11.315345"
           width="21.775894"
           id="rect4653" /></flowRegion><flowPara
         style="font-style:normal;font-variant:normal;font-weight:normal;font-stretch:condensed;font-size:7.50000095px;line-height:125%;font-family:'Arial Narrow';-inkscape-font-specification:'Arial Narrow, Condensed';text-align:start;writing-mode:lr-tb;text-anchor:start"
         id="flowPara4657">60 mm</flowPara></flowRoot>    <flowRoot
       transform="translate(-98.304792,-93.492667)"
       style="font-style:normal;font-variant:normal;font-weight:normal;font-stretch:condensed;font-size:12.5px;line-height:125%;font-family:'Arial Narrow';-inkscape-font-specification:'Arial Narrow, Condensed';text-align:start;letter-spacing:0px;word-spacing:0px;writing-mode:lr-tb;text-anchor:start;display:inline;fill:#000000;fill-opacity:1;stroke:none;stroke-width:1px;stroke-linecap:butt;stroke-linejoin:miter;stroke-opacity:1"
       id="flowRoot4669"
       xml:space="preserve"><flowRegion
         id="flowRegion4671"><rect
           y="280.3439"
           x="283.88721"
           height="11.315345"
           width="21.775894"
           id="rect4673" /></flowRegion><flowPara
         style="font-style:normal;font-variant:normal;font-weight:normal;font-stretch:condensed;font-size:7.50000095px;line-height:125%;font-family:'Arial Narrow';-inkscape-font-specification:'Arial Narrow, Condensed';text-align:start;writing-mode:lr-tb;text-anchor:start"
         id="flowPara4675">61 mm</flowPara></flowRoot>    <flowRoot
       xml:space="preserve"
       id="flowRoot4745"
       style="font-style:normal;font-variant:normal;font-weight:normal;font-stretch:condensed;font-size:12.5px;line-height:125%;font-family:'Arial Narrow';-inkscape-font-specification:'Arial Narrow, Condensed';text-align:start;letter-spacing:0px;word-spacing:0px;writing-mode:lr-tb;text-anchor:start;display:inline;fill:#000000;fill-opacity:1;stroke:none;stroke-width:1px;stroke-linecap:butt;stroke-linejoin:miter;stroke-opacity:1"
       transform="matrix(0,-1,1,0,-181.52976,449.64116)"><flowRegion
         id="flowRegion4747"><rect
           id="rect4749"
           width="21.775894"
           height="11.315345"
           x="283.88721"
           y="280.3439" /></flowRegion><flowPara
         id="flowPara4751"
         style="font-style:normal;font-variant:normal;font-weight:normal;font-stretch:condensed;font-size:7.50000095px;line-height:125%;font-family:'Arial Narrow';-inkscape-font-specification:'Arial Narrow, Condensed';text-align:start;writing-mode:lr-tb;text-anchor:start">25 mm</flowPara></flowRoot>    <path
       id="path4335"
       d="m 2.1942938,90.776976 0,212.598434"
       style="display:inline;opacity:1;fill:none;fill-opacity:1;stroke:#000000;stroke-width:0.35433075;stroke-miterlimit:4;stroke-dasharray:none;stroke-opacity:1;marker-start:url(#marker7799);marker-end:url(#marker7869)" />
    <path
       style="display:inline;opacity:1;fill:none;fill-opacity:1;stroke:#000000;stroke-width:0.35433075;stroke-miterlimit:4;stroke-dasharray:none;stroke-opacity:1;marker-start:url(#marker5731);marker-end:url(#marker5771)"
       d="m 108.74843,108.46312 0,88.04852"
       id="path5729" />
    <path
       style="display:inline;opacity:1;fill:none;fill-opacity:1;stroke:#000000;stroke-width:0.35433072;stroke-miterlimit:4;stroke-dasharray:none;stroke-opacity:1;marker-start:url(#marker6527);marker-end:url(#marker6579)"
       d="m 324.53596,197.07618 -214.83838,0"
       id="path6525" />
  </g>
  <g
     style="display:inline"
     transform="translate(2.1943093,-15.522221)"
     id="layer4">
    <path
       id="path4414"
       d="m -0.37566582,319.27327 429.51355582,0.0221 -0.0221,-301.95451 -429.49145582,1.6e-5 z"
       style="opacity:1;fill:none;fill-opacity:1;stroke:#0000ff;stroke-width:0.35433075;stroke-miterlimit:4;stroke-dasharray:none;stroke-opacity:1" />
  </g>
  <g
     transform="translate(2.1943093,-15.522221)"
     style="display:inline"
     id="layer5">
    <path
       id="path4184"
       d="m 17.716536,124.01575 44.29134,74.40944 30.118111,1e-5 0,-30.11812 z"
       style="fill:none;fill-rule:evenodd;stroke:#0000ff;stroke-width:0.35433072;stroke-linecap:butt;stroke-linejoin:miter;stroke-miterlimit:4;stroke-dasharray:none;stroke-opacity:1" />
  </g>
  <g
     style="display:inline"
     id="layer1">
    <g
       id="g4293"
       style="display:inline"
       transform="translate(2.1943093,-15.522221)">
      <circle
         r="25.022831"
         cy="76.674042"
         cx="214.3203"
         id="circle4289"
         style="display:inline;opacity:1;fill:none;fill-opacity:1;stroke:#00ffff;stroke-width:0.43056151;stroke-miterlimit:4;stroke-dasharray:none;stroke-opacity:1" />
      <circle
         style="display:inline;opacity:1;fill:none;fill-opacity:1;stroke:#00ff00;stroke-width:0.43056151;stroke-miterlimit:4;stroke-dasharray:none;stroke-opacity:1"
         id="path4273"
         cx="214.3203"
         cy="76.674042"
         r="25.022831" />
      <rect
         y="70.447556"
         x="209.1568"
         height="12.452969"
         width="10.326983"
         id="rect4279"
         style="display:inline;opacity:1;fill:none;fill-opacity:1;stroke:#ff0000;stroke-width:0.30293846;stroke-miterlimit:4;stroke-dasharray:none;stroke-opacity:1" />
    </g>
    <g
       id="g4303"
       style="display:inline"
       transform="translate(2.1943093,-15.522221)">
      <circle
         r="44.05843"
         cy="211.24942"
         cx="213.94743"
         id="circle4293"
         style="display:inline;opacity:1;fill:none;fill-opacity:1;stroke:#00ffff;stroke-width:0.46582699;stroke-miterlimit:4;stroke-dasharray:none;stroke-opacity:1" />
      <circle
         style="display:inline;opacity:1;fill:none;fill-opacity:1;stroke:#00ff00;stroke-width:0.46582699;stroke-miterlimit:4;stroke-dasharray:none;stroke-opacity:1"
         id="path4275"
         cx="213.94743"
         cy="211.24942"
         r="44.05843" />
      <rect
         style="display:inline;opacity:1;fill:none;fill-opacity:1;stroke:#ff0000;stroke-width:0.24733454;stroke-miterlimit:4;stroke-dasharray:none;stroke-opacity:1"
         id="rect4277"
         width="10.382587"
         height="8.2566032"
         x="208.75613"
         y="207.12112" />
    </g>
  </g>
  <g
     style="display:inline"
     transform="translate(2.1943093,-748.98679)"
     id="layer2">
    <path
       id="path4206"
       d="m 0,1052.3622 100.98425,-53.1496 0,-53.1496 10.62992,0 0,53.1496 100.98426,53.1496 -53.14961,-100.98424 -24.80315,0 0,-10.62993 24.80315,0 53.14961,-100.98425 -100.98426,53.14961 -10.62992,0 L 0,839.76378 l 53.149607,100.98425 24.803149,0 0,10.62993 -24.803149,0 z"
       style="fill:none;fill-rule:evenodd;stroke:#000000;stroke-width:0.35433072;stroke-linecap:butt;stroke-linejoin:miter;stroke-miterlimit:4;stroke-dasharray:none;stroke-opacity:1" />
    <path
       id="path4208"
       d="m 100.98425,852.16536 0,-23.0315 10.62992,0 0,23.0315 35.43308,0 0,10.62992 12.40157,0 0,-10.62992 53.14961,-100.98426 -100.98426,53.14961 -10.62992,0 L 0,751.1811 l 53.149607,100.98426 12.401574,0 0,10.62992 12.401575,0 0,-10.62992 z"
       style="fill:none;fill-rule:evenodd;stroke:#000000;stroke-width:0.35433072;stroke-linecap:butt;stroke-linejoin:miter;stroke-miterlimit:4;stroke-dasharray:none;stroke-opacity:1" />
    <path
       style="fill:none;fill-rule:evenodd;stroke:#00ffff;stroke-width:0.35433075;stroke-linecap:butt;stroke-linejoin:miter;stroke-miterlimit:4;stroke-dasharray:none;stroke-opacity:1"
       d="m 0,1052.3622 100.98425,-53.1496 0,-53.1496 10.62992,0 0,53.1496 100.98426,53.1496 -53.14961,-100.98424 -24.80315,0 0,-10.62993 24.80315,0 53.14961,-100.98425 -100.98426,53.14961 -10.62992,0 L 0,839.76378 l 53.149607,100.98425 24.803149,0 0,10.62993 -24.803149,0 z"
       id="path4170" />
    <path
       style="fill:none;fill-rule:evenodd;stroke:#00ffff;stroke-width:0.35433075;stroke-linecap:butt;stroke-linejoin:miter;stroke-miterlimit:4;stroke-dasharray:none;stroke-opacity:1"
       d="m 100.98425,852.16536 0,-23.0315 10.62992,0 0,23.0315 35.43308,0 0,10.62992 12.40157,0 0,-10.62992 53.14961,-100.98426 -100.98426,53.14961 -10.62992,0 L 0,751.1811 l 53.149607,100.98426 12.401574,0 0,10.62992 12.401575,0 0,-10.62992 z"
       id="path4172" />
    <use
       height="100%"
       width="100%"
       transform="translate(216.14173,0)"
       id="use4167"
       xlink:href="#path4206"
       y="0"
       x="0" />
    <use
       height="100%"
       width="100%"
       transform="translate(216.14173,0)"
       id="use4169"
       xlink:href="#path4208"
       y="0"
       x="0" />
    <use
       style="stroke:#00ffff;stroke-width:0.35433075;stroke-miterlimit:4;stroke-dasharray:none;stroke-opacity:1"
       height="100%"
       width="100%"
       transform="translate(216.14173,0)"
       id="use4171"
       xlink:href="#path4170"
       y="0"
       x="0" />
    <use
       style="stroke:#00ffff;stroke-width:0.35433075;stroke-miterlimit:4;stroke-dasharray:none;stroke-opacity:1"
       height="100%"
       width="100%"
       transform="translate(216.14173,0)"
       id="use4173"
       xlink:href="#path4172"
       y="0"
       x="0" />
  </g>
  <g
     style="display:inline"
     transform="translate(2.1943093,-748.98679)"
     id="layer3">
    <path
       d="m -0.00195313,751.00781 a 0.17321797,0.17321797 0 0 0 -0.15039062,0.25391 L 52.998047,852.24609 a 0.17321797,0.17321797 0 0 0 0.152344,0.0937 l 12.226562,0 0,10.45508 a 0.17321797,0.17321797 0 0 0 0.173828,0.17383 l 12.402344,0 a 0.17321797,0.17321797 0 0 0 0.173828,-0.17383 l 0,-10.45508 22.857427,0 a 0.17321797,0.17321797 0 0 0 0.17382,-0.17382 l 0,-22.85743 10.28125,0 0,22.85743 a 0.17321797,0.17321797 0 0 0 0.17383,0.17382 l 35.25977,0 0,10.45508 a 0.17321797,0.17321797 0 0 0 0.17383,0.17383 l 12.40234,0 a 0.17321797,0.17321797 0 0 0 0.17383,-0.17383 l 0,-10.58594 L 212.75,751.26172 a 0.17321797,0.17321797 0 0 0 -0.23242,-0.23242 l -100.94727,53.12695 -10.54297,0 L 0.08007812,751.0293 a 0.17321797,0.17321797 0 0 0 -0.08203125,-0.0215 z"
       id="path4161"
       style="opacity:1;fill:none;fill-rule:evenodd;stroke:#00ff00;stroke-width:0.35433075;stroke-linecap:butt;stroke-linejoin:miter;stroke-miterlimit:4;stroke-dasharray:none;stroke-opacity:1"
       xlink:href="#path4208" />
    <path
       d="m -0.00195313,839.57617 a 0.18755942,0.18755942 0 0 0 -0.16406249,0.27539 L 52.984375,940.83594 a 0.18755942,0.18755942 0 0 0 0.166016,0.0996 l 24.615234,0 0,10.25586 -24.615234,0 a 0.18755942,0.18755942 0 0 0 -0.166016,0.0996 L -0.16601562,1052.2734 a 0.18755942,0.18755942 0 0 0 0.25390624,0.2539 L 101.07227,999.37891 a 0.18755942,0.18755942 0 0 0 0.0996,-0.16602 l 0,-52.96289 10.2539,0 0,52.96289 a 0.18755942,0.18755942 0 0 0 0.0996,0.16602 l 100.98438,53.14839 a 0.18755942,0.18755942 0 0 0 0.2539,-0.2539 L 159.61523,951.29102 a 0.18755942,0.18755942 0 0 0 -0.16601,-0.0996 l -24.61524,0 0,-10.25586 24.61524,0 a 0.18755942,0.18755942 0 0 0 0.16601,-0.0996 l 53.14844,-100.98438 a 0.18755942,0.18755942 0 0 0 -0.2539,-0.2539 l -100.94336,53.1289 -10.53516,0 -100.94335938,-53.1289 a 0.18755942,0.18755942 0 0 0 -0.08984375,-0.0215 z"
       id="path4165"
       style="fill:none;fill-rule:evenodd;stroke:#00ff00;stroke-width:0.35433075;stroke-linecap:butt;stroke-linejoin:miter;stroke-miterlimit:4;stroke-dasharray:none;stroke-opacity:1"
       xlink:href="#path4206" />
    <use
       style="stroke-width:0.35433075;stroke-miterlimit:4;stroke-dasharray:none"
       height="100%"
       width="100%"
       transform="translate(216.14173,0)"
       id="use4175"
       xlink:href="#path4161"
       y="0"
       x="0" />
    <use
       style="stroke-width:0.35433075;stroke-miterlimit:4;stroke-dasharray:none"
       height="100%"
       width="100%"
       transform="translate(216.14173,0)"
       id="use4177"
       xlink:href="#path4165"
       y="0"
       x="0" />
  </g>
  <g
     style="display:inline"
     transform="translate(2.1943093,-15.522221)"
     id="layer6">
    <g
       id="g4457">
      <g
         id="g4363">
        <path
           id="path4187"
           d="m 78.049448,184.37855 c 0,0 0.112797,10.0028 2.715238,13.96842 1.196114,1.82265 2.502477,3.75363 5.393181,3.69975 4.196467,-0.0782 2.424801,-7.16484 2.424801,-7.16484 0,0 7.086627,1.77166 7.086627,-2.73769 0,-2.57727 -1.733242,-4.02208 -3.465088,-5.15852 -4.011124,-2.63211 -14.154759,-2.60712 -14.154759,-2.60712 z"
           style="fill:none;fill-rule:evenodd;stroke:#ff0000;stroke-width:0.38976377;stroke-linecap:butt;stroke-linejoin:miter;stroke-miterlimit:4;stroke-dasharray:none;stroke-opacity:1" />
        <path
           id="path4189"
           d="m 92.087891,168.3457 c 0,0 -5.686362,3.48552 -8.857422,4.375 -3.42491,0.96067 -7.08471,1.21824 -10.63086,0.93946 -2.493708,-0.46405 -5.123647,-1.11054 -7.042967,-1.80283 0.638042,2.34074 1.541968,4.72557 1.765625,7.08008 0.278779,3.54615 0.02318,7.204 -0.9375,10.62891 -0.889475,3.17106 -4.376954,8.85937 -4.376954,8.85937 l 12.402307,1.64239 c 0,0 -1.130809,-5.06827 -1.693322,-8.78106 -0.661081,-4.36338 -1.016734,-13.13224 -1.017578,-13.25 0.117763,8.4e-4 8.888572,0.35454 13.251953,1.01562 3.712792,0.56252 8.857327,1.77154 8.857327,1.77154 z"
           style="fill:none;fill-rule:evenodd;stroke:#ff0000;stroke-width:0.35433072;stroke-linecap:butt;stroke-linejoin:miter;stroke-miterlimit:4;stroke-dasharray:none;stroke-opacity:1" />
        <path
           id="path4191"
           d="m 56.405686,188.82851 c 0,0 3.701971,-4.1122 4.317115,-6.69552 0.837426,-3.5168 0.285623,-7.46262 -1.138381,-10.78548 -0.75886,-1.77077 -2.212593,-3.23384 -3.743533,-4.40333 -1.832176,-1.39961 -4.003558,-2.47495 -6.262469,-2.93656 -2.570703,-0.52533 -7.86658,0.27796 -7.86658,0.27796 z"
           style="fill:none;fill-opacity:1;fill-rule:evenodd;stroke:#ff0000;stroke-width:0.35433072;stroke-linecap:butt;stroke-linejoin:miter;stroke-miterlimit:4;stroke-dasharray:none;stroke-opacity:1" />
        <path
           id="path4195"
           transform="translate(-2.1943246,15.522221)"
           d="m 41.171875,121.09375 c 0,0 -0.704855,3.62905 0.07813,5.16016 0.96155,1.88031 4.165628,1.8815 5.080078,3.78515 1.557524,4.1202 -1.313094,6.17897 -4.916018,4.7949 -1.903654,-0.91445 -1.906806,-4.11852 -3.787109,-5.08007 -1.531117,-0.78298 -5.158203,-0.0781 -5.158203,-0.0781 l 6.261719,10.41406 c 0,0 5.680221,-0.0623 8.421875,0.56836 12.313008,2.97359 7.89337,7.38187 5.001953,-4.88086 -0.63063,-2.74166 -0.570313,-8.41992 -0.570313,-8.41992 z"
           style="opacity:1;fill:none;fill-opacity:1;stroke:#ff0000;stroke-width:0.35433072;stroke-miterlimit:4;stroke-dasharray:none;stroke-opacity:1" />
        <path
           id="path4197"
           d="m 18.202621,124.38031 c 0,0 10.262184,4.66802 14.095022,8.62361 0.64003,0.66053 1.268074,1.48328 1.365132,2.39789 0.127829,1.20458 -0.223358,2.624 -1.095077,3.4651 -0.843054,0.81344 -2.232473,1.13814 -3.386867,0.93862 -1.54817,-0.26757 -2.803339,-1.54412 -3.856187,-2.71028 -3.255402,-3.60577 -7.122023,-12.71494 -7.122023,-12.71494 z"
           style="opacity:1;fill:none;fill-opacity:1;stroke:#ff0000;stroke-width:0.35433072;stroke-miterlimit:4;stroke-dasharray:none;stroke-opacity:1" />
        <path
           style="fill:none;fill-opacity:1;fill-rule:evenodd;stroke:#ff0000;stroke-width:0.35433072;stroke-linecap:butt;stroke-linejoin:miter;stroke-miterlimit:4;stroke-dasharray:none;stroke-opacity:1"
           d="m 82.549782,162.68442 c 0,0 -4.1122,3.70197 -6.69552,4.31711 -3.5168,0.83743 -7.46262,0.28562 -10.78548,-1.13838 -1.77077,-0.75886 -3.23384,-2.21259 -4.40333,-3.74353 -1.39961,-1.83218 -2.47495,-4.00356 -2.93656,-6.26247 -0.52533,-2.5707 0.27796,-7.86658 0.27796,-7.86658 z"
           id="path4361" />
      </g>
      <g
         id="g4371"
         transform="matrix(0,1,-1,0,318.90583,106.30495)">
        <path
           style="fill:none;fill-rule:evenodd;stroke:#ff0000;stroke-width:0.38976377;stroke-linecap:butt;stroke-linejoin:miter;stroke-miterlimit:4;stroke-dasharray:none;stroke-opacity:1"
           d="m 78.049448,184.37855 c 0,0 0.112797,10.0028 2.715238,13.96842 1.196114,1.82265 2.502477,3.75363 5.393181,3.69975 4.196467,-0.0782 2.424801,-7.16484 2.424801,-7.16484 0,0 7.086627,1.77166 7.086627,-2.73769 0,-2.57727 -1.733242,-4.02208 -3.465088,-5.15852 -4.011124,-2.63211 -14.154759,-2.60712 -14.154759,-2.60712 z"
           id="path4373" />
        <path
           style="fill:none;fill-rule:evenodd;stroke:#ff0000;stroke-width:0.35433072;stroke-linecap:butt;stroke-linejoin:miter;stroke-miterlimit:4;stroke-dasharray:none;stroke-opacity:1"
           d="m 92.087891,168.3457 c 0,0 -5.686362,3.48552 -8.857422,4.375 -3.42491,0.96067 -7.08471,1.21824 -10.63086,0.93946 -2.493708,-0.46405 -5.123647,-1.11054 -7.042967,-1.80283 0.638042,2.34074 1.541968,4.72557 1.765625,7.08008 0.278779,3.54615 0.02318,7.204 -0.9375,10.62891 -0.889475,3.17106 -4.376954,8.85937 -4.376954,8.85937 l 12.402307,1.64239 c 0,0 -1.130809,-5.06827 -1.693322,-8.78106 -0.661081,-4.36338 -1.016734,-13.13224 -1.017578,-13.25 0.117763,8.4e-4 8.888572,0.35454 13.251953,1.01562 3.712792,0.56252 8.857327,1.77154 8.857327,1.77154 z"
           id="path4375" />
        <path
           style="fill:none;fill-opacity:1;fill-rule:evenodd;stroke:#ff0000;stroke-width:0.35433072;stroke-linecap:butt;stroke-linejoin:miter;stroke-miterlimit:4;stroke-dasharray:none;stroke-opacity:1"
           d="m 56.405686,188.82851 c 0,0 3.701971,-4.1122 4.317115,-6.69552 0.837426,-3.5168 0.285623,-7.46262 -1.138381,-10.78548 -0.75886,-1.77077 -2.212593,-3.23384 -3.743533,-4.40333 -1.832176,-1.39961 -4.003558,-2.47495 -6.262469,-2.93656 -2.570703,-0.52533 -7.86658,0.27796 -7.86658,0.27796 z"
           id="path4377" />
        <path
           style="opacity:1;fill:none;fill-opacity:1;stroke:#ff0000;stroke-width:0.35433072;stroke-miterlimit:4;stroke-dasharray:none;stroke-opacity:1"
           d="m 41.171875,121.09375 c 0,0 -0.704855,3.62905 0.07813,5.16016 0.96155,1.88031 4.165628,1.8815 5.080078,3.78515 1.557524,4.1202 -1.313094,6.17897 -4.916018,4.7949 -1.903654,-0.91445 -1.906806,-4.11852 -3.787109,-5.08007 -1.531117,-0.78298 -5.158203,-0.0781 -5.158203,-0.0781 l 6.261719,10.41406 c 0,0 5.680221,-0.0623 8.421875,0.56836 12.313008,2.97359 7.89337,7.38187 5.001953,-4.88086 -0.63063,-2.74166 -0.570313,-8.41992 -0.570313,-8.41992 z"
           transform="translate(-2.1943246,15.522221)"
           id="path4379" />
        <path
           style="opacity:1;fill:none;fill-opacity:1;stroke:#ff0000;stroke-width:0.35433072;stroke-miterlimit:4;stroke-dasharray:none;stroke-opacity:1"
           d="m 18.202621,124.38031 c 0,0 10.262184,4.66802 14.095022,8.62361 0.64003,0.66053 1.268074,1.48328 1.365132,2.39789 0.127829,1.20458 -0.223358,2.624 -1.095077,3.4651 -0.843054,0.81344 -2.232473,1.13814 -3.386867,0.93862 -1.54817,-0.26757 -2.803339,-1.54412 -3.856187,-2.71028 -3.255402,-3.60577 -7.122023,-12.71494 -7.122023,-12.71494 z"
           id="path4381" />
        <path
           id="path4383"
           d="m 82.549782,162.68442 c 0,0 -4.1122,3.70197 -6.69552,4.31711 -3.5168,0.83743 -7.46262,0.28562 -10.78548,-1.13838 -1.77077,-0.75886 -3.23384,-2.21259 -4.40333,-3.74353 -1.39961,-1.83218 -2.47495,-4.00356 -2.93656,-6.26247 -0.52533,-2.5707 0.27796,-7.86658 0.27796,-7.86658 z"
           style="fill:none;fill-opacity:1;fill-rule:evenodd;stroke:#ff0000;stroke-width:0.35433072;stroke-linecap:butt;stroke-linejoin:miter;stroke-miterlimit:4;stroke-dasharray:none;stroke-opacity:1" />
      </g>
      <g
         transform="matrix(-1,0,0,-1,212.60088,425.21078)"
         id="g4385">
        <path
           id="path4387"
           d="m 78.049448,184.37855 c 0,0 0.112797,10.0028 2.715238,13.96842 1.196114,1.82265 2.502477,3.75363 5.393181,3.69975 4.196467,-0.0782 2.424801,-7.16484 2.424801,-7.16484 0,0 7.086627,1.77166 7.086627,-2.73769 0,-2.57727 -1.733242,-4.02208 -3.465088,-5.15852 -4.011124,-2.63211 -14.154759,-2.60712 -14.154759,-2.60712 z"
           style="fill:none;fill-rule:evenodd;stroke:#ff0000;stroke-width:0.38976377;stroke-linecap:butt;stroke-linejoin:miter;stroke-miterlimit:4;stroke-dasharray:none;stroke-opacity:1" />
        <path
           id="path4389"
           d="m 92.087891,168.3457 c 0,0 -5.686362,3.48552 -8.857422,4.375 -3.42491,0.96067 -7.08471,1.21824 -10.63086,0.93946 -2.493708,-0.46405 -5.123647,-1.11054 -7.042967,-1.80283 0.638042,2.34074 1.541968,4.72557 1.765625,7.08008 0.278779,3.54615 0.02318,7.204 -0.9375,10.62891 -0.889475,3.17106 -4.376954,8.85937 -4.376954,8.85937 l 12.402307,1.64239 c 0,0 -1.130809,-5.06827 -1.693322,-8.78106 -0.661081,-4.36338 -1.016734,-13.13224 -1.017578,-13.25 0.117763,8.4e-4 8.888572,0.35454 13.251953,1.01562 3.712792,0.56252 8.857327,1.77154 8.857327,1.77154 z"
           style="fill:none;fill-rule:evenodd;stroke:#ff0000;stroke-width:0.35433072;stroke-linecap:butt;stroke-linejoin:miter;stroke-miterlimit:4;stroke-dasharray:none;stroke-opacity:1" />
        <path
           id="path4391"
           d="m 56.405686,188.82851 c 0,0 3.701971,-4.1122 4.317115,-6.69552 0.837426,-3.5168 0.285623,-7.46262 -1.138381,-10.78548 -0.75886,-1.77077 -2.212593,-3.23384 -3.743533,-4.40333 -1.832176,-1.39961 -4.003558,-2.47495 -6.262469,-2.93656 -2.570703,-0.52533 -7.86658,0.27796 -7.86658,0.27796 z"
           style="fill:none;fill-opacity:1;fill-rule:evenodd;stroke:#ff0000;stroke-width:0.35433072;stroke-linecap:butt;stroke-linejoin:miter;stroke-miterlimit:4;stroke-dasharray:none;stroke-opacity:1" />
        <path
           id="path4393"
           transform="translate(-2.1943246,15.522221)"
           d="m 41.171875,121.09375 c 0,0 -0.704855,3.62905 0.07813,5.16016 0.96155,1.88031 4.165628,1.8815 5.080078,3.78515 1.557524,4.1202 -1.313094,6.17897 -4.916018,4.7949 -1.903654,-0.91445 -1.906806,-4.11852 -3.787109,-5.08007 -1.531117,-0.78298 -5.158203,-0.0781 -5.158203,-0.0781 l 6.261719,10.41406 c 0,0 5.680221,-0.0623 8.421875,0.56836 12.313008,2.97359 7.89337,7.38187 5.001953,-4.88086 -0.63063,-2.74166 -0.570313,-8.41992 -0.570313,-8.41992 z"
           style="opacity:1;fill:none;fill-opacity:1;stroke:#ff0000;stroke-width:0.35433072;stroke-miterlimit:4;stroke-dasharray:none;stroke-opacity:1" />
        <path
           id="path4395"
           d="m 18.202621,124.38031 c 0,0 10.262184,4.66802 14.095022,8.62361 0.64003,0.66053 1.268074,1.48328 1.365132,2.39789 0.127829,1.20458 -0.223358,2.624 -1.095077,3.4651 -0.843054,0.81344 -2.232473,1.13814 -3.386867,0.93862 -1.54817,-0.26757 -2.803339,-1.54412 -3.856187,-2.71028 -3.255402,-3.60577 -7.122023,-12.71494 -7.122023,-12.71494 z"
           style="opacity:1;fill:none;fill-opacity:1;stroke:#ff0000;stroke-width:0.35433072;stroke-miterlimit:4;stroke-dasharray:none;stroke-opacity:1" />
        <path
           style="fill:none;fill-opacity:1;fill-rule:evenodd;stroke:#ff0000;stroke-width:0.35433072;stroke-linecap:butt;stroke-linejoin:miter;stroke-miterlimit:4;stroke-dasharray:none;stroke-opacity:1"
           d="m 82.549782,162.68442 c 0,0 -4.1122,3.70197 -6.69552,4.31711 -3.5168,0.83743 -7.46262,0.28562 -10.78548,-1.13838 -1.77077,-0.75886 -3.23384,-2.21259 -4.40333,-3.74353 -1.39961,-1.83218 -2.47495,-4.00356 -2.93656,-6.26247 -0.52533,-2.5707 0.27796,-7.86658 0.27796,-7.86658 z"
           id="path4397" />
      </g>
      <g
         id="g4399"
         transform="matrix(0,-1,1,0,-106.30495,318.90583)">
        <path
           style="fill:none;fill-rule:evenodd;stroke:#ff0000;stroke-width:0.38976377;stroke-linecap:butt;stroke-linejoin:miter;stroke-miterlimit:4;stroke-dasharray:none;stroke-opacity:1"
           d="m 78.049448,184.37855 c 0,0 0.112797,10.0028 2.715238,13.96842 1.196114,1.82265 2.502477,3.75363 5.393181,3.69975 4.196467,-0.0782 2.424801,-7.16484 2.424801,-7.16484 0,0 7.086627,1.77166 7.086627,-2.73769 0,-2.57727 -1.733242,-4.02208 -3.465088,-5.15852 -4.011124,-2.63211 -14.154759,-2.60712 -14.154759,-2.60712 z"
           id="path4401" />
        <path
           style="fill:none;fill-rule:evenodd;stroke:#ff0000;stroke-width:0.35433072;stroke-linecap:butt;stroke-linejoin:miter;stroke-miterlimit:4;stroke-dasharray:none;stroke-opacity:1"
           d="m 92.087891,168.3457 c 0,0 -5.686362,3.48552 -8.857422,4.375 -3.42491,0.96067 -7.08471,1.21824 -10.63086,0.93946 -2.493708,-0.46405 -5.123647,-1.11054 -7.042967,-1.80283 0.638042,2.34074 1.541968,4.72557 1.765625,7.08008 0.278779,3.54615 0.02318,7.204 -0.9375,10.62891 -0.889475,3.17106 -4.376954,8.85937 -4.376954,8.85937 l 12.402307,1.64239 c 0,0 -1.130809,-5.06827 -1.693322,-8.78106 -0.661081,-4.36338 -1.016734,-13.13224 -1.017578,-13.25 0.117763,8.4e-4 8.888572,0.35454 13.251953,1.01562 3.712792,0.56252 8.857327,1.77154 8.857327,1.77154 z"
           id="path4403" />
        <path
           style="fill:none;fill-opacity:1;fill-rule:evenodd;stroke:#ff0000;stroke-width:0.35433072;stroke-linecap:butt;stroke-linejoin:miter;stroke-miterlimit:4;stroke-dasharray:none;stroke-opacity:1"
           d="m 56.405686,188.82851 c 0,0 3.701971,-4.1122 4.317115,-6.69552 0.837426,-3.5168 0.285623,-7.46262 -1.138381,-10.78548 -0.75886,-1.77077 -2.212593,-3.23384 -3.743533,-4.40333 -1.832176,-1.39961 -4.003558,-2.47495 -6.262469,-2.93656 -2.570703,-0.52533 -7.86658,0.27796 -7.86658,0.27796 z"
           id="path4405" />
        <path
           style="opacity:1;fill:none;fill-opacity:1;stroke:#ff0000;stroke-width:0.35433072;stroke-miterlimit:4;stroke-dasharray:none;stroke-opacity:1"
           d="m 41.171875,121.09375 c 0,0 -0.704855,3.62905 0.07813,5.16016 0.96155,1.88031 4.165628,1.8815 5.080078,3.78515 1.557524,4.1202 -1.313094,6.17897 -4.916018,4.7949 -1.903654,-0.91445 -1.906806,-4.11852 -3.787109,-5.08007 -1.531117,-0.78298 -5.158203,-0.0781 -5.158203,-0.0781 l 6.261719,10.41406 c 0,0 5.680221,-0.0623 8.421875,0.56836 12.313008,2.97359 7.89337,7.38187 5.001953,-4.88086 -0.63063,-2.74166 -0.570313,-8.41992 -0.570313,-8.41992 z"
           transform="translate(-2.1943246,15.522221)"
           id="path4407" />
        <path
           style="opacity:1;fill:none;fill-opacity:1;stroke:#ff0000;stroke-width:0.35433072;stroke-miterlimit:4;stroke-dasharray:none;stroke-opacity:1"
           d="m 18.202621,124.38031 c 0,0 10.262184,4.66802 14.095022,8.62361 0.64003,0.66053 1.268074,1.48328 1.365132,2.39789 0.127829,1.20458 -0.223358,2.624 -1.095077,3.4651 -0.843054,0.81344 -2.232473,1.13814 -3.386867,0.93862 -1.54817,-0.26757 -2.803339,-1.54412 -3.856187,-2.71028 -3.255402,-3.60577 -7.122023,-12.71494 -7.122023,-12.71494 z"
           id="path4409" />
        <path
           id="path4411"
           d="m 82.549782,162.68442 c 0,0 -4.1122,3.70197 -6.69552,4.31711 -3.5168,0.83743 -7.46262,0.28562 -10.78548,-1.13838 -1.77077,-0.75886 -3.23384,-2.21259 -4.40333,-3.74353 -1.39961,-1.83218 -2.47495,-4.00356 -2.93656,-6.26247 -0.52533,-2.5707 0.27796,-7.86658 0.27796,-7.86658 z"
           style="fill:none;fill-opacity:1;fill-rule:evenodd;stroke:#ff0000;stroke-width:0.35433072;stroke-linecap:butt;stroke-linejoin:miter;stroke-miterlimit:4;stroke-dasharray:none;stroke-opacity:1" />
      </g>
    </g>
    <g
       id="g4441">
      <g
         id="g4413"
         transform="translate(0,-88.582688)">
        <path
           style="fill:none;fill-rule:evenodd;stroke:#ff0000;stroke-width:0.38976377;stroke-linecap:butt;stroke-linejoin:miter;stroke-miterlimit:4;stroke-dasharray:none;stroke-opacity:1"
           d="m 78.049448,184.37855 c 0,0 0.112797,10.0028 2.715238,13.96842 1.196114,1.82265 2.502477,3.75363 5.393181,3.69975 4.196467,-0.0782 2.424801,-7.16484 2.424801,-7.16484 0,0 7.086627,1.77166 7.086627,-2.73769 0,-2.57727 -1.733242,-4.02208 -3.465088,-5.15852 -4.011124,-2.63211 -14.154759,-2.60712 -14.154759,-2.60712 z"
           id="path4415" />
        <path
           style="fill:none;fill-rule:evenodd;stroke:#ff0000;stroke-width:0.35433072;stroke-linecap:butt;stroke-linejoin:miter;stroke-miterlimit:4;stroke-dasharray:none;stroke-opacity:1"
           d="m 92.087891,168.3457 c 0,0 -5.686362,3.48552 -8.857422,4.375 -3.42491,0.96067 -7.08471,1.21824 -10.63086,0.93946 -2.493708,-0.46405 -5.123647,-1.11054 -7.042967,-1.80283 0.638042,2.34074 1.541968,4.72557 1.765625,7.08008 0.278779,3.54615 0.02318,7.204 -0.9375,10.62891 -0.889475,3.17106 -4.376954,8.85937 -4.376954,8.85937 l 12.402307,1.64239 c 0,0 -1.130809,-5.06827 -1.693322,-8.78106 -0.661081,-4.36338 -1.016734,-13.13224 -1.017578,-13.25 0.117763,8.4e-4 8.888572,0.35454 13.251953,1.01562 3.712792,0.56252 8.857327,1.77154 8.857327,1.77154 z"
           id="path4417" />
        <path
           style="fill:none;fill-opacity:1;fill-rule:evenodd;stroke:#ff0000;stroke-width:0.35433072;stroke-linecap:butt;stroke-linejoin:miter;stroke-miterlimit:4;stroke-dasharray:none;stroke-opacity:1"
           d="m 56.405686,188.82851 c 0,0 3.701971,-4.1122 4.317115,-6.69552 0.837426,-3.5168 0.285623,-7.46262 -1.138381,-10.78548 -0.75886,-1.77077 -2.212593,-3.23384 -3.743533,-4.40333 -1.832176,-1.39961 -4.003558,-2.47495 -6.262469,-2.93656 -2.570703,-0.52533 -7.86658,0.27796 -7.86658,0.27796 z"
           id="path4419" />
        <path
           style="opacity:1;fill:none;fill-opacity:1;stroke:#ff0000;stroke-width:0.35433072;stroke-miterlimit:4;stroke-dasharray:none;stroke-opacity:1"
           d="m 41.171875,121.09375 c 0,0 -0.704855,3.62905 0.07813,5.16016 0.96155,1.88031 4.165628,1.8815 5.080078,3.78515 1.557524,4.1202 -1.313094,6.17897 -4.916018,4.7949 -1.903654,-0.91445 -1.906806,-4.11852 -3.787109,-5.08007 -1.531117,-0.78298 -5.158203,-0.0781 -5.158203,-0.0781 l 6.261719,10.41406 c 0,0 5.680221,-0.0623 8.421875,0.56836 12.313008,2.97359 7.89337,7.38187 5.001953,-4.88086 -0.63063,-2.74166 -0.570313,-8.41992 -0.570313,-8.41992 z"
           transform="translate(-2.1943246,15.522221)"
           id="path4421" />
        <path
           style="opacity:1;fill:none;fill-opacity:1;stroke:#ff0000;stroke-width:0.35433072;stroke-miterlimit:4;stroke-dasharray:none;stroke-opacity:1"
           d="m 18.202621,124.38031 c 0,0 10.262184,4.66802 14.095022,8.62361 0.64003,0.66053 1.268074,1.48328 1.365132,2.39789 0.127829,1.20458 -0.223358,2.624 -1.095077,3.4651 -0.843054,0.81344 -2.232473,1.13814 -3.386867,0.93862 -1.54817,-0.26757 -2.803339,-1.54412 -3.856187,-2.71028 -3.255402,-3.60577 -7.122023,-12.71494 -7.122023,-12.71494 z"
           id="path4423" />
        <path
           id="path4425"
           d="m 82.549782,162.68442 c 0,0 -4.1122,3.70197 -6.69552,4.31711 -3.5168,0.83743 -7.46262,0.28562 -10.78548,-1.13838 -1.77077,-0.75886 -3.23384,-2.21259 -4.40333,-3.74353 -1.39961,-1.83218 -2.47495,-4.00356 -2.93656,-6.26247 -0.52533,-2.5707 0.27796,-7.86658 0.27796,-7.86658 z"
           style="fill:none;fill-opacity:1;fill-rule:evenodd;stroke:#ff0000;stroke-width:0.35433072;stroke-linecap:butt;stroke-linejoin:miter;stroke-miterlimit:4;stroke-dasharray:none;stroke-opacity:1" />
      </g>
      <g
         transform="matrix(0,1,-1,0,318.90583,17.722262)"
         id="g4427">
        <path
           id="path4429"
           d="m 78.049448,184.37855 c 0,0 0.112797,10.0028 2.715238,13.96842 1.196114,1.82265 2.502477,3.75363 5.393181,3.69975 4.196467,-0.0782 2.424801,-7.16484 2.424801,-7.16484 0,0 7.086627,1.77166 7.086627,-2.73769 0,-2.57727 -1.733242,-4.02208 -3.465088,-5.15852 -4.011124,-2.63211 -14.154759,-2.60712 -14.154759,-2.60712 z"
           style="fill:none;fill-rule:evenodd;stroke:#ff0000;stroke-width:0.38976377;stroke-linecap:butt;stroke-linejoin:miter;stroke-miterlimit:4;stroke-dasharray:none;stroke-opacity:1" />
        <path
           id="path4431"
           d="m 92.087891,168.3457 c 0,0 -5.686362,3.48552 -8.857422,4.375 -3.42491,0.96067 -7.08471,1.21824 -10.63086,0.93946 -2.493708,-0.46405 -5.123647,-1.11054 -7.042967,-1.80283 0.638042,2.34074 1.541968,4.72557 1.765625,7.08008 0.278779,3.54615 0.02318,7.204 -0.9375,10.62891 -0.889475,3.17106 -4.376954,8.85937 -4.376954,8.85937 l 12.402307,1.64239 c 0,0 -1.130809,-5.06827 -1.693322,-8.78106 -0.661081,-4.36338 -1.016734,-13.13224 -1.017578,-13.25 0.117763,8.4e-4 8.888572,0.35454 13.251953,1.01562 3.712792,0.56252 8.857327,1.77154 8.857327,1.77154 z"
           style="fill:none;fill-rule:evenodd;stroke:#ff0000;stroke-width:0.35433072;stroke-linecap:butt;stroke-linejoin:miter;stroke-miterlimit:4;stroke-dasharray:none;stroke-opacity:1" />
        <path
           id="path4433"
           d="m 56.405686,188.82851 c 0,0 3.701971,-4.1122 4.317115,-6.69552 0.837426,-3.5168 0.285623,-7.46262 -1.138381,-10.78548 -0.75886,-1.77077 -2.212593,-3.23384 -3.743533,-4.40333 -1.832176,-1.39961 -4.003558,-2.47495 -6.262469,-2.93656 -2.570703,-0.52533 -7.86658,0.27796 -7.86658,0.27796 z"
           style="fill:none;fill-opacity:1;fill-rule:evenodd;stroke:#ff0000;stroke-width:0.35433072;stroke-linecap:butt;stroke-linejoin:miter;stroke-miterlimit:4;stroke-dasharray:none;stroke-opacity:1" />
        <path
           id="path4435"
           transform="translate(-2.1943246,15.522221)"
           d="m 41.171875,121.09375 c 0,0 -0.704855,3.62905 0.07813,5.16016 0.96155,1.88031 4.165628,1.8815 5.080078,3.78515 1.557524,4.1202 -1.313094,6.17897 -4.916018,4.7949 -1.903654,-0.91445 -1.906806,-4.11852 -3.787109,-5.08007 -1.531117,-0.78298 -5.158203,-0.0781 -5.158203,-0.0781 l 6.261719,10.41406 c 0,0 5.680221,-0.0623 8.421875,0.56836 12.313008,2.97359 7.89337,7.38187 5.001953,-4.88086 -0.63063,-2.74166 -0.570313,-8.41992 -0.570313,-8.41992 z"
           style="opacity:1;fill:none;fill-opacity:1;stroke:#ff0000;stroke-width:0.35433072;stroke-miterlimit:4;stroke-dasharray:none;stroke-opacity:1" />
        <path
           id="path4437"
           d="m 18.202621,124.38031 c 0,0 10.262184,4.66802 14.095022,8.62361 0.64003,0.66053 1.268074,1.48328 1.365132,2.39789 0.127829,1.20458 -0.223358,2.624 -1.095077,3.4651 -0.843054,0.81344 -2.232473,1.13814 -3.386867,0.93862 -1.54817,-0.26757 -2.803339,-1.54412 -3.856187,-2.71028 -3.255402,-3.60577 -7.122023,-12.71494 -7.122023,-12.71494 z"
           style="opacity:1;fill:none;fill-opacity:1;stroke:#ff0000;stroke-width:0.35433072;stroke-miterlimit:4;stroke-dasharray:none;stroke-opacity:1" />
        <path
           style="fill:none;fill-opacity:1;fill-rule:evenodd;stroke:#ff0000;stroke-width:0.35433072;stroke-linecap:butt;stroke-linejoin:miter;stroke-miterlimit:4;stroke-dasharray:none;stroke-opacity:1"
           d="m 82.549782,162.68442 c 0,0 -4.1122,3.70197 -6.69552,4.31711 -3.5168,0.83743 -7.46262,0.28562 -10.78548,-1.13838 -1.77077,-0.75886 -3.23384,-2.21259 -4.40333,-3.74353 -1.39961,-1.83218 -2.47495,-4.00356 -2.93656,-6.26247 -0.52533,-2.5707 0.27796,-7.86658 0.27796,-7.86658 z"
           id="path4439" />
      </g>
    </g>
    <g
       transform="translate(216.14176,0)"
       id="g4487">
      <g
         id="g4489">
        <path
           style="fill:none;fill-rule:evenodd;stroke:#ff0000;stroke-width:0.38976377;stroke-linecap:butt;stroke-linejoin:miter;stroke-miterlimit:4;stroke-dasharray:none;stroke-opacity:1"
           d="m 78.049448,184.37855 c 0,0 0.112797,10.0028 2.715238,13.96842 1.196114,1.82265 2.502477,3.75363 5.393181,3.69975 4.196467,-0.0782 2.424801,-7.16484 2.424801,-7.16484 0,0 7.086627,1.77166 7.086627,-2.73769 0,-2.57727 -1.733242,-4.02208 -3.465088,-5.15852 -4.011124,-2.63211 -14.154759,-2.60712 -14.154759,-2.60712 z"
           id="path4491" />
        <path
           style="fill:none;fill-rule:evenodd;stroke:#ff0000;stroke-width:0.35433072;stroke-linecap:butt;stroke-linejoin:miter;stroke-miterlimit:4;stroke-dasharray:none;stroke-opacity:1"
           d="m 92.087891,168.3457 c 0,0 -5.686362,3.48552 -8.857422,4.375 -3.42491,0.96067 -7.08471,1.21824 -10.63086,0.93946 -2.493708,-0.46405 -5.123647,-1.11054 -7.042967,-1.80283 0.638042,2.34074 1.541968,4.72557 1.765625,7.08008 0.278779,3.54615 0.02318,7.204 -0.9375,10.62891 -0.889475,3.17106 -4.376954,8.85937 -4.376954,8.85937 l 12.402307,1.64239 c 0,0 -1.130809,-5.06827 -1.693322,-8.78106 -0.661081,-4.36338 -1.016734,-13.13224 -1.017578,-13.25 0.117763,8.4e-4 8.888572,0.35454 13.251953,1.01562 3.712792,0.56252 8.857327,1.77154 8.857327,1.77154 z"
           id="path4493" />
        <path
           style="fill:none;fill-opacity:1;fill-rule:evenodd;stroke:#ff0000;stroke-width:0.35433072;stroke-linecap:butt;stroke-linejoin:miter;stroke-miterlimit:4;stroke-dasharray:none;stroke-opacity:1"
           d="m 56.405686,188.82851 c 0,0 3.701971,-4.1122 4.317115,-6.69552 0.837426,-3.5168 0.285623,-7.46262 -1.138381,-10.78548 -0.75886,-1.77077 -2.212593,-3.23384 -3.743533,-4.40333 -1.832176,-1.39961 -4.003558,-2.47495 -6.262469,-2.93656 -2.570703,-0.52533 -7.86658,0.27796 -7.86658,0.27796 z"
           id="path4495" />
        <path
           style="opacity:1;fill:none;fill-opacity:1;stroke:#ff0000;stroke-width:0.35433072;stroke-miterlimit:4;stroke-dasharray:none;stroke-opacity:1"
           d="m 41.171875,121.09375 c 0,0 -0.704855,3.62905 0.07813,5.16016 0.96155,1.88031 4.165628,1.8815 5.080078,3.78515 1.557524,4.1202 -1.313094,6.17897 -4.916018,4.7949 -1.903654,-0.91445 -1.906806,-4.11852 -3.787109,-5.08007 -1.531117,-0.78298 -5.158203,-0.0781 -5.158203,-0.0781 l 6.261719,10.41406 c 0,0 5.680221,-0.0623 8.421875,0.56836 12.313008,2.97359 7.89337,7.38187 5.001953,-4.88086 -0.63063,-2.74166 -0.570313,-8.41992 -0.570313,-8.41992 z"
           transform="translate(-2.1943246,15.522221)"
           id="path4497" />
        <path
           style="opacity:1;fill:none;fill-opacity:1;stroke:#ff0000;stroke-width:0.35433072;stroke-miterlimit:4;stroke-dasharray:none;stroke-opacity:1"
           d="m 18.202621,124.38031 c 0,0 10.262184,4.66802 14.095022,8.62361 0.64003,0.66053 1.268074,1.48328 1.365132,2.39789 0.127829,1.20458 -0.223358,2.624 -1.095077,3.4651 -0.843054,0.81344 -2.232473,1.13814 -3.386867,0.93862 -1.54817,-0.26757 -2.803339,-1.54412 -3.856187,-2.71028 -3.255402,-3.60577 -7.122023,-12.71494 -7.122023,-12.71494 z"
           id="path4499" />
        <path
           id="path4501"
           d="m 82.549782,162.68442 c 0,0 -4.1122,3.70197 -6.69552,4.31711 -3.5168,0.83743 -7.46262,0.28562 -10.78548,-1.13838 -1.77077,-0.75886 -3.23384,-2.21259 -4.40333,-3.74353 -1.39961,-1.83218 -2.47495,-4.00356 -2.93656,-6.26247 -0.52533,-2.5707 0.27796,-7.86658 0.27796,-7.86658 z"
           style="fill:none;fill-opacity:1;fill-rule:evenodd;stroke:#ff0000;stroke-width:0.35433072;stroke-linecap:butt;stroke-linejoin:miter;stroke-miterlimit:4;stroke-dasharray:none;stroke-opacity:1" />
      </g>
      <g
         transform="matrix(0,1,-1,0,318.90583,106.30495)"
         id="g4503">
        <path
           id="path4505"
           d="m 78.049448,184.37855 c 0,0 0.112797,10.0028 2.715238,13.96842 1.196114,1.82265 2.502477,3.75363 5.393181,3.69975 4.196467,-0.0782 2.424801,-7.16484 2.424801,-7.16484 0,0 7.086627,1.77166 7.086627,-2.73769 0,-2.57727 -1.733242,-4.02208 -3.465088,-5.15852 -4.011124,-2.63211 -14.154759,-2.60712 -14.154759,-2.60712 z"
           style="fill:none;fill-rule:evenodd;stroke:#ff0000;stroke-width:0.38976377;stroke-linecap:butt;stroke-linejoin:miter;stroke-miterlimit:4;stroke-dasharray:none;stroke-opacity:1" />
        <path
           id="path4507"
           d="m 92.087891,168.3457 c 0,0 -5.686362,3.48552 -8.857422,4.375 -3.42491,0.96067 -7.08471,1.21824 -10.63086,0.93946 -2.493708,-0.46405 -5.123647,-1.11054 -7.042967,-1.80283 0.638042,2.34074 1.541968,4.72557 1.765625,7.08008 0.278779,3.54615 0.02318,7.204 -0.9375,10.62891 -0.889475,3.17106 -4.376954,8.85937 -4.376954,8.85937 l 12.402307,1.64239 c 0,0 -1.130809,-5.06827 -1.693322,-8.78106 -0.661081,-4.36338 -1.016734,-13.13224 -1.017578,-13.25 0.117763,8.4e-4 8.888572,0.35454 13.251953,1.01562 3.712792,0.56252 8.857327,1.77154 8.857327,1.77154 z"
           style="fill:none;fill-rule:evenodd;stroke:#ff0000;stroke-width:0.35433072;stroke-linecap:butt;stroke-linejoin:miter;stroke-miterlimit:4;stroke-dasharray:none;stroke-opacity:1" />
        <path
           id="path4509"
           d="m 56.405686,188.82851 c 0,0 3.701971,-4.1122 4.317115,-6.69552 0.837426,-3.5168 0.285623,-7.46262 -1.138381,-10.78548 -0.75886,-1.77077 -2.212593,-3.23384 -3.743533,-4.40333 -1.832176,-1.39961 -4.003558,-2.47495 -6.262469,-2.93656 -2.570703,-0.52533 -7.86658,0.27796 -7.86658,0.27796 z"
           style="fill:none;fill-opacity:1;fill-rule:evenodd;stroke:#ff0000;stroke-width:0.35433072;stroke-linecap:butt;stroke-linejoin:miter;stroke-miterlimit:4;stroke-dasharray:none;stroke-opacity:1" />
        <path
           id="path4511"
           transform="translate(-2.1943246,15.522221)"
           d="m 41.171875,121.09375 c 0,0 -0.704855,3.62905 0.07813,5.16016 0.96155,1.88031 4.165628,1.8815 5.080078,3.78515 1.557524,4.1202 -1.313094,6.17897 -4.916018,4.7949 -1.903654,-0.91445 -1.906806,-4.11852 -3.787109,-5.08007 -1.531117,-0.78298 -5.158203,-0.0781 -5.158203,-0.0781 l 6.261719,10.41406 c 0,0 5.680221,-0.0623 8.421875,0.56836 12.313008,2.97359 7.89337,7.38187 5.001953,-4.88086 -0.63063,-2.74166 -0.570313,-8.41992 -0.570313,-8.41992 z"
           style="opacity:1;fill:none;fill-opacity:1;stroke:#ff0000;stroke-width:0.35433072;stroke-miterlimit:4;stroke-dasharray:none;stroke-opacity:1" />
        <path
           id="path4513"
           d="m 18.202621,124.38031 c 0,0 10.262184,4.66802 14.095022,8.62361 0.64003,0.66053 1.268074,1.48328 1.365132,2.39789 0.127829,1.20458 -0.223358,2.624 -1.095077,3.4651 -0.843054,0.81344 -2.232473,1.13814 -3.386867,0.93862 -1.54817,-0.26757 -2.803339,-1.54412 -3.856187,-2.71028 -3.255402,-3.60577 -7.122023,-12.71494 -7.122023,-12.71494 z"
           style="opacity:1;fill:none;fill-opacity:1;stroke:#ff0000;stroke-width:0.35433072;stroke-miterlimit:4;stroke-dasharray:none;stroke-opacity:1" />
        <path
           style="fill:none;fill-opacity:1;fill-rule:evenodd;stroke:#ff0000;stroke-width:0.35433072;stroke-linecap:butt;stroke-linejoin:miter;stroke-miterlimit:4;stroke-dasharray:none;stroke-opacity:1"
           d="m 82.549782,162.68442 c 0,0 -4.1122,3.70197 -6.69552,4.31711 -3.5168,0.83743 -7.46262,0.28562 -10.78548,-1.13838 -1.77077,-0.75886 -3.23384,-2.21259 -4.40333,-3.74353 -1.39961,-1.83218 -2.47495,-4.00356 -2.93656,-6.26247 -0.52533,-2.5707 0.27796,-7.86658 0.27796,-7.86658 z"
           id="path4515" />
      </g>
      <g
         id="g4517"
         transform="matrix(-1,0,0,-1,212.60088,425.21078)">
        <path
           style="fill:none;fill-rule:evenodd;stroke:#ff0000;stroke-width:0.38976377;stroke-linecap:butt;stroke-linejoin:miter;stroke-miterlimit:4;stroke-dasharray:none;stroke-opacity:1"
           d="m 78.049448,184.37855 c 0,0 0.112797,10.0028 2.715238,13.96842 1.196114,1.82265 2.502477,3.75363 5.393181,3.69975 4.196467,-0.0782 2.424801,-7.16484 2.424801,-7.16484 0,0 7.086627,1.77166 7.086627,-2.73769 0,-2.57727 -1.733242,-4.02208 -3.465088,-5.15852 -4.011124,-2.63211 -14.154759,-2.60712 -14.154759,-2.60712 z"
           id="path4519" />
        <path
           style="fill:none;fill-rule:evenodd;stroke:#ff0000;stroke-width:0.35433072;stroke-linecap:butt;stroke-linejoin:miter;stroke-miterlimit:4;stroke-dasharray:none;stroke-opacity:1"
           d="m 92.087891,168.3457 c 0,0 -5.686362,3.48552 -8.857422,4.375 -3.42491,0.96067 -7.08471,1.21824 -10.63086,0.93946 -2.493708,-0.46405 -5.123647,-1.11054 -7.042967,-1.80283 0.638042,2.34074 1.541968,4.72557 1.765625,7.08008 0.278779,3.54615 0.02318,7.204 -0.9375,10.62891 -0.889475,3.17106 -4.376954,8.85937 -4.376954,8.85937 l 12.402307,1.64239 c 0,0 -1.130809,-5.06827 -1.693322,-8.78106 -0.661081,-4.36338 -1.016734,-13.13224 -1.017578,-13.25 0.117763,8.4e-4 8.888572,0.35454 13.251953,1.01562 3.712792,0.56252 8.857327,1.77154 8.857327,1.77154 z"
           id="path4521" />
        <path
           style="fill:none;fill-opacity:1;fill-rule:evenodd;stroke:#ff0000;stroke-width:0.35433072;stroke-linecap:butt;stroke-linejoin:miter;stroke-miterlimit:4;stroke-dasharray:none;stroke-opacity:1"
           d="m 56.405686,188.82851 c 0,0 3.701971,-4.1122 4.317115,-6.69552 0.837426,-3.5168 0.285623,-7.46262 -1.138381,-10.78548 -0.75886,-1.77077 -2.212593,-3.23384 -3.743533,-4.40333 -1.832176,-1.39961 -4.003558,-2.47495 -6.262469,-2.93656 -2.570703,-0.52533 -7.86658,0.27796 -7.86658,0.27796 z"
           id="path4523" />
        <path
           style="opacity:1;fill:none;fill-opacity:1;stroke:#ff0000;stroke-width:0.35433072;stroke-miterlimit:4;stroke-dasharray:none;stroke-opacity:1"
           d="m 41.171875,121.09375 c 0,0 -0.704855,3.62905 0.07813,5.16016 0.96155,1.88031 4.165628,1.8815 5.080078,3.78515 1.557524,4.1202 -1.313094,6.17897 -4.916018,4.7949 -1.903654,-0.91445 -1.906806,-4.11852 -3.787109,-5.08007 -1.531117,-0.78298 -5.158203,-0.0781 -5.158203,-0.0781 l 6.261719,10.41406 c 0,0 5.680221,-0.0623 8.421875,0.56836 12.313008,2.97359 7.89337,7.38187 5.001953,-4.88086 -0.63063,-2.74166 -0.570313,-8.41992 -0.570313,-8.41992 z"
           transform="translate(-2.1943246,15.522221)"
           id="path4525" />
        <path
           style="opacity:1;fill:none;fill-opacity:1;stroke:#ff0000;stroke-width:0.35433072;stroke-miterlimit:4;stroke-dasharray:none;stroke-opacity:1"
           d="m 18.202621,124.38031 c 0,0 10.262184,4.66802 14.095022,8.62361 0.64003,0.66053 1.268074,1.48328 1.365132,2.39789 0.127829,1.20458 -0.223358,2.624 -1.095077,3.4651 -0.843054,0.81344 -2.232473,1.13814 -3.386867,0.93862 -1.54817,-0.26757 -2.803339,-1.54412 -3.856187,-2.71028 -3.255402,-3.60577 -7.122023,-12.71494 -7.122023,-12.71494 z"
           id="path4527" />
        <path
           id="path4529"
           d="m 82.549782,162.68442 c 0,0 -4.1122,3.70197 -6.69552,4.31711 -3.5168,0.83743 -7.46262,0.28562 -10.78548,-1.13838 -1.77077,-0.75886 -3.23384,-2.21259 -4.40333,-3.74353 -1.39961,-1.83218 -2.47495,-4.00356 -2.93656,-6.26247 -0.52533,-2.5707 0.27796,-7.86658 0.27796,-7.86658 z"
           style="fill:none;fill-opacity:1;fill-rule:evenodd;stroke:#ff0000;stroke-width:0.35433072;stroke-linecap:butt;stroke-linejoin:miter;stroke-miterlimit:4;stroke-dasharray:none;stroke-opacity:1" />
      </g>
      <g
         transform="matrix(0,-1,1,0,-106.30495,318.90583)"
         id="g4531">
        <path
           id="path4533"
           d="m 78.049448,184.37855 c 0,0 0.112797,10.0028 2.715238,13.96842 1.196114,1.82265 2.502477,3.75363 5.393181,3.69975 4.196467,-0.0782 2.424801,-7.16484 2.424801,-7.16484 0,0 7.086627,1.77166 7.086627,-2.73769 0,-2.57727 -1.733242,-4.02208 -3.465088,-5.15852 -4.011124,-2.63211 -14.154759,-2.60712 -14.154759,-2.60712 z"
           style="fill:none;fill-rule:evenodd;stroke:#ff0000;stroke-width:0.38976377;stroke-linecap:butt;stroke-linejoin:miter;stroke-miterlimit:4;stroke-dasharray:none;stroke-opacity:1" />
        <path
           id="path4535"
           d="m 92.087891,168.3457 c 0,0 -5.686362,3.48552 -8.857422,4.375 -3.42491,0.96067 -7.08471,1.21824 -10.63086,0.93946 -2.493708,-0.46405 -5.123647,-1.11054 -7.042967,-1.80283 0.638042,2.34074 1.541968,4.72557 1.765625,7.08008 0.278779,3.54615 0.02318,7.204 -0.9375,10.62891 -0.889475,3.17106 -4.376954,8.85937 -4.376954,8.85937 l 12.402307,1.64239 c 0,0 -1.130809,-5.06827 -1.693322,-8.78106 -0.661081,-4.36338 -1.016734,-13.13224 -1.017578,-13.25 0.117763,8.4e-4 8.888572,0.35454 13.251953,1.01562 3.712792,0.56252 8.857327,1.77154 8.857327,1.77154 z"
           style="fill:none;fill-rule:evenodd;stroke:#ff0000;stroke-width:0.35433072;stroke-linecap:butt;stroke-linejoin:miter;stroke-miterlimit:4;stroke-dasharray:none;stroke-opacity:1" />
        <path
           id="path4537"
           d="m 56.405686,188.82851 c 0,0 3.701971,-4.1122 4.317115,-6.69552 0.837426,-3.5168 0.285623,-7.46262 -1.138381,-10.78548 -0.75886,-1.77077 -2.212593,-3.23384 -3.743533,-4.40333 -1.832176,-1.39961 -4.003558,-2.47495 -6.262469,-2.93656 -2.570703,-0.52533 -7.86658,0.27796 -7.86658,0.27796 z"
           style="fill:none;fill-opacity:1;fill-rule:evenodd;stroke:#ff0000;stroke-width:0.35433072;stroke-linecap:butt;stroke-linejoin:miter;stroke-miterlimit:4;stroke-dasharray:none;stroke-opacity:1" />
        <path
           id="path4539"
           transform="translate(-2.1943246,15.522221)"
           d="m 41.171875,121.09375 c 0,0 -0.704855,3.62905 0.07813,5.16016 0.96155,1.88031 4.165628,1.8815 5.080078,3.78515 1.557524,4.1202 -1.313094,6.17897 -4.916018,4.7949 -1.903654,-0.91445 -1.906806,-4.11852 -3.787109,-5.08007 -1.531117,-0.78298 -5.158203,-0.0781 -5.158203,-0.0781 l 6.261719,10.41406 c 0,0 5.680221,-0.0623 8.421875,0.56836 12.313008,2.97359 7.89337,7.38187 5.001953,-4.88086 -0.63063,-2.74166 -0.570313,-8.41992 -0.570313,-8.41992 z"
           style="opacity:1;fill:none;fill-opacity:1;stroke:#ff0000;stroke-width:0.35433072;stroke-miterlimit:4;stroke-dasharray:none;stroke-opacity:1" />
        <path
           id="path4541"
           d="m 18.202621,124.38031 c 0,0 10.262184,4.66802 14.095022,8.62361 0.64003,0.66053 1.268074,1.48328 1.365132,2.39789 0.127829,1.20458 -0.223358,2.624 -1.095077,3.4651 -0.843054,0.81344 -2.232473,1.13814 -3.386867,0.93862 -1.54817,-0.26757 -2.803339,-1.54412 -3.856187,-2.71028 -3.255402,-3.60577 -7.122023,-12.71494 -7.122023,-12.71494 z"
           style="opacity:1;fill:none;fill-opacity:1;stroke:#ff0000;stroke-width:0.35433072;stroke-miterlimit:4;stroke-dasharray:none;stroke-opacity:1" />
        <path
           style="fill:none;fill-opacity:1;fill-rule:evenodd;stroke:#ff0000;stroke-width:0.35433072;stroke-linecap:butt;stroke-linejoin:miter;stroke-miterlimit:4;stroke-dasharray:none;stroke-opacity:1"
           d="m 82.549782,162.68442 c 0,0 -4.1122,3.70197 -6.69552,4.31711 -3.5168,0.83743 -7.46262,0.28562 -10.78548,-1.13838 -1.77077,-0.75886 -3.23384,-2.21259 -4.40333,-3.74353 -1.39961,-1.83218 -2.47495,-4.00356 -2.93656,-6.26247 -0.52533,-2.5707 0.27796,-7.86658 0.27796,-7.86658 z"
           id="path4543" />
      </g>
    </g>
    <g
       transform="translate(216.14176,0)"
       id="g4545">
      <g
         transform="translate(0,-88.582688)"
         id="g4547">
        <path
           id="path4549"
           d="m 78.049448,184.37855 c 0,0 0.112797,10.0028 2.715238,13.96842 1.196114,1.82265 2.502477,3.75363 5.393181,3.69975 4.196467,-0.0782 2.424801,-7.16484 2.424801,-7.16484 0,0 7.086627,1.77166 7.086627,-2.73769 0,-2.57727 -1.733242,-4.02208 -3.465088,-5.15852 -4.011124,-2.63211 -14.154759,-2.60712 -14.154759,-2.60712 z"
           style="fill:none;fill-rule:evenodd;stroke:#ff0000;stroke-width:0.38976377;stroke-linecap:butt;stroke-linejoin:miter;stroke-miterlimit:4;stroke-dasharray:none;stroke-opacity:1" />
        <path
           id="path4551"
           d="m 92.087891,168.3457 c 0,0 -5.686362,3.48552 -8.857422,4.375 -3.42491,0.96067 -7.08471,1.21824 -10.63086,0.93946 -2.493708,-0.46405 -5.123647,-1.11054 -7.042967,-1.80283 0.638042,2.34074 1.541968,4.72557 1.765625,7.08008 0.278779,3.54615 0.02318,7.204 -0.9375,10.62891 -0.889475,3.17106 -4.376954,8.85937 -4.376954,8.85937 l 12.402307,1.64239 c 0,0 -1.130809,-5.06827 -1.693322,-8.78106 -0.661081,-4.36338 -1.016734,-13.13224 -1.017578,-13.25 0.117763,8.4e-4 8.888572,0.35454 13.251953,1.01562 3.712792,0.56252 8.857327,1.77154 8.857327,1.77154 z"
           style="fill:none;fill-rule:evenodd;stroke:#ff0000;stroke-width:0.35433072;stroke-linecap:butt;stroke-linejoin:miter;stroke-miterlimit:4;stroke-dasharray:none;stroke-opacity:1" />
        <path
           id="path4553"
           d="m 56.405686,188.82851 c 0,0 3.701971,-4.1122 4.317115,-6.69552 0.837426,-3.5168 0.285623,-7.46262 -1.138381,-10.78548 -0.75886,-1.77077 -2.212593,-3.23384 -3.743533,-4.40333 -1.832176,-1.39961 -4.003558,-2.47495 -6.262469,-2.93656 -2.570703,-0.52533 -7.86658,0.27796 -7.86658,0.27796 z"
           style="fill:none;fill-opacity:1;fill-rule:evenodd;stroke:#ff0000;stroke-width:0.35433072;stroke-linecap:butt;stroke-linejoin:miter;stroke-miterlimit:4;stroke-dasharray:none;stroke-opacity:1" />
        <path
           id="path4555"
           transform="translate(-2.1943246,15.522221)"
           d="m 41.171875,121.09375 c 0,0 -0.704855,3.62905 0.07813,5.16016 0.96155,1.88031 4.165628,1.8815 5.080078,3.78515 1.557524,4.1202 -1.313094,6.17897 -4.916018,4.7949 -1.903654,-0.91445 -1.906806,-4.11852 -3.787109,-5.08007 -1.531117,-0.78298 -5.158203,-0.0781 -5.158203,-0.0781 l 6.261719,10.41406 c 0,0 5.680221,-0.0623 8.421875,0.56836 12.313008,2.97359 7.89337,7.38187 5.001953,-4.88086 -0.63063,-2.74166 -0.570313,-8.41992 -0.570313,-8.41992 z"
           style="opacity:1;fill:none;fill-opacity:1;stroke:#ff0000;stroke-width:0.35433072;stroke-miterlimit:4;stroke-dasharray:none;stroke-opacity:1" />
        <path
           id="path4557"
           d="m 18.202621,124.38031 c 0,0 10.262184,4.66802 14.095022,8.62361 0.64003,0.66053 1.268074,1.48328 1.365132,2.39789 0.127829,1.20458 -0.223358,2.624 -1.095077,3.4651 -0.843054,0.81344 -2.232473,1.13814 -3.386867,0.93862 -1.54817,-0.26757 -2.803339,-1.54412 -3.856187,-2.71028 -3.255402,-3.60577 -7.122023,-12.71494 -7.122023,-12.71494 z"
           style="opacity:1;fill:none;fill-opacity:1;stroke:#ff0000;stroke-width:0.35433072;stroke-miterlimit:4;stroke-dasharray:none;stroke-opacity:1" />
        <path
           style="fill:none;fill-opacity:1;fill-rule:evenodd;stroke:#ff0000;stroke-width:0.35433072;stroke-linecap:butt;stroke-linejoin:miter;stroke-miterlimit:4;stroke-dasharray:none;stroke-opacity:1"
           d="m 82.549782,162.68442 c 0,0 -4.1122,3.70197 -6.69552,4.31711 -3.5168,0.83743 -7.46262,0.28562 -10.78548,-1.13838 -1.77077,-0.75886 -3.23384,-2.21259 -4.40333,-3.74353 -1.39961,-1.83218 -2.47495,-4.00356 -2.93656,-6.26247 -0.52533,-2.5707 0.27796,-7.86658 0.27796,-7.86658 z"
           id="path4559" />
      </g>
      <g
         id="g4561"
         transform="matrix(0,1,-1,0,318.90583,17.722262)">
        <path
           style="fill:none;fill-rule:evenodd;stroke:#ff0000;stroke-width:0.38976377;stroke-linecap:butt;stroke-linejoin:miter;stroke-miterlimit:4;stroke-dasharray:none;stroke-opacity:1"
           d="m 78.049448,184.37855 c 0,0 0.112797,10.0028 2.715238,13.96842 1.196114,1.82265 2.502477,3.75363 5.393181,3.69975 4.196467,-0.0782 2.424801,-7.16484 2.424801,-7.16484 0,0 7.086627,1.77166 7.086627,-2.73769 0,-2.57727 -1.733242,-4.02208 -3.465088,-5.15852 -4.011124,-2.63211 -14.154759,-2.60712 -14.154759,-2.60712 z"
           id="path4563" />
        <path
           style="fill:none;fill-rule:evenodd;stroke:#ff0000;stroke-width:0.35433072;stroke-linecap:butt;stroke-linejoin:miter;stroke-miterlimit:4;stroke-dasharray:none;stroke-opacity:1"
           d="m 92.087891,168.3457 c 0,0 -5.686362,3.48552 -8.857422,4.375 -3.42491,0.96067 -7.08471,1.21824 -10.63086,0.93946 -2.493708,-0.46405 -5.123647,-1.11054 -7.042967,-1.80283 0.638042,2.34074 1.541968,4.72557 1.765625,7.08008 0.278779,3.54615 0.02318,7.204 -0.9375,10.62891 -0.889475,3.17106 -4.376954,8.85937 -4.376954,8.85937 l 12.402307,1.64239 c 0,0 -1.130809,-5.06827 -1.693322,-8.78106 -0.661081,-4.36338 -1.016734,-13.13224 -1.017578,-13.25 0.117763,8.4e-4 8.888572,0.35454 13.251953,1.01562 3.712792,0.56252 8.857327,1.77154 8.857327,1.77154 z"
           id="path4565" />
        <path
           style="fill:none;fill-opacity:1;fill-rule:evenodd;stroke:#ff0000;stroke-width:0.35433072;stroke-linecap:butt;stroke-linejoin:miter;stroke-miterlimit:4;stroke-dasharray:none;stroke-opacity:1"
           d="m 56.405686,188.82851 c 0,0 3.701971,-4.1122 4.317115,-6.69552 0.837426,-3.5168 0.285623,-7.46262 -1.138381,-10.78548 -0.75886,-1.77077 -2.212593,-3.23384 -3.743533,-4.40333 -1.832176,-1.39961 -4.003558,-2.47495 -6.262469,-2.93656 -2.570703,-0.52533 -7.86658,0.27796 -7.86658,0.27796 z"
           id="path4567" />
        <path
           style="opacity:1;fill:none;fill-opacity:1;stroke:#ff0000;stroke-width:0.35433072;stroke-miterlimit:4;stroke-dasharray:none;stroke-opacity:1"
           d="m 41.171875,121.09375 c 0,0 -0.704855,3.62905 0.07813,5.16016 0.96155,1.88031 4.165628,1.8815 5.080078,3.78515 1.557524,4.1202 -1.313094,6.17897 -4.916018,4.7949 -1.903654,-0.91445 -1.906806,-4.11852 -3.787109,-5.08007 -1.531117,-0.78298 -5.158203,-0.0781 -5.158203,-0.0781 l 6.261719,10.41406 c 0,0 5.680221,-0.0623 8.421875,0.56836 12.313008,2.97359 7.89337,7.38187 5.001953,-4.88086 -0.63063,-2.74166 -0.570313,-8.41992 -0.570313,-8.41992 z"
           transform="translate(-2.1943246,15.522221)"
           id="path4569" />
        <path
           style="opacity:1;fill:none;fill-opacity:1;stroke:#ff0000;stroke-width:0.35433072;stroke-miterlimit:4;stroke-dasharray:none;stroke-opacity:1"
           d="m 18.202621,124.38031 c 0,0 10.262184,4.66802 14.095022,8.62361 0.64003,0.66053 1.268074,1.48328 1.365132,2.39789 0.127829,1.20458 -0.223358,2.624 -1.095077,3.4651 -0.843054,0.81344 -2.232473,1.13814 -3.386867,0.93862 -1.54817,-0.26757 -2.803339,-1.54412 -3.856187,-2.71028 -3.255402,-3.60577 -7.122023,-12.71494 -7.122023,-12.71494 z"
           id="path4571" />
        <path
           id="path4573"
           d="m 82.549782,162.68442 c 0,0 -4.1122,3.70197 -6.69552,4.31711 -3.5168,0.83743 -7.46262,0.28562 -10.78548,-1.13838 -1.77077,-0.75886 -3.23384,-2.21259 -4.40333,-3.74353 -1.39961,-1.83218 -2.47495,-4.00356 -2.93656,-6.26247 -0.52533,-2.5707 0.27796,-7.86658 0.27796,-7.86658 z"
           style="fill:none;fill-opacity:1;fill-rule:evenodd;stroke:#ff0000;stroke-width:0.35433072;stroke-linecap:butt;stroke-linejoin:miter;stroke-miterlimit:4;stroke-dasharray:none;stroke-opacity:1" />
      </g>
    </g>
  </g>
</svg>
