<?xml version="1.0" encoding="iso-8859-1"?>
<!-- Generator: Adobe Illustrator 21.0.0, SVG Export Plug-In . SVG Version: 6.00 Build 0)  -->
<svg version="1.1" id="Ebene_1" xmlns="http://www.w3.org/2000/svg" xmlns:xlink="http://www.w3.org/1999/xlink" x="0px" y="0px"
	 viewBox="0 0 1417.32 1417.32" style="enable-background:new 0 0 1417.32 1417.32;" xml:space="preserve">
<g>
	<circle style="fill:none;stroke:#1D1D1B;stroke-miterlimit:10;" cx="-236.109" cy="-289.365" r="113.386"/>
	<path style="fill:none;stroke:#1D1D1B;stroke-miterlimit:10;" d="M-231.857-394.247h-8.504v-15.022
		c0-1.097,0.889-1.986,1.986-1.986h4.533c1.097,0,1.986,0.889,1.986,1.986V-394.247z"/>
	<path style="fill:none;stroke:#1D1D1B;stroke-miterlimit:10;" d="M-255.302-392.563l-8.291,1.892l-3.343-14.646
		c-0.244-1.069,0.425-2.134,1.494-2.378l4.419-1.009c1.069-0.244,2.134,0.425,2.378,1.494L-255.302-392.563z"/>
	<path style="fill:none;stroke:#1D1D1B;stroke-miterlimit:10;" d="M-277.784-385.705l-7.662,3.69l-6.518-13.535
		c-0.476-0.988-0.061-2.175,0.927-2.65l4.084-1.967c0.988-0.476,2.175-0.061,2.651,0.927L-277.784-385.705z"/>
	<path style="fill:none;stroke:#1D1D1B;stroke-miterlimit:10;" d="M-298.177-374.016l-6.649,5.302l-9.366-11.745
		c-0.684-0.857-0.543-2.107,0.314-2.79l3.544-2.826c0.857-0.684,2.107-0.543,2.79,0.314L-298.177-374.016z"/>
	<path style="fill:none;stroke:#1D1D1B;stroke-miterlimit:10;" d="M-315.458-358.082l-5.302,6.649l-11.745-9.366
		c-0.857-0.684-0.998-1.933-0.314-2.79l2.826-3.544c0.684-0.857,1.933-0.998,2.79-0.314L-315.458-358.082z"/>
	<path style="fill:none;stroke:#1D1D1B;stroke-miterlimit:10;" d="M-328.759-338.702l-3.69,7.662l-13.535-6.518
		c-0.988-0.476-1.403-1.662-0.927-2.65l1.967-4.084c0.476-0.988,1.662-1.403,2.651-0.927L-328.759-338.702z"/>
	<path style="fill:none;stroke:#1D1D1B;stroke-miterlimit:10;" d="M-337.415-316.849l-1.892,8.291l-14.646-3.343
		c-1.069-0.244-1.738-1.309-1.494-2.378l1.009-4.419c0.244-1.069,1.309-1.738,2.378-1.494L-337.415-316.849z"/>
	<path style="fill:none;stroke:#1D1D1B;stroke-miterlimit:10;" d="M-340.991-293.617v8.504h-15.022
		c-1.097,0-1.986-0.889-1.986-1.986v-4.533c0-1.097,0.889-1.986,1.986-1.986H-340.991z"/>
	<path style="fill:none;stroke:#1D1D1B;stroke-miterlimit:10;" d="M-339.307-270.172l1.892,8.291l-14.646,3.343
		c-1.069,0.244-2.134-0.425-2.378-1.494l-1.009-4.419c-0.244-1.069,0.425-2.134,1.494-2.378L-339.307-270.172z"/>
	<path style="fill:none;stroke:#1D1D1B;stroke-miterlimit:10;" d="M-332.449-247.689l3.69,7.662l-13.535,6.518
		c-0.988,0.476-2.175,0.061-2.651-0.927l-1.967-4.084c-0.476-0.988-0.061-2.175,0.927-2.65L-332.449-247.689z"/>
	<path style="fill:none;stroke:#1D1D1B;stroke-miterlimit:10;" d="M-320.76-227.297l5.302,6.649l-11.745,9.366
		c-0.857,0.684-2.107,0.543-2.79-0.314l-2.826-3.544c-0.684-0.857-0.543-2.107,0.314-2.79L-320.76-227.297z"/>
	<path style="fill:none;stroke:#1D1D1B;stroke-miterlimit:10;" d="M-304.826-210.016l6.649,5.302l-9.366,11.745
		c-0.684,0.857-1.933,0.998-2.79,0.314l-3.544-2.826c-0.857-0.684-0.998-1.933-0.314-2.79L-304.826-210.016z"/>
	<path style="fill:none;stroke:#1D1D1B;stroke-miterlimit:10;" d="M-285.446-196.715l7.662,3.69l-6.518,13.535
		c-0.476,0.988-1.662,1.403-2.651,0.927l-4.084-1.967c-0.988-0.476-1.403-1.662-0.927-2.65L-285.446-196.715z"/>
	<path style="fill:none;stroke:#1D1D1B;stroke-miterlimit:10;" d="M-263.593-188.059l8.291,1.892l-3.343,14.646
		c-0.244,1.069-1.309,1.738-2.378,1.494l-4.419-1.009c-1.069-0.244-1.738-1.309-1.494-2.378L-263.593-188.059z"/>
	<path style="fill:none;stroke:#1D1D1B;stroke-miterlimit:10;" d="M-240.361-184.483h8.504v15.022c0,1.097-0.889,1.986-1.986,1.986
		h-4.533c-1.097,0-1.986-0.889-1.986-1.986V-184.483z"/>
	<path style="fill:none;stroke:#1D1D1B;stroke-miterlimit:10;" d="M-216.916-186.167l8.291-1.892l3.343,14.646
		c0.244,1.069-0.425,2.134-1.494,2.378l-4.419,1.009c-1.069,0.244-2.134-0.425-2.378-1.494L-216.916-186.167z"/>
	<path style="fill:none;stroke:#1D1D1B;stroke-miterlimit:10;" d="M-194.433-193.025l7.662-3.69l6.518,13.535
		c0.476,0.988,0.061,2.175-0.927,2.65l-4.084,1.967c-0.988,0.476-2.175,0.061-2.65-0.927L-194.433-193.025z"/>
	<path style="fill:none;stroke:#1D1D1B;stroke-miterlimit:10;" d="M-174.04-204.714l6.649-5.302l9.366,11.745
		c0.684,0.857,0.543,2.107-0.314,2.79l-3.544,2.826c-0.857,0.684-2.107,0.543-2.79-0.314L-174.04-204.714z"/>
	<path style="fill:none;stroke:#1D1D1B;stroke-miterlimit:10;" d="M-156.76-220.648l5.302-6.649l11.745,9.366
		c0.857,0.684,0.998,1.933,0.314,2.79l-2.826,3.544c-0.684,0.857-1.933,0.998-2.79,0.314L-156.76-220.648z"/>
	<path style="fill:none;stroke:#1D1D1B;stroke-miterlimit:10;" d="M-143.458-240.028l3.69-7.662l13.535,6.518
		c0.988,0.476,1.403,1.662,0.927,2.65l-1.967,4.084c-0.476,0.988-1.662,1.403-2.65,0.927L-143.458-240.028z"/>
	<path style="fill:none;stroke:#1D1D1B;stroke-miterlimit:10;" d="M-134.803-261.881l1.892-8.291l14.646,3.343
		c1.069,0.244,1.738,1.309,1.494,2.378l-1.009,4.419c-0.244,1.069-1.309,1.738-2.378,1.494L-134.803-261.881z"/>
	<path style="fill:none;stroke:#1D1D1B;stroke-miterlimit:10;" d="M-131.227-285.113v-8.504h15.022c1.097,0,1.986,0.889,1.986,1.986
		v4.533c0,1.097-0.889,1.986-1.986,1.986H-131.227z"/>
	<path style="fill:none;stroke:#1D1D1B;stroke-miterlimit:10;" d="M-132.91-308.558l-1.892-8.291l14.646-3.343
		c1.069-0.244,2.134,0.425,2.378,1.494l1.009,4.419c0.244,1.069-0.425,2.134-1.494,2.378L-132.91-308.558z"/>
	<path style="fill:none;stroke:#1D1D1B;stroke-miterlimit:10;" d="M-139.769-331.041l-3.69-7.662l13.535-6.518
		c0.988-0.476,2.175-0.061,2.65,0.927l1.967,4.084c0.476,0.988,0.061,2.175-0.927,2.65L-139.769-331.041z"/>
	<path style="fill:none;stroke:#1D1D1B;stroke-miterlimit:10;" d="M-151.458-351.434l-5.302-6.649l11.745-9.366
		c0.857-0.684,2.107-0.543,2.79,0.314l2.826,3.544c0.684,0.857,0.543,2.107-0.314,2.79L-151.458-351.434z"/>
	<path style="fill:none;stroke:#1D1D1B;stroke-miterlimit:10;" d="M-167.392-368.714l-6.649-5.302l9.366-11.745
		c0.684-0.857,1.933-0.998,2.79-0.314l3.544,2.826c0.857,0.684,0.998,1.933,0.314,2.79L-167.392-368.714z"/>
	<path style="fill:none;stroke:#1D1D1B;stroke-miterlimit:10;" d="M-186.771-382.016l-7.662-3.69l6.518-13.535
		c0.476-0.988,1.662-1.403,2.65-0.927l4.084,1.967c0.988,0.476,1.403,1.662,0.927,2.65L-186.771-382.016z"/>
	<path style="fill:none;stroke:#1D1D1B;stroke-miterlimit:10;" d="M-208.625-390.671l-8.291-1.892l3.343-14.646
		c0.244-1.069,1.309-1.738,2.378-1.494l4.419,1.009c1.069,0.244,1.738,1.309,1.494,2.378L-208.625-390.671z"/>
</g>
<path style="fill:none;stroke:#000000;stroke-miterlimit:10;" d="M489.963,117.638h-6.606c-0.211-5.725-0.846-11.341-1.875-16.818
	l6.421-1.465c1.069-0.244,1.738-1.309,1.494-2.378l-1.009-4.419c-0.244-1.069-1.309-1.738-2.378-1.494l-6.413,1.464
	c-1.471-5.502-3.346-10.838-5.59-15.977l5.926-2.854c0.988-0.476,1.403-1.662,0.927-2.65l-1.967-4.084
	c-0.476-0.988-1.662-1.403-2.65-0.927l-5.932,2.857c-2.653-5.008-5.669-9.795-9.015-14.323l5.157-4.113
	c0.857-0.684,0.998-1.933,0.314-2.79l-2.826-3.544c-0.684-0.857-1.933-0.998-2.79-0.314l-5.16,4.115
	c-3.686-4.279-7.687-8.279-11.965-11.965l4.115-5.16c0.684-0.857,0.543-2.107-0.314-2.79l-3.544-2.826
	c-0.857-0.684-2.107-0.543-2.79,0.314l-4.113,5.157c-4.528-3.347-9.314-6.362-14.323-9.015l2.857-5.932
	c0.476-0.988,0.061-2.175-0.927-2.651l-4.084-1.967c-0.988-0.476-2.175-0.061-2.651,0.927l-2.854,5.926
	c-5.139-2.245-10.475-4.119-15.977-5.59l1.464-6.413c0.244-1.069-0.425-2.134-1.494-2.378l-4.419-1.009
	c-1.069-0.244-2.134,0.425-2.378,1.494l-1.465,6.421c-5.478-1.029-11.094-1.664-16.818-1.875V1.986c0-1.097-0.889-1.986-1.986-1.986
	h-4.533c-1.097,0-1.986,0.889-1.986,1.986v6.606c-5.725,0.211-11.341,0.846-16.818,1.875l-1.465-6.421
	c-0.244-1.069-1.309-1.738-2.378-1.494l-4.419,1.009c-1.069,0.244-1.738,1.309-1.494,2.378l1.464,6.413
	c-5.502,1.471-10.838,3.346-15.977,5.59l-2.854-5.926c-0.476-0.988-1.662-1.403-2.65-0.927l-4.084,1.967
	c-0.988,0.476-1.403,1.662-0.927,2.651l2.856,5.932c-5.008,2.653-9.795,5.669-14.323,9.015l-4.113-5.157
	c-0.684-0.857-1.933-0.998-2.79-0.314l-3.544,2.826c-0.857,0.684-0.998,1.933-0.314,2.79l4.115,5.16
	c-4.279,3.686-8.279,7.687-11.965,11.965l-5.16-4.115c-0.857-0.684-2.107-0.543-2.79,0.314l-2.826,3.544
	c-0.684,0.857-0.543,2.107,0.314,2.79l5.157,4.113c-3.347,4.528-6.362,9.314-9.015,14.323l-5.932-2.856
	c-0.988-0.476-2.175-0.061-2.651,0.927l-1.967,4.084c-0.476,0.988-0.061,2.175,0.927,2.65l5.926,2.854
	c-2.245,5.139-4.119,10.475-5.59,15.977l-6.413-1.464c-1.069-0.244-2.134,0.425-2.378,1.494l-1.009,4.419
	c-0.244,1.069,0.425,2.134,1.494,2.378l6.421,1.465c-1.029,5.478-1.664,11.094-1.875,16.818h-6.606
	c-1.097,0-1.986,0.889-1.986,1.986v4.533c0,1.097,0.889,1.986,1.986,1.986h6.606c0.211,5.725,0.846,11.341,1.875,16.818
	l-6.421,1.465c-1.069,0.244-1.738,1.309-1.494,2.378l1.009,4.419c0.244,1.069,1.309,1.738,2.378,1.494l6.413-1.464
	c1.471,5.502,3.346,10.838,5.59,15.977l-5.926,2.854c-0.988,0.476-1.403,1.662-0.927,2.651l1.967,4.084
	c0.476,0.988,1.662,1.403,2.651,0.927l5.932-2.857c2.653,5.008,5.668,9.795,9.015,14.323l-5.157,4.113
	c-0.857,0.684-0.998,1.933-0.314,2.79l2.826,3.544c0.684,0.857,1.933,0.998,2.79,0.314l5.16-4.115
	c3.686,4.279,7.687,8.279,11.965,11.965l-4.115,5.16c-0.684,0.857-0.543,2.107,0.314,2.79l3.544,2.826
	c0.857,0.684,2.107,0.543,2.79-0.314l4.113-5.157c4.528,3.347,9.314,6.362,14.323,9.015l-2.857,5.932
	c-0.476,0.988-0.061,2.175,0.927,2.65l4.084,1.967c0.988,0.476,2.175,0.061,2.65-0.927l2.854-5.926
	c5.139,2.245,10.475,4.119,15.977,5.59l-1.464,6.413c-0.244,1.069,0.425,2.134,1.494,2.378l4.419,1.009
	c1.069,0.244,2.134-0.425,2.378-1.494l1.465-6.421c5.477,1.029,11.094,1.664,16.818,1.875v6.606c0,1.097,0.889,1.986,1.986,1.986
	h4.533c1.097,0,1.986-0.889,1.986-1.986v-6.606c5.725-0.211,11.341-0.846,16.818-1.875l1.465,6.421
	c0.244,1.069,1.309,1.738,2.378,1.494l4.419-1.009c1.069-0.244,1.738-1.309,1.494-2.378l-1.464-6.413
	c5.502-1.471,10.838-3.346,15.977-5.59l2.854,5.926c0.476,0.988,1.662,1.403,2.651,0.927l4.084-1.967
	c0.988-0.476,1.403-1.662,0.927-2.65l-2.857-5.932c5.009-2.653,9.795-5.669,14.323-9.015l4.113,5.157
	c0.684,0.857,1.933,0.998,2.79,0.314l3.544-2.826c0.857-0.684,0.998-1.933,0.314-2.79l-4.115-5.16
	c4.279-3.686,8.279-7.687,11.965-11.965l5.16,4.115c0.857,0.684,2.107,0.543,2.79-0.314l2.826-3.544
	c0.684-0.857,0.543-2.107-0.314-2.79l-5.157-4.113c3.347-4.528,6.362-9.314,9.015-14.323l5.932,2.857
	c0.988,0.476,2.175,0.061,2.65-0.927l1.967-4.084c0.476-0.988,0.061-2.175-0.927-2.651l-5.926-2.854
	c2.245-5.139,4.119-10.475,5.59-15.977l6.413,1.464c1.069,0.244,2.134-0.425,2.378-1.494l1.009-4.419
	c0.244-1.069-0.425-2.134-1.494-2.378l-6.421-1.465c1.029-5.477,1.664-11.094,1.875-16.818h6.606c1.097,0,1.986-0.889,1.986-1.986
	v-4.533C491.949,118.527,491.06,117.638,489.963,117.638z"/>
<g>
	<path style="fill:none;stroke:#000000;stroke-miterlimit:10;" d="M241.794,117.638h-6.606c-0.211-5.725-0.846-11.341-1.875-16.818
		l6.421-1.465c1.069-0.244,1.738-1.309,1.494-2.378l-1.009-4.419c-0.244-1.069-1.309-1.738-2.378-1.494l-6.413,1.464
		c-1.471-5.502-3.346-10.838-5.59-15.977l5.926-2.854c0.988-0.476,1.403-1.662,0.927-2.65l-1.967-4.084
		c-0.476-0.988-1.662-1.403-2.65-0.927l-5.932,2.857c-2.653-5.008-5.669-9.795-9.015-14.323l5.157-4.113
		c0.857-0.684,0.998-1.933,0.314-2.79l-2.826-3.544c-0.684-0.857-1.933-0.998-2.79-0.314l-5.16,4.115
		c-3.686-4.279-7.687-8.279-11.965-11.965l4.115-5.16c0.684-0.857,0.543-2.107-0.314-2.79l-3.544-2.826
		c-0.857-0.684-2.107-0.543-2.79,0.314l-4.113,5.157c-4.528-3.347-9.314-6.362-14.323-9.015l2.857-5.932
		c0.476-0.988,0.061-2.175-0.927-2.651l-4.084-1.967c-0.988-0.476-2.175-0.061-2.651,0.927l-2.854,5.926
		c-5.139-2.245-10.475-4.119-15.977-5.59l1.464-6.413c0.244-1.069-0.425-2.134-1.494-2.378l-4.419-1.009
		c-1.069-0.244-2.134,0.425-2.378,1.494l-1.465,6.421c-5.478-1.029-11.094-1.664-16.818-1.875V1.986
		c0-1.097-0.889-1.986-1.986-1.986h-4.533c-1.097,0-1.986,0.889-1.986,1.986v6.606c-5.725,0.211-11.341,0.846-16.818,1.875
		l-1.465-6.421c-0.244-1.069-1.309-1.738-2.378-1.494L92.557,3.56c-1.069,0.244-1.738,1.309-1.494,2.378l1.464,6.413
		c-5.502,1.471-10.838,3.346-15.977,5.59l-2.854-5.926c-0.476-0.988-1.662-1.403-2.65-0.927l-4.084,1.967
		c-0.988,0.476-1.403,1.662-0.927,2.651l2.856,5.932c-5.008,2.653-9.795,5.669-14.323,9.015l-4.113-5.157
		c-0.684-0.857-1.933-0.998-2.79-0.314l-3.544,2.826c-0.857,0.684-0.998,1.933-0.314,2.79l4.115,5.16
		c-4.279,3.686-8.279,7.687-11.965,11.965l-5.16-4.115c-0.857-0.684-2.107-0.543-2.79,0.314l-2.826,3.544
		c-0.684,0.857-0.543,2.107,0.314,2.79l5.157,4.113c-3.347,4.528-6.362,9.314-9.015,14.323l-5.932-2.856
		c-0.988-0.476-2.175-0.061-2.651,0.927l-1.967,4.084c-0.476,0.988-0.061,2.175,0.927,2.65l5.926,2.854
		c-2.245,5.139-4.119,10.475-5.59,15.977l-6.413-1.464c-1.069-0.244-2.134,0.425-2.378,1.494l-1.009,4.419
		c-0.244,1.069,0.425,2.134,1.494,2.378l6.421,1.465c-1.029,5.478-1.664,11.094-1.875,16.818H1.986
		c-1.097,0-1.986,0.889-1.986,1.986v4.533c0,1.097,0.889,1.986,1.986,1.986h6.606c0.211,5.725,0.846,11.341,1.875,16.818
		l-6.421,1.465c-1.069,0.244-1.738,1.309-1.494,2.378l1.009,4.419c0.244,1.069,1.309,1.738,2.378,1.494l6.413-1.464
		c1.471,5.502,3.346,10.838,5.59,15.977l-5.926,2.854c-0.988,0.476-1.403,1.662-0.927,2.651l1.967,4.084
		c0.476,0.988,1.662,1.403,2.651,0.927l5.932-2.857c2.653,5.008,5.668,9.795,9.015,14.323l-5.157,4.113
		c-0.857,0.684-0.998,1.933-0.314,2.79l2.826,3.544c0.684,0.857,1.933,0.998,2.79,0.314l5.16-4.115
		c3.686,4.279,7.687,8.279,11.965,11.965l-4.115,5.16c-0.684,0.857-0.543,2.107,0.314,2.79l3.544,2.826
		c0.857,0.684,2.107,0.543,2.79-0.314l4.113-5.157c4.528,3.347,9.314,6.362,14.323,9.015l-2.857,5.932
		c-0.476,0.988-0.061,2.175,0.927,2.65l4.084,1.967c0.988,0.476,2.175,0.061,2.65-0.927l2.854-5.926
		c5.139,2.245,10.475,4.119,15.977,5.59l-1.464,6.413c-0.244,1.069,0.425,2.134,1.494,2.378l4.419,1.009
		c1.069,0.244,2.134-0.425,2.378-1.494l1.465-6.421c5.477,1.029,11.094,1.664,16.818,1.875v6.606c0,1.097,0.889,1.986,1.986,1.986
		h4.533c1.097,0,1.986-0.889,1.986-1.986v-6.606c5.725-0.211,11.341-0.846,16.818-1.875l1.465,6.421
		c0.244,1.069,1.309,1.738,2.378,1.494l4.419-1.009c1.069-0.244,1.738-1.309,1.494-2.378l-1.464-6.413
		c5.502-1.471,10.838-3.346,15.977-5.59l2.854,5.926c0.476,0.988,1.662,1.403,2.651,0.927l4.084-1.967
		c0.988-0.476,1.403-1.662,0.927-2.65l-2.857-5.932c5.009-2.653,9.795-5.669,14.323-9.015l4.113,5.157
		c0.684,0.857,1.933,0.998,2.79,0.314l3.544-2.826c0.857-0.684,0.998-1.933,0.314-2.79l-4.115-5.16
		c4.279-3.686,8.279-7.687,11.965-11.965l5.16,4.115c0.857,0.684,2.107,0.543,2.79-0.314l2.826-3.544
		c0.684-0.857,0.543-2.107-0.314-2.79l-5.157-4.113c3.347-4.528,6.362-9.314,9.015-14.323l5.932,2.857
		c0.988,0.476,2.175,0.061,2.65-0.927l1.967-4.084c0.476-0.988,0.061-2.175-0.927-2.651l-5.926-2.854
		c2.245-5.139,4.119-10.475,5.59-15.977l6.413,1.464c1.069,0.244,2.134-0.425,2.378-1.494l1.009-4.419
		c0.244-1.069-0.425-2.134-1.494-2.378l-6.421-1.465c1.029-5.477,1.664-11.094,1.875-16.818h6.606c1.097,0,1.986-0.889,1.986-1.986
		v-4.533C243.78,118.527,242.891,117.638,241.794,117.638z"/>
	<circle style="fill:none;stroke:#000000;stroke-miterlimit:10;" cx="121.89" cy="121.89" r="99.213"/>
</g>
<path style="fill:none;stroke:#000000;stroke-miterlimit:10;" d="M559.706,364.508H553.1c-0.211-5.725-0.846-11.341-1.875-16.818
	l6.421-1.465c1.069-0.244,1.738-1.309,1.494-2.378l-1.009-4.419c-0.244-1.069-1.309-1.738-2.378-1.494l-6.413,1.464
	c-1.471-5.502-3.346-10.838-5.59-15.977l5.926-2.854c0.988-0.476,1.403-1.662,0.927-2.65l-1.967-4.084
	c-0.476-0.988-1.662-1.403-2.65-0.927l-5.932,2.857c-2.653-5.008-5.669-9.795-9.015-14.323l5.157-4.113
	c0.857-0.684,0.998-1.933,0.314-2.79l-2.826-3.544c-0.684-0.857-1.933-0.998-2.79-0.314l-5.16,4.115
	c-3.686-4.279-7.687-8.279-11.965-11.965l4.115-5.16c0.684-0.857,0.543-2.107-0.314-2.79l-3.544-2.826
	c-0.857-0.684-2.107-0.543-2.79,0.314l-4.113,5.157c-4.528-3.347-9.314-6.362-14.323-9.015l2.857-5.932
	c0.476-0.988,0.061-2.175-0.927-2.651l-4.084-1.967c-0.988-0.476-2.175-0.061-2.651,0.927l-2.854,5.926
	c-5.139-2.245-10.475-4.119-15.977-5.59l1.464-6.413c0.244-1.069-0.425-2.134-1.494-2.378l-4.419-1.009
	c-1.069-0.244-2.134,0.425-2.378,1.494l-1.465,6.421c-5.478-1.029-11.094-1.664-16.818-1.875v-6.606
	c0-1.097-0.889-1.986-1.986-1.986h-4.533c-1.097,0-1.986,0.889-1.986,1.986v6.606c-5.725,0.211-11.341,0.846-16.818,1.875
	l-1.465-6.421c-0.244-1.069-1.309-1.738-2.378-1.494l-4.419,1.009c-1.069,0.244-1.738,1.309-1.494,2.378l1.464,6.413
	c-5.502,1.471-10.838,3.346-15.977,5.59l-2.854-5.926c-0.476-0.988-1.662-1.403-2.65-0.927l-4.084,1.967
	c-0.988,0.476-1.403,1.662-0.927,2.651l2.856,5.932c-5.008,2.653-9.795,5.669-14.323,9.015l-4.113-5.157
	c-0.684-0.857-1.933-0.998-2.79-0.314l-3.544,2.826c-0.857,0.684-0.998,1.933-0.314,2.79l4.115,5.16
	c-4.279,3.686-8.279,7.687-11.965,11.965l-5.16-4.115c-0.857-0.684-2.107-0.543-2.79,0.314l-2.826,3.544
	c-0.684,0.857-0.543,2.107,0.314,2.79l5.157,4.113c-3.347,4.528-6.362,9.314-9.015,14.323l-5.932-2.856
	c-0.988-0.476-2.175-0.061-2.651,0.927l-1.967,4.084c-0.476,0.988-0.061,2.175,0.927,2.65l5.926,2.854
	c-2.245,5.139-4.119,10.475-5.59,15.977l-6.413-1.464c-1.069-0.244-2.134,0.425-2.378,1.494l-1.009,4.419
	c-0.244,1.069,0.425,2.134,1.494,2.378l6.421,1.465c-1.029,5.478-1.664,11.094-1.875,16.818h-6.606
	c-1.097,0-1.986,0.889-1.986,1.986v4.533c0,1.097,0.889,1.986,1.986,1.986h6.606c0.211,5.725,0.846,11.341,1.875,16.818
	l-6.421,1.465c-1.069,0.244-1.738,1.309-1.494,2.378l1.009,4.419c0.244,1.069,1.309,1.738,2.378,1.494l6.413-1.464
	c1.471,5.502,3.346,10.838,5.59,15.977l-5.926,2.854c-0.988,0.476-1.403,1.662-0.927,2.651l1.967,4.084
	c0.476,0.988,1.662,1.403,2.651,0.927l5.932-2.857c2.653,5.008,5.668,9.795,9.015,14.323l-5.157,4.113
	c-0.857,0.684-0.998,1.933-0.314,2.79l2.826,3.544c0.684,0.857,1.933,0.998,2.79,0.314l5.16-4.115
	c3.686,4.279,7.687,8.279,11.965,11.965l-4.115,5.16c-0.684,0.857-0.543,2.107,0.314,2.79l3.544,2.826
	c0.857,0.684,2.107,0.543,2.79-0.314l4.113-5.157c4.528,3.347,9.314,6.362,14.323,9.015l-2.857,5.932
	c-0.476,0.988-0.061,2.175,0.927,2.65l4.084,1.967c0.988,0.476,2.175,0.061,2.65-0.927l2.854-5.926
	c5.139,2.245,10.475,4.119,15.977,5.59l-1.464,6.413c-0.244,1.069,0.425,2.134,1.494,2.378l4.419,1.009
	c1.069,0.244,2.134-0.425,2.378-1.494l1.465-6.421c5.477,1.029,11.094,1.664,16.818,1.875v6.606c0,1.097,0.889,1.986,1.986,1.986
	h4.533c1.097,0,1.986-0.889,1.986-1.986v-6.606c5.725-0.211,11.341-0.846,16.818-1.875l1.465,6.421
	c0.244,1.069,1.309,1.738,2.378,1.494l4.419-1.009c1.069-0.244,1.738-1.309,1.494-2.378l-1.464-6.413
	c5.502-1.471,10.838-3.346,15.977-5.59l2.854,5.926c0.476,0.988,1.662,1.403,2.651,0.927l4.084-1.967
	c0.988-0.476,1.403-1.662,0.927-2.65l-2.857-5.932c5.009-2.653,9.795-5.669,14.323-9.015l4.113,5.157
	c0.684,0.857,1.933,0.998,2.79,0.314l3.544-2.826c0.857-0.684,0.998-1.933,0.314-2.79l-4.115-5.16
	c4.279-3.686,8.279-7.687,11.965-11.965l5.16,4.115c0.857,0.684,2.107,0.543,2.79-0.314l2.826-3.544
	c0.684-0.857,0.543-2.107-0.314-2.79l-5.157-4.113c3.347-4.528,6.362-9.314,9.015-14.323l5.932,2.857
	c0.988,0.476,2.175,0.061,2.65-0.927l1.967-4.084c0.476-0.988,0.061-2.175-0.927-2.651l-5.926-2.854
	c2.245-5.139,4.119-10.475,5.59-15.977l6.413,1.464c1.069,0.244,2.134-0.425,2.378-1.494l1.009-4.419
	c0.244-1.069-0.425-2.134-1.494-2.378l-6.421-1.465c1.029-5.477,1.664-11.094,1.875-16.818h6.606c1.097,0,1.986-0.889,1.986-1.986
	v-4.533C561.691,365.397,560.802,364.508,559.706,364.508z"/>
<g>
	<path style="fill:none;stroke:#000000;stroke-miterlimit:10;" d="M315.926,365.008h-6.606c-0.211-5.725-0.846-11.341-1.875-16.818
		l6.421-1.465c1.069-0.244,1.738-1.309,1.494-2.378l-1.009-4.419c-0.244-1.069-1.309-1.738-2.378-1.494l-6.413,1.464
		c-1.471-5.502-3.346-10.838-5.59-15.977l5.926-2.854c0.988-0.476,1.403-1.662,0.927-2.65l-1.967-4.084
		c-0.476-0.988-1.662-1.403-2.65-0.927l-5.932,2.857c-2.653-5.008-5.669-9.795-9.015-14.323l5.157-4.113
		c0.857-0.684,0.998-1.933,0.314-2.79l-2.826-3.544c-0.684-0.857-1.933-0.998-2.79-0.314l-5.16,4.115
		c-3.686-4.279-7.687-8.279-11.965-11.965l4.115-5.16c0.684-0.857,0.543-2.107-0.314-2.79l-3.544-2.826
		c-0.857-0.684-2.107-0.543-2.79,0.314l-4.113,5.157c-4.528-3.347-9.314-6.362-14.323-9.015l2.857-5.932
		c0.476-0.988,0.061-2.175-0.927-2.651l-4.084-1.967c-0.988-0.476-2.175-0.061-2.651,0.927l-2.854,5.926
		c-5.139-2.245-10.475-4.119-15.977-5.59l1.464-6.413c0.244-1.069-0.425-2.134-1.494-2.378l-4.419-1.009
		c-1.069-0.244-2.134,0.425-2.378,1.494l-1.465,6.421c-5.478-1.029-11.094-1.664-16.818-1.875v-6.606
		c0-1.097-0.889-1.986-1.986-1.986h-4.533c-1.097,0-1.986,0.889-1.986,1.986v6.606c-5.725,0.211-11.341,0.846-16.818,1.875
		l-1.465-6.421c-0.244-1.069-1.309-1.738-2.378-1.494l-4.419,1.009c-1.069,0.244-1.738,1.309-1.494,2.378l1.464,6.413
		c-5.502,1.471-10.838,3.346-15.977,5.59l-2.854-5.926c-0.476-0.988-1.662-1.403-2.65-0.927l-4.084,1.967
		c-0.988,0.476-1.403,1.662-0.927,2.651l2.856,5.932c-5.008,2.653-9.795,5.669-14.323,9.015l-4.113-5.157
		c-0.684-0.857-1.933-0.998-2.79-0.314l-3.544,2.826c-0.857,0.684-0.998,1.933-0.314,2.79l4.115,5.16
		c-4.279,3.686-8.279,7.687-11.965,11.965l-5.16-4.115c-0.857-0.684-2.107-0.543-2.79,0.314l-2.826,3.544
		c-0.684,0.857-0.543,2.107,0.314,2.79l5.157,4.113c-3.347,4.528-6.362,9.314-9.015,14.323l-5.932-2.856
		c-0.988-0.476-2.175-0.061-2.651,0.927l-1.967,4.084c-0.476,0.988-0.061,2.175,0.927,2.65l5.926,2.854
		c-2.245,5.139-4.119,10.475-5.59,15.977l-6.413-1.464c-1.069-0.244-2.134,0.425-2.378,1.494l-1.009,4.419
		c-0.244,1.069,0.425,2.134,1.494,2.378l6.421,1.465c-1.029,5.478-1.664,11.094-1.875,16.818h-6.606
		c-1.097,0-1.986,0.889-1.986,1.986v4.533c0,1.097,0.889,1.986,1.986,1.986h6.606c0.211,5.725,0.846,11.341,1.875,16.818
		l-6.421,1.465c-1.069,0.244-1.738,1.309-1.494,2.378l1.009,4.419c0.244,1.069,1.309,1.738,2.378,1.494l6.413-1.464
		c1.471,5.502,3.346,10.838,5.59,15.977l-5.926,2.854c-0.988,0.476-1.403,1.662-0.927,2.651l1.967,4.084
		c0.476,0.988,1.662,1.403,2.651,0.927l5.932-2.857c2.653,5.008,5.668,9.795,9.015,14.323l-5.157,4.113
		c-0.857,0.684-0.998,1.933-0.314,2.79l2.826,3.544c0.684,0.857,1.933,0.998,2.79,0.314l5.16-4.115
		c3.686,4.279,7.687,8.279,11.965,11.965l-4.115,5.16c-0.684,0.857-0.543,2.107,0.314,2.79l3.544,2.826
		c0.857,0.684,2.107,0.543,2.79-0.314l4.113-5.157c4.528,3.347,9.314,6.362,14.323,9.015l-2.857,5.932
		c-0.476,0.988-0.061,2.175,0.927,2.65l4.084,1.967c0.988,0.476,2.175,0.061,2.65-0.927l2.854-5.926
		c5.139,2.245,10.475,4.119,15.977,5.59l-1.464,6.413c-0.244,1.069,0.425,2.134,1.494,2.378l4.419,1.009
		c1.069,0.244,2.134-0.425,2.378-1.494l1.465-6.421c5.477,1.029,11.094,1.664,16.818,1.875v6.606c0,1.097,0.889,1.986,1.986,1.986
		h4.533c1.097,0,1.986-0.889,1.986-1.986v-6.606c5.725-0.211,11.341-0.846,16.818-1.875l1.465,6.421
		c0.244,1.069,1.309,1.738,2.378,1.494l4.419-1.009c1.069-0.244,1.738-1.309,1.494-2.378l-1.464-6.413
		c5.502-1.471,10.838-3.346,15.977-5.59l2.854,5.926c0.476,0.988,1.662,1.403,2.651,0.927l4.084-1.967
		c0.988-0.476,1.403-1.662,0.927-2.65l-2.857-5.932c5.009-2.653,9.795-5.669,14.323-9.015l4.113,5.157
		c0.684,0.857,1.933,0.998,2.79,0.314l3.544-2.826c0.857-0.684,0.998-1.933,0.314-2.79l-4.115-5.16
		c4.279-3.686,8.279-7.687,11.965-11.965l5.16,4.115c0.857,0.684,2.107,0.543,2.79-0.314l2.826-3.544
		c0.684-0.857,0.543-2.107-0.314-2.79l-5.157-4.113c3.347-4.528,6.362-9.314,9.015-14.323l5.932,2.857
		c0.988,0.476,2.175,0.061,2.65-0.927l1.967-4.084c0.476-0.988,0.061-2.175-0.927-2.651l-5.926-2.854
		c2.245-5.139,4.119-10.475,5.59-15.977l6.413,1.464c1.069,0.244,2.134-0.425,2.378-1.494l1.009-4.419
		c0.244-1.069-0.425-2.134-1.494-2.378l-6.421-1.465c1.029-5.477,1.664-11.094,1.875-16.818h6.606c1.097,0,1.986-0.889,1.986-1.986
		v-4.533C317.912,365.897,317.023,365.008,315.926,365.008z"/>
	<circle style="fill:none;stroke:#000000;stroke-miterlimit:10;" cx="196.022" cy="369.26" r="99.213"/>
</g>
<g>
	<rect x="565.967" style="fill:none;stroke:#000000;stroke-miterlimit:10;" width="712.432" height="453.543"/>
	<line style="fill:none;stroke:#0031FF;stroke-miterlimit:10;" x1="1252.954" y1="0" x2="1252.954" y2="453.543"/>
	<line style="fill:none;stroke:#0031FF;stroke-miterlimit:10;" x1="1227.51" y1="0" x2="1227.51" y2="453.543"/>
	<line style="fill:none;stroke:#0031FF;stroke-miterlimit:10;" x1="1202.066" y1="0" x2="1202.066" y2="453.543"/>
	<line style="fill:none;stroke:#0031FF;stroke-miterlimit:10;" x1="1176.622" y1="0" x2="1176.622" y2="453.543"/>
	<line style="fill:none;stroke:#0031FF;stroke-miterlimit:10;" x1="1151.178" y1="0" x2="1151.178" y2="453.543"/>
	<line style="fill:none;stroke:#0031FF;stroke-miterlimit:10;" x1="1125.734" y1="0" x2="1125.734" y2="453.543"/>
	<line style="fill:none;stroke:#0031FF;stroke-miterlimit:10;" x1="1074.846" y1="0" x2="1074.846" y2="453.543"/>
	<line style="fill:none;stroke:#0031FF;stroke-miterlimit:10;" x1="1049.402" y1="0" x2="1049.402" y2="453.543"/>
	<line style="fill:none;stroke:#0031FF;stroke-miterlimit:10;" x1="1023.958" y1="0" x2="1023.958" y2="453.543"/>
	<line style="fill:none;stroke:#0031FF;stroke-miterlimit:10;" x1="998.514" y1="0" x2="998.514" y2="453.543"/>
	<line style="fill:none;stroke:#0031FF;stroke-miterlimit:10;" x1="973.07" y1="0" x2="973.07" y2="453.543"/>
	<line style="fill:none;stroke:#0031FF;stroke-miterlimit:10;" x1="947.627" y1="0" x2="947.627" y2="453.543"/>
	<line style="fill:none;stroke:#0031FF;stroke-miterlimit:10;" x1="922.183" y1="408.189" x2="922.183" y2="453.543"/>
	<line style="fill:none;stroke:#0031FF;stroke-miterlimit:10;" x1="922.183" y1="0" x2="922.183" y2="45.354"/>
	<line style="fill:none;stroke:#000000;stroke-miterlimit:10;" x1="922.183" y1="45.354" x2="922.183" y2="408.189"/>
	<line style="fill:none;stroke:#0031FF;stroke-miterlimit:10;" x1="744.075" y1="0" x2="744.075" y2="45.354"/>
	<line style="fill:none;stroke:#000000;stroke-miterlimit:10;" x1="1100.29" y1="408.189" x2="1100.29" y2="453.543"/>
	<line style="fill:none;stroke:#000000;stroke-miterlimit:10;" x1="744.075" y1="408.189" x2="744.075" y2="453.543"/>
	<line style="fill:none;stroke:#0031FF;stroke-miterlimit:10;" x1="1100.29" y1="0" x2="1100.29" y2="45.354"/>
	<line style="fill:none;stroke:#0031FF;stroke-miterlimit:10;" x1="896.739" y1="0" x2="896.739" y2="453.543"/>
	<line style="fill:none;stroke:#0031FF;stroke-miterlimit:10;" x1="871.295" y1="0" x2="871.295" y2="453.543"/>
	<line style="fill:none;stroke:#0031FF;stroke-miterlimit:10;" x1="845.851" y1="0" x2="845.851" y2="453.543"/>
	<line style="fill:none;stroke:#0031FF;stroke-miterlimit:10;" x1="820.407" y1="0" x2="820.407" y2="453.543"/>
	<line style="fill:none;stroke:#0031FF;stroke-miterlimit:10;" x1="794.963" y1="0" x2="794.963" y2="453.543"/>
	<line style="fill:none;stroke:#0031FF;stroke-miterlimit:10;" x1="769.519" y1="0" x2="769.519" y2="453.543"/>
	<line style="fill:none;stroke:#0031FF;stroke-miterlimit:10;" x1="718.631" y1="0" x2="718.631" y2="453.543"/>
	<line style="fill:none;stroke:#0031FF;stroke-miterlimit:10;" x1="693.187" y1="0" x2="693.187" y2="453.543"/>
	<line style="fill:none;stroke:#0031FF;stroke-miterlimit:10;" x1="667.743" y1="0" x2="667.743" y2="453.543"/>
	<line style="fill:none;stroke:#0031FF;stroke-miterlimit:10;" x1="642.299" y1="0" x2="642.299" y2="453.543"/>
	<line style="fill:none;stroke:#0031FF;stroke-miterlimit:10;" x1="616.855" y1="0" x2="616.855" y2="453.543"/>
	<line style="fill:none;stroke:#0031FF;stroke-miterlimit:10;" x1="591.411" y1="0" x2="591.411" y2="453.543"/>
	<rect x="744.075" y="45.354" style="fill:none;stroke:#000000;stroke-miterlimit:10;" width="356.216" height="362.835"/>
	<g>
		<rect x="574.295" y="8.076" style="fill:none;stroke:#000000;stroke-miterlimit:10;" width="8.787" height="8.504"/>
		<rect x="1261.283" y="8.076" style="fill:none;stroke:#000000;stroke-miterlimit:10;" width="8.787" height="8.504"/>
		<rect x="1210.395" y="8.076" style="fill:none;stroke:#000000;stroke-miterlimit:10;" width="8.787" height="8.504"/>
		<rect x="1184.951" y="8.076" style="fill:none;stroke:#000000;stroke-miterlimit:10;" width="8.787" height="8.504"/>
		<rect x="1159.507" y="8.076" style="fill:none;stroke:#000000;stroke-miterlimit:10;" width="8.787" height="8.504"/>
		<rect x="1134.063" y="8.076" style="fill:none;stroke:#000000;stroke-miterlimit:10;" width="8.787" height="8.504"/>
		<rect x="1108.619" y="8.076" style="fill:none;stroke:#000000;stroke-miterlimit:10;" width="8.787" height="8.504"/>
		<rect x="1083.175" y="8.076" style="fill:none;stroke:#000000;stroke-miterlimit:10;" width="8.787" height="8.504"/>
		<rect x="1057.731" y="8.076" style="fill:none;stroke:#000000;stroke-miterlimit:10;" width="8.787" height="8.504"/>
		<rect x="1032.287" y="8.076" style="fill:none;stroke:#000000;stroke-miterlimit:10;" width="8.787" height="8.504"/>
		<rect x="1006.843" y="8.076" style="fill:none;stroke:#000000;stroke-miterlimit:10;" width="8.787" height="8.504"/>
		<rect x="981.399" y="8.076" style="fill:none;stroke:#000000;stroke-miterlimit:10;" width="8.787" height="8.504"/>
		<rect x="955.955" y="8.076" style="fill:none;stroke:#000000;stroke-miterlimit:10;" width="8.787" height="8.504"/>
		<rect x="1235.839" y="8.076" style="fill:none;stroke:#000000;stroke-miterlimit:10;" width="8.787" height="8.504"/>
		<rect x="930.511" y="8.076" style="fill:none;stroke:#000000;stroke-miterlimit:10;" width="8.787" height="8.504"/>
		<rect x="905.067" y="8.076" style="fill:none;stroke:#000000;stroke-miterlimit:10;" width="8.787" height="8.504"/>
		<rect x="879.623" y="8.076" style="fill:none;stroke:#000000;stroke-miterlimit:10;" width="8.787" height="8.504"/>
		<rect x="854.179" y="8.076" style="fill:none;stroke:#000000;stroke-miterlimit:10;" width="8.787" height="8.504"/>
		<rect x="828.735" y="8.076" style="fill:none;stroke:#000000;stroke-miterlimit:10;" width="8.787" height="8.504"/>
		<rect x="803.291" y="8.076" style="fill:none;stroke:#000000;stroke-miterlimit:10;" width="8.787" height="8.504"/>
		<rect x="777.847" y="8.076" style="fill:none;stroke:#000000;stroke-miterlimit:10;" width="8.787" height="8.504"/>
		<rect x="752.403" y="8.076" style="fill:none;stroke:#000000;stroke-miterlimit:10;" width="8.787" height="8.504"/>
		<rect x="726.959" y="8.076" style="fill:none;stroke:#000000;stroke-miterlimit:10;" width="8.787" height="8.504"/>
		<rect x="701.515" y="8.076" style="fill:none;stroke:#000000;stroke-miterlimit:10;" width="8.787" height="8.504"/>
		<rect x="676.071" y="8.076" style="fill:none;stroke:#000000;stroke-miterlimit:10;" width="8.787" height="8.504"/>
		<rect x="650.627" y="8.076" style="fill:none;stroke:#000000;stroke-miterlimit:10;" width="8.787" height="8.504"/>
		<rect x="625.183" y="8.076" style="fill:none;stroke:#000000;stroke-miterlimit:10;" width="8.787" height="8.504"/>
		<rect x="599.739" y="8.076" style="fill:none;stroke:#000000;stroke-miterlimit:10;" width="8.787" height="8.504"/>
	</g>
	<rect x="574.295" y="30.057" style="fill:none;stroke:#000000;stroke-miterlimit:10;" width="8.787" height="8.504"/>
	<rect x="1261.283" y="30.057" style="fill:none;stroke:#000000;stroke-miterlimit:10;" width="8.787" height="8.504"/>
	<rect x="1210.395" y="30.057" style="fill:none;stroke:#000000;stroke-miterlimit:10;" width="8.787" height="8.504"/>
	<rect x="1184.951" y="30.057" style="fill:none;stroke:#000000;stroke-miterlimit:10;" width="8.787" height="8.504"/>
	<rect x="1159.507" y="30.057" style="fill:none;stroke:#000000;stroke-miterlimit:10;" width="8.787" height="8.504"/>
	<rect x="1134.063" y="30.057" style="fill:none;stroke:#000000;stroke-miterlimit:10;" width="8.787" height="8.504"/>
	<rect x="1108.619" y="30.057" style="fill:none;stroke:#000000;stroke-miterlimit:10;" width="8.787" height="8.504"/>
	<rect x="1083.175" y="30.057" style="fill:none;stroke:#000000;stroke-miterlimit:10;" width="8.787" height="8.504"/>
	<rect x="1057.731" y="30.057" style="fill:none;stroke:#000000;stroke-miterlimit:10;" width="8.787" height="8.504"/>
	<rect x="1032.287" y="30.057" style="fill:none;stroke:#000000;stroke-miterlimit:10;" width="8.787" height="8.504"/>
	<rect x="1006.843" y="30.057" style="fill:none;stroke:#000000;stroke-miterlimit:10;" width="8.787" height="8.504"/>
	<rect x="981.399" y="30.057" style="fill:none;stroke:#000000;stroke-miterlimit:10;" width="8.787" height="8.504"/>
	<rect x="955.955" y="30.057" style="fill:none;stroke:#000000;stroke-miterlimit:10;" width="8.787" height="8.504"/>
	<rect x="1235.839" y="30.057" style="fill:none;stroke:#000000;stroke-miterlimit:10;" width="8.787" height="8.504"/>
	<rect x="930.511" y="30.057" style="fill:none;stroke:#000000;stroke-miterlimit:10;" width="8.787" height="8.504"/>
	<rect x="905.067" y="30.057" style="fill:none;stroke:#000000;stroke-miterlimit:10;" width="8.787" height="8.504"/>
	<rect x="879.623" y="30.057" style="fill:none;stroke:#000000;stroke-miterlimit:10;" width="8.787" height="8.504"/>
	<rect x="854.179" y="30.057" style="fill:none;stroke:#000000;stroke-miterlimit:10;" width="8.787" height="8.504"/>
	<rect x="828.735" y="30.057" style="fill:none;stroke:#000000;stroke-miterlimit:10;" width="8.787" height="8.504"/>
	<rect x="803.291" y="30.057" style="fill:none;stroke:#000000;stroke-miterlimit:10;" width="8.787" height="8.504"/>
	<rect x="777.847" y="30.057" style="fill:none;stroke:#000000;stroke-miterlimit:10;" width="8.787" height="8.504"/>
	<rect x="752.403" y="30.057" style="fill:none;stroke:#000000;stroke-miterlimit:10;" width="8.787" height="8.504"/>
	<g>
		<rect x="1083.175" y="65.138" style="fill:none;stroke:#000000;stroke-miterlimit:10;" width="8.787" height="8.504"/>
		<rect x="1057.731" y="65.138" style="fill:none;stroke:#000000;stroke-miterlimit:10;" width="8.787" height="8.504"/>
		<rect x="1032.287" y="65.138" style="fill:none;stroke:#000000;stroke-miterlimit:10;" width="8.787" height="8.504"/>
		<rect x="1006.843" y="65.138" style="fill:none;stroke:#000000;stroke-miterlimit:10;" width="8.787" height="8.504"/>
		<rect x="981.399" y="65.138" style="fill:none;stroke:#000000;stroke-miterlimit:10;" width="8.787" height="8.504"/>
		<rect x="955.955" y="65.138" style="fill:none;stroke:#000000;stroke-miterlimit:10;" width="8.787" height="8.504"/>
		<rect x="930.511" y="65.138" style="fill:none;stroke:#000000;stroke-miterlimit:10;" width="8.787" height="8.504"/>
		<rect x="905.067" y="65.138" style="fill:none;stroke:#000000;stroke-miterlimit:10;" width="8.787" height="8.504"/>
		<rect x="879.623" y="65.138" style="fill:none;stroke:#000000;stroke-miterlimit:10;" width="8.787" height="8.504"/>
		<rect x="854.179" y="65.138" style="fill:none;stroke:#000000;stroke-miterlimit:10;" width="8.787" height="8.504"/>
		<rect x="828.735" y="65.138" style="fill:none;stroke:#000000;stroke-miterlimit:10;" width="8.787" height="8.504"/>
		<rect x="803.291" y="65.138" style="fill:none;stroke:#000000;stroke-miterlimit:10;" width="8.787" height="8.504"/>
		<rect x="777.847" y="65.138" style="fill:none;stroke:#000000;stroke-miterlimit:10;" width="8.787" height="8.504"/>
		<rect x="752.403" y="65.138" style="fill:none;stroke:#000000;stroke-miterlimit:10;" width="8.787" height="8.504"/>
	</g>
	<g>
		<rect x="1083.175" y="379.902" style="fill:none;stroke:#000000;stroke-miterlimit:10;" width="8.787" height="8.504"/>
		<rect x="1057.731" y="379.902" style="fill:none;stroke:#000000;stroke-miterlimit:10;" width="8.787" height="8.504"/>
		<rect x="1032.287" y="379.902" style="fill:none;stroke:#000000;stroke-miterlimit:10;" width="8.787" height="8.504"/>
		<rect x="1006.843" y="379.902" style="fill:none;stroke:#000000;stroke-miterlimit:10;" width="8.787" height="8.504"/>
		<rect x="981.399" y="379.902" style="fill:none;stroke:#000000;stroke-miterlimit:10;" width="8.787" height="8.504"/>
		<rect x="955.955" y="379.902" style="fill:none;stroke:#000000;stroke-miterlimit:10;" width="8.787" height="8.504"/>
		<rect x="930.511" y="379.902" style="fill:none;stroke:#000000;stroke-miterlimit:10;" width="8.787" height="8.504"/>
		<rect x="905.067" y="379.902" style="fill:none;stroke:#000000;stroke-miterlimit:10;" width="8.787" height="8.504"/>
		<rect x="879.623" y="379.902" style="fill:none;stroke:#000000;stroke-miterlimit:10;" width="8.787" height="8.504"/>
		<rect x="854.179" y="379.902" style="fill:none;stroke:#000000;stroke-miterlimit:10;" width="8.787" height="8.504"/>
		<rect x="828.735" y="379.902" style="fill:none;stroke:#000000;stroke-miterlimit:10;" width="8.787" height="8.504"/>
		<rect x="803.291" y="379.902" style="fill:none;stroke:#000000;stroke-miterlimit:10;" width="8.787" height="8.504"/>
		<rect x="777.847" y="379.902" style="fill:none;stroke:#000000;stroke-miterlimit:10;" width="8.787" height="8.504"/>
		<rect x="752.403" y="379.902" style="fill:none;stroke:#000000;stroke-miterlimit:10;" width="8.787" height="8.504"/>
	</g>
	<rect x="726.959" y="30.057" style="fill:none;stroke:#000000;stroke-miterlimit:10;" width="8.787" height="8.504"/>
	<rect x="701.515" y="30.057" style="fill:none;stroke:#000000;stroke-miterlimit:10;" width="8.787" height="8.504"/>
	<rect x="676.071" y="30.057" style="fill:none;stroke:#000000;stroke-miterlimit:10;" width="8.787" height="8.504"/>
	<g>
		<rect x="726.959" y="93.425" style="fill:none;stroke:#000000;stroke-miterlimit:10;" width="8.787" height="8.504"/>
		<rect x="701.515" y="93.425" style="fill:none;stroke:#000000;stroke-miterlimit:10;" width="8.787" height="8.504"/>
		<rect x="676.071" y="93.425" style="fill:none;stroke:#000000;stroke-miterlimit:10;" width="8.787" height="8.504"/>
		<rect x="803.291" y="101.929" style="fill:none;stroke:#000000;stroke-miterlimit:10;" width="8.787" height="8.504"/>
		<rect x="777.847" y="101.929" style="fill:none;stroke:#000000;stroke-miterlimit:10;" width="8.787" height="8.504"/>
		<rect x="752.403" y="101.929" style="fill:none;stroke:#000000;stroke-miterlimit:10;" width="8.787" height="8.504"/>
		<rect x="726.959" y="110.433" style="fill:none;stroke:#000000;stroke-miterlimit:10;" width="8.787" height="8.504"/>
		<rect x="701.515" y="110.433" style="fill:none;stroke:#000000;stroke-miterlimit:10;" width="8.787" height="8.504"/>
		<rect x="676.071" y="110.433" style="fill:none;stroke:#000000;stroke-miterlimit:10;" width="8.787" height="8.504"/>
	</g>
	<g>
		<rect x="726.959" y="334.606" style="fill:none;stroke:#000000;stroke-miterlimit:10;" width="8.787" height="8.504"/>
		<rect x="701.515" y="334.606" style="fill:none;stroke:#000000;stroke-miterlimit:10;" width="8.787" height="8.504"/>
		<rect x="676.071" y="334.606" style="fill:none;stroke:#000000;stroke-miterlimit:10;" width="8.787" height="8.504"/>
		<rect x="803.291" y="343.11" style="fill:none;stroke:#000000;stroke-miterlimit:10;" width="8.787" height="8.504"/>
		<rect x="777.847" y="343.11" style="fill:none;stroke:#000000;stroke-miterlimit:10;" width="8.787" height="8.504"/>
		<rect x="752.403" y="343.11" style="fill:none;stroke:#000000;stroke-miterlimit:10;" width="8.787" height="8.504"/>
		<rect x="726.959" y="351.614" style="fill:none;stroke:#000000;stroke-miterlimit:10;" width="8.787" height="8.504"/>
		<rect x="701.515" y="351.614" style="fill:none;stroke:#000000;stroke-miterlimit:10;" width="8.787" height="8.504"/>
		<rect x="676.071" y="351.614" style="fill:none;stroke:#000000;stroke-miterlimit:10;" width="8.787" height="8.504"/>
	</g>
	<g>
		
			<rect x="1108.619" y="351.614" transform="matrix(-1 -1.224647e-16 1.224647e-16 -1 2226.0249 711.7324)" style="fill:none;stroke:#000000;stroke-miterlimit:10;" width="8.787" height="8.504"/>
		
			<rect x="1134.063" y="351.614" transform="matrix(-1 -1.224647e-16 1.224647e-16 -1 2276.9128 711.7324)" style="fill:none;stroke:#000000;stroke-miterlimit:10;" width="8.787" height="8.504"/>
		
			<rect x="1159.507" y="351.614" transform="matrix(-1 -1.224647e-16 1.224647e-16 -1 2327.8008 711.7324)" style="fill:none;stroke:#000000;stroke-miterlimit:10;" width="8.787" height="8.504"/>
		
			<rect x="1032.287" y="343.11" transform="matrix(-1 -1.224647e-16 1.224647e-16 -1 2073.3608 694.7245)" style="fill:none;stroke:#000000;stroke-miterlimit:10;" width="8.787" height="8.504"/>
		
			<rect x="1057.731" y="343.11" transform="matrix(-1 -1.224647e-16 1.224647e-16 -1 2124.2488 694.7245)" style="fill:none;stroke:#000000;stroke-miterlimit:10;" width="8.787" height="8.504"/>
		
			<rect x="1083.175" y="343.11" transform="matrix(-1 -1.224647e-16 1.224647e-16 -1 2175.1367 694.7245)" style="fill:none;stroke:#000000;stroke-miterlimit:10;" width="8.787" height="8.504"/>
		
			<rect x="1108.619" y="334.606" transform="matrix(-1 -1.224647e-16 1.224647e-16 -1 2226.0249 677.7166)" style="fill:none;stroke:#000000;stroke-miterlimit:10;" width="8.787" height="8.504"/>
		
			<rect x="1134.063" y="334.606" transform="matrix(-1 -1.224647e-16 1.224647e-16 -1 2276.9128 677.7166)" style="fill:none;stroke:#000000;stroke-miterlimit:10;" width="8.787" height="8.504"/>
		
			<rect x="1159.507" y="334.606" transform="matrix(-1 -1.224647e-16 1.224647e-16 -1 2327.8008 677.7166)" style="fill:none;stroke:#000000;stroke-miterlimit:10;" width="8.787" height="8.504"/>
	</g>
	<g>
		
			<rect x="1108.619" y="110.433" transform="matrix(-1 -1.224647e-16 1.224647e-16 -1 2226.0249 229.37)" style="fill:none;stroke:#000000;stroke-miterlimit:10;" width="8.787" height="8.504"/>
		
			<rect x="1134.063" y="110.433" transform="matrix(-1 -1.224647e-16 1.224647e-16 -1 2276.9128 229.37)" style="fill:none;stroke:#000000;stroke-miterlimit:10;" width="8.787" height="8.504"/>
		
			<rect x="1159.507" y="110.433" transform="matrix(-1 -1.224647e-16 1.224647e-16 -1 2327.8008 229.37)" style="fill:none;stroke:#000000;stroke-miterlimit:10;" width="8.787" height="8.504"/>
		
			<rect x="1032.287" y="101.929" transform="matrix(-1 -1.224647e-16 1.224647e-16 -1 2073.3608 212.3621)" style="fill:none;stroke:#000000;stroke-miterlimit:10;" width="8.787" height="8.504"/>
		
			<rect x="1057.731" y="101.929" transform="matrix(-1 -1.224647e-16 1.224647e-16 -1 2124.2488 212.3621)" style="fill:none;stroke:#000000;stroke-miterlimit:10;" width="8.787" height="8.504"/>
		
			<rect x="1083.175" y="101.929" transform="matrix(-1 -1.224647e-16 1.224647e-16 -1 2175.1367 212.3621)" style="fill:none;stroke:#000000;stroke-miterlimit:10;" width="8.787" height="8.504"/>
		
			<rect x="1108.619" y="93.425" transform="matrix(-1 -1.224647e-16 1.224647e-16 -1 2226.0249 195.3542)" style="fill:none;stroke:#000000;stroke-miterlimit:10;" width="8.787" height="8.504"/>
		
			<rect x="1134.063" y="93.425" transform="matrix(-1 -1.224647e-16 1.224647e-16 -1 2276.9128 195.3542)" style="fill:none;stroke:#000000;stroke-miterlimit:10;" width="8.787" height="8.504"/>
		
			<rect x="1159.507" y="93.425" transform="matrix(-1 -1.224647e-16 1.224647e-16 -1 2327.8008 195.3542)" style="fill:none;stroke:#000000;stroke-miterlimit:10;" width="8.787" height="8.504"/>
	</g>
	<rect x="650.627" y="30.057" style="fill:none;stroke:#000000;stroke-miterlimit:10;" width="8.787" height="8.504"/>
	<rect x="625.183" y="30.057" style="fill:none;stroke:#000000;stroke-miterlimit:10;" width="8.787" height="8.504"/>
	<rect x="599.739" y="30.057" style="fill:none;stroke:#000000;stroke-miterlimit:10;" width="8.787" height="8.504"/>
	<rect x="574.295" y="222.52" style="fill:none;stroke:#000000;stroke-miterlimit:10;" width="8.787" height="8.504"/>
	<rect x="1261.283" y="222.52" style="fill:none;stroke:#000000;stroke-miterlimit:10;" width="8.787" height="8.504"/>
	<rect x="1210.395" y="222.52" style="fill:none;stroke:#000000;stroke-miterlimit:10;" width="8.787" height="8.504"/>
	<rect x="1184.951" y="222.52" style="fill:none;stroke:#000000;stroke-miterlimit:10;" width="8.787" height="8.504"/>
	<rect x="1159.507" y="222.52" style="fill:none;stroke:#000000;stroke-miterlimit:10;" width="8.787" height="8.504"/>
	<rect x="1134.063" y="222.52" style="fill:none;stroke:#000000;stroke-miterlimit:10;" width="8.787" height="8.504"/>
	<rect x="1108.619" y="222.52" style="fill:none;stroke:#000000;stroke-miterlimit:10;" width="8.787" height="8.504"/>
	<rect x="1235.839" y="222.52" style="fill:none;stroke:#000000;stroke-miterlimit:10;" width="8.787" height="8.504"/>
	<rect x="726.959" y="222.52" style="fill:none;stroke:#000000;stroke-miterlimit:10;" width="8.787" height="8.504"/>
	<rect x="701.515" y="222.52" style="fill:none;stroke:#000000;stroke-miterlimit:10;" width="8.787" height="8.504"/>
	<rect x="676.071" y="222.52" style="fill:none;stroke:#000000;stroke-miterlimit:10;" width="8.787" height="8.504"/>
	<rect x="650.627" y="222.52" style="fill:none;stroke:#000000;stroke-miterlimit:10;" width="8.787" height="8.504"/>
	<rect x="625.183" y="222.52" style="fill:none;stroke:#000000;stroke-miterlimit:10;" width="8.787" height="8.504"/>
	<rect x="599.739" y="222.52" style="fill:none;stroke:#000000;stroke-miterlimit:10;" width="8.787" height="8.504"/>
	<g>
		<rect x="574.295" y="414.982" style="fill:none;stroke:#000000;stroke-miterlimit:10;" width="8.787" height="8.504"/>
		<rect x="1261.283" y="414.982" style="fill:none;stroke:#000000;stroke-miterlimit:10;" width="8.787" height="8.504"/>
		<rect x="1210.395" y="414.982" style="fill:none;stroke:#000000;stroke-miterlimit:10;" width="8.787" height="8.504"/>
		<rect x="1184.951" y="414.982" style="fill:none;stroke:#000000;stroke-miterlimit:10;" width="8.787" height="8.504"/>
		<rect x="1159.507" y="414.982" style="fill:none;stroke:#000000;stroke-miterlimit:10;" width="8.787" height="8.504"/>
		<rect x="1134.063" y="414.982" style="fill:none;stroke:#000000;stroke-miterlimit:10;" width="8.787" height="8.504"/>
		<rect x="1108.619" y="414.982" style="fill:none;stroke:#000000;stroke-miterlimit:10;" width="8.787" height="8.504"/>
		<rect x="1083.175" y="414.982" style="fill:none;stroke:#000000;stroke-miterlimit:10;" width="8.787" height="8.504"/>
		<rect x="1057.731" y="414.982" style="fill:none;stroke:#000000;stroke-miterlimit:10;" width="8.787" height="8.504"/>
		<rect x="1032.287" y="414.982" style="fill:none;stroke:#000000;stroke-miterlimit:10;" width="8.787" height="8.504"/>
		<rect x="1006.843" y="414.982" style="fill:none;stroke:#000000;stroke-miterlimit:10;" width="8.787" height="8.504"/>
		<rect x="981.399" y="414.982" style="fill:none;stroke:#000000;stroke-miterlimit:10;" width="8.787" height="8.504"/>
		<rect x="955.955" y="414.982" style="fill:none;stroke:#000000;stroke-miterlimit:10;" width="8.787" height="8.504"/>
		<rect x="1235.839" y="414.982" style="fill:none;stroke:#000000;stroke-miterlimit:10;" width="8.787" height="8.504"/>
		<rect x="930.511" y="414.982" style="fill:none;stroke:#000000;stroke-miterlimit:10;" width="8.787" height="8.504"/>
		<rect x="905.067" y="414.982" style="fill:none;stroke:#000000;stroke-miterlimit:10;" width="8.787" height="8.504"/>
		<rect x="879.623" y="414.982" style="fill:none;stroke:#000000;stroke-miterlimit:10;" width="8.787" height="8.504"/>
		<rect x="854.179" y="414.982" style="fill:none;stroke:#000000;stroke-miterlimit:10;" width="8.787" height="8.504"/>
		<rect x="828.735" y="414.982" style="fill:none;stroke:#000000;stroke-miterlimit:10;" width="8.787" height="8.504"/>
		<rect x="803.291" y="414.982" style="fill:none;stroke:#000000;stroke-miterlimit:10;" width="8.787" height="8.504"/>
		<rect x="777.847" y="414.982" style="fill:none;stroke:#000000;stroke-miterlimit:10;" width="8.787" height="8.504"/>
		<rect x="752.403" y="414.982" style="fill:none;stroke:#000000;stroke-miterlimit:10;" width="8.787" height="8.504"/>
		<rect x="726.959" y="414.982" style="fill:none;stroke:#000000;stroke-miterlimit:10;" width="8.787" height="8.504"/>
		<rect x="701.515" y="414.982" style="fill:none;stroke:#000000;stroke-miterlimit:10;" width="8.787" height="8.504"/>
		<rect x="676.071" y="414.982" style="fill:none;stroke:#000000;stroke-miterlimit:10;" width="8.787" height="8.504"/>
		<rect x="650.627" y="414.982" style="fill:none;stroke:#000000;stroke-miterlimit:10;" width="8.787" height="8.504"/>
		<rect x="625.183" y="414.982" style="fill:none;stroke:#000000;stroke-miterlimit:10;" width="8.787" height="8.504"/>
		<rect x="599.739" y="414.982" style="fill:none;stroke:#000000;stroke-miterlimit:10;" width="8.787" height="8.504"/>
	</g>
	<g>
		<rect x="574.295" y="436.963" style="fill:none;stroke:#000000;stroke-miterlimit:10;" width="8.787" height="8.504"/>
		<rect x="1261.283" y="436.963" style="fill:none;stroke:#000000;stroke-miterlimit:10;" width="8.787" height="8.504"/>
		<rect x="1210.395" y="436.963" style="fill:none;stroke:#000000;stroke-miterlimit:10;" width="8.787" height="8.504"/>
		<rect x="1184.951" y="436.963" style="fill:none;stroke:#000000;stroke-miterlimit:10;" width="8.787" height="8.504"/>
		<rect x="1159.507" y="436.963" style="fill:none;stroke:#000000;stroke-miterlimit:10;" width="8.787" height="8.504"/>
		<rect x="1134.063" y="436.963" style="fill:none;stroke:#000000;stroke-miterlimit:10;" width="8.787" height="8.504"/>
		<rect x="1108.619" y="436.963" style="fill:none;stroke:#000000;stroke-miterlimit:10;" width="8.787" height="8.504"/>
		<rect x="1083.175" y="436.963" style="fill:none;stroke:#000000;stroke-miterlimit:10;" width="8.787" height="8.504"/>
		<rect x="1057.731" y="436.963" style="fill:none;stroke:#000000;stroke-miterlimit:10;" width="8.787" height="8.504"/>
		<rect x="1032.287" y="436.963" style="fill:none;stroke:#000000;stroke-miterlimit:10;" width="8.787" height="8.504"/>
		<rect x="1006.843" y="436.963" style="fill:none;stroke:#000000;stroke-miterlimit:10;" width="8.787" height="8.504"/>
		<rect x="981.399" y="436.963" style="fill:none;stroke:#000000;stroke-miterlimit:10;" width="8.787" height="8.504"/>
		<rect x="955.955" y="436.963" style="fill:none;stroke:#000000;stroke-miterlimit:10;" width="8.787" height="8.504"/>
		<rect x="1235.839" y="436.963" style="fill:none;stroke:#000000;stroke-miterlimit:10;" width="8.787" height="8.504"/>
		<rect x="930.511" y="436.963" style="fill:none;stroke:#000000;stroke-miterlimit:10;" width="8.787" height="8.504"/>
		<rect x="905.067" y="436.963" style="fill:none;stroke:#000000;stroke-miterlimit:10;" width="8.787" height="8.504"/>
		<rect x="879.623" y="436.963" style="fill:none;stroke:#000000;stroke-miterlimit:10;" width="8.787" height="8.504"/>
		<rect x="854.179" y="436.963" style="fill:none;stroke:#000000;stroke-miterlimit:10;" width="8.787" height="8.504"/>
		<rect x="828.735" y="436.963" style="fill:none;stroke:#000000;stroke-miterlimit:10;" width="8.787" height="8.504"/>
		<rect x="803.291" y="436.963" style="fill:none;stroke:#000000;stroke-miterlimit:10;" width="8.787" height="8.504"/>
		<rect x="777.847" y="436.963" style="fill:none;stroke:#000000;stroke-miterlimit:10;" width="8.787" height="8.504"/>
		<rect x="752.403" y="436.963" style="fill:none;stroke:#000000;stroke-miterlimit:10;" width="8.787" height="8.504"/>
		<rect x="726.959" y="436.963" style="fill:none;stroke:#000000;stroke-miterlimit:10;" width="8.787" height="8.504"/>
		<rect x="701.515" y="436.963" style="fill:none;stroke:#000000;stroke-miterlimit:10;" width="8.787" height="8.504"/>
		<rect x="676.071" y="436.963" style="fill:none;stroke:#000000;stroke-miterlimit:10;" width="8.787" height="8.504"/>
		<rect x="650.627" y="436.963" style="fill:none;stroke:#000000;stroke-miterlimit:10;" width="8.787" height="8.504"/>
		<rect x="625.183" y="436.963" style="fill:none;stroke:#000000;stroke-miterlimit:10;" width="8.787" height="8.504"/>
		<rect x="599.739" y="436.963" style="fill:none;stroke:#000000;stroke-miterlimit:10;" width="8.787" height="8.504"/>
	</g>
	<g>
		<rect x="905.067" y="194.173" style="fill:none;stroke:#000000;stroke-miterlimit:10;" width="8.787" height="8.504"/>
		<rect x="930.511" y="194.173" style="fill:none;stroke:#000000;stroke-miterlimit:10;" width="8.787" height="8.504"/>
		<rect x="930.511" y="250.866" style="fill:none;stroke:#000000;stroke-miterlimit:10;" width="8.787" height="8.504"/>
		<rect x="905.067" y="250.866" style="fill:none;stroke:#000000;stroke-miterlimit:10;" width="8.787" height="8.504"/>
	</g>
</g>
<path style="fill:none;stroke:#000000;stroke-width:1.0006;stroke-miterlimit:10;" d="M196.804,272.649
	c-5.57-0.049-10.216,3.919-11.23,9.181c-19.307,1.028-27.332,3.175-45.656,11.848c-6.866,3.249-16.093,16.069-12.114,22.539
	l0.456,0.741l3.29,5.177c0.684,1.076,2.111,1.394,3.187,0.71l3.28-2.084c1.076-0.684,1.394-2.111,0.71-3.187
	c0,0-2.003-3.152-2.886-4.541c-0.249-0.392-0.409-0.644-0.409-0.644c5.463-3.215,11.124-5.967,16.926-8.258l2.059,5.788
	c0.427,1.201,1.748,1.829,2.949,1.402l3.662-1.302c1.201-0.427,1.829-1.748,1.402-2.949l-2.057-5.782
	c6.014-1.9,12.146-3.328,18.339-4.273l0.717,6.083c0.149,1.266,1.297,2.172,2.563,2.023l3.859-0.455
	c1.266-0.149,2.172-1.297,2.023-2.563l-0.716-6.075c2.377-0.195,7.161-0.645,9.544-0.701c6.41,0,11.577-5.319,11.33-11.784
	C207.803,277.58,202.771,272.702,196.804,272.649z M196.701,288.239c-2.348,0-4.252-1.904-4.252-4.252
	c0-2.348,1.904-4.252,4.252-4.252c2.348,0,4.252,1.904,4.252,4.252C200.953,286.336,199.05,288.239,196.701,288.239z"/>
<path style="fill:none;stroke:#000000;stroke-width:1.0006;stroke-miterlimit:10;" d="M184.786,372.929
	c-5.57-0.049-10.216,3.919-11.23,9.181c-19.307,1.028-27.332,3.175-45.656,11.848c-6.866,3.249-16.093,16.069-12.114,22.539
	l0.456,0.741l3.29,5.177c0.684,1.076,2.111,1.394,3.187,0.71l3.28-2.084c1.076-0.684,1.394-2.111,0.71-3.187
	c0,0-2.003-3.152-2.886-4.541c-0.249-0.392-0.409-0.644-0.409-0.644c5.463-3.215,11.124-5.967,16.926-8.258l2.059,5.788
	c0.427,1.201,1.748,1.829,2.949,1.402l3.662-1.302c1.201-0.427,1.829-1.748,1.402-2.949l-2.057-5.782
	c6.014-1.9,12.146-3.328,18.339-4.273l0.717,6.083c0.149,1.266,1.297,2.172,2.563,2.023l3.859-0.455
	c1.266-0.149,2.172-1.297,2.023-2.563l-0.716-6.075c2.377-0.195,7.161-0.645,9.544-0.701c6.41,0,11.577-5.319,11.33-11.784
	C195.786,377.86,190.753,372.982,184.786,372.929z M184.684,388.519c-2.348,0-4.252-1.904-4.252-4.252
	c0-2.348,1.904-4.252,4.252-4.252c2.348,0,4.252,1.904,4.252,4.252C188.936,386.615,187.032,388.519,184.684,388.519z"/>
<path style="fill:none;stroke:#000000;stroke-width:1.0006;stroke-miterlimit:10;" d="M217.12,431.872
	c-4.925-2.601-10.875-1.21-14.192,2.999c-17.624-7.952-25.738-9.73-45.998-10.44c-7.591-0.266-21.674,6.885-21.111,14.46
	l0.065,0.868l0.546,6.109c0.113,1.27,1.235,2.208,2.505,2.094l3.871-0.346c1.27-0.113,2.208-1.235,2.094-2.505
	c0,0-0.332-3.72-0.478-5.359c-0.041-0.463-0.068-0.76-0.068-0.76c6.33-0.347,12.622-0.192,18.827,0.437l-0.829,6.087
	c-0.172,1.263,0.713,2.427,1.976,2.599l3.851,0.524c1.263,0.172,2.427-0.713,2.599-1.976l0.828-6.081
	c6.215,1.074,12.318,2.621,18.253,4.626l-2.156,5.733c-0.449,1.194,0.155,2.525,1.348,2.974l3.637,1.368
	c1.194,0.449,2.525-0.155,2.974-1.348l2.153-5.725c2.201,0.918,6.658,2.715,8.801,3.76c5.694,2.943,12.727,0.592,15.476-5.265
	C224.626,441.303,222.395,434.658,217.12,431.872z M209.869,445.674c-2.086-1.078-2.903-3.644-1.825-5.73
	c1.078-2.086,3.644-2.903,5.73-1.825c2.086,1.078,2.903,3.644,1.825,5.73C214.521,445.935,211.955,446.752,209.869,445.674z"/>
<path style="fill:none;stroke:#000000;stroke-width:1.0006;stroke-miterlimit:10;" d="M178.154,342.875
	c-5.57-0.049-10.216,3.919-11.23,9.181c-19.307,1.028-27.332,3.175-45.656,11.848c-6.866,3.249-16.093,16.069-12.114,22.539
	l0.456,0.741l3.29,5.177c0.684,1.076,2.111,1.394,3.187,0.71l3.28-2.084c1.076-0.684,1.394-2.111,0.71-3.187
	c0,0-2.003-3.152-2.886-4.541c-0.249-0.392-0.409-0.644-0.409-0.644c5.463-3.215,11.124-5.967,16.926-8.258l2.059,5.788
	c0.427,1.201,1.748,1.829,2.949,1.402l3.662-1.302c1.201-0.427,1.829-1.748,1.402-2.949l-2.057-5.782
	c6.014-1.9,12.146-3.328,18.339-4.273l0.717,6.083c0.149,1.266,1.297,2.172,2.563,2.023l3.859-0.455
	c1.266-0.149,2.172-1.297,2.023-2.563l-0.716-6.075c2.377-0.195,7.161-0.645,9.544-0.701c6.41,0,11.577-5.319,11.33-11.784
	C189.153,347.806,184.12,342.928,178.154,342.875z M178.051,358.465c-2.348,0-4.252-1.904-4.252-4.252
	c0-2.348,1.904-4.252,4.252-4.252c2.348,0,4.252,1.904,4.252,4.252C182.303,356.562,180.4,358.465,178.051,358.465z"/>
<path style="fill:none;stroke:#000000;stroke-width:1.0006;stroke-miterlimit:10;" d="M253.983,293.309
	c-5.57-0.049-10.216,3.919-11.23,9.181c-19.307,1.028-27.332,3.175-45.656,11.848c-6.866,3.249-16.093,16.069-12.114,22.539
	l0.456,0.741l3.29,5.177c0.684,1.076,2.111,1.394,3.187,0.71l3.28-2.084c1.076-0.684,1.394-2.111,0.71-3.187
	c0,0-2.003-3.152-2.886-4.541c-0.249-0.392-0.409-0.644-0.409-0.644c5.463-3.215,11.124-5.967,16.926-8.258l2.059,5.788
	c0.427,1.201,1.748,1.829,2.949,1.402l3.662-1.302c1.201-0.427,1.829-1.748,1.402-2.949l-2.057-5.782
	c6.014-1.9,12.146-3.328,18.339-4.273l0.717,6.083c0.149,1.266,1.297,2.172,2.563,2.023l3.859-0.455
	c1.266-0.149,2.172-1.297,2.023-2.563l-0.716-6.075c2.377-0.195,7.161-0.645,9.544-0.701c6.41,0,11.577-5.319,11.33-11.784
	C264.982,298.24,259.95,293.362,253.983,293.309z M253.88,308.899c-2.348,0-4.252-1.904-4.252-4.252
	c0-2.348,1.904-4.252,4.252-4.252c2.348,0,4.252,1.904,4.252,4.252C258.132,306.995,256.229,308.899,253.88,308.899z"/>
<path style="fill:none;stroke:#000000;stroke-width:1.0006;stroke-miterlimit:10;" d="M301.348,232.424
	c-2.018-5.191-7.426-8.036-12.689-7.029c-8.11-17.551-13.078-24.209-27.923-38.015c-5.562-5.173-20.888-8.992-25.424-2.899
	l-0.52,0.698l-3.589,4.974c-0.746,1.034-0.513,2.477,0.521,3.223l3.152,2.274c1.034,0.746,2.477,0.513,3.223-0.521
	c0,0,2.185-3.029,3.148-4.363c0.272-0.377,0.447-0.619,0.447-0.619c5.011,3.883,9.664,8.121,13.942,12.661l-4.613,4.057
	c-0.958,0.842-1.051,2.301-0.209,3.258l2.567,2.918c0.842,0.957,2.301,1.051,3.258,0.209l4.608-4.053
	c3.994,4.882,7.592,10.048,10.764,15.45l-5.384,2.92c-1.121,0.608-1.537,2.009-0.929,3.13l1.853,3.416
	c0.608,1.121,2.009,1.537,3.13,0.929l5.377-2.916c1.062,2.136,3.253,6.412,4.188,8.605c2.375,5.953,9.23,8.782,15.143,6.157
	C300.844,244.467,303.51,237.985,301.348,232.424z M286.83,238.106c-0.87-2.181,0.192-4.655,2.374-5.525
	c2.181-0.87,4.655,0.192,5.525,2.374c0.87,2.181-0.192,4.655-2.374,5.525C290.174,241.35,287.7,240.287,286.83,238.106z"/>
<path style="fill:none;stroke:#000000;stroke-width:1.0006;stroke-miterlimit:10;" d="M357.732,244.823
	c-5.51-0.817-10.659,2.473-12.389,7.545c-19.265-1.644-27.508-0.624-46.853,5.438c-7.248,2.272-18.155,13.696-15.106,20.654
	l0.349,0.797l2.545,5.581c0.529,1.16,1.898,1.672,3.059,1.143l3.536-1.612c1.16-0.529,1.672-1.898,1.143-3.059
	c0,0-1.549-3.398-2.232-4.895c-0.193-0.423-0.317-0.694-0.317-0.694c5.854-2.431,11.84-4.375,17.903-5.845l1.241,6.016
	c0.258,1.249,1.479,2.052,2.728,1.795l3.806-0.785c1.249-0.258,2.052-1.479,1.795-2.728l-1.24-6.01
	c6.219-1.053,12.489-1.621,18.753-1.703l-0.129,6.123c-0.027,1.275,0.985,2.33,2.26,2.357l3.885,0.082
	c1.275,0.027,2.33-0.985,2.357-2.26l0.129-6.116c2.381,0.134,7.182,0.349,9.55,0.622c6.349,0.884,12.2-3.671,12.847-10.108
	C367.946,251.223,363.634,245.698,357.732,244.823z M355.481,260.25c-2.326-0.324-3.949-2.472-3.625-4.798
	c0.324-2.326,2.472-3.949,4.798-3.625c2.326,0.324,3.949,2.472,3.625,4.798C359.954,258.951,357.806,260.574,355.481,260.25z"/>
<path style="fill:none;stroke:#000000;stroke-width:1.0006;stroke-miterlimit:10;" d="M283.085,253.746
	c-2.018-5.191-7.426-8.036-12.689-7.029c-8.11-17.551-13.078-24.209-27.923-38.015c-5.562-5.173-20.888-8.992-25.424-2.899
	l-0.52,0.698l-3.589,4.974c-0.746,1.034-0.513,2.477,0.521,3.223l3.152,2.274c1.034,0.746,2.477,0.513,3.223-0.521
	c0,0,2.185-3.029,3.148-4.363c0.272-0.377,0.447-0.619,0.447-0.619c5.011,3.883,9.664,8.121,13.942,12.661l-4.613,4.057
	c-0.958,0.842-1.051,2.301-0.209,3.258l2.567,2.918c0.842,0.957,2.301,1.051,3.258,0.209l4.608-4.053
	c3.994,4.882,7.592,10.048,10.764,15.45l-5.384,2.92c-1.121,0.608-1.537,2.009-0.929,3.13l1.853,3.416
	c0.608,1.121,2.01,1.537,3.13,0.929l5.377-2.916c1.062,2.136,3.253,6.412,4.188,8.605c2.375,5.953,9.23,8.782,15.143,6.157
	C282.581,265.789,285.247,259.307,283.085,253.746z M268.567,259.427c-0.87-2.181,0.192-4.655,2.374-5.525
	c2.181-0.87,4.655,0.192,5.525,2.374c0.87,2.181-0.192,4.655-2.374,5.525C271.91,262.671,269.437,261.609,268.567,259.427z"/>
<path style="fill:none;stroke:#000000;stroke-width:1.0006;stroke-miterlimit:10;" d="M277.532,377.852
	c-5.57-0.049-10.216,3.919-11.23,9.181c-19.307,1.028-27.332,3.175-45.656,11.848c-6.866,3.249-16.093,16.069-12.114,22.539
	l0.456,0.741l3.29,5.177c0.684,1.076,2.111,1.394,3.187,0.71l3.28-2.084c1.076-0.684,1.394-2.111,0.71-3.187
	c0,0-2.003-3.152-2.886-4.541c-0.249-0.392-0.409-0.644-0.409-0.644c5.463-3.215,11.124-5.967,16.926-8.258l2.059,5.788
	c0.427,1.201,1.748,1.829,2.949,1.402l3.662-1.302c1.201-0.427,1.829-1.748,1.402-2.949l-2.057-5.782
	c6.014-1.9,12.146-3.328,18.339-4.273l0.717,6.083c0.149,1.266,1.297,2.172,2.563,2.023l3.859-0.455
	c1.266-0.149,2.172-1.297,2.023-2.563l-0.716-6.075c2.377-0.195,7.161-0.645,9.544-0.701c6.41,0,11.577-5.319,11.33-11.784
	C288.531,382.783,283.498,377.905,277.532,377.852z M277.429,393.442c-2.348,0-4.252-1.904-4.252-4.252
	c0-2.348,1.904-4.252,4.252-4.252c2.348,0,4.252,1.904,4.252,4.252C281.681,391.538,279.777,393.442,277.429,393.442z"/>
<path style="fill:none;stroke:#000000;stroke-width:1.0006;stroke-miterlimit:10;" d="M269.983,318.482
	c-5.57-0.049-10.216,3.919-11.23,9.181c-19.307,1.028-27.332,3.175-45.656,11.848c-6.866,3.249-16.093,16.069-12.114,22.539
	l0.456,0.741l3.29,5.177c0.684,1.076,2.111,1.394,3.187,0.71l3.28-2.084c1.076-0.684,1.394-2.111,0.71-3.187
	c0,0-2.003-3.152-2.886-4.541c-0.249-0.392-0.409-0.644-0.409-0.644c5.463-3.215,11.124-5.967,16.926-8.258l2.059,5.788
	c0.427,1.201,1.748,1.829,2.949,1.402l3.662-1.302c1.201-0.427,1.829-1.748,1.402-2.949l-2.057-5.782
	c6.014-1.9,12.146-3.328,18.339-4.273l0.717,6.083c0.149,1.266,1.297,2.172,2.563,2.023l3.859-0.455
	c1.266-0.149,2.172-1.297,2.023-2.563l-0.716-6.075c2.377-0.195,7.161-0.645,9.544-0.701c6.41,0,11.577-5.319,11.33-11.784
	C280.982,323.413,275.95,318.535,269.983,318.482z M269.88,334.072c-2.348,0-4.252-1.904-4.252-4.252
	c0-2.348,1.904-4.252,4.252-4.252c2.348,0,4.252,1.904,4.252,4.252C274.132,332.168,272.229,334.072,269.88,334.072z"/>
<path style="fill:none;stroke:#000000;stroke-width:1.0006;stroke-miterlimit:10;" d="M273.142,347.65
	c-5.57-0.049-10.216,3.919-11.23,9.181c-19.307,1.028-27.332,3.175-45.656,11.848c-6.866,3.249-16.093,16.069-12.114,22.539
	l0.456,0.741l3.29,5.177c0.684,1.076,2.111,1.394,3.187,0.71l3.28-2.084c1.076-0.684,1.394-2.111,0.71-3.187
	c0,0-2.003-3.152-2.886-4.541c-0.249-0.392-0.409-0.644-0.409-0.644c5.463-3.215,11.124-5.967,16.926-8.258l2.059,5.788
	c0.427,1.201,1.748,1.829,2.949,1.402l3.662-1.302c1.201-0.427,1.829-1.748,1.402-2.949l-2.057-5.782
	c6.014-1.9,12.146-3.328,18.339-4.273l0.717,6.083c0.149,1.266,1.297,2.172,2.563,2.023l3.859-0.455
	c1.266-0.149,2.172-1.297,2.023-2.563l-0.716-6.075c2.377-0.195,7.161-0.645,9.544-0.701c6.41,0,11.577-5.319,11.33-11.784
	C284.141,352.581,279.109,347.703,273.142,347.65z M273.039,363.24c-2.348,0-4.252-1.904-4.252-4.252
	c0-2.348,1.904-4.252,4.252-4.252c2.348,0,4.252,1.904,4.252,4.252C277.291,361.337,275.388,363.24,273.039,363.24z"/>
<path style="fill:none;stroke:#000000;stroke-width:1.0006;stroke-miterlimit:10;" d="M171.529,312.336
	c-5.57-0.049-10.216,3.919-11.23,9.181c-19.307,1.028-27.332,3.175-45.656,11.848c-6.866,3.249-16.093,16.069-12.114,22.539
	l0.456,0.741l3.29,5.177c0.684,1.076,2.111,1.394,3.187,0.71l3.28-2.084c1.076-0.684,1.394-2.111,0.71-3.187
	c0,0-2.003-3.152-2.886-4.541c-0.249-0.392-0.409-0.644-0.409-0.644c5.463-3.215,11.124-5.967,16.926-8.258l2.059,5.788
	c0.427,1.201,1.748,1.829,2.949,1.402l3.662-1.302c1.201-0.427,1.829-1.748,1.402-2.949l-2.057-5.782
	c6.014-1.9,12.146-3.328,18.339-4.273l0.717,6.083c0.149,1.266,1.297,2.172,2.563,2.023l3.859-0.455
	c1.266-0.149,2.172-1.297,2.023-2.563l-0.716-6.075c2.377-0.195,7.161-0.645,9.544-0.701c6.41,0,11.577-5.319,11.33-11.784
	C182.528,317.267,177.495,312.389,171.529,312.336z M171.426,327.926c-2.348,0-4.252-1.904-4.252-4.252
	c0-2.348,1.904-4.252,4.252-4.252c2.348,0,4.252,1.904,4.252,4.252C175.678,326.022,173.774,327.926,171.426,327.926z"/>
<path style="fill:none;stroke:#000000;stroke-miterlimit:10;" d="M120.087,488.887l0.737-6.544c0.17-1.901,0.661-6.501,1.027-9.884
	c0.243-2.245-1.348-4.27-3.587-4.566c-0.419-0.055-1.013-0.133-1.912-0.251c-44.188-5.774-80.441-41.002-85.655-87.274
	c-6.025-53.476,31.646-101.806,84.577-109.327c0.963-0.137,1.931-0.26,2.903-0.37c0.008-0.001,0.016-0.002,0.024-0.003
	c2.271-0.256,3.905-2.295,3.664-4.567c-0.355-3.336-0.837-7.885-1.039-9.903l-0.74-6.564c-0.123-1.09-1.106-1.874-2.196-1.751
	l-4.504,0.507c-1.09,0.123-1.874,1.106-1.751,2.196l0.74,6.564c-5.665,0.851-11.175,2.11-16.503,3.746l-2.175-6.216
	c-0.362-1.035-1.495-1.581-2.53-1.218l-4.278,1.497c-1.035,0.362-1.581,1.495-1.218,2.53l2.173,6.209
	c-5.303,2.078-10.395,4.538-15.25,7.344l-3.5-5.57c-0.583-0.929-1.809-1.208-2.738-0.625l-3.838,2.412
	c-0.929,0.583-1.208,1.809-0.625,2.738l3.503,5.574c-4.68,3.197-9.099,6.73-13.224,10.562l-4.664-4.665
	c-0.775-0.775-2.033-0.775-2.808,0l-3.205,3.205c-0.775,0.775-0.775,2.033,0,2.808l4.667,4.666
	c-3.839,4.142-7.366,8.565-10.551,13.23l-5.588-3.511c-0.929-0.583-2.154-0.304-2.738,0.625l-2.412,3.838
	c-0.583,0.929-0.304,2.154,0.625,2.738l5.586,3.51c-2.819,4.874-5.279,9.968-7.355,15.242l-6.214-2.174
	c-1.035-0.362-2.168,0.183-2.53,1.218l-1.497,4.278c-0.362,1.035,0.183,2.168,1.218,2.53l6.209,2.172
	c-1.655,5.358-2.92,10.87-3.766,16.502l-6.537-0.737c-1.09-0.123-2.073,0.661-2.195,1.751l-0.508,4.504
	c-0.123,1.09,0.661,2.073,1.751,2.195l6.544,0.737c-0.41,5.558-0.411,11.21,0.02,16.923l-6.564,0.74
	c-1.09,0.123-1.874,1.106-1.751,2.195l0.508,4.504c0.123,1.09,1.106,1.874,2.195,1.751l6.564-0.74
	c0.851,5.665,2.11,11.175,3.746,16.503l-6.216,2.175c-1.035,0.362-1.581,1.495-1.218,2.53l1.497,4.278
	c0.362,1.035,1.495,1.581,2.53,1.218l6.209-2.173c2.078,5.303,4.538,10.396,7.344,15.25l-5.57,3.5
	c-0.929,0.583-1.208,1.809-0.625,2.738l2.412,3.838c0.583,0.929,1.809,1.208,2.738,0.625l5.574-3.503
	c3.197,4.68,6.73,9.099,10.562,13.223l-4.665,4.664c-0.775,0.775-0.775,2.033,0,2.808l3.205,3.205c0.775,0.775,2.033,0.775,2.808,0
	l4.666-4.666c4.142,3.839,8.565,7.366,13.23,10.551l-3.511,5.588c-0.583,0.928-0.304,2.154,0.625,2.738l3.838,2.412
	c0.929,0.583,2.154,0.304,2.738-0.625l3.51-5.586c4.874,2.819,9.968,5.279,15.242,7.355l-2.174,6.214
	c-0.362,1.035,0.183,2.168,1.218,2.53l4.278,1.497c1.035,0.362,2.168-0.183,2.53-1.218l2.173-6.209
	c5.358,1.655,10.87,2.92,16.502,3.766l-0.736,6.537c-0.123,1.09,0.661,2.073,1.751,2.195l4.504,0.508
	C118.981,490.76,119.964,489.976,120.087,488.887z"/>
<path style="fill:none;stroke:#000000;stroke-miterlimit:10;" d="M144.422,43.046l-0.74-6.564c-0.123-1.09-1.106-1.874-2.195-1.751
	l-4.504,0.508c-1.09,0.123-1.874,1.106-1.751,2.195l0.74,6.564c-5.665,0.851-11.175,2.11-16.503,3.746l-2.175-6.216
	c-0.362-1.035-1.495-1.58-2.53-1.218l-4.278,1.497c-1.035,0.362-1.581,1.495-1.218,2.53l2.173,6.209
	c-5.303,2.078-10.396,4.538-15.25,7.344l-3.5-5.57c-0.583-0.929-1.809-1.208-2.738-0.625l-3.838,2.412
	c-0.929,0.583-1.208,1.809-0.625,2.738l3.503,5.574c-4.68,3.197-9.099,6.73-13.223,10.562l-4.664-4.665
	c-0.775-0.775-2.033-0.775-2.808,0l-3.205,3.205c-0.775,0.775-0.775,2.033,0,2.808l4.666,4.666
	c-3.839,4.142-7.366,8.565-10.551,13.23l-5.588-3.511c-0.929-0.583-2.154-0.304-2.738,0.625l-2.412,3.838
	c-0.583,0.929-0.304,2.154,0.625,2.738l5.586,3.51c-2.819,4.874-5.279,9.968-7.355,15.242l-6.214-2.174
	c-1.035-0.362-2.168,0.183-2.53,1.218l-1.497,4.278c-0.362,1.035,0.183,2.168,1.218,2.53l6.209,2.173
	c-1.655,5.358-2.92,10.87-3.766,16.502l-6.537-0.736c-1.09-0.123-2.073,0.661-2.195,1.751l-0.508,4.504
	c-0.123,1.09,0.661,2.073,1.751,2.196l6.544,0.737c1.901,0.17,6.501,0.661,9.884,1.027c2.245,0.243,4.27-1.348,4.566-3.587
	c0.055-0.419,0.133-1.013,0.251-1.912c5.574-42.663,38.605-77.928,82.521-85.004c0.851-0.137,2.124-0.311,3.734-0.511
	c2.657-0.331,4.596-2.687,4.396-5.356C144.913,49.116,144.609,45.147,144.422,43.046z"/>
<path style="fill:none;stroke:#000000;stroke-miterlimit:10;" d="M166.286,65.436l-0.74-6.564c-0.123-1.09-1.106-1.874-2.195-1.751
	l-4.504,0.508c-1.09,0.123-1.874,1.106-1.751,2.195l0.74,6.564c-5.665,0.851-11.175,2.11-16.503,3.746l-2.175-6.216
	c-0.362-1.035-1.495-1.58-2.53-1.218l-4.278,1.497c-1.035,0.362-1.581,1.495-1.218,2.53l2.173,6.209
	c-5.303,2.078-10.396,4.538-15.25,7.344l-3.5-5.57c-0.583-0.929-1.809-1.208-2.738-0.625l-3.838,2.412
	c-0.929,0.583-1.208,1.809-0.625,2.738l3.503,5.574c-4.68,3.197-9.099,6.73-13.223,10.562l-4.664-4.665
	c-0.775-0.775-2.033-0.775-2.808,0l-3.205,3.205c-0.775,0.775-0.775,2.033,0,2.808l4.666,4.666
	c-3.839,4.142-7.366,8.565-10.551,13.23l-5.588-3.511c-0.929-0.583-2.154-0.304-2.738,0.625l-2.412,3.838
	c-0.583,0.929-0.304,2.154,0.625,2.738l5.586,3.51c-2.819,4.874-5.279,9.968-7.355,15.242l-6.214-2.174
	c-1.035-0.362-2.168,0.183-2.53,1.218l-1.497,4.278c-0.362,1.035,0.183,2.168,1.218,2.53l6.209,2.173
	c-1.655,5.358-2.92,10.87-3.766,16.502l-6.537-0.736c-1.09-0.123-2.073,0.661-2.195,1.751l-0.508,4.504
	c-0.123,1.09,0.661,2.073,1.751,2.196l6.544,0.737c1.901,0.17,6.501,0.661,9.884,1.027c2.245,0.243,4.27-1.348,4.566-3.587
	c0.055-0.419,0.133-1.013,0.251-1.912c5.574-42.663,38.605-77.928,82.521-85.004c0.851-0.137,2.124-0.311,3.734-0.511
	c2.657-0.331,4.596-2.687,4.396-5.356C166.777,71.506,166.473,67.537,166.286,65.436z"/>
<path style="fill:none;stroke:#000000;stroke-miterlimit:10;" d="M192.278,87.422l-0.74-6.564c-0.123-1.09-1.106-1.874-2.195-1.751
	l-4.504,0.508c-1.09,0.123-1.874,1.106-1.751,2.195l0.74,6.564c-5.665,0.851-11.175,2.11-16.503,3.746l-2.175-6.216
	c-0.362-1.035-1.495-1.58-2.53-1.218l-4.278,1.497c-1.035,0.362-1.581,1.495-1.218,2.53l2.173,6.209
	c-5.303,2.078-10.396,4.538-15.25,7.344l-3.5-5.57c-0.583-0.929-1.809-1.208-2.738-0.625l-3.838,2.412
	c-0.929,0.583-1.208,1.809-0.625,2.738l3.503,5.574c-4.68,3.197-9.099,6.73-13.223,10.562l-4.664-4.665
	c-0.775-0.775-2.033-0.775-2.808,0l-3.205,3.205c-0.775,0.775-0.775,2.033,0,2.808l4.666,4.666
	c-3.839,4.142-7.366,8.565-10.551,13.23l-5.588-3.511c-0.929-0.583-2.154-0.304-2.738,0.625l-2.412,3.838
	c-0.583,0.929-0.304,2.154,0.625,2.738l5.586,3.51c-2.819,4.874-5.279,9.968-7.355,15.242l-6.214-2.174
	c-1.035-0.362-2.168,0.183-2.53,1.218l-1.497,4.278c-0.362,1.035,0.183,2.168,1.218,2.53l6.209,2.173
	c-1.655,5.358-2.92,10.87-3.766,16.502l-6.537-0.736c-1.09-0.123-2.073,0.661-2.195,1.751l-0.508,4.504
	c-0.123,1.09,0.661,2.073,1.751,2.196l6.544,0.737c1.901,0.17,6.501,0.661,9.884,1.027c2.245,0.243,4.27-1.348,4.566-3.587
	c0.055-0.419,0.133-1.013,0.251-1.912c5.574-42.663,38.605-77.928,82.521-85.004c0.851-0.137,2.124-0.311,3.734-0.511
	c2.657-0.331,4.596-2.687,4.396-5.356C192.769,93.492,192.465,89.523,192.278,87.422z"/>
<path style="fill:none;stroke:#000000;stroke-miterlimit:10;" d="M215.515,108.463l-0.74-6.564c-0.123-1.09-1.106-1.874-2.195-1.751
	l-4.504,0.508c-1.09,0.123-1.874,1.106-1.751,2.195l0.74,6.564c-5.665,0.851-11.175,2.11-16.503,3.746l-2.175-6.216
	c-0.362-1.035-1.495-1.581-2.53-1.218l-4.278,1.497c-1.035,0.362-1.581,1.495-1.218,2.53l2.173,6.209
	c-5.303,2.078-10.396,4.538-15.25,7.344l-3.5-5.57c-0.583-0.929-1.809-1.208-2.738-0.625l-3.838,2.412
	c-0.929,0.583-1.208,1.809-0.625,2.738l3.503,5.574c-4.68,3.197-9.099,6.73-13.223,10.562l-4.664-4.665
	c-0.775-0.775-2.033-0.775-2.808,0l-3.205,3.205c-0.775,0.775-0.775,2.033,0,2.808l4.666,4.666
	c-3.839,4.142-7.366,8.565-10.551,13.23l-5.588-3.511c-0.929-0.583-2.154-0.304-2.738,0.625l-2.412,3.838
	c-0.583,0.929-0.304,2.154,0.625,2.738l5.586,3.51c-2.819,4.874-5.279,9.968-7.355,15.242l-6.214-2.174
	c-1.035-0.362-2.168,0.183-2.53,1.218l-1.497,4.278c-0.362,1.035,0.183,2.168,1.218,2.53l6.209,2.173
	c-1.655,5.358-2.92,10.87-3.766,16.502l-6.537-0.736c-1.09-0.123-2.073,0.661-2.195,1.751l-0.508,4.504
	c-0.123,1.09,0.661,2.073,1.751,2.196l6.544,0.737c1.901,0.17,6.501,0.661,9.884,1.027c2.245,0.243,4.27-1.348,4.566-3.587
	c0.055-0.419,0.133-1.013,0.251-1.912c5.574-42.663,38.605-77.928,82.521-85.004c0.851-0.137,2.124-0.311,3.734-0.511
	c2.657-0.331,4.596-2.687,4.396-5.356C216.007,114.534,215.702,110.564,215.515,108.463z"/>
<path style="fill:none;stroke:#000000;stroke-miterlimit:10;" d="M540.373,7.087h-59.037c-7.181,0-13.002,5.821-13.002,13.002v9.675
	h9.922v8.504h8.504v-8.504h48.189v8.504h8.504v-8.504h9.922v-9.675C553.375,12.908,547.554,7.087,540.373,7.087z"/>
<path style="fill:none;stroke:#000000;stroke-miterlimit:10;" d="M527.556,211.181h-59.037c-7.181,0-13.002,5.821-13.002,13.002
	v9.675h9.922v8.504h8.504v-8.504h48.189v8.504h8.504v-8.504h9.922v-9.675C540.558,217.002,534.737,211.181,527.556,211.181z"/>
</svg>
