<?xml version="1.0" encoding="iso-8859-1"?>
<!-- Generator: Adobe Illustrator 21.0.0, SVG Export Plug-In . SVG Version: 6.00 Build 0)  -->
<svg version="1.1" id="Ebene_1" xmlns="http://www.w3.org/2000/svg" xmlns:xlink="http://www.w3.org/1999/xlink" x="0px" y="0px"
	 viewBox="0 0 412.611 314.646" style="enable-background:new 0 0 412.611 314.646;" xml:space="preserve">
<circle style="fill:#FFFFFF;stroke:#000000;stroke-miterlimit:10;" cx="157.323" cy="157.323" r="157.323"/>
<path style="fill:none;stroke:#000000;stroke-miterlimit:10;" d="M194.482,54.836h-74.318c-2.948,0-5.361-2.412-5.361-5.361v-6.287
	c0-2.948,2.412-5.361,5.361-5.361h74.318c2.948,0,5.361,2.412,5.361,5.361v6.287C199.843,52.424,197.43,54.836,194.482,54.836z"/>
<g id="Hl7J1T.tif">
	<g>
		<path style="fill:#4D4D4D;" d="M157.336,182.744c-19.354,0-38.709,0-58.063,0c-1.616,0-2.905-1.002-3.286-2.562
			c-0.219-0.897-0.018-1.723,0.437-2.508c1.672-2.887,3.339-5.777,5.007-8.666c8.53-14.777,17.06-29.553,25.59-44.33
			c7.952-13.776,15.905-27.551,23.857-41.327c1.183-2.049,2.362-4.1,3.55-6.146c1.037-1.787,3.263-2.289,4.871-1.067
			c0.379,0.288,0.712,0.687,0.953,1.102c3.667,6.317,7.315,12.646,10.967,18.972c8.699,15.069,17.399,30.138,26.098,45.207
			c6.988,12.105,13.967,24.214,20.971,36.309c1.2,2.073-0.003,4.633-2.398,4.998c-0.203,0.031-0.414,0.018-0.621,0.018
			C195.957,182.744,176.646,182.744,157.336,182.744z M157.337,85.4c-17.478,30.265-34.926,60.48-52.389,90.719
			c34.96,0,69.851,0,104.769,0c-0.065-0.12-0.109-0.207-0.158-0.292c-5.473-9.48-10.948-18.959-16.416-28.442
			c-0.132-0.228-0.278-0.305-0.539-0.305c-8.859,0.007-17.717,0.006-26.576,0.006c-0.117,0-0.235,0-0.367,0
			c-0.024,0.234-0.044,0.434-0.066,0.656c3.04,0.723,6.062,1.441,9.121,2.169c-0.177,0.659-0.345,1.281-0.515,1.913
			c-0.112-0.028-0.175-0.04-0.237-0.059c-2.689-0.804-5.378-1.608-8.067-2.412c-0.672-0.201-0.672-0.202-0.907,0.455
			c-0.01,0.028-0.001,0.064-0.001,0.117c5.223,2.917,10.451,5.837,15.697,8.767c-0.49,0.822-0.951,1.593-1.419,2.377
			c-5.078-3.235-10.114-6.443-15.153-9.653c-0.204,0.266-0.383,0.499-0.568,0.739c2.301,2.215,4.594,4.422,6.81,6.554
			c-0.469,0.503-0.905,0.972-1.358,1.458c-2.16-2.333-4.316-4.662-6.482-7.001c-0.201,0.158-0.378,0.297-0.566,0.445
			c3.159,5.276,6.305,10.53,9.47,15.816c-0.814,0.457-1.605,0.901-2.415,1.355c-2.857-5.467-5.691-10.889-8.521-16.302
			c-0.584,0.178-0.584,0.178-0.434,0.71c0.301,1.068,0.604,2.135,0.905,3.203c0.497,1.759,0.995,3.517,1.485,5.278
			c0.026,0.093-0.002,0.286-0.042,0.298c-0.592,0.167-1.19,0.311-1.805,0.465c-0.7-3.149-1.388-6.246-2.077-9.35
			c-0.309,0.052-0.585,0.097-0.897,0.149c0.188,6.226,0.376,12.43,0.564,18.643c-0.95,0-1.848,0-2.768,0
			c0.172-6.234,0.342-12.44,0.513-18.637c-0.116-0.025-0.179-0.04-0.244-0.053c-0.457-0.093-0.462-0.094-0.561,0.356
			c-0.539,2.455-1.075,4.91-1.613,7.365c-0.109,0.495-0.222,0.99-0.339,1.506c-0.668-0.17-1.292-0.328-1.929-0.49
			c0.867-3.091,1.717-6.125,2.572-9.176c-0.136-0.047-0.244-0.085-0.366-0.127c-2.877,5.383-5.741,10.744-8.617,16.126
			c-0.813-0.464-1.594-0.91-2.404-1.373c3.182-5.207,6.341-10.375,9.502-15.547c-0.288-0.211-0.551-0.404-0.839-0.615
			c-2.042,2.251-4.078,4.496-6.152,6.783c-0.453-0.515-0.882-1.004-1.32-1.502c2.092-2.055,4.256-4.18,6.43-6.314
			c-0.191-0.235-0.359-0.442-0.534-0.657c-4.948,3.108-9.867,6.197-14.817,9.306c-0.477-0.807-0.936-1.583-1.409-2.383
			c5.135-2.825,10.249-5.638,15.365-8.452c-0.096-0.227-0.175-0.414-0.258-0.612c-2.838,0.785-5.653,1.562-8.495,2.348
			c-0.163-0.676-0.314-1.3-0.468-1.939c2.891-0.623,5.717-1.232,8.569-1.847c-0.036-0.316-0.07-0.603-0.108-0.932
			c-5.848,0.161-11.681,0.322-17.52,0.483c0-0.949,0-1.848,0-2.721c0.483,0,0.939-0.01,1.395,0.002
			c1.834,0.047,3.668,0.097,5.502,0.152c3.351,0.101,6.702,0.207,10.052,0.307c0.631,0.019,0.632,0.008,0.72-0.679
			c-2.794-0.778-5.592-1.556-8.418-2.343c0.206-0.665,0.395-1.275,0.59-1.905c2.766,0.943,5.502,1.876,8.255,2.815
			c0.118-0.269,0.221-0.504,0.332-0.758c-5.144-2.899-10.259-5.782-15.405-8.681c0.485-0.806,0.952-1.583,1.427-2.372
			c5,3.213,9.953,6.395,14.913,9.582c0.184-0.22,0.347-0.415,0.519-0.62c-2.229-2.198-4.433-4.372-6.523-6.433
			c0.457-0.52,0.879-0.999,1.318-1.497c2.106,2.33,4.189,4.636,6.282,6.951c0.236-0.166,0.447-0.315,0.682-0.48
			c-3.221-5.231-6.431-10.443-9.656-15.679c0.823-0.475,1.601-0.925,2.397-1.384c2.938,5.454,5.857,10.871,8.781,16.299
			c0.155-0.059,0.273-0.105,0.406-0.156c-0.189-0.658-0.371-1.294-0.553-1.93c-0.67-2.343-1.341-4.686-2.004-7.031
			c-0.026-0.094-0.004-0.288,0.034-0.3c0.59-0.17,1.188-0.317,1.81-0.477c0.713,3.167,1.414,6.283,2.115,9.395
			c0.238-0.031,0.429-0.056,0.657-0.086c-0.175-6.355-0.349-12.69-0.523-19.034c0.942,0,1.839,0,2.768,0
			c-0.192,6.369-0.384,12.704-0.575,19.044c0.246,0.035,0.436,0.061,0.649,0.091c0.689-3.159,1.375-6.3,2.067-9.471
			c0.559,0.134,1.074,0.27,1.594,0.378c0.274,0.057,0.339,0.153,0.257,0.439c-0.7,2.458-1.383,4.922-2.07,7.384
			c-0.151,0.54-0.3,1.081-0.447,1.614c0.504,0.243,0.505,0.243,0.737-0.198c2.75-5.228,5.5-10.455,8.25-15.682
			c0.059-0.112,0.129-0.218,0.204-0.341c0.809,0.456,1.593,0.898,2.394,1.349c-3.205,5.32-6.387,10.602-9.576,15.897
			c0.219,0.157,0.402,0.288,0.603,0.433c2.124-2.409,4.235-4.803,6.358-7.212c0.506,0.475,0.971,0.912,1.455,1.366
			c-2.274,2.297-4.516,4.56-6.768,6.835c0.148,0.172,0.274,0.318,0.415,0.48c5.122-3.248,10.23-6.488,15.364-9.744
			c0.482,0.809,0.942,1.581,1.417,2.378c-5.308,2.95-10.574,5.877-15.859,8.815c0.124,0.257,0.239,0.494,0.357,0.738
			c2.906-0.93,5.774-1.848,8.681-2.779c0.186,0.637,0.367,1.258,0.554,1.896c-0.119,0.04-0.209,0.076-0.301,0.1
			c-2.307,0.594-4.615,1.185-6.922,1.779c-0.474,0.122-0.948,0.246-1.418,0.38c-0.061,0.017-0.101,0.104-0.151,0.158
			c0.057,0.037,0.11,0.087,0.172,0.106c0.06,0.019,0.13,0.007,0.195,0.007c8.422,0,16.843,0,25.265-0.001
			c0.114,0,0.229-0.011,0.407-0.021C180.132,124.874,168.745,105.155,157.337,85.4z"/>
	</g>
</g>
<g>
	<path style="fill:#4D4D4D;" d="M40.044,191.886h14.459c2.85,0,5.152,0.387,6.907,1.16c1.754,0.773,3.205,1.884,4.351,3.33
		c1.146,1.447,1.977,3.13,2.492,5.049c0.516,1.919,0.773,3.953,0.773,6.102c0,3.366-0.383,5.977-1.149,7.831
		c-0.767,1.855-1.83,3.409-3.19,4.662c-1.361,1.253-2.822,2.088-4.383,2.503c-2.134,0.573-4.068,0.859-5.801,0.859H40.044V191.886z
		 M49.777,199.019v17.209h2.385c2.034,0,3.48-0.226,4.34-0.677s1.532-1.239,2.02-2.363c0.487-1.124,0.73-2.947,0.73-5.468
		c0-3.337-0.544-5.622-1.633-6.854c-1.089-1.231-2.894-1.848-5.414-1.848H49.777z"/>
	<path style="fill:#4D4D4D;" d="M72.486,212.039c0-3.48,1.174-6.349,3.523-8.604c2.349-2.256,5.521-3.384,9.518-3.384
		c4.569,0,8.021,1.325,10.355,3.975c1.876,2.134,2.814,4.763,2.814,7.885c0,3.509-1.164,6.385-3.491,8.626
		c-2.328,2.242-5.547,3.362-9.657,3.362c-3.667,0-6.632-0.931-8.895-2.793C73.875,218.799,72.486,215.777,72.486,212.039z
		 M81.251,212.017c0,2.034,0.412,3.538,1.235,4.512c0.823,0.974,1.858,1.461,3.104,1.461c1.26,0,2.295-0.479,3.104-1.439
		c0.809-0.959,1.214-2.499,1.214-4.619c0-1.977-0.408-3.448-1.225-4.415s-1.826-1.45-3.029-1.45c-1.275,0-2.328,0.491-3.158,1.472
		C81.667,208.519,81.251,210.012,81.251,212.017z"/>
	<path style="fill:#4D4D4D;" d="M102.908,200.566h8.143v3.717c1.217-1.518,2.449-2.603,3.695-3.255
		c1.246-0.651,2.764-0.978,4.555-0.978c2.42,0,4.314,0.72,5.683,2.159c1.368,1.439,2.052,3.663,2.052,6.671v14.502h-8.787v-12.547
		c0-1.432-0.265-2.445-0.795-3.04c-0.53-0.594-1.275-0.892-2.234-0.892c-1.06,0-1.919,0.401-2.578,1.203
		c-0.659,0.802-0.988,2.242-0.988,4.318v10.957h-8.744V200.566z"/>
	<path style="fill:#4D4D4D;" d="M140.226,207.957l-8.357-0.881c0.315-1.461,0.77-2.61,1.364-3.448
		c0.594-0.838,1.45-1.564,2.567-2.181c0.802-0.444,1.905-0.788,3.309-1.031c1.403-0.243,2.922-0.365,4.555-0.365
		c2.621,0,4.727,0.147,6.316,0.44c1.59,0.294,2.915,0.906,3.975,1.837c0.745,0.645,1.332,1.558,1.762,2.739s0.645,2.31,0.645,3.384
		v10.076c0,1.074,0.068,1.916,0.204,2.524c0.136,0.609,0.433,1.386,0.892,2.331h-8.207c-0.33-0.587-0.544-1.035-0.645-1.343
		c-0.101-0.308-0.201-0.791-0.301-1.45c-1.146,1.103-2.285,1.891-3.416,2.363c-1.547,0.63-3.345,0.945-5.393,0.945
		c-2.722,0-4.788-0.63-6.198-1.891c-1.411-1.26-2.116-2.814-2.116-4.662c0-1.733,0.508-3.158,1.525-4.275
		c1.017-1.117,2.893-1.948,5.629-2.492c3.28-0.659,5.407-1.121,6.381-1.386c0.974-0.265,2.005-0.612,3.094-1.042
		c0-1.074-0.222-1.826-0.666-2.256c-0.444-0.43-1.225-0.645-2.342-0.645c-1.433,0-2.507,0.229-3.223,0.688
		C141.021,206.295,140.57,206.968,140.226,207.957z M147.81,212.554c-1.203,0.43-2.457,0.81-3.76,1.139
		c-1.776,0.473-2.9,0.938-3.373,1.396c-0.487,0.473-0.73,1.01-0.73,1.611c0,0.688,0.24,1.25,0.72,1.687
		c0.479,0.437,1.185,0.655,2.116,0.655c0.974,0,1.88-0.236,2.718-0.709s1.432-1.049,1.783-1.729c0.351-0.68,0.526-1.564,0.526-2.653
		V212.554z"/>
	<path style="fill:#4D4D4D;" d="M171.4,191.886v8.68h4.812v6.402H171.4v8.083c0,0.972,0.093,1.615,0.279,1.93
		c0.286,0.486,0.788,0.729,1.504,0.729c0.645,0,1.547-0.186,2.707-0.558l0.645,6.036c-2.163,0.473-4.183,0.709-6.059,0.709
		c-2.177,0-3.781-0.279-4.812-0.837s-1.794-1.405-2.288-2.542s-0.741-2.979-0.741-5.525v-8.025h-3.223v-6.402h3.223v-4.189
		L171.4,191.886z"/>
	<path style="fill:#4D4D4D;" d="M180.703,191.886h8.744v5.951h-8.744V191.886z M180.703,200.566h8.744v22.816h-8.744V200.566z"/>
	<path style="fill:#4D4D4D;" d="M193.958,212.039c0-3.48,1.174-6.349,3.523-8.604c2.349-2.256,5.521-3.384,9.518-3.384
		c4.569,0,8.021,1.325,10.355,3.975c1.876,2.134,2.814,4.763,2.814,7.885c0,3.509-1.164,6.385-3.491,8.626
		c-2.328,2.242-5.547,3.362-9.657,3.362c-3.667,0-6.632-0.931-8.895-2.793C195.348,218.799,193.958,215.777,193.958,212.039z
		 M202.724,212.017c0,2.034,0.412,3.538,1.235,4.512c0.823,0.974,1.858,1.461,3.104,1.461c1.26,0,2.295-0.479,3.104-1.439
		c0.809-0.959,1.214-2.499,1.214-4.619c0-1.977-0.408-3.448-1.225-4.415s-1.826-1.45-3.029-1.45c-1.275,0-2.328,0.491-3.158,1.472
		C203.139,208.519,202.724,210.012,202.724,212.017z"/>
	<path style="fill:#4D4D4D;" d="M224.38,200.566h8.143v3.717c1.217-1.518,2.449-2.603,3.695-3.255
		c1.246-0.651,2.764-0.978,4.555-0.978c2.42,0,4.314,0.72,5.683,2.159c1.368,1.439,2.052,3.663,2.052,6.671v14.502h-8.787v-12.547
		c0-1.432-0.265-2.445-0.795-3.04c-0.53-0.594-1.275-0.892-2.234-0.892c-1.06,0-1.919,0.401-2.578,1.203
		c-0.659,0.802-0.988,2.242-0.988,4.318v10.957h-8.744V200.566z"/>
	<path style="fill:#4D4D4D;" d="M252.181,217.044l8.68-0.816c0.358,1.031,0.859,1.769,1.504,2.213
		c0.645,0.444,1.504,0.666,2.578,0.666c1.174,0,2.084-0.25,2.729-0.751c0.501-0.372,0.752-0.836,0.752-1.394
		c0-0.629-0.33-1.116-0.988-1.459c-0.473-0.243-1.726-0.543-3.76-0.901c-3.037-0.529-5.146-1.02-6.327-1.47
		c-1.182-0.45-2.177-1.212-2.986-2.286c-0.81-1.073-1.214-2.296-1.214-3.67c0-1.503,0.437-2.797,1.311-3.885
		c0.874-1.087,2.077-1.899,3.609-2.436c1.532-0.537,3.588-0.805,6.166-0.805c2.721,0,4.73,0.208,6.026,0.623
		c1.296,0.416,2.377,1.06,3.244,1.934c0.866,0.874,1.586,2.056,2.159,3.545l-8.293,0.816c-0.215-0.73-0.573-1.268-1.074-1.611
		c-0.688-0.458-1.519-0.688-2.492-0.688c-0.988,0-1.708,0.175-2.159,0.526c-0.451,0.35-0.677,0.775-0.677,1.276
		c0,0.558,0.286,0.98,0.859,1.266c0.573,0.286,1.819,0.543,3.738,0.772c2.907,0.329,5.07,0.787,6.488,1.374
		c1.418,0.586,2.503,1.423,3.255,2.511c0.752,1.088,1.128,2.282,1.128,3.584c0,1.317-0.397,2.598-1.192,3.842
		s-2.048,2.236-3.76,2.973c-1.712,0.736-4.043,1.105-6.993,1.105c-4.168,0-7.137-0.594-8.905-1.783
		C253.817,220.926,252.682,219.236,252.181,217.044z"/>
</g>
<rect x="152.938" y="263.622" style="fill:none;stroke:#000000;stroke-miterlimit:10;" width="8.787" height="42.52"/>
<rect x="53.985" y="57.068" transform="matrix(0.6479 -0.7618 0.7618 0.6479 -39.1097 72.0545)" style="fill:none;stroke:#000000;stroke-miterlimit:10;" width="8.787" height="42.52"/>
<rect x="251.882" y="57.068" transform="matrix(-0.6479 -0.7618 0.7618 -0.6479 362.6363 324.2957)" style="fill:none;stroke:#000000;stroke-miterlimit:10;" width="8.787" height="42.52"/>
<path style="fill:none;stroke:#000000;stroke-width:0.75;stroke-miterlimit:10;" d="M353.201,150.89h-23.999
	c-5.114,0-9.26-4.146-9.26-9.26V46.764c0-5.114,4.146-9.26,9.26-9.26h23.999c5.114,0,9.26,4.146,9.26,9.26v94.865
	C362.462,146.744,358.316,150.89,353.201,150.89z"/>
<path style="fill:none;stroke:#000000;stroke-width:0.75;stroke-miterlimit:10;" d="M353.201,268.439h-23.999
	c-5.114,0-9.26-4.146-9.26-9.26v-94.865c0-5.114,4.146-9.26,9.26-9.26h23.999c5.114,0,9.26,4.146,9.26,9.26v94.865
	C362.462,264.293,358.316,268.439,353.201,268.439z"/>
<path style="fill:none;stroke:#000000;stroke-width:0.75;stroke-miterlimit:10;" d="M398.696,217.852h-23.999
	c-5.114,0-9.26-4.146-9.26-9.26v-94.865c0-5.114,4.146-9.26,9.26-9.26h23.999c5.114,0,9.26,4.146,9.26,9.26v94.865
	C407.957,213.706,403.811,217.852,398.696,217.852z"/>
<g>
</g>
<g>
</g>
<g>
</g>
<g>
</g>
<g>
</g>
<g>
</g>
</svg>
