<?xml version="1.0" encoding="iso-8859-1"?>
<!-- Generator: Adobe Illustrator 21.0.0, SVG Export Plug-In . SVG Version: 6.00 Build 0)  -->
<svg version="1.1" id="Ebene_1" xmlns="http://www.w3.org/2000/svg" xmlns:xlink="http://www.w3.org/1999/xlink" x="0px" y="0px"
	 viewBox="0 0 371.007 244.46" style="enable-background:new 0 0 371.007 244.46;" xml:space="preserve">
<path style="fill:none;stroke:#000000;stroke-miterlimit:10;" d="M235.764,115.598c0-6.018,4.879-10.897,10.897-10.897h38.784
	c18.292,0,33.121-15.229,33.121-34.016S303.737,36.67,285.445,36.67h-38.784c-6.018,0-10.897-4.879-10.897-10.897V8.806
	c0-3.398-2.755-6.152-6.152-6.152h-15.928V36.67v0.823c0,12.07,9.784,21.854,21.854,21.854h0h18.679h31.229
	c6.097,0,11.04,5.076,11.04,11.339c0,6.262-4.943,11.339-11.04,11.339h-31.229h-18.679h0c-12.07,0-21.854,9.784-21.854,21.854v0.823
	v34.016h15.928c3.398,0,6.152-2.755,6.152-6.152V115.598z"/>
<path style="fill:none;stroke:#000000;stroke-miterlimit:10;" d="M240.433,131.516c0,6.018-4.879,10.897-10.897,10.897h-38.784
	c-18.292,0-33.121,15.229-33.121,34.016s14.829,34.016,33.121,34.016h38.784c6.018,0,10.897,4.879,10.897,10.897v16.966
	c0,3.398,2.755,6.152,6.152,6.152h15.928v-34.016v-0.823c0-12.07-9.784-21.854-21.854-21.854h0h-18.679h-31.229
	c-6.097,0-11.04-5.076-11.04-11.339c0-6.262,4.943-11.339,11.04-11.339h31.229h18.679h0c12.07,0,21.854-9.784,21.854-21.854v-0.823
	v-34.016h-15.928c-3.398,0-6.152,2.755-6.152,6.152V131.516z"/>
<path style="fill:none;stroke:#000000;stroke-miterlimit:10;" d="M69.01,137.147c6.018,0,10.897,4.879,10.897,10.897v38.784
	c0,18.292,15.229,33.121,34.016,33.121s34.016-14.829,34.016-33.121v-38.784c0-6.018,4.879-10.897,10.897-10.897h16.966
	c3.398,0,6.152-2.755,6.152-6.152v-15.928h-34.016h-0.823c-12.07,0-21.854,9.784-21.854,21.854v0v18.679v31.229
	c0,6.097-5.076,11.04-11.339,11.04c-6.262,0-11.339-4.943-11.339-11.04v-31.229v-18.679v0c0-12.07-9.784-21.854-21.854-21.854
	h-0.823H45.891v15.928c0,3.398,2.755,6.152,6.152,6.152H69.01z"/>
<path style="fill:none;stroke:#000000;stroke-miterlimit:10;" d="M23.119,29.64c6.018,0,10.897,4.879,10.897,10.897V79.32
	c0,18.292,15.229,33.121,34.016,33.121s34.016-14.829,34.016-33.121V40.537c0-6.018,4.879-10.897,10.897-10.897h16.966
	c3.398,0,6.152-2.755,6.152-6.152V7.559h-34.016h-0.823c-12.07,0-21.854,9.784-21.854,21.854v0v18.679V79.32
	c0,6.097-5.076,11.04-11.339,11.04c-6.262,0-11.339-4.943-11.339-11.04V48.092V29.413v0c0-12.07-9.784-21.854-21.854-21.854h-0.823
	H0l0,15.928c0,3.398,2.755,6.152,6.152,6.152H23.119z"/>
<path style="fill:none;stroke:#000000;stroke-miterlimit:10;" d="M288.205,221.341c0-6.018,4.879-10.897,10.897-10.897h38.784
	c18.292,0,33.121-15.229,33.121-34.016s-14.829-34.016-33.121-34.016h-38.784c-6.018,0-10.897-4.879-10.897-10.897v-16.966
	c0-3.398-2.755-6.152-6.152-6.152h-15.928v34.016v0.823c0,12.07,9.784,21.854,21.854,21.854h0h18.679h31.229
	c6.097,0,11.04,5.076,11.04,11.339c0,6.262-4.943,11.339-11.04,11.339h-31.229h-18.679h0c-12.07,0-21.854,9.784-21.854,21.854v0.823
	v34.016h15.928c3.398,0,6.152-2.755,6.152-6.152V221.341z"/>
<path style="fill:none;stroke:#000000;stroke-miterlimit:10;" d="M187.992,25.773c0,6.018-4.879,10.897-10.897,10.897h-38.784
	c-18.292,0-33.121,15.229-33.121,34.016s14.829,34.016,33.121,34.016h38.784c6.018,0,10.897,4.879,10.897,10.897v16.966
	c0,3.398,2.755,6.152,6.152,6.152h15.928v-34.016v-0.823c0-12.07-9.784-21.854-21.854-21.854h0H169.54h-31.229
	c-6.097,0-11.04-5.076-11.04-11.339c0-6.262,4.943-11.339,11.04-11.339h31.229h18.679h0c12.07,0,21.854-9.784,21.854-21.854V36.67
	V2.654h-15.928c-3.398,0-6.152,2.755-6.152,6.152V25.773z"/>
</svg>
