<?xml version="1.0" encoding="iso-8859-1"?>
<!-- Generator: Adobe Illustrator 21.0.0, SVG Export Plug-In . SVG Version: 6.00 Build 0)  -->
<svg version="1.1" id="Ebene_1" xmlns="http://www.w3.org/2000/svg" xmlns:xlink="http://www.w3.org/1999/xlink" x="0px" y="0px"
	 viewBox="0 0 636.108 409.769" style="enable-background:new 0 0 636.108 409.769;" xml:space="preserve">
<path style="fill:#FFFFFF;stroke:#000000;stroke-miterlimit:10;" d="M553.93,388.743c-12.865-53.372-47.427-196.76-70.896-294.127
	c-8.883-36.852-16.177-67.112-20.104-83.403c-1.845-7.654-8.693-13.047-16.566-13.047H189.742c-7.873,0-14.721,5.393-16.566,13.047
	L82.178,388.735c-2.584,10.72,5.539,21.033,16.566,21.033h438.618C548.389,409.769,556.514,399.463,553.93,388.743z
	 M126.213,386.329l-8.284-1.922l6.407-27.613l8.284,1.922L126.213,386.329z M139.176,330.464l-8.284-1.922l6.407-27.613l8.284,1.922
	L139.176,330.464z M152.139,274.599l-8.284-1.922l6.407-27.613l8.284,1.922L152.139,274.599z M165.102,218.735l-8.284-1.922
	l6.407-27.613l8.284,1.922L165.102,218.735z M178.065,162.87l-8.284-1.922l6.407-27.613l8.284,1.922L178.065,162.87z
	 M191.028,107.005l-8.284-1.922l6.407-27.613l8.284,1.922L191.028,107.005z M203.991,51.141l-8.284-1.922l6.407-27.613l8.284,1.922
	L203.991,51.141z M260.653,314.156h-12.756v-8.504h12.756V314.156z M260.653,172.423h-12.756v-8.504h12.756V172.423z
	 M388.212,314.156h-12.756v-8.504h12.756V314.156z M388.212,172.423h-12.756v-8.504h12.756V172.423z M425.709,23.528l8.284-1.922
	l6.407,27.613l-8.284,1.922L425.709,23.528z M438.672,79.393l8.284-1.922l6.407,27.613l-8.284,1.922L438.672,79.393z
	 M451.635,135.257l8.284-1.922l6.407,27.613l-8.284,1.922L451.635,135.257z M464.597,191.122l8.284-1.922l6.407,27.613l-8.284,1.922
	L464.597,191.122z M477.56,246.987l8.284-1.922l6.407,27.613l-8.284,1.922L477.56,246.987z M490.523,302.851l8.284-1.922
	l6.407,27.613l-8.284,1.922L490.523,302.851z M509.893,386.329l-6.407-27.613l8.284-1.922l6.407,27.613L509.893,386.329z"/>
<path style="fill:#FFFFFF;stroke:#000000;stroke-miterlimit:10;" d="M63.533,41.838l50.379-17.169c5.416-1.846,10.743,3,9.416,8.566
	l-2.321,9.741c-0.579,2.429-2.363,4.39-4.727,5.196L51.339,70.303c-3.156,1.076-5.442,3.832-5.914,7.133l0,0
	c-0.937,6.549,5.37,11.779,11.632,9.645l45.693-15.572c5.416-1.846,10.743,3,9.416,8.566l-2.064,8.662
	c-0.579,2.429-2.363,4.39-4.727,5.196l-60.364,20.571c-3.156,1.076-5.442,3.832-5.914,7.133l0,0
	c-0.937,6.549,5.37,11.779,11.632,9.645l41.116-14.012c5.416-1.846,10.743,3,9.416,8.566l-2.578,10.82
	c-0.579,2.429-2.363,4.39-4.727,5.196l-55.571,18.938c-3.156,1.076-5.442,3.832-5.914,7.133l0,0
	c-0.937,6.549,5.37,11.779,11.632,9.645l36.323-12.378c5.416-1.846,10.743,3,9.416,8.566l-2.321,9.741
	c-0.579,2.429-2.363,4.39-4.727,5.196l-50.885,17.341c-3.156,1.076-5.442,3.832-5.914,7.133l0,0
	c-0.937,6.549,5.37,11.779,11.632,9.645l31.638-10.782c5.416-1.846,10.743,3,9.416,8.566l-2.321,9.741
	c-0.579,2.429-2.363,4.39-4.727,5.196l-46.2,15.745c-3.156,1.076-5.442,3.832-5.914,7.133l0,0
	c-0.937,6.549,5.37,11.779,11.632,9.645l26.952-9.185c5.416-1.846,10.743,3,9.416,8.566l-2.321,9.741
	c-0.579,2.429-2.363,4.39-4.727,5.196l-41.515,14.148c-3.156,1.076-5.442,3.832-5.914,7.133l0,0
	c-0.937,6.549,5.37,11.779,11.632,9.645l22.267-7.588c5.416-1.846,10.743,3,9.416,8.566l-2.321,9.741
	c-0.579,2.429-2.363,4.39-4.727,5.196l-36.83,12.551c-3.156,1.076-5.442,3.832-5.914,7.133l0,0
	c-0.937,6.549,5.37,11.779,11.632,9.645l17.582-5.992c5.416-1.846,10.743,3,9.416,8.566l-2.321,9.741
	c-0.579,2.429-2.363,4.39-4.727,5.196L6.007,387.004c-3.156,1.076-5.442,3.832-5.914,7.133l0,0
	c-0.937,6.549,5.37,11.779,11.632,9.645l22.098-7.531c5.119-1.745,10.627-2.005,15.888-0.751l15.636,3.726l3.442-14.447l8.272,1.971
	l6.571-27.574l-8.272-1.971l6.723-28.213l8.272,1.971l6.571-27.574l-8.272-1.971l6.723-28.213l8.272,1.971l6.571-27.574
	l-8.272-1.971l6.723-28.213l8.272,1.971l6.571-27.574l-8.272-1.971l6.723-28.213l8.272,1.971l6.571-27.574l-8.272-1.971
	l6.723-28.213l8.272,1.971l6.571-27.574l-8.272-1.971l6.723-28.213l8.272,1.971l6.571-27.574l-8.272-1.971l3.787-15.892L131.247,0
	l-0.009,0.038L57.815,25.06c-3.156,1.076-5.442,3.832-5.914,7.133l0,0C50.963,38.742,57.271,43.972,63.533,41.838z"/>
<path style="fill:#FFFFFF;stroke:#000000;stroke-miterlimit:10;" d="M572.576,41.838l-50.379-17.169
	c-5.416-1.846-10.743,3-9.416,8.566l2.321,9.741c0.579,2.429,2.363,4.39,4.727,5.196l64.941,22.131
	c3.156,1.076,5.442,3.832,5.914,7.133v0c0.937,6.549-5.37,11.779-11.632,9.645l-45.693-15.572c-5.416-1.846-10.743,3-9.416,8.566
	l2.064,8.662c0.579,2.429,2.363,4.39,4.727,5.196l60.364,20.571c3.156,1.076,5.442,3.832,5.914,7.133v0
	c0.937,6.549-5.37,11.779-11.632,9.645l-41.116-14.012c-5.416-1.846-10.743,3-9.416,8.566l2.578,10.82
	c0.579,2.429,2.363,4.39,4.727,5.196l55.571,18.938c3.156,1.076,5.442,3.832,5.914,7.133v0c0.937,6.549-5.37,11.779-11.632,9.645
	l-36.323-12.378c-5.416-1.846-10.743,3-9.416,8.566l2.321,9.741c0.579,2.429,2.363,4.39,4.727,5.196l50.885,17.341
	c3.156,1.076,5.442,3.832,5.914,7.133v0c0.937,6.549-5.37,11.779-11.632,9.645l-31.638-10.782c-5.416-1.846-10.743,3-9.416,8.566
	l2.321,9.741c0.579,2.429,2.363,4.39,4.727,5.196l46.2,15.745c3.156,1.076,5.442,3.832,5.914,7.133v0
	c0.937,6.549-5.37,11.779-11.632,9.645l-26.952-9.185c-5.416-1.846-10.743,3-9.416,8.566l2.321,9.741
	c0.579,2.429,2.363,4.39,4.727,5.196l41.515,14.148c3.156,1.076,5.442,3.832,5.914,7.133v0c0.937,6.549-5.37,11.779-11.632,9.645
	l-22.267-7.588c-5.416-1.846-10.743,3-9.416,8.566l2.321,9.741c0.579,2.429,2.363,4.39,4.727,5.196l36.83,12.551
	c3.156,1.076,5.442,3.832,5.914,7.133v0c0.937,6.549-5.37,11.779-11.632,9.645l-17.582-5.992c-5.416-1.846-10.743,3-9.416,8.566
	l2.321,9.741c0.579,2.429,2.363,4.39,4.727,5.196l32.144,10.954c3.156,1.076,5.442,3.832,5.914,7.133v0
	c0.937,6.549-5.37,11.779-11.632,9.645l-22.099-7.531c-5.119-1.745-10.627-2.005-15.888-0.751l-15.636,3.726l-3.442-14.447
	l-8.272,1.971l-6.571-27.574l8.272-1.971l-6.723-28.213l-8.272,1.971l-6.571-27.574l8.272-1.971l-6.723-28.213l-8.272,1.971
	l-6.571-27.574l8.272-1.971l-6.723-28.213l-8.272,1.971l-6.571-27.574l8.272-1.971l-6.723-28.213l-8.272,1.971l-6.571-27.574
	l8.272-1.971l-6.723-28.213l-8.272,1.971l-6.571-27.574l8.272-1.971l-6.723-28.213l-8.272,1.971l-6.571-27.574l8.272-1.971
	l-3.787-15.892L504.861,0l0.009,0.038l73.423,25.022c3.156,1.076,5.442,3.832,5.914,7.133v0
	C585.145,38.742,578.837,43.972,572.576,41.838z"/>
<g>
	<g>
		<path style="fill:#065629;" d="M255.467,58.521c0.175-1.387,0.517-2.604,1.027-3.65c0.511-1.046,1.659-2.873,3.444-5.481
			l4.335-6.316h-9.592v-2.989h12.606v2.989c-2.416,3.048-4.31,5.94-5.68,8.676c-1.37,2.737-2.056,4.994-2.056,6.771H255.467z"/>
	</g>
	<g>
		<path style="fill:#065629;" d="M254.233,105.875v-2.666c1.569,0.64,3.035,0.959,4.397,0.959c1.453,0,2.602-0.604,3.444-1.812
			c0.843-1.208,1.265-2.854,1.265-4.939c-1.171,1.403-2.616,2.105-4.335,2.105c-1.62,0-2.981-0.561-4.086-1.682
			c-1.104-1.121-1.657-2.504-1.657-4.148c0-1.918,0.625-3.494,1.875-4.728c1.25-1.233,2.847-1.85,4.79-1.85
			c2.275,0,4.059,0.81,5.35,2.429c1.292,1.62,1.938,3.854,1.938,6.702c0,3.189-0.76,5.691-2.279,7.505
			c-1.521,1.814-3.617,2.722-6.291,2.722C257.505,106.473,256.035,106.274,254.233,105.875z M256.949,93.119
			c0,1.279,0.276,2.288,0.828,3.027c0.553,0.739,1.302,1.108,2.249,1.108c0.896,0,1.652-0.336,2.267-1.009
			c0.615-0.673,0.922-1.499,0.922-2.479c0-1.304-0.301-2.354-0.903-3.152c-0.602-0.797-1.393-1.196-2.373-1.196
			c-0.913,0-1.64,0.333-2.18,0.997C257.218,91.08,256.949,91.981,256.949,93.119z"/>
	</g>
	<g>
		<path style="fill:#065629;" d="M238.402,153.503v-2.155h3.687v-13.603l-3.687,0.921v-2.217l7.387-1.843v16.742h3.688v2.155
			H238.402z"/>
		<path style="fill:#065629;" d="M255.231,153.503v-2.155h3.687v-13.603l-3.687,0.921v-2.217l7.387-1.843v16.742h3.688v2.155
			H255.231z"/>
	</g>
	<g>
		<path style="fill:#065629;" d="M238.402,200.994v-2.155h3.687v-13.603l-3.687,0.921v-2.217l7.387-1.843v16.742h3.688v2.155
			H238.402z"/>
		<path style="fill:#065629;" d="M254.16,200.857v-2.765c1.826,0.706,3.334,1.059,4.521,1.059c1.104,0,1.991-0.282,2.659-0.847
			c0.669-0.564,1.003-1.316,1.003-2.254c0-2.433-1.781-3.65-5.344-3.65h-1.134v-2.205l0.959-0.012c3.339,0,5.008-1.092,5.008-3.276
			c0-1.669-1.029-2.504-3.089-2.504c-1.354,0-2.799,0.345-4.335,1.034v-2.517c1.619-0.556,3.326-0.834,5.119-0.834
			c1.902,0,3.391,0.391,4.466,1.171c1.076,0.781,1.613,1.86,1.613,3.239c0,2.176-1.357,3.712-4.073,4.609
			c3.106,0.714,4.659,2.375,4.659,4.982c0,1.653-0.623,2.961-1.868,3.924c-1.246,0.963-2.94,1.445-5.083,1.445
			C257.423,201.455,255.729,201.256,254.16,200.857z"/>
	</g>
	<g>
		<path style="fill:#065629;" d="M238.401,295.977v-2.155h3.687v-13.603l-3.687,0.921v-2.217l7.387-1.843v16.742h3.688v2.155
			H238.401z"/>
		<path style="fill:#065629;" d="M255.466,295.977c0.175-1.387,0.517-2.604,1.027-3.65c0.511-1.046,1.659-2.873,3.444-5.481
			l4.335-6.316h-9.592v-2.989h12.606v2.989c-2.416,3.048-4.31,5.94-5.68,8.676c-1.37,2.737-2.056,4.994-2.056,6.771H255.466z"/>
	</g>
	<g>
		<path style="fill:#065629;" d="M236.645,390.96v-2.915l0.199-0.274c0.988-1.32,2.002-2.433,3.04-3.338l1.507-1.333
			c2.483-2.192,3.725-4.115,3.725-5.768c0-1.926-1.096-2.89-3.288-2.89c-1.354,0-2.924,0.457-4.709,1.371v-2.703
			c1.877-0.698,3.691-1.046,5.443-1.046c1.96,0,3.529,0.463,4.709,1.389c1.179,0.926,1.769,2.166,1.769,3.718
			c0,1.071-0.286,2.047-0.859,2.928s-1.582,1.902-3.027,3.064l-1.245,0.997c-1.736,1.395-2.766,2.69-3.09,3.886h8.147v2.915H236.645
			z"/>
		<path style="fill:#065629;" d="M253.474,390.96v-2.915l0.199-0.274c0.988-1.32,2.002-2.433,3.04-3.338l1.507-1.333
			c2.483-2.192,3.725-4.115,3.725-5.768c0-1.926-1.096-2.89-3.288-2.89c-1.354,0-2.924,0.457-4.709,1.371v-2.703
			c1.877-0.698,3.691-1.046,5.443-1.046c1.96,0,3.529,0.463,4.709,1.389c1.179,0.926,1.769,2.166,1.769,3.718
			c0,1.071-0.286,2.047-0.859,2.928s-1.582,1.902-3.027,3.064l-1.245,0.997c-1.736,1.395-2.766,2.69-3.09,3.886h8.147v2.915H253.474
			z"/>
	</g>
	<g>
		<path style="fill:#065629;" d="M238.402,248.486v-2.155h3.687v-13.603l-3.687,0.921v-2.217l7.387-1.843v16.742h3.688v2.155
			H238.402z"/>
		<path style="fill:#065629;" d="M254.807,248.411v-2.678c1.569,0.606,2.878,0.909,3.924,0.909c1.055,0,1.892-0.313,2.51-0.94
			c0.619-0.627,0.929-1.476,0.929-2.547c0-2.641-1.898-3.961-5.693-3.961c-0.448,0-0.896,0.038-1.345,0.112v-9.255h10.588v2.915
			h-7.897l-0.187,3.974c2.657,0,4.731,0.544,6.222,1.632s2.236,2.607,2.236,4.559c0,1.802-0.652,3.222-1.956,4.26
			s-3.089,1.557-5.356,1.557C257.818,248.947,256.493,248.768,254.807,248.411z"/>
	</g>
	<g>
		<path style="fill:#065629;" d="M238.401,343.469v-2.155h3.687v-13.603l-3.687,0.921v-2.217l7.387-1.843v16.742h3.688v2.155
			H238.401z"/>
		<path style="fill:#065629;" d="M254.233,343.331v-2.666c1.569,0.64,3.035,0.959,4.397,0.959c1.453,0,2.602-0.604,3.444-1.812
			c0.843-1.208,1.265-2.854,1.265-4.939c-1.171,1.403-2.616,2.105-4.335,2.105c-1.62,0-2.981-0.561-4.086-1.682
			c-1.104-1.121-1.657-2.504-1.657-4.148c0-1.918,0.625-3.494,1.875-4.728c1.25-1.233,2.847-1.85,4.79-1.85
			c2.275,0,4.059,0.81,5.35,2.429c1.292,1.62,1.938,3.854,1.938,6.702c0,3.189-0.76,5.691-2.279,7.505
			c-1.521,1.814-3.617,2.722-6.291,2.722C257.505,343.929,256.035,343.73,254.233,343.331z M256.949,330.575
			c0,1.279,0.276,2.288,0.828,3.027c0.553,0.739,1.302,1.108,2.249,1.108c0.896,0,1.652-0.336,2.267-1.009
			c0.615-0.673,0.922-1.499,0.922-2.479c0-1.304-0.301-2.354-0.903-3.152c-0.602-0.797-1.393-1.196-2.373-1.196
			c-0.913,0-1.64,0.333-2.18,0.997C257.218,328.537,256.949,329.438,256.949,330.575z"/>
	</g>
	<g>
		<path style="fill:#065629;" d="M372.53,96.134c-1.777-1.171-2.666-2.582-2.666-4.235c0-1.428,0.561-2.585,1.682-3.469
			c1.121-0.885,2.592-1.327,4.41-1.327c1.711,0,3.079,0.378,4.104,1.134s1.538,1.765,1.538,3.027c0,1.628-1.038,3.168-3.114,4.621
			c2.625,1.37,3.937,3.094,3.937,5.17c0,1.619-0.64,2.928-1.918,3.924c-1.279,0.996-2.957,1.495-5.033,1.495
			c-1.984,0-3.585-0.457-4.802-1.37c-1.217-0.914-1.825-2.118-1.825-3.613C368.842,99.323,370.072,97.538,372.53,96.134z
			 M374.348,97.367c-1.337,1.113-2.005,2.288-2.005,3.525c0,0.964,0.334,1.757,1.003,2.379c0.668,0.623,1.518,0.935,2.547,0.935
			c0.905,0,1.663-0.245,2.273-0.734c0.61-0.49,0.916-1.101,0.916-1.832c0-0.631-0.206-1.171-0.617-1.619s-1.21-1.009-2.397-1.682
			L374.348,97.367z M376.566,94.839c1.229-0.955,1.844-1.977,1.844-3.064c0-0.715-0.254-1.285-0.76-1.713
			c-0.507-0.428-1.176-0.642-2.006-0.642c-0.772,0-1.397,0.187-1.875,0.561s-0.716,0.863-0.716,1.47c0,0.598,0.236,1.123,0.71,1.576
			C374.237,93.478,375.171,94.083,376.566,94.839z"/>
	</g>
	<g>
		<path style="fill:#065629;" d="M370.662,153.504v-2.155h3.687v-13.603l-3.687,0.921v-2.217l7.387-1.843v16.742h3.688v2.155
			H370.662z"/>
		<path style="fill:#065629;" d="M392.237,153.965c-2.093,0-3.793-0.897-5.102-2.691c-1.308-1.793-1.962-4.123-1.962-6.988
			c0-2.898,0.656-5.236,1.969-7.013c1.312-1.777,3.039-2.666,5.182-2.666c2.126,0,3.847,0.886,5.163,2.659
			c1.316,1.773,1.975,4.097,1.975,6.97c0,2.948-0.658,5.307-1.975,7.076S394.421,153.965,392.237,153.965z M392.274,151.66
			c2.184,0,3.276-2.458,3.276-7.375c0-4.916-1.076-7.375-3.227-7.375c-2.151,0-3.227,2.454-3.227,7.362
			C389.097,149.198,390.156,151.66,392.274,151.66z"/>
	</g>
	<g>
		<path style="fill:#065629;" d="M370.661,200.995v-2.155h3.687v-13.603l-3.687,0.921v-2.217l7.387-1.843v16.742h3.688v2.155
			H370.661z"/>
		<path style="fill:#065629;" d="M385.733,200.995v-2.915l0.199-0.274c0.988-1.32,2.002-2.433,3.04-3.338l1.507-1.333
			c2.483-2.192,3.725-4.115,3.725-5.768c0-1.926-1.096-2.89-3.288-2.89c-1.354,0-2.924,0.457-4.709,1.371v-2.703
			c1.877-0.698,3.691-1.046,5.443-1.046c1.96,0,3.529,0.463,4.709,1.389c1.179,0.926,1.769,2.166,1.769,3.718
			c0,1.071-0.286,2.047-0.859,2.928s-1.582,1.902-3.027,3.064l-1.245,0.997c-1.736,1.395-2.766,2.69-3.09,3.886h8.147v2.915H385.733
			z"/>
	</g>
	<g>
		<path style="fill:#065629;" d="M370.661,248.486v-2.155h3.687v-13.603l-3.687,0.921v-2.217l7.387-1.843v16.742h3.688v2.155
			H370.661z"/>
		<path style="fill:#065629;" d="M393.706,248.486v-4.92h-8.607V240.8l8.458-10.75h3.376v10.75h2.154v2.766h-2.154v4.92H393.706z
			 M388.05,240.8h5.729v-7.225L388.05,240.8z"/>
	</g>
	<g>
		<path style="fill:#065629;" d="M370.662,343.469v-2.155h3.687v-13.603l-3.687,0.921v-2.217l7.387-1.843v16.742h3.688v2.155
			H370.662z"/>
		<path style="fill:#065629;" d="M389.359,333.59c-1.777-1.171-2.666-2.583-2.666-4.235c0-1.428,0.561-2.585,1.682-3.469
			s2.592-1.327,4.41-1.327c1.711,0,3.079,0.378,4.104,1.134c1.025,0.755,1.538,1.765,1.538,3.027c0,1.628-1.038,3.168-3.114,4.622
			c2.625,1.37,3.937,3.094,3.937,5.169c0,1.62-0.64,2.928-1.918,3.924c-1.279,0.996-2.957,1.495-5.033,1.495
			c-1.984,0-3.585-0.457-4.802-1.37c-1.217-0.914-1.825-2.118-1.825-3.613C385.671,336.779,386.901,334.994,389.359,333.59z
			 M391.177,334.823c-1.337,1.113-2.005,2.288-2.005,3.525c0,0.963,0.334,1.756,1.003,2.379c0.668,0.623,1.518,0.935,2.547,0.935
			c0.905,0,1.663-0.245,2.273-0.735c0.61-0.49,0.916-1.101,0.916-1.832c0-0.631-0.206-1.171-0.617-1.619
			c-0.411-0.449-1.21-1.009-2.397-1.682L391.177,334.823z M393.395,332.295c1.229-0.955,1.844-1.977,1.844-3.064
			c0-0.714-0.254-1.285-0.76-1.713c-0.507-0.428-1.176-0.642-2.006-0.642c-0.772,0-1.397,0.187-1.875,0.561
			c-0.478,0.374-0.716,0.864-0.716,1.47c0,0.598,0.236,1.123,0.71,1.576S392,331.539,393.395,332.295z"/>
	</g>
	<g>
		<path style="fill:#065629;" d="M372.194,48.742c1.154-1.395,2.632-2.093,4.435-2.093c1.645,0,3.006,0.542,4.086,1.626
			c1.079,1.083,1.619,2.452,1.619,4.104c0,1.935-0.623,3.519-1.868,4.752c-1.246,1.233-2.849,1.85-4.809,1.85
			c-2.292,0-4.082-0.816-5.369-2.448s-1.931-3.901-1.931-6.808c0-3.197,0.732-5.683,2.198-7.456s3.523-2.66,6.173-2.66
			c1.245,0,2.79,0.224,4.634,0.673v2.69c-1.678-0.706-3.181-1.059-4.51-1.059c-1.478,0-2.624,0.598-3.438,1.793
			C372.6,44.906,372.194,46.583,372.194,48.742z M378.646,52.99c0-1.254-0.276-2.247-0.828-2.978
			c-0.553-0.73-1.302-1.096-2.248-1.096c-0.905,0-1.668,0.333-2.286,0.997c-0.619,0.665-0.928,1.487-0.928,2.467
			c0,1.287,0.303,2.325,0.909,3.114c0.605,0.789,1.399,1.183,2.379,1.183c0.913,0,1.643-0.334,2.187-1.002
			S378.646,54.111,378.646,52.99z"/>
	</g>
	<g>
		<path style="fill:#065629;" d="M370.662,295.977v-2.155h3.687v-13.603l-3.687,0.922v-2.218l7.387-1.843v16.741h3.688v2.155
			H370.662z"/>
		<path style="fill:#065629;" d="M389.023,286.199c1.154-1.396,2.632-2.093,4.435-2.093c1.645,0,3.006,0.542,4.086,1.626
			c1.079,1.083,1.619,2.451,1.619,4.104c0,1.935-0.623,3.519-1.868,4.752c-1.246,1.233-2.849,1.85-4.809,1.85
			c-2.292,0-4.082-0.815-5.369-2.447s-1.931-3.901-1.931-6.808c0-3.197,0.732-5.683,2.198-7.456
			c1.466-1.772,3.523-2.659,6.173-2.659c1.245,0,2.79,0.224,4.634,0.673v2.69c-1.678-0.706-3.181-1.059-4.51-1.059
			c-1.478,0-2.624,0.598-3.438,1.793C389.429,282.362,389.023,284.04,389.023,286.199z M395.475,290.447
			c0-1.254-0.276-2.247-0.828-2.978c-0.553-0.73-1.302-1.097-2.248-1.097c-0.905,0-1.668,0.333-2.286,0.997
			c-0.619,0.664-0.928,1.486-0.928,2.467c0,1.287,0.303,2.325,0.909,3.114c0.605,0.789,1.399,1.183,2.379,1.183
			c0.913,0,1.643-0.334,2.187-1.002C395.204,292.463,395.475,291.568,395.475,290.447z"/>
	</g>
	<g>
		<path style="fill:#065629;" d="M368.904,390.96v-2.915l0.199-0.274c0.988-1.32,2.002-2.433,3.041-3.338l1.506-1.333
			c2.484-2.192,3.725-4.115,3.725-5.768c0-1.926-1.096-2.89-3.287-2.89c-1.355,0-2.924,0.457-4.709,1.371v-2.703
			c1.877-0.698,3.691-1.046,5.443-1.046c1.959,0,3.529,0.463,4.709,1.389c1.178,0.926,1.768,2.166,1.768,3.718
			c0,1.071-0.285,2.047-0.859,2.928c-0.572,0.88-1.582,1.902-3.027,3.064l-1.244,0.997c-1.736,1.395-2.766,2.69-3.09,3.886h8.146
			v2.915H368.904z"/>
		<path style="fill:#065629;" d="M392.236,391.421c-2.092,0-3.793-0.897-5.102-2.691c-1.307-1.793-1.961-4.123-1.961-6.988
			c0-2.898,0.656-5.236,1.969-7.013c1.311-1.777,3.039-2.666,5.182-2.666c2.125,0,3.846,0.886,5.162,2.659
			c1.316,1.773,1.975,4.097,1.975,6.97c0,2.948-0.658,5.307-1.975,7.076S394.42,391.421,392.236,391.421z M392.273,389.116
			c2.184,0,3.277-2.458,3.277-7.375c0-4.916-1.076-7.375-3.227-7.375c-2.152,0-3.227,2.454-3.227,7.362
			C389.097,386.655,390.156,389.116,392.273,389.116z"/>
	</g>
</g>
<path style="fill:#FFFFFF;stroke:#000000;stroke-miterlimit:10;" d="M586.102,7.172v8.504h4.67c0.943,0,1.708,0.765,1.708,1.708
	V29.85h12.756V17.385c0-0.944,0.765-1.708,1.708-1.708h4.67V7.172H586.102z"/>
<path style="fill:#FFFFFF;stroke:#000000;stroke-miterlimit:10;" d="M586.102,37.958v8.504h4.67c0.943,0,1.708,0.765,1.708,1.708
	v12.465h12.756V48.17c0-0.944,0.765-1.708,1.708-1.708h4.67v-8.504H586.102z"/>
<path style="fill:#FFFFFF;stroke:#000000;stroke-miterlimit:10;" d="M20.794,11.226v8.504h4.67c0.944,0,1.708,0.765,1.708,1.708
	v12.465h12.756V21.439c0-0.944,0.765-1.708,1.708-1.708h4.67v-8.504H20.794z"/>
<path style="fill:#FFFFFF;stroke:#000000;stroke-miterlimit:10;" d="M20.794,42.012v8.504h4.67c0.944,0,1.708,0.765,1.708,1.708
	v12.465h12.756V52.224c0-0.944,0.765-1.708,1.708-1.708h4.67v-8.504H20.794z"/>
</svg>
