<?xml version="1.0" encoding="iso-8859-1"?>
<!-- Generator: Adobe Illustrator 21.0.0, SVG Export Plug-In . SVG Version: 6.00 Build 0)  -->
<svg version="1.1" id="Ebene_1" xmlns="http://www.w3.org/2000/svg" xmlns:xlink="http://www.w3.org/1999/xlink" x="0px" y="0px"
	 viewBox="0 0 240.94 155.91" style="enable-background:new 0 0 240.94 155.91;" xml:space="preserve">
<path style="fill:#010202;" d="M76.647,6.018h0.694c0.143,0,0.26-0.116,0.26-0.26s-0.116-0.26-0.26-0.26h-0.694
	c-0.143,0-0.26,0.116-0.26,0.26S76.503,6.018,76.647,6.018z M91.233,6.018h0.695c0.143,0,0.26-0.116,0.26-0.26
	s-0.116-0.26-0.26-0.26h-0.695c-0.143,0-0.26,0.116-0.26,0.26S91.089,6.018,91.233,6.018z M82.898,6.018h0.695
	c0.143,0,0.26-0.116,0.26-0.26s-0.116-0.26-0.26-0.26h-0.695c-0.143,0-0.26,0.116-0.26,0.26S82.754,6.018,82.898,6.018z
	 M78.73,6.018h0.695c0.143,0,0.26-0.116,0.26-0.26s-0.116-0.26-0.26-0.26H78.73c-0.143,0-0.26,0.116-0.26,0.26
	S78.587,6.018,78.73,6.018z M84.981,6.018h0.695c0.143,0,0.26-0.116,0.26-0.26s-0.116-0.26-0.26-0.26h-0.695
	c-0.143,0-0.26,0.116-0.26,0.26S84.838,6.018,84.981,6.018z M89.149,6.018h0.695c0.143,0,0.26-0.116,0.26-0.26
	s-0.116-0.26-0.26-0.26h-0.695c-0.143,0-0.26,0.116-0.26,0.26S89.006,6.018,89.149,6.018z M87.065,6.018h0.695
	c0.143,0,0.26-0.116,0.26-0.26s-0.116-0.26-0.26-0.26h-0.695c-0.143,0-0.26,0.116-0.26,0.26S86.922,6.018,87.065,6.018z
	 M80.814,6.018h0.694c0.143,0,0.26-0.116,0.26-0.26s-0.116-0.26-0.26-0.26h-0.694c-0.143,0-0.26,0.116-0.26,0.26
	S80.671,6.018,80.814,6.018z M65.837,9.645c0.054,0,0.108-0.017,0.154-0.051l0.514-0.38c0.115-0.085,0.14-0.248,0.054-0.363
	c-0.085-0.115-0.248-0.139-0.363-0.054l-0.514,0.38c-0.115,0.085-0.14,0.248-0.054,0.363C65.679,9.608,65.758,9.645,65.837,9.645z
	 M126.656,6.018h0.695c0.143,0,0.26-0.116,0.26-0.26s-0.116-0.26-0.26-0.26h-0.695c-0.143,0-0.26,0.116-0.26,0.26
	S126.512,6.018,126.656,6.018z M67.38,8.504c0.054,0,0.108-0.017,0.154-0.051l0.514-0.38c0.115-0.085,0.14-0.248,0.054-0.363
	c-0.085-0.115-0.248-0.139-0.363-0.054l-0.514,0.38c-0.115,0.085-0.14,0.248-0.054,0.363C67.222,8.468,67.301,8.504,67.38,8.504z
	 M72.479,6.018h0.694c0.143,0,0.26-0.116,0.26-0.26s-0.116-0.26-0.26-0.26h-0.694c-0.143,0-0.26,0.116-0.26,0.26
	S72.336,6.018,72.479,6.018z M74.563,6.018h0.695c0.143,0,0.26-0.116,0.26-0.26s-0.116-0.26-0.26-0.26h-0.695
	c-0.143,0-0.26,0.116-0.26,0.26S74.419,6.018,74.563,6.018z M69.861,8.237c0.029,0.01,0.058,0.015,0.087,0.015
	c0.107,0,0.207-0.066,0.244-0.173l0.226-0.636c0.048-0.135-0.022-0.284-0.157-0.332c-0.135-0.048-0.284,0.022-0.332,0.157
	l-0.226,0.636C69.656,8.04,69.726,8.189,69.861,8.237z M68.923,7.364c0.054,0,0.108-0.017,0.154-0.051l0.514-0.38
	c0.115-0.085,0.14-0.248,0.054-0.363c-0.085-0.115-0.248-0.139-0.363-0.054l-0.514,0.38c-0.115,0.085-0.14,0.248-0.054,0.363
	C68.765,7.328,68.843,7.364,68.923,7.364z M112.07,6.018h0.694c0.143,0,0.26-0.116,0.26-0.26s-0.116-0.26-0.26-0.26h-0.694
	c-0.143,0-0.26,0.116-0.26,0.26S111.927,6.018,112.07,6.018z M122.488,6.018h0.695c0.143,0,0.26-0.116,0.26-0.26
	s-0.116-0.26-0.26-0.26h-0.695c-0.143,0-0.26,0.116-0.26,0.26S122.345,6.018,122.488,6.018z M109.986,6.018h0.695
	c0.143,0,0.26-0.116,0.26-0.26s-0.116-0.26-0.26-0.26h-0.695c-0.143,0-0.26,0.116-0.26,0.26S109.843,6.018,109.986,6.018z
	 M107.902,6.018h0.695c0.143,0,0.26-0.116,0.26-0.26s-0.116-0.26-0.26-0.26h-0.695c-0.143,0-0.26,0.116-0.26,0.26
	S107.759,6.018,107.902,6.018z M114.153,6.018h0.695c0.143,0,0.26-0.116,0.26-0.26s-0.116-0.26-0.26-0.26h-0.695
	c-0.143,0-0.26,0.116-0.26,0.26S114.01,6.018,114.153,6.018z M116.237,6.018h0.694c0.143,0,0.26-0.116,0.26-0.26
	s-0.116-0.26-0.26-0.26h-0.694c-0.143,0-0.26,0.116-0.26,0.26S116.094,6.018,116.237,6.018z M118.321,6.018h0.695
	c0.143,0,0.26-0.116,0.26-0.26s-0.116-0.26-0.26-0.26h-0.695c-0.143,0-0.26,0.116-0.26,0.26S118.178,6.018,118.321,6.018z
	 M120.405,6.018h0.694c0.143,0,0.26-0.116,0.26-0.26s-0.116-0.26-0.26-0.26h-0.694c-0.143,0-0.26,0.116-0.26,0.26
	S120.261,6.018,120.405,6.018z M93.316,6.018h0.695c0.143,0,0.26-0.116,0.26-0.26s-0.116-0.26-0.26-0.26h-0.695
	c-0.143,0-0.26,0.116-0.26,0.26S93.173,6.018,93.316,6.018z M99.567,6.018h0.695c0.143,0,0.26-0.116,0.26-0.26
	s-0.116-0.26-0.26-0.26h-0.695c-0.143,0-0.26,0.116-0.26,0.26S99.424,6.018,99.567,6.018z M97.484,6.018h0.695
	c0.143,0,0.26-0.116,0.26-0.26s-0.116-0.26-0.26-0.26h-0.695c-0.143,0-0.26,0.116-0.26,0.26S97.34,6.018,97.484,6.018z M95.4,6.018
	h0.695c0.143,0,0.26-0.116,0.26-0.26s-0.116-0.26-0.26-0.26H95.4c-0.143,0-0.26,0.116-0.26,0.26S95.257,6.018,95.4,6.018z
	 M124.572,6.018h0.695c0.143,0,0.26-0.116,0.26-0.26s-0.116-0.26-0.26-0.26h-0.695c-0.143,0-0.26,0.116-0.26,0.26
	S124.429,6.018,124.572,6.018z M101.651,6.018h0.695c0.143,0,0.26-0.116,0.26-0.26s-0.116-0.26-0.26-0.26h-0.695
	c-0.143,0-0.26,0.116-0.26,0.26S101.508,6.018,101.651,6.018z M105.819,6.018h0.695c0.143,0,0.26-0.116,0.26-0.26
	s-0.116-0.26-0.26-0.26h-0.695c-0.143,0-0.26,0.116-0.26,0.26S105.675,6.018,105.819,6.018z M103.735,6.018h0.695
	c0.143,0,0.26-0.116,0.26-0.26s-0.116-0.26-0.26-0.26h-0.695c-0.143,0-0.26,0.116-0.26,0.26S103.592,6.018,103.735,6.018z
	 M170.414,6.018h0.695c0.143,0,0.26-0.116,0.26-0.26s-0.116-0.26-0.26-0.26h-0.695c-0.143,0-0.26,0.116-0.26,0.26
	S170.271,6.018,170.414,6.018z M187.084,6.018h0.695c0.143,0,0.26-0.116,0.26-0.26s-0.116-0.26-0.26-0.26h-0.695
	c-0.143,0-0.26,0.116-0.26,0.26S186.94,6.018,187.084,6.018z M182.916,6.018h0.695c0.143,0,0.26-0.116,0.26-0.26
	s-0.116-0.26-0.26-0.26h-0.695c-0.143,0-0.26,0.116-0.26,0.26S182.773,6.018,182.916,6.018z M168.33,6.018h0.695
	c0.143,0,0.26-0.116,0.26-0.26s-0.116-0.26-0.26-0.26h-0.695c-0.143,0-0.26,0.116-0.26,0.26S168.187,6.018,168.33,6.018z
	 M178.749,6.018h0.695c0.143,0,0.26-0.116,0.26-0.26s-0.116-0.26-0.26-0.26h-0.695c-0.143,0-0.26,0.116-0.26,0.26
	S178.606,6.018,178.749,6.018z M180.833,6.018h0.695c0.143,0,0.26-0.116,0.26-0.26s-0.116-0.26-0.26-0.26h-0.695
	c-0.143,0-0.26,0.116-0.26,0.26S180.689,6.018,180.833,6.018z M60.193,18.888l0.226,0.636c0.038,0.106,0.138,0.173,0.244,0.173
	c0.029,0,0.058-0.005,0.087-0.015c0.135-0.048,0.206-0.196,0.158-0.331l-0.226-0.636c-0.048-0.135-0.197-0.205-0.331-0.158
	C60.215,18.605,60.145,18.753,60.193,18.888z M176.665,6.018h0.695c0.143,0,0.26-0.116,0.26-0.26s-0.116-0.26-0.26-0.26h-0.695
	c-0.143,0-0.26,0.116-0.26,0.26S176.522,6.018,176.665,6.018z M172.498,6.018h0.695c0.143,0,0.26-0.116,0.26-0.26
	s-0.116-0.26-0.26-0.26h-0.695c-0.143,0-0.26,0.116-0.26,0.26S172.354,6.018,172.498,6.018z M174.581,6.018h0.695
	c0.143,0,0.26-0.116,0.26-0.26s-0.116-0.26-0.26-0.26h-0.695c-0.143,0-0.26,0.116-0.26,0.26S174.438,6.018,174.581,6.018z
	 M185,6.018h0.695c0.143,0,0.26-0.116,0.26-0.26s-0.116-0.26-0.26-0.26H185c-0.143,0-0.26,0.116-0.26,0.26S184.857,6.018,185,6.018z
	 M189.167,6.018h0.695c0.143,0,0.26-0.116,0.26-0.26s-0.116-0.26-0.26-0.26h-0.695c-0.143,0-0.26,0.116-0.26,0.26
	S189.024,6.018,189.167,6.018z M199.586,6.018h0.694c0.143,0,0.26-0.116,0.26-0.26s-0.116-0.26-0.26-0.26h-0.694
	c-0.143,0-0.26,0.116-0.26,0.26S199.443,6.018,199.586,6.018z M201.67,6.018h0.695c0.143,0,0.26-0.116,0.26-0.26
	s-0.116-0.26-0.26-0.26h-0.695c-0.143,0-0.26,0.116-0.26,0.26S201.526,6.018,201.67,6.018z M202.028,6.89
	c-0.117,0.082-0.146,0.244-0.064,0.361c0.051,0.072,0.131,0.111,0.213,0.111c0.051,0,0.103-0.015,0.149-0.047l0.546-0.382
	c0.117-0.082,0.146-0.244,0.064-0.361c-0.082-0.118-0.244-0.146-0.361-0.064L202.028,6.89z M200.325,8.397
	c0.051,0.072,0.131,0.111,0.213,0.111c0.051,0,0.103-0.015,0.149-0.047l0.546-0.382c0.117-0.082,0.146-0.244,0.064-0.361
	c-0.082-0.118-0.244-0.146-0.361-0.064l-0.546,0.382C200.271,8.118,200.243,8.28,200.325,8.397z M191.251,6.018h0.694
	c0.143,0,0.26-0.116,0.26-0.26s-0.116-0.26-0.26-0.26h-0.694c-0.143,0-0.26,0.116-0.26,0.26S191.108,6.018,191.251,6.018z
	 M195.419,6.018h0.694c0.143,0,0.26-0.116,0.26-0.26s-0.116-0.26-0.26-0.26h-0.694c-0.143,0-0.26,0.116-0.26,0.26
	S195.275,6.018,195.419,6.018z M193.335,6.018h0.695c0.143,0,0.26-0.116,0.26-0.26s-0.116-0.26-0.26-0.26h-0.695
	c-0.143,0-0.26,0.116-0.26,0.26S193.192,6.018,193.335,6.018z M149.577,6.018h0.695c0.143,0,0.26-0.116,0.26-0.26
	s-0.116-0.26-0.26-0.26h-0.695c-0.143,0-0.26,0.116-0.26,0.26S149.433,6.018,149.577,6.018z M166.246,6.018h0.695
	c0.143,0,0.26-0.116,0.26-0.26s-0.116-0.26-0.26-0.26h-0.695c-0.143,0-0.26,0.116-0.26,0.26S166.103,6.018,166.246,6.018z
	 M139.158,6.018h0.695c0.143,0,0.26-0.116,0.26-0.26s-0.116-0.26-0.26-0.26h-0.695c-0.143,0-0.26,0.116-0.26,0.26
	S139.015,6.018,139.158,6.018z M141.242,6.018h0.695c0.143,0,0.26-0.116,0.26-0.26s-0.116-0.26-0.26-0.26h-0.695
	c-0.143,0-0.26,0.116-0.26,0.26S141.099,6.018,141.242,6.018z M145.409,6.018h0.695c0.143,0,0.26-0.116,0.26-0.26
	s-0.116-0.26-0.26-0.26h-0.695c-0.143,0-0.26,0.116-0.26,0.26S145.266,6.018,145.409,6.018z M130.823,6.018h0.695
	c0.143,0,0.26-0.116,0.26-0.26s-0.116-0.26-0.26-0.26h-0.695c-0.143,0-0.26,0.116-0.26,0.26S130.68,6.018,130.823,6.018z
	 M147.493,6.018h0.695c0.143,0,0.26-0.116,0.26-0.26s-0.116-0.26-0.26-0.26h-0.695c-0.143,0-0.26,0.116-0.26,0.26
	S147.35,6.018,147.493,6.018z M132.907,6.018h0.695c0.143,0,0.26-0.116,0.26-0.26s-0.116-0.26-0.26-0.26h-0.695
	c-0.143,0-0.26,0.116-0.26,0.26S132.764,6.018,132.907,6.018z M137.074,6.018h0.695c0.143,0,0.26-0.116,0.26-0.26
	s-0.116-0.26-0.26-0.26h-0.695c-0.143,0-0.26,0.116-0.26,0.26S136.931,6.018,137.074,6.018z M134.991,6.018h0.695
	c0.143,0,0.26-0.116,0.26-0.26s-0.116-0.26-0.26-0.26h-0.695c-0.143,0-0.26,0.116-0.26,0.26S134.847,6.018,134.991,6.018z
	 M143.326,6.018h0.695c0.143,0,0.26-0.116,0.26-0.26s-0.116-0.26-0.26-0.26h-0.695c-0.143,0-0.26,0.116-0.26,0.26
	S143.182,6.018,143.326,6.018z M157.912,6.018h0.695c0.143,0,0.26-0.116,0.26-0.26s-0.116-0.26-0.26-0.26h-0.695
	c-0.143,0-0.26,0.116-0.26,0.26S157.768,6.018,157.912,6.018z M162.079,6.018h0.695c0.143,0,0.26-0.116,0.26-0.26
	s-0.116-0.26-0.26-0.26h-0.695c-0.143,0-0.26,0.116-0.26,0.26S161.936,6.018,162.079,6.018z M159.995,6.018h0.694
	c0.143,0,0.26-0.116,0.26-0.26s-0.116-0.26-0.26-0.26h-0.694c-0.143,0-0.26,0.116-0.26,0.26S159.852,6.018,159.995,6.018z
	 M164.163,6.018h0.695c0.143,0,0.26-0.116,0.26-0.26s-0.116-0.26-0.26-0.26h-0.695c-0.143,0-0.26,0.116-0.26,0.26
	S164.02,6.018,164.163,6.018z M128.74,6.018h0.695c0.143,0,0.26-0.116,0.26-0.26s-0.116-0.26-0.26-0.26h-0.695
	c-0.143,0-0.26,0.116-0.26,0.26S128.596,6.018,128.74,6.018z M151.661,6.018h0.694c0.143,0,0.26-0.116,0.26-0.26
	s-0.116-0.26-0.26-0.26h-0.694c-0.143,0-0.26,0.116-0.26,0.26S151.517,6.018,151.661,6.018z M153.744,6.018h0.695
	c0.143,0,0.26-0.116,0.26-0.26s-0.116-0.26-0.26-0.26h-0.695c-0.143,0-0.26,0.116-0.26,0.26S153.601,6.018,153.744,6.018z
	 M155.828,6.018h0.694c0.143,0,0.26-0.116,0.26-0.26s-0.116-0.26-0.26-0.26h-0.694c-0.143,0-0.26,0.116-0.26,0.26
	S155.685,6.018,155.828,6.018z M70.406,6.217c0.03,0.05,0.076,0.091,0.135,0.112c0.029,0.01,0.058,0.015,0.087,0.015
	c0.107,0,0.207-0.066,0.244-0.173l0.055-0.154h0.163c0.143,0,0.26-0.116,0.26-0.26s-0.116-0.26-0.26-0.26h-0.346
	c-0.001,0-0.003,0.001-0.004,0.001c-0.023,0-0.046,0.004-0.068,0.011c-0.005,0.002-0.01,0.003-0.015,0.005
	c-0.019,0.007-0.038,0.016-0.055,0.028c-0.003,0.002-0.005,0.003-0.008,0.005c-0.001,0.001-0.002,0.001-0.003,0.002l-0.278,0.206
	c-0.115,0.085-0.14,0.248-0.054,0.363C70.295,6.17,70.348,6.203,70.406,6.217z M200.525,41.822c0-0.143-0.116-0.26-0.26-0.26h-0.698
	c-0.143,0-0.26,0.116-0.26,0.26s0.116,0.26,0.26,0.26h0.698C200.409,42.082,200.525,41.965,200.525,41.822z M201.009,43.382
	l-0.532,0.352c-0.12,0.079-0.152,0.24-0.073,0.36c0.05,0.076,0.132,0.116,0.217,0.116c0.049,0,0.099-0.014,0.143-0.043l0.532-0.352
	c0.12-0.079,0.152-0.24,0.073-0.36C201.29,43.335,201.128,43.302,201.009,43.382z M199.415,44.437l-0.532,0.352
	c-0.12,0.079-0.152,0.24-0.073,0.36c0.05,0.076,0.132,0.116,0.217,0.116c0.049,0,0.099-0.014,0.143-0.043l0.532-0.352
	c0.12-0.079,0.152-0.24,0.073-0.36C199.695,44.39,199.534,44.357,199.415,44.437z M199.047,9.607l0.546-0.382
	c0.117-0.082,0.146-0.244,0.064-0.361c-0.082-0.118-0.244-0.146-0.361-0.064l-0.546,0.382c-0.117,0.082-0.146,0.244-0.064,0.361
	c0.051,0.072,0.131,0.111,0.213,0.111C198.95,9.654,199.002,9.639,199.047,9.607z M202.604,42.327l-0.532,0.352
	c-0.12,0.079-0.152,0.24-0.073,0.36c0.05,0.076,0.132,0.116,0.217,0.116c0.049,0,0.099-0.014,0.143-0.043l0.532-0.352
	c0.12-0.079,0.152-0.24,0.073-0.36C202.885,42.281,202.724,42.247,202.604,42.327z M204.099,41.217c-0.143,0-0.26,0.116-0.26,0.26
	v0.033l-0.08,0.053h-0.006c-0.143,0-0.26,0.116-0.26,0.26c0,0.128,0.093,0.234,0.216,0.255c0.032,0.014,0.066,0.022,0.101,0.022
	c0.03,0,0.06-0.007,0.089-0.018h0.199c0.143,0,0.26-0.116,0.26-0.26v-0.346C204.359,41.333,204.243,41.217,204.099,41.217z
	 M198.197,5.499h-0.695c-0.143,0-0.26,0.116-0.26,0.26s0.116,0.26,0.26,0.26h0.695c0.143,0,0.26-0.116,0.26-0.26
	S198.34,5.499,198.197,5.499z M202.618,41.822c0-0.143-0.116-0.26-0.26-0.26h-0.697c-0.143,0-0.26,0.116-0.26,0.26
	s0.116,0.26,0.26,0.26h0.697C202.501,42.082,202.618,41.965,202.618,41.822z M148.499,35.29c-0.953,0-1.693,0.285-2.22,0.853
	c-0.527,0.569-0.79,1.313-0.79,2.233c0,0.92,0.263,1.664,0.79,2.233c0.527,0.569,1.267,0.853,2.22,0.853s1.693-0.284,2.22-0.853
	c0.527-0.568,0.79-1.313,0.79-2.233c0-0.919-0.263-1.664-0.79-2.233C150.192,35.575,149.452,35.29,148.499,35.29z M83.686,39.166
	c-0.426,0.025-0.837,0.096-1.229,0.213c-0.393,0.117-0.728,0.293-1.003,0.527c-0.276,0.234-0.414,0.56-0.414,0.978
	c0,0.452,0.192,0.786,0.577,1.004c0.385,0.217,0.786,0.326,1.204,0.326c0.368,0,0.723-0.05,1.066-0.151
	c0.342-0.1,0.648-0.242,0.916-0.426c0.267-0.184,0.481-0.418,0.64-0.703c0.159-0.284,0.238-0.619,0.238-1.003v-0.803h-0.928
	C84.468,39.128,84.113,39.141,83.686,39.166z M111.495,34.688c-0.418,0-0.786,0.067-1.104,0.201
	c-0.318,0.134-0.59,0.305-0.815,0.514c-0.226,0.209-0.401,0.452-0.527,0.728c-0.125,0.276-0.197,0.564-0.213,0.866h4.967
	c0.017-0.635-0.192-1.179-0.627-1.631C112.741,34.914,112.181,34.688,111.495,34.688z M96.06,21.682v-7.358
	c0-0.492-0.492-0.882-1.09-0.882h-1.111v9.104h1.111C95.569,22.547,96.06,22.157,96.06,21.682z M198.173,41.563h-0.498V10.567
	l0.28-0.196c0.117-0.082,0.146-0.244,0.064-0.361c-0.082-0.118-0.244-0.146-0.361-0.064l-0.237,0.166H69.419
	c0.042-0.03,0.076-0.072,0.095-0.124l0.227-0.636c0.048-0.135-0.022-0.283-0.157-0.332c-0.136-0.048-0.284,0.022-0.332,0.157
	l-0.227,0.636c-0.04,0.112,0.003,0.233,0.096,0.299h-4.056c-0.006-0.042-0.02-0.084-0.047-0.12c-0.085-0.115-0.248-0.14-0.363-0.055
	l-0.237,0.175h-0.099l-7.48,20.998l-7.33-20.631l0.162-0.113c0.117-0.082,0.146-0.244,0.064-0.361s-0.244-0.146-0.361-0.064
	l-0.245,0.171h-5.862V9.642c0-0.143-0.116-0.26-0.26-0.26c-0.143,0-0.26,0.116-0.26,0.26v0.469h-5.495l0.026-0.018
	c0.117-0.082,0.146-0.244,0.064-0.361c-0.082-0.117-0.244-0.146-0.361-0.064l-0.284,0.198c-0.082,0.057-0.119,0.153-0.108,0.245
	h-0.008v36.064h9.189v-0.047c0.036-0.005,0.071-0.014,0.103-0.034l0.294-0.182c0.122-0.075,0.16-0.235,0.085-0.357
	c-0.075-0.122-0.235-0.16-0.357-0.085l-0.125,0.077v-3.486c0.093-0.039,0.159-0.132,0.159-0.239s-0.066-0.2-0.159-0.239V23.826
	l5.931,17.783c-0.067,0.047-0.111,0.124-0.111,0.212c0,0.129,0.094,0.235,0.217,0.255c0.005,0.013,0.011,0.026,0.019,0.039
	c0.018,0.029,0.042,0.052,0.068,0.071l1.33,3.987h6.943l0.038-0.11l0.248-0.153c0.122-0.075,0.16-0.235,0.085-0.357
	c-0.03-0.049-0.074-0.083-0.123-0.103l1.153-3.37h0.773c0.143,0,0.26-0.116,0.26-0.26s-0.116-0.26-0.26-0.26h-0.595l6.148-17.975
	l0.021,13.9c-0.076,0.024-0.141,0.082-0.169,0.163l-0.214,0.627c-0.046,0.136,0.026,0.283,0.162,0.329
	c0.028,0.01,0.056,0.014,0.084,0.014c0.05,0,0.098-0.016,0.139-0.042l0.011,7.596h9.155v0h64.943v4.021h3.768v-4.021h51.882v-0.017
	l0,0c0.049,0,0.099-0.014,0.143-0.043l0.289-0.191c0.12-0.079,0.152-0.24,0.073-0.36c-0.079-0.12-0.24-0.153-0.36-0.073
	l-0.145,0.096v-3.506h0.498c0.143,0,0.26-0.116,0.26-0.26S198.316,41.563,198.173,41.563z M121.596,12.9
	c0-0.288,0.299-0.543,0.684-0.543h1.774c1.368,0,2.458,0.882,2.458,1.967v2.255c0,0.56-0.278,1.051-0.748,1.407
	c0.47,0.356,0.748,0.865,0.748,1.424v3.95c0,0.153-0.15,0.271-0.342,0.271h-0.684c-0.192,0-0.342-0.119-0.342-0.271v-3.95
	c0-0.492-0.492-0.882-1.09-0.882h-1.09v4.832c0,0.153-0.171,0.271-0.342,0.271h-0.684c-0.192,0-0.342-0.119-0.342-0.271V12.9z
	 M109.651,12.9c0-0.288,0.321-0.543,0.684-0.543h1.795c1.346,0,2.458,0.882,2.458,1.967v2.255c0,0.56-0.299,1.068-0.769,1.424
	c0.47,0.356,0.769,0.848,0.769,1.407v2.272c0,1.068-1.111,1.95-2.458,1.95h-1.795c-0.363,0-0.684-0.237-0.684-0.543V12.9z
	 M99.201,12.9c0-0.288,0.299-0.543,0.684-0.543h2.543c0.192,0,0.342,0.136,0.342,0.271v0.543c0,0.153-0.15,0.271-0.342,0.271h-1.859
	v4.018h1.859c0.192,0,0.342,0.119,0.342,0.271v0.543c0,0.136-0.15,0.271-0.342,0.271h-1.859v4.001h1.859
	c0.192,0,0.342,0.136,0.342,0.271v0.543c0,0.153-0.15,0.271-0.342,0.271h-2.543c-0.385,0-0.684-0.237-0.684-0.543V12.9z
	 M92.491,12.9c0-0.288,0.321-0.543,0.684-0.543h1.795c1.368,0,2.458,0.882,2.458,1.967v7.358c0,1.068-1.09,1.95-2.458,1.95h-1.795
	c-0.363,0-0.684-0.237-0.684-0.543V12.9z M84.008,12.9c0-0.288,0.299-0.543,0.684-0.543h2.543c0.192,0,0.342,0.136,0.342,0.271
	v0.543c0,0.153-0.15,0.271-0.342,0.271h-1.859v4.018h1.859c0.192,0,0.342,0.119,0.342,0.271v0.543c0,0.136-0.15,0.271-0.342,0.271
	h-1.859v4.001h1.859c0.192,0,0.342,0.136,0.342,0.271v0.543c0,0.153-0.15,0.271-0.342,0.271h-2.543
	c-0.385,0-0.684-0.237-0.684-0.543V12.9z M77.319,23.36V12.645c0-0.017,0-0.017,0-0.017c0-0.136,0.15-0.271,0.342-0.271h0.684
	c0.192,0,0.342,0.136,0.342,0.271v4.832h2.201v-4.832c0-0.136,0.15-0.271,0.342-0.271h0.662c0.192,0,0.342,0.136,0.342,0.271V23.36
	c0,0.153-0.15,0.271-0.342,0.271H81.23c-0.192,0-0.342-0.119-0.342-0.271v-4.815h-2.201v4.815c0,0.153-0.15,0.271-0.342,0.271
	h-0.684C77.469,23.632,77.319,23.513,77.319,23.36z M89.143,44.472h-3.462v-1.53h-0.05c-0.418,0.652-0.975,1.121-1.668,1.405
	c-0.694,0.284-1.426,0.426-2.195,0.426c-0.569,0-1.116-0.08-1.643-0.238c-0.527-0.159-0.991-0.397-1.392-0.715
	c-0.401-0.318-0.719-0.711-0.953-1.179c-0.235-0.468-0.351-1.012-0.351-1.631c0-0.703,0.129-1.296,0.389-1.781
	c0.259-0.485,0.61-0.886,1.054-1.204c0.443-0.318,0.949-0.564,1.518-0.74c0.568-0.176,1.158-0.305,1.769-0.389
	c0.61-0.083,1.221-0.134,1.831-0.151c0.61-0.016,1.175-0.025,1.694-0.025c0-0.669-0.238-1.2-0.715-1.593
	c-0.477-0.393-1.041-0.59-1.693-0.59c-0.619,0-1.183,0.13-1.693,0.389c-0.51,0.26-0.966,0.615-1.367,1.066l-2.007-2.057
	c0.702-0.652,1.522-1.141,2.459-1.468c0.936-0.326,1.907-0.489,2.91-0.489c1.104,0,2.011,0.138,2.722,0.414
	c0.711,0.276,1.279,0.682,1.706,1.217c0.426,0.535,0.723,1.192,0.891,1.969c0.167,0.778,0.251,1.677,0.251,2.697V44.472z
	 M90.718,23.36c0,0.153-0.15,0.271-0.342,0.271h-0.684c-0.192,0-0.342-0.119-0.342-0.271V12.645c0-0.017,0-0.017,0-0.017
	c0-0.136,0.15-0.271,0.342-0.271h0.684c0.192,0,0.342,0.136,0.342,0.271V23.36z M99.428,44.472l-4.114-6.171h-0.05v6.171H91.5
	V25.506h3.763v11.59l4.165-4.817h4.616l-4.842,5.494l4.967,6.698H99.428z M104.543,23.089V12.628c0-0.136,0.15-0.271,0.342-0.271
	h0.684c0.171,0,0.342,0.136,0.342,0.271v9.918h1.838c0.192,0,0.342,0.136,0.342,0.271v0.543c0,0.153-0.15,0.271-0.342,0.271h-2.522
	C104.843,23.632,104.543,23.394,104.543,23.089z M117.566,39.555h-8.73c0.151,0.719,0.477,1.292,0.978,1.719s1.12,0.64,1.856,0.64
	c0.619,0,1.142-0.138,1.568-0.414c0.427-0.276,0.799-0.631,1.117-1.066l2.634,1.932c-0.602,0.769-1.363,1.363-2.283,1.781
	c-0.92,0.418-1.873,0.627-2.86,0.627c-0.937,0-1.819-0.151-2.647-0.452s-1.547-0.731-2.157-1.292
	c-0.611-0.56-1.091-1.233-1.443-2.019c-0.351-0.786-0.527-1.664-0.527-2.634c0-0.97,0.176-1.848,0.527-2.634
	c0.351-0.786,0.832-1.459,1.443-2.02c0.61-0.56,1.33-0.991,2.157-1.292c0.828-0.301,1.71-0.452,2.647-0.452
	c0.869,0,1.66,0.151,2.371,0.452c0.711,0.301,1.313,0.732,1.806,1.292c0.493,0.561,0.874,1.234,1.142,2.02
	c0.267,0.786,0.401,1.664,0.401,2.634V39.555z M117.045,23.632c-0.385,0-0.684-0.237-0.684-0.543V12.9
	c0-0.288,0.299-0.543,0.684-0.543h2.543c0.192,0,0.342,0.136,0.342,0.271v0.543c0,0.153-0.15,0.271-0.342,0.271h-1.859v4.018h1.859
	c0.192,0,0.342,0.119,0.342,0.271v0.543c0,0.136-0.15,0.271-0.342,0.271h-1.859v4.001h1.859c0.192,0,0.342,0.136,0.342,0.271v0.543
	c0,0.153-0.15,0.271-0.342,0.271H117.045z M128.429,35.541c-0.268-0.083-0.531-0.146-0.79-0.188
	c-0.259-0.042-0.531-0.063-0.815-0.063c-0.719,0-1.288,0.1-1.706,0.301c-0.418,0.201-0.74,0.481-0.966,0.84
	c-0.226,0.36-0.372,0.79-0.439,1.292c-0.067,0.502-0.1,1.054-0.1,1.656v5.093h-3.763V32.28h3.763v1.957h0.05
	c0.401-0.753,0.878-1.317,1.43-1.693c0.552-0.376,1.246-0.564,2.082-0.564c0.217,0,0.435,0.009,0.652,0.025
	c0.217,0.017,0.418,0.05,0.602,0.1V35.541z M128.285,21.682v-7.375c0-1.068,1.111-1.95,2.458-1.95c1.346,0,2.458,0.882,2.458,1.95
	v0.576c0,0.153-0.15,0.271-0.342,0.271h-0.684c-0.192,0-0.342-0.119-0.342-0.271v-0.576c0-0.475-0.492-0.865-1.09-0.865
	c-0.598,0-1.09,0.39-1.09,0.865v7.375c0,0.475,0.492,0.865,1.09,0.865c0.598,0,1.09-0.39,1.09-0.865v-3.17h-0.748
	c-0.192,0-0.342-0.119-0.342-0.271v-0.543c0-0.153,0.15-0.271,0.342-0.271h1.774c0.192,0,0.342,0.119,0.342,0.271v3.984
	c0,1.068-1.111,1.95-2.458,1.95C129.396,23.632,128.285,22.75,128.285,21.682z M139.229,42.703c-0.343,0.51-0.782,0.92-1.317,1.229
	c-0.535,0.31-1.138,0.527-1.806,0.652c-0.669,0.126-1.33,0.188-1.982,0.188c-0.853,0-1.714-0.121-2.584-0.364
	c-0.87-0.242-1.606-0.673-2.208-1.292l2.283-2.534c0.351,0.435,0.74,0.765,1.167,0.991c0.426,0.226,0.924,0.339,1.493,0.339
	c0.435,0,0.828-0.063,1.179-0.188c0.351-0.125,0.527-0.355,0.527-0.69c0-0.317-0.155-0.556-0.464-0.715
	c-0.31-0.159-0.703-0.292-1.179-0.401c-0.477-0.109-0.987-0.226-1.53-0.351c-0.544-0.125-1.054-0.314-1.53-0.564
	c-0.477-0.251-0.87-0.606-1.179-1.066c-0.31-0.46-0.464-1.074-0.464-1.844c0-0.719,0.146-1.338,0.439-1.857
	c0.292-0.518,0.677-0.945,1.154-1.279c0.477-0.334,1.024-0.581,1.643-0.74c0.619-0.159,1.246-0.238,1.882-0.238
	c0.803,0,1.614,0.117,2.434,0.351c0.819,0.234,1.513,0.652,2.082,1.254l-2.308,2.283c-0.552-0.685-1.279-1.028-2.182-1.028
	c-0.318,0-0.627,0.075-0.928,0.226s-0.452,0.41-0.452,0.778c0,0.301,0.154,0.523,0.464,0.665c0.309,0.142,0.703,0.268,1.179,0.376
	c0.477,0.109,0.987,0.226,1.53,0.351c0.543,0.125,1.054,0.322,1.53,0.59c0.477,0.268,0.869,0.631,1.179,1.091
	c0.309,0.46,0.464,1.075,0.464,1.844C139.743,41.545,139.572,42.193,139.229,42.703z M154.883,40.721
	c-0.26,0.778-0.627,1.468-1.104,2.07c-0.477,0.602-1.058,1.083-1.744,1.442c-0.686,0.36-1.464,0.539-2.333,0.539
	c-0.786,0-1.518-0.121-2.195-0.364s-1.234-0.656-1.668-1.242h-0.05v3.001h-3.763V32.28h3.462v1.605h0.05
	c0.151-0.217,0.347-0.439,0.59-0.665c0.242-0.226,0.527-0.431,0.853-0.615c0.326-0.184,0.681-0.334,1.066-0.452
	c0.385-0.117,0.794-0.176,1.229-0.176c0.903,0,1.722,0.155,2.459,0.464c0.736,0.31,1.367,0.744,1.894,1.305
	c0.527,0.56,0.932,1.225,1.217,1.994c0.284,0.769,0.427,1.614,0.427,2.534C155.272,39.128,155.143,39.944,154.883,40.721z
	 M168.594,44.472h-3.462v-1.53h-0.05c-0.418,0.652-0.975,1.121-1.668,1.405c-0.694,0.284-1.426,0.426-2.195,0.426
	c-0.569,0-1.116-0.08-1.643-0.238c-0.527-0.159-0.991-0.397-1.392-0.715c-0.401-0.318-0.719-0.711-0.953-1.179
	c-0.235-0.468-0.351-1.012-0.351-1.631c0-0.703,0.129-1.296,0.389-1.781c0.259-0.485,0.61-0.886,1.054-1.204
	c0.443-0.318,0.949-0.564,1.518-0.74c0.568-0.176,1.158-0.305,1.769-0.389c0.61-0.083,1.221-0.134,1.831-0.151
	c0.61-0.016,1.175-0.025,1.694-0.025c0-0.669-0.238-1.2-0.715-1.593c-0.477-0.393-1.041-0.59-1.693-0.59
	c-0.619,0-1.183,0.13-1.693,0.389c-0.51,0.26-0.966,0.615-1.367,1.066l-2.007-2.057c0.702-0.652,1.522-1.141,2.459-1.468
	c0.936-0.326,1.907-0.489,2.91-0.489c1.104,0,2.011,0.138,2.722,0.414c0.711,0.276,1.279,0.682,1.706,1.217
	c0.426,0.535,0.723,1.192,0.891,1.969c0.167,0.778,0.251,1.677,0.251,2.697V44.472z M175.128,40.609
	c0.527,0.569,1.267,0.853,2.22,0.853c0.418,0,0.778-0.092,1.079-0.276c0.301-0.184,0.56-0.401,0.778-0.652l2.484,2.609
	c-0.586,0.602-1.275,1.025-2.07,1.267c-0.794,0.242-1.551,0.364-2.27,0.364c-0.937,0-1.819-0.151-2.647-0.452
	s-1.547-0.731-2.157-1.292c-0.611-0.56-1.091-1.233-1.443-2.019c-0.351-0.786-0.527-1.664-0.527-2.634
	c0-0.97,0.176-1.848,0.527-2.634c0.351-0.786,0.832-1.459,1.443-2.02c0.61-0.56,1.33-0.991,2.157-1.292
	c0.828-0.301,1.71-0.452,2.647-0.452c0.719,0,1.476,0.121,2.27,0.364c0.794,0.243,1.484,0.665,2.07,1.267l-2.484,2.609
	c-0.184-0.267-0.443-0.489-0.778-0.665c-0.335-0.176-0.694-0.263-1.079-0.263c-0.953,0-1.693,0.285-2.22,0.853
	c-0.527,0.569-0.79,1.313-0.79,2.233C174.338,39.296,174.601,40.04,175.128,40.609z M195.161,39.555h-8.73
	c0.151,0.719,0.477,1.292,0.978,1.719s1.12,0.64,1.856,0.64c0.619,0,1.141-0.138,1.568-0.414c0.427-0.276,0.799-0.631,1.116-1.066
	l2.634,1.932c-0.602,0.769-1.363,1.363-2.283,1.781c-0.92,0.418-1.873,0.627-2.86,0.627c-0.937,0-1.819-0.151-2.647-0.452
	s-1.547-0.731-2.157-1.292c-0.611-0.56-1.091-1.233-1.443-2.019c-0.351-0.786-0.527-1.664-0.527-2.634
	c0-0.97,0.176-1.848,0.527-2.634c0.351-0.786,0.832-1.459,1.443-2.02c0.61-0.56,1.33-0.991,2.157-1.292
	c0.828-0.301,1.71-0.452,2.647-0.452c0.869,0,1.66,0.151,2.371,0.452c0.711,0.301,1.313,0.732,1.806,1.292
	c0.493,0.561,0.874,1.234,1.141,2.02c0.267,0.786,0.401,1.664,0.401,2.634V39.555z M204.099,39.094c-0.143,0-0.26,0.116-0.26,0.26
	v0.707c0,0.143,0.116,0.26,0.26,0.26s0.26-0.116,0.26-0.26v-0.707C204.359,39.211,204.243,39.094,204.099,39.094z M189.089,34.688
	c-0.418,0-0.786,0.067-1.104,0.201c-0.318,0.134-0.59,0.305-0.815,0.514c-0.226,0.209-0.401,0.452-0.527,0.728
	c-0.125,0.276-0.197,0.564-0.213,0.866h4.967c0.017-0.635-0.192-1.179-0.627-1.631C190.335,34.914,189.775,34.688,189.089,34.688z
	 M163.137,39.166c-0.426,0.025-0.837,0.096-1.229,0.213c-0.393,0.117-0.728,0.293-1.003,0.527c-0.276,0.234-0.414,0.56-0.414,0.978
	c0,0.452,0.192,0.786,0.577,1.004c0.385,0.217,0.786,0.326,1.204,0.326c0.368,0,0.723-0.05,1.066-0.151
	c0.342-0.1,0.648-0.242,0.916-0.426c0.267-0.184,0.481-0.418,0.64-0.703c0.159-0.284,0.238-0.619,0.238-1.003v-0.803h-0.928
	C163.919,39.128,163.564,39.141,163.137,39.166z M204.099,7.26c-0.143,0-0.26,0.116-0.26,0.26v0.707c0,0.143,0.116,0.26,0.26,0.26
	s0.26-0.116,0.26-0.26V7.52C204.359,7.376,204.243,7.26,204.099,7.26z M204.099,13.627c-0.143,0-0.26,0.116-0.26,0.26v0.707
	c0,0.143,0.116,0.26,0.26,0.26s0.26-0.116,0.26-0.26v-0.707C204.359,13.743,204.243,13.627,204.099,13.627z M204.099,15.749
	c-0.143,0-0.26,0.116-0.26,0.26v0.707c0,0.143,0.116,0.26,0.26,0.26s0.26-0.116,0.26-0.26v-0.707
	C204.359,15.865,204.243,15.749,204.099,15.749z M204.099,19.994c-0.143,0-0.26,0.116-0.26,0.26v0.707c0,0.143,0.116,0.26,0.26,0.26
	s0.26-0.116,0.26-0.26v-0.707C204.359,20.11,204.243,19.994,204.099,19.994z M204.099,36.972c-0.143,0-0.26,0.116-0.26,0.26v0.707
	c0,0.143,0.116,0.26,0.26,0.26s0.26-0.116,0.26-0.26v-0.707C204.359,37.088,204.243,36.972,204.099,36.972z M204.099,17.872
	c-0.143,0-0.26,0.116-0.26,0.26v0.707c0,0.143,0.116,0.26,0.26,0.26s0.26-0.116,0.26-0.26v-0.707
	C204.359,17.988,204.243,17.872,204.099,17.872z M204.099,9.382c-0.143,0-0.26,0.116-0.26,0.26v0.707c0,0.143,0.116,0.26,0.26,0.26
	s0.26-0.116,0.26-0.26V9.642C204.359,9.498,204.243,9.382,204.099,9.382z M204.359,5.757c0-0.013-0.002-0.025-0.004-0.037
	c-0.001-0.004-0.001-0.009-0.002-0.014c-0.002-0.009-0.006-0.018-0.009-0.028c-0.002-0.007-0.004-0.014-0.007-0.021
	c-0.002-0.006-0.006-0.011-0.009-0.016c-0.005-0.01-0.01-0.02-0.016-0.029c0-0.001-0.001-0.001-0.001-0.002
	c-0.004-0.006-0.009-0.01-0.013-0.015c-0.006-0.007-0.012-0.015-0.019-0.022c-0.006-0.006-0.013-0.011-0.02-0.016
	c-0.006-0.005-0.013-0.011-0.02-0.015c-0.007-0.005-0.014-0.008-0.022-0.012c-0.008-0.004-0.015-0.008-0.023-0.012
	c-0.007-0.003-0.015-0.005-0.022-0.007c-0.009-0.003-0.017-0.006-0.026-0.007c-0.009-0.002-0.018-0.002-0.027-0.003
	c-0.007-0.001-0.014-0.002-0.021-0.002h-0.346c-0.143,0-0.26,0.116-0.26,0.26c0,0.066,0.025,0.125,0.065,0.17
	c-0.007,0.06,0.007,0.123,0.044,0.177c0.051,0.072,0.131,0.111,0.213,0.111c0.016,0,0.031-0.004,0.046-0.007
	c0.04,0.091,0.131,0.155,0.237,0.155c0.143,0,0.26-0.116,0.26-0.26V5.759C204.359,5.758,204.359,5.757,204.359,5.757z
	 M113.22,21.682V19.41c0-0.475-0.492-0.865-1.09-0.865h-1.111v4.001h1.111C112.728,22.547,113.22,22.157,113.22,21.682z
	 M204.099,11.505c-0.143,0-0.26,0.116-0.26,0.26v0.707c0,0.143,0.116,0.26,0.26,0.26s0.26-0.116,0.26-0.26v-0.707
	C204.359,11.621,204.243,11.505,204.099,11.505z M59.515,16.981l0.226,0.636c0.038,0.106,0.138,0.173,0.244,0.173
	c0.029,0,0.058-0.005,0.087-0.015c0.135-0.048,0.206-0.196,0.158-0.331l-0.226-0.636c-0.048-0.135-0.197-0.206-0.331-0.158
	C59.537,16.697,59.467,16.846,59.515,16.981z M204.099,22.116c-0.143,0-0.26,0.116-0.26,0.26v0.707c0,0.143,0.116,0.26,0.26,0.26
	s0.26-0.116,0.26-0.26v-0.707C204.359,22.232,204.243,22.116,204.099,22.116z M204.099,34.85c-0.143,0-0.26,0.116-0.26,0.26v0.707
	c0,0.143,0.116,0.26,0.26,0.26s0.26-0.116,0.26-0.26v-0.707C204.359,34.966,204.243,34.85,204.099,34.85z M204.099,32.728
	c-0.143,0-0.26,0.116-0.26,0.26v0.707c0,0.143,0.116,0.26,0.26,0.26s0.26-0.116,0.26-0.26v-0.707
	C204.359,32.844,204.243,32.728,204.099,32.728z M204.099,24.238c-0.143,0-0.26,0.116-0.26,0.26v0.707c0,0.143,0.116,0.26,0.26,0.26
	s0.26-0.116,0.26-0.26v-0.707C204.359,24.355,204.243,24.238,204.099,24.238z M204.099,26.361c-0.143,0-0.26,0.116-0.26,0.26v0.707
	c0,0.143,0.116,0.26,0.26,0.26s0.26-0.116,0.26-0.26V26.62C204.359,26.477,204.243,26.361,204.099,26.361z M204.099,28.483
	c-0.143,0-0.26,0.116-0.26,0.26v0.707c0,0.143,0.116,0.26,0.26,0.26s0.26-0.116,0.26-0.26v-0.707
	C204.359,28.599,204.243,28.483,204.099,28.483z M204.099,30.605c-0.143,0-0.26,0.116-0.26,0.26v0.707c0,0.143,0.116,0.26,0.26,0.26
	s0.26-0.116,0.26-0.26v-0.707C204.359,30.721,204.243,30.605,204.099,30.605z M50.615,9.648c0.051,0,0.103-0.015,0.149-0.047
	l0.546-0.382c0.117-0.082,0.146-0.244,0.064-0.361c-0.082-0.118-0.244-0.146-0.361-0.064l-0.546,0.382
	c-0.117,0.082-0.146,0.244-0.064,0.361C50.452,9.61,50.533,9.648,50.615,9.648z M113.22,16.579v-2.255
	c0-0.492-0.492-0.882-1.09-0.882h-1.111v4.018h1.111C112.728,17.46,113.22,17.07,113.22,16.579z M46.913,6.018h0.712
	c0.143,0,0.26-0.116,0.26-0.26s-0.116-0.26-0.26-0.26h-0.712c-0.143,0-0.26,0.116-0.26,0.26S46.769,6.018,46.913,6.018z
	 M41.218,7.283c0.051,0,0.103-0.015,0.149-0.047l0.511-0.357c0.117-0.082,0.146-0.244,0.064-0.361
	C41.859,6.4,41.697,6.371,41.58,6.453L41.069,6.81c-0.117,0.082-0.146,0.244-0.064,0.361C41.055,7.244,41.136,7.283,41.218,7.283z
	 M43.006,7.26c-0.143,0-0.26,0.116-0.26,0.26v0.707c0,0.143,0.116,0.26,0.26,0.26c0.143,0,0.26-0.116,0.26-0.26V7.52
	C43.266,7.376,43.15,7.26,43.006,7.26z M44.776,6.018h0.712c0.143,0,0.26-0.116,0.26-0.26s-0.116-0.26-0.26-0.26h-0.712
	c-0.143,0-0.26,0.116-0.26,0.26S44.633,6.018,44.776,6.018z M52.041,8.392c0.051,0.072,0.131,0.111,0.213,0.111
	c0.051,0,0.103-0.015,0.149-0.047l0.546-0.382c0.117-0.082,0.146-0.244,0.064-0.361c-0.082-0.118-0.244-0.146-0.361-0.064
	L52.105,8.03C51.988,8.112,51.959,8.274,52.041,8.392z M42.751,6.211c0.006,0,0.012-0.002,0.018-0.003
	c0.04,0.092,0.131,0.156,0.238,0.156c0.143,0,0.26-0.116,0.26-0.26V6.018h0.087c0.143,0,0.26-0.116,0.26-0.26s-0.116-0.26-0.26-0.26
	h-0.268c-0.038-0.007-0.077-0.006-0.115,0.004c-0.066,0.01-0.123,0.044-0.163,0.093l-0.204,0.142
	c-0.117,0.082-0.146,0.244-0.064,0.361C42.588,6.172,42.669,6.211,42.751,6.211z M51.185,6.018h0.712c0.143,0,0.26-0.116,0.26-0.26
	s-0.116-0.26-0.26-0.26h-0.712c-0.143,0-0.26,0.116-0.26,0.26S51.041,6.018,51.185,6.018z M57.482,11.258l0.226,0.636
	c0.038,0.106,0.138,0.173,0.244,0.173c0.029,0,0.058-0.005,0.087-0.015c0.135-0.048,0.206-0.196,0.158-0.331l-0.226-0.636
	c-0.048-0.135-0.197-0.205-0.331-0.158C57.504,10.975,57.434,11.123,57.482,11.258z M58.159,13.166l0.226,0.636
	c0.038,0.106,0.138,0.173,0.244,0.173c0.029,0,0.058-0.005,0.087-0.015c0.135-0.048,0.206-0.196,0.158-0.331l-0.226-0.636
	c-0.048-0.135-0.196-0.206-0.331-0.158C58.182,12.882,58.111,13.031,58.159,13.166z M56.804,9.351l0.226,0.636
	c0.038,0.106,0.138,0.173,0.244,0.173c0.029,0,0.058-0.005,0.087-0.015c0.135-0.048,0.206-0.196,0.158-0.332l-0.226-0.636
	c-0.048-0.135-0.196-0.206-0.331-0.158C56.826,9.067,56.756,9.216,56.804,9.351z M58.837,15.073l0.226,0.636
	c0.038,0.106,0.138,0.173,0.244,0.173c0.029,0,0.058-0.005,0.087-0.015c0.135-0.048,0.206-0.196,0.158-0.331l-0.226-0.636
	c-0.048-0.135-0.197-0.205-0.331-0.158C58.86,14.79,58.789,14.938,58.837,15.073z M53.321,6.018h0.712c0.143,0,0.26-0.116,0.26-0.26
	s-0.116-0.26-0.26-0.26h-0.712c-0.143,0-0.26,0.116-0.26,0.26S53.178,6.018,53.321,6.018z M53.744,6.885
	c-0.117,0.082-0.146,0.244-0.064,0.361c0.051,0.072,0.131,0.111,0.213,0.111c0.051,0,0.103-0.015,0.149-0.047l0.546-0.382
	c0.117-0.082,0.146-0.244,0.064-0.361s-0.244-0.146-0.361-0.064L53.744,6.885z M56.126,7.443l0.226,0.636
	c0.038,0.106,0.138,0.173,0.244,0.173c0.029,0,0.058-0.005,0.087-0.015c0.135-0.048,0.206-0.196,0.158-0.332L56.615,7.27
	c-0.048-0.135-0.197-0.206-0.331-0.158C56.149,7.16,56.078,7.308,56.126,7.443z M55.32,6.1c0.051,0.072,0.131,0.111,0.213,0.111
	c0.049,0,0.097-0.015,0.14-0.043l0.001,0.004c0.038,0.106,0.138,0.173,0.245,0.173c0.029,0,0.058-0.005,0.087-0.015
	c0.135-0.048,0.206-0.196,0.158-0.331l-0.088-0.249c-0.001-0.05-0.016-0.101-0.047-0.145c-0.061-0.087-0.166-0.125-0.264-0.105
	h-0.307c-0.143,0-0.26,0.116-0.26,0.26c0,0.072,0.029,0.137,0.076,0.184C55.272,5.997,55.286,6.052,55.32,6.1z M49.049,6.018h0.712
	c0.143,0,0.26-0.116,0.26-0.26s-0.116-0.26-0.26-0.26h-0.712c-0.143,0-0.26,0.116-0.26,0.26S48.905,6.018,49.049,6.018z
	 M61.82,44.458l-0.547,0.337c-0.122,0.075-0.16,0.235-0.084,0.357c0.049,0.079,0.134,0.123,0.221,0.123
	c0.047,0,0.094-0.013,0.136-0.039l0.547-0.337c0.122-0.075,0.16-0.235,0.084-0.357C62.102,44.42,61.942,44.383,61.82,44.458z
	 M65.101,42.434l-0.547,0.337c-0.122,0.075-0.16,0.235-0.084,0.357c0.049,0.079,0.134,0.123,0.221,0.123
	c0.047,0,0.094-0.013,0.136-0.039l0.547-0.337c0.122-0.075,0.16-0.235,0.084-0.357C65.383,42.396,65.223,42.358,65.101,42.434z
	 M63.46,43.446l-0.547,0.337c-0.122,0.075-0.16,0.235-0.084,0.357c0.049,0.079,0.134,0.123,0.221,0.123
	c0.047,0,0.094-0.013,0.136-0.039l0.547-0.337c0.122-0.075,0.16-0.235,0.084-0.357C63.742,43.408,63.582,43.371,63.46,43.446z
	 M64.943,41.822c0-0.143-0.116-0.26-0.26-0.26h-0.781c-0.143,0-0.26,0.116-0.26,0.26s0.116,0.26,0.26,0.26h0.781
	C64.826,42.082,64.943,41.965,64.943,41.822z M66.788,41.249c-0.136-0.046-0.283,0.026-0.33,0.162l-0.052,0.152h-0.161
	c-0.143,0-0.26,0.116-0.26,0.26c0,0.077,0.034,0.145,0.087,0.193c0.005,0.035,0.016,0.069,0.036,0.101
	c0.049,0.079,0.134,0.123,0.221,0.123c0.047,0,0.094-0.013,0.136-0.039l0.249-0.154c0.012-0.007,0.024-0.013,0.035-0.022l0.01-0.006
	c0.087-0.053,0.13-0.149,0.121-0.244l0.067-0.196C66.996,41.443,66.923,41.296,66.788,41.249z M125.144,16.579v-2.255
	c0-0.492-0.492-0.882-1.09-0.882h-1.09v4.001h1.09C124.652,17.443,125.144,17.053,125.144,16.579z M67.431,39.369
	c-0.136-0.047-0.283,0.026-0.329,0.162l-0.214,0.627c-0.046,0.136,0.026,0.283,0.162,0.329c0.028,0.01,0.056,0.014,0.084,0.014
	c0.108,0,0.209-0.068,0.245-0.176l0.214-0.627C67.639,39.563,67.566,39.416,67.431,39.369z M38.151,9.426
	c0.051,0,0.103-0.015,0.149-0.047l0.511-0.357c0.117-0.082,0.146-0.244,0.064-0.361s-0.244-0.146-0.361-0.064l-0.511,0.357
	c-0.117,0.082-0.146,0.244-0.064,0.361C37.989,9.387,38.07,9.426,38.151,9.426z M49.176,43.446l-0.547,0.337
	c-0.122,0.075-0.16,0.235-0.084,0.357c0.049,0.079,0.134,0.123,0.221,0.123c0.047,0,0.094-0.013,0.136-0.039l0.547-0.337
	c0.122-0.075,0.16-0.235,0.084-0.357S49.298,43.371,49.176,43.446z M47.987,41.563h-0.772c-0.143,0-0.26,0.116-0.26,0.26
	s0.116,0.26,0.26,0.26h0.772c0.143,0,0.26-0.116,0.26-0.26S48.13,41.563,47.987,41.563z M47.536,44.458l-0.547,0.337
	c-0.122,0.075-0.16,0.235-0.084,0.357c0.049,0.079,0.134,0.123,0.221,0.123c0.047,0,0.094-0.013,0.136-0.039l0.547-0.337
	c0.122-0.075,0.16-0.235,0.084-0.357C47.818,44.42,47.658,44.383,47.536,44.458z M50.816,42.434l-0.547,0.337
	c-0.122,0.075-0.16,0.235-0.084,0.357c0.049,0.079,0.134,0.123,0.221,0.123c0.047,0,0.094-0.013,0.136-0.039l0.547-0.337
	c0.122-0.075,0.16-0.235,0.084-0.357C51.098,42.396,50.938,42.358,50.816,42.434z M39.685,8.354c0.051,0,0.103-0.015,0.149-0.047
	l0.511-0.357c0.117-0.082,0.146-0.244,0.064-0.361c-0.082-0.118-0.244-0.146-0.361-0.064l-0.511,0.357
	c-0.117,0.082-0.146,0.244-0.064,0.361C39.522,8.315,39.603,8.354,39.685,8.354z M49.532,42.082h0.772c0.143,0,0.26-0.116,0.26-0.26
	s-0.116-0.26-0.26-0.26h-0.772c-0.143,0-0.26,0.116-0.26,0.26S49.389,42.082,49.532,42.082z"/>
<g>
	<path style="fill:none;stroke:#E52421;stroke-width:0.2835;stroke-miterlimit:10;" d="M146.249,17.173
		c0.11-0.089,0.118-0.253,0.018-0.353l-0.877-0.877c-0.102-0.102-0.271-0.092-0.357,0.024c-0.273,0.366-0.86,1.121-1.499,1.76
		c-0.703,0.703-3.45,3.246-4.525,4.238c-0.237,0.219-0.244,0.591-0.016,0.819l0.421,0.421c0.229,0.229,0.603,0.221,0.821-0.018
		c0.973-1.065,3.412-3.734,3.859-4.18C144.538,18.564,145.76,17.567,146.249,17.173z"/>
	<path style="fill:none;stroke:#E52421;stroke-width:0.2835;stroke-miterlimit:10;" d="M170.992,23.727
		c0.096-0.114,0.18-0.237,0.232-0.378c0.525-1.435,1.049-2.87,1.574-4.305c0.437-1.193,0.874-2.385,1.311-3.578
		c0.004-0.011,0.009-0.023,0.016-0.037c0.022,0.009,0.043,0.015,0.06,0.027c0.058,0.037,0.118,0.073,0.173,0.114
		c0.317,0.24,0.591,0.525,0.842,0.831c0.19,0.232,0.363,0.476,0.493,0.747c0.145,0.303,0.217,0.626,0.253,0.958
		c0.071,0.654,0.018,1.297-0.167,1.929c-0.087,0.297-0.212,0.577-0.377,0.839c-0.171,0.271-0.362,0.527-0.57,0.77
		c-0.32,0.374-0.646,0.743-0.969,1.114c-0.055,0.063-0.11,0.127-0.164,0.191l0.003,0.011c0.02,0,0.042,0.005,0.059-0.002
		c0.035-0.013,0.071-0.028,0.102-0.048c0.166-0.106,0.309-0.239,0.447-0.377c0.607-0.607,1.146-1.27,1.604-1.998
		c0.12-0.191,0.235-0.387,0.315-0.598c0.074-0.194,0.137-0.393,0.194-0.593c0.083-0.292,0.12-0.592,0.127-0.895
		c0.01-0.452-0.057-0.894-0.165-1.331c-0.147-0.595-0.361-1.167-0.59-1.733c-0.15-0.371-0.298-0.743-0.418-1.125
		c-0.092-0.293-0.166-0.59-0.189-0.897c-0.021-0.282,0.001-0.561,0.051-0.838c0.027-0.149,0.055-0.298,0.097-0.442
		c0.044-0.151,0.105-0.297,0.159-0.446c0.009-0.026,0.019-0.051,0.028-0.078c-0.163-0.059-0.322-0.117-0.484-0.176
		c-1.323,3.646-2.645,7.29-3.97,10.941c-0.019-0.018-0.031-0.03-0.044-0.042c-0.239-0.228-0.497-0.425-0.814-0.536
		c-0.266-0.094-0.535-0.177-0.818-0.19c-0.612-0.029-1.203,0.072-1.767,0.315c-0.297,0.128-0.565,0.302-0.787,0.54
		c-0.195,0.209-0.341,0.449-0.38,0.734c-0.075,0.533,0.1,0.975,0.528,1.305c0.288,0.222,0.626,0.326,0.981,0.38
		c0.414,0.063,0.826,0.045,1.236-0.039c0.347-0.071,0.68-0.185,0.988-0.361C170.506,24.25,170.762,24.002,170.992,23.727z"/>
	<path style="fill:none;stroke:#E52421;stroke-width:0.2835;stroke-miterlimit:10;" d="M155.346,16.758
		c-0.571,0.632-1.077,1.398-1.387,2.102c-0.378,0.857-0.451,1.576-0.213,2.081c0.267,0.565,0.876,0.83,1.809,0.786
		c0.931-0.044,1.913-1.346,2.952-2.724c0.939-1.245,2.003-2.657,2.825-2.724c0.215-0.017,0.412,0.062,0.6,0.242
		c0.356,0.341,0.514,0.669,0.484,1.003c-0.074,0.821-1.29,1.624-2.179,2.21c-0.252,0.166-0.49,0.323-0.687,0.469
		c-0.309,0.228-0.686,0.463-1.086,0.711c-0.611,0.379-1.242,0.772-1.694,1.185c-0.211,0.193-0.853,0.781-0.596,1.491
		c0.027,0.075,0.073,0.161,0.151,0.239c0.078,0.078,0.19,0.149,0.347,0.191c0.474,0.127,1.167-0.063,1.665-0.245
		c0.548-0.2,1.097-0.479,1.334-0.679"/>
	<path style="fill:none;stroke:#E52421;stroke-width:0.2835;stroke-miterlimit:10;" d="M144.329,14.127
		c0.031,0.098,0.085,0.187,0.157,0.259l3.599,3.599c0.186,0.186,0.487,0.186,0.673,0l1.206-1.206c0.186-0.186,0.186-0.487,0-0.673
		l-3.45-3.45c-0.09-0.09-0.204-0.15-0.328-0.175l-1.744-0.339c-0.394-0.077-0.661,0.237-0.538,0.629L144.329,14.127z"/>
	<path style="fill:none;stroke:#E52421;stroke-width:0.2835;stroke-miterlimit:10;" d="M187.499,23.103
		c0.073,0.24,0.226,0.447,0.505,0.821c0.075,0.101,0.162,0.217,0.26,0.352c0.698,0.955,0.807,1.222,0.818,1.296
		c-0.028,0.07-0.215,0.366-1.391,0.553l0.09,0.561c1.08-0.172,1.682-0.477,1.841-0.933c0.093-0.269,0.035-0.535-0.898-1.813
		c-0.1-0.136-0.187-0.253-0.263-0.356c-0.347-0.466-0.422-0.572-0.441-0.774c-0.006-0.061-0.004-0.113,0.002-0.162
		C187.847,22.813,187.672,22.965,187.499,23.103z"/>
	<path style="fill:none;stroke:#E52421;stroke-width:0.2835;stroke-miterlimit:10;" d="M155.928,16.631
		c0.164,0.164,0.329,0.329,0.493,0.493c0.621,0.621,1.628,0.621,2.249,0l1.453-1.453l-3.297-3.297l-1.453,1.453
		c-0.31,0.31-0.466,0.717-0.466,1.124c0,0.644,0.391,1.049,0.466,1.124L155.928,16.631z"/>
	<path style="fill:none;stroke:#E52421;stroke-width:0.2835;stroke-miterlimit:10;" d="M157.894,12.923
		c0.083,0.082,0.216,0.082,0.299,0l1.211-1.211c0.083-0.082,0.083-0.216,0-0.299l-0.026-0.026c-0.082-0.082-0.216-0.082-0.299,0
		l-1.211,1.211c-0.082,0.082-0.082,0.216,0,0.299L157.894,12.923z"/>
	<path style="fill:none;stroke:#E52421;stroke-width:0.2835;stroke-miterlimit:10;" d="M184.3,19.318
		c0.255,0.123,0.514,0.241,0.765,0.356c0.448,0.205,0.902,0.413,1.276,0.622c0.148-0.141,0.297-0.276,0.445-0.398
		c-0.418-0.253-0.935-0.49-1.485-0.741c-0.248-0.113-0.505-0.231-0.755-0.351c-0.814-0.391-1.928-0.928-2.82-1.504
		c-1.27-0.82-1.402-1.277-1.368-1.477c0.037-0.216,0.308-0.48,0.726-0.708c0.945-0.516,2.584-0.811,3.582-0.388
		c0.343,0.145,0.503,0.327,0.688,0.537c0.223,0.253,0.476,0.54,1.036,0.703c1.408,0.411,2.966-0.465,3.571-0.861
		c0.361-0.236,0.734-0.545,1.04-0.855c-0.151-0.091-0.306-0.203-0.491-0.313c-0.266,0.257-0.573,0.503-0.861,0.692
		c-0.538,0.353-1.919,1.136-3.099,0.791c-0.402-0.117-0.564-0.301-0.769-0.534c-0.202-0.229-0.431-0.488-0.892-0.684
		c-0.701-0.298-1.519-0.276-2.082-0.205c-0.715,0.09-1.442,0.315-1.995,0.617c-0.594,0.325-0.945,0.709-1.014,1.111
		C179.59,16.942,181.908,18.167,184.3,19.318z"/>
	<path style="fill:none;stroke:#E52421;stroke-width:0.2835;stroke-miterlimit:10;" d="M159.585,14.645
		c0.083,0.082,0.216,0.082,0.299,0l1.211-1.211c0.083-0.082,0.083-0.216,0-0.299l-0.026-0.026c-0.082-0.083-0.216-0.083-0.299,0
		l-1.211,1.211c-0.082,0.082-0.082,0.216,0,0.299L159.585,14.645z"/>
	<path style="fill:none;stroke:#E52421;stroke-width:0.2835;stroke-miterlimit:10;" d="M188.77,19.287
		c-0.429,0.12-0.985,0.444-1.555,0.914c-0.148,0.122-0.297,0.257-0.445,0.398c-0.05,0.048-0.1,0.094-0.15,0.143
		c-1.165,1.165-1.786,2.434-1.387,2.834c0.32,0.32,1.2-0.016,2.136-0.763c0.173-0.138,0.348-0.29,0.522-0.454
		c0.059-0.056,0.117-0.111,0.176-0.17c0.772-0.772,1.305-1.59,1.461-2.17l5.893-6.631l-0.118-0.118L188.77,19.287z M188.164,21.174
		c-0.062-0.216-0.064-0.277-0.271-0.461c-0.14,0.106-0.297,0.217-0.451,0.354c0.213,0.172,0.199,0.215,0.195,0.387
		c-0.002,0.092-0.04,0.168-0.107,0.294c-0.039,0.073-0.083,0.16-0.12,0.259c-0.006,0.006-0.011,0.011-0.017,0.017
		c-0.763,0.741-1.489,1.205-1.649,1.044c-0.168-0.168,0.343-0.95,1.14-1.748c0.137-0.137,0.273-0.264,0.405-0.382
		c0.154-0.137,0.304-0.26,0.444-0.366c0.443-0.334,0.793-0.498,0.898-0.392C188.744,20.292,188.547,20.685,188.164,21.174z"/>
	<path style="fill:none;stroke:#E52421;stroke-width:0.2835;stroke-miterlimit:10;" d="M179.797,15.729
		c0.069-0.402,0.419-0.787,1.014-1.111c0.553-0.302,1.28-0.527,1.995-0.617c0.563-0.071,1.381-0.093,2.082,0.205
		c0.462,0.196,0.69,0.455,0.892,0.684c0.205,0.232,0.367,0.416,0.769,0.534c1.181,0.345,2.561-0.438,3.099-0.791
		c0.289-0.189,0.595-0.436,0.861-0.692c0.185,0.11,0.34,0.221,0.491,0.313c-0.307,0.31-0.679,0.619-1.04,0.855
		c-0.605,0.396-2.162,1.273-3.571,0.861c-0.56-0.164-0.813-0.45-1.036-0.703c-0.185-0.21-0.345-0.392-0.688-0.537
		c-0.999-0.424-2.637-0.129-3.582,0.388c-0.418,0.228-0.689,0.493-0.726,0.708c-0.034,0.2,0.098,0.657,1.368,1.477
		c0.892,0.576,2.007,1.112,2.82,1.504c0.25,0.12,0.507,0.238,0.755,0.351c0.549,0.251,1.066,0.488,1.485,0.741
		c-0.148,0.122-0.297,0.257-0.445,0.398c-0.374-0.209-0.828-0.417-1.276-0.622c-0.251-0.115-0.51-0.233-0.765-0.356
		C181.908,18.167,179.59,16.942,179.797,15.729z M159.559,14.32l1.211-1.211c0.082-0.083,0.216-0.083,0.299,0l0.026,0.026
		c0.083,0.082,0.083,0.216,0,0.299l-1.211,1.211c-0.083,0.082-0.216,0.082-0.299,0l-0.026-0.026
		C159.476,14.536,159.476,14.403,159.559,14.32z M157.868,12.598l1.211-1.211c0.082-0.082,0.216-0.082,0.299,0l0.026,0.026
		c0.083,0.082,0.083,0.216,0,0.299l-1.211,1.211c-0.083,0.082-0.216,0.082-0.299,0l-0.026-0.026
		C157.785,12.814,157.785,12.681,157.868,12.598z M155.373,13.827l1.453-1.453l3.297,3.297l-1.453,1.453
		c-0.621,0.621-1.628,0.621-2.249,0c-0.164-0.164-0.329-0.329-0.493-0.493l-0.555-0.555c-0.075-0.075-0.466-0.481-0.466-1.124
		C154.908,14.545,155.063,14.138,155.373,13.827z M144.441,12.142l1.744,0.339c0.124,0.024,0.239,0.085,0.328,0.175l3.45,3.45
		c0.186,0.186,0.186,0.487,0,0.673l-1.206,1.206c-0.186,0.186-0.487,0.186-0.673,0l-3.599-3.599
		c-0.073-0.073-0.126-0.161-0.157-0.259l-0.426-1.356C143.78,12.378,144.047,12.065,144.441,12.142z M140.235,23.188
		c-0.218,0.239-0.592,0.247-0.821,0.018l-0.421-0.421c-0.228-0.228-0.221-0.6,0.016-0.819c1.075-0.992,3.821-3.535,4.525-4.238
		c0.639-0.639,1.226-1.394,1.499-1.76c0.087-0.116,0.255-0.127,0.357-0.024l0.877,0.877c0.1,0.1,0.092,0.264-0.018,0.353
		c-0.488,0.395-1.711,1.391-2.155,1.835C143.647,19.454,141.208,22.123,140.235,23.188z M169.204,24.79
		c-0.41,0.083-0.822,0.102-1.236,0.039c-0.354-0.054-0.693-0.158-0.981-0.38c-0.428-0.33-0.603-0.772-0.528-1.305
		c0.04-0.285,0.185-0.525,0.38-0.734c0.222-0.238,0.49-0.412,0.787-0.54c0.564-0.243,1.155-0.344,1.767-0.315
		c0.283,0.013,0.552,0.097,0.818,0.19c0.317,0.112,0.575,0.308,0.814,0.536c0.013,0.012,0.025,0.024,0.044,0.042
		c1.325-3.652,2.647-7.295,3.97-10.941c0.162,0.059,0.321,0.117,0.484,0.176c-0.01,0.026-0.019,0.052-0.028,0.078
		c-0.054,0.148-0.115,0.294-0.159,0.446c-0.042,0.145-0.071,0.294-0.097,0.442c-0.05,0.277-0.072,0.556-0.051,0.838
		c0.023,0.308,0.096,0.605,0.189,0.897c0.12,0.382,0.268,0.754,0.418,1.125c0.229,0.567,0.444,1.138,0.59,1.733
		c0.108,0.437,0.175,0.879,0.165,1.331c-0.007,0.303-0.044,0.603-0.127,0.895c-0.057,0.2-0.12,0.399-0.194,0.593
		c-0.08,0.211-0.195,0.407-0.315,0.598c-0.458,0.727-0.996,1.391-1.604,1.998c-0.138,0.138-0.282,0.271-0.447,0.377
		c-0.032,0.02-0.067,0.036-0.102,0.048c-0.018,0.006-0.039,0.001-0.059,0.002l-0.003-0.011c0.055-0.064,0.109-0.127,0.164-0.191
		c0.323-0.371,0.649-0.74,0.969-1.114c0.208-0.243,0.399-0.499,0.57-0.77c0.165-0.262,0.29-0.542,0.377-0.839
		c0.185-0.632,0.239-1.275,0.167-1.929c-0.036-0.331-0.109-0.655-0.253-0.958c-0.13-0.271-0.302-0.515-0.493-0.747
		c-0.252-0.306-0.525-0.591-0.842-0.831c-0.055-0.042-0.115-0.077-0.173-0.114c-0.018-0.011-0.039-0.017-0.06-0.027
		c-0.006,0.014-0.011,0.026-0.016,0.037c-0.437,1.193-0.874,2.385-1.311,3.578c-0.525,1.435-1.049,2.87-1.574,4.305
		c-0.052,0.141-0.136,0.264-0.232,0.378c-0.23,0.275-0.486,0.523-0.8,0.702C169.884,24.605,169.551,24.72,169.204,24.79z
		 M188.46,23.585c0.076,0.103,0.164,0.22,0.263,0.356c0.933,1.277,0.991,1.544,0.898,1.813c-0.159,0.456-0.761,0.761-1.841,0.933
		l-0.09-0.561c1.176-0.187,1.363-0.483,1.391-0.553c-0.011-0.074-0.12-0.341-0.818-1.296c-0.098-0.135-0.185-0.25-0.26-0.352
		c-0.279-0.374-0.432-0.581-0.505-0.821c0.173-0.138,0.348-0.29,0.522-0.454c-0.006,0.049-0.008,0.102-0.002,0.162
		C188.038,23.012,188.112,23.118,188.46,23.585z M189.528,20.019c-0.156,0.58-0.688,1.397-1.461,2.17
		c-0.058,0.058-0.117,0.114-0.176,0.17c-0.174,0.164-0.349,0.316-0.522,0.454c-0.937,0.746-1.816,1.083-2.136,0.763
		c-0.4-0.4,0.221-1.668,1.387-2.834c0.05-0.05,0.1-0.096,0.15-0.143c0.148-0.141,0.297-0.276,0.445-0.398
		c0.57-0.47,1.125-0.794,1.555-0.914l6.533-6.016l0.118,0.118L189.528,20.019z"/>
	<path style="fill:none;stroke:#E52421;stroke-width:0.2835;stroke-miterlimit:10;" d="M187.732,20.571
		c-0.14,0.106-0.29,0.229-0.444,0.366c-0.133,0.118-0.269,0.245-0.405,0.382c-0.798,0.798-1.308,1.58-1.14,1.748
		c0.161,0.161,0.887-0.303,1.649-1.044c0.006-0.006,0.011-0.011,0.017-0.017c0.037-0.099,0.081-0.185,0.12-0.259
		c0.067-0.126,0.105-0.202,0.107-0.294c0.004-0.172,0.018-0.215-0.195-0.387c0.154-0.137,0.311-0.248,0.451-0.354
		c0.207,0.184,0.209,0.246,0.271,0.461c0.384-0.488,0.58-0.882,0.467-0.995C188.525,20.073,188.176,20.237,187.732,20.571z"/>
</g>
<g>
	<path d="M23.532,55.024c-0.33-1.195-1.093-1.993-2.247-2.422c-0.175-0.065-0.364-0.091-0.546-0.135
		c-0.071-0.017-0.142-0.036-0.213-0.054c-4.13,0-8.26,0-12.39,0c-0.177,0.041-0.357,0.075-0.531,0.125
		c-1.209,0.343-2.013,1.118-2.424,2.3c-0.079,0.227-0.116,0.468-0.172,0.702c0,4.13,0,8.26,0,12.39
		c0.041,0.177,0.075,0.356,0.124,0.531c0.336,1.193,1.1,1.991,2.258,2.411c0.239,0.087,0.496,0.125,0.745,0.185
		c4.13,0,8.26,0,12.39,0c0.177-0.041,0.356-0.075,0.531-0.124c1.193-0.336,1.991-1.1,2.411-2.258
		c0.087-0.239,0.125-0.496,0.185-0.745c0-4.13,0-8.26,0-12.39C23.613,55.369,23.579,55.195,23.532,55.024z"/>
	<g id="EPvYh4_1_">
		<g>
			<path style="fill:none;stroke:#009FE3;stroke-width:0.2835;stroke-miterlimit:10;" d="M19.933,64.852
				c-0.036,0.093-0.072,0.186-0.113,0.293c-1.317-0.982-2.625-1.956-3.944-2.94c1.331-1.254,2.656-2.502,3.99-3.759
				c0.026,0.066,0.046,0.12,0.067,0.173C19.933,60.698,19.933,62.775,19.933,64.852z"/>
			<path style="fill:none;stroke:#009FE3;stroke-width:0.2835;stroke-miterlimit:10;" d="M8.786,58.62
				c0.02-0.054,0.041-0.107,0.066-0.174c1.333,1.256,2.657,2.502,3.991,3.759c-1.317,0.982-2.626,1.957-3.945,2.94
				c-0.041-0.107-0.077-0.2-0.113-0.294C8.786,62.775,8.786,60.698,8.786,58.62z"/>
			<path style="fill:none;stroke:#009FE3;stroke-width:0.2835;stroke-miterlimit:10;" d="M9.336,57.974
				c0.113-0.012,0.227-0.034,0.34-0.034c2.647-0.002,5.294-0.001,7.941-0.001c0.484,0,0.967-0.002,1.451,0.002
				c0.107,0.001,0.213,0.024,0.32,0.038c0.001,0.009,0.001,0.019,0.002,0.028c-0.211,0.199-0.421,0.399-0.632,0.598
				c-0.358,0.337-0.716,0.674-1.074,1.011c-0.412,0.388-0.826,0.774-1.238,1.162c-0.427,0.402-0.857,0.802-1.279,1.209
				c-0.425,0.41-1.061,0.456-1.512,0.076c-0.328-0.277-0.634-0.58-0.947-0.873c-0.543-0.508-1.084-1.018-1.625-1.528
				c-0.351-0.331-0.701-0.664-1.052-0.996c-0.224-0.212-0.449-0.423-0.673-0.634c-0.008-0.008-0.016-0.017-0.024-0.026
				C9.334,57.995,9.335,57.985,9.336,57.974z"/>
			<path style="fill:none;stroke:#009FE3;stroke-width:0.2835;stroke-miterlimit:10;" d="M19.419,65.489
				c-0.114,0.015-0.227,0.042-0.341,0.042c-3.145,0.002-6.29,0.002-9.435,0c-0.115,0-0.231-0.029-0.346-0.044
				c-0.001-0.01-0.002-0.02-0.003-0.03c1.3-0.969,2.601-1.939,3.911-2.916c0.333,0.276,0.718,0.427,1.155,0.427
				c0.434,0,0.818-0.146,1.155-0.428c1.307,0.974,2.609,1.945,3.911,2.916C19.423,65.467,19.421,65.478,19.419,65.489z"/>
		</g>
	</g>
</g>
<g>
	<path d="M31.155,58.578c-0.249,0-0.385,0.136-0.385,0.386v4.399c0,0.249,0.136,0.386,0.385,0.386h0.794v1.541h-1.202
		c-0.953,0-1.61-0.657-1.61-1.609v-5.034c0-0.953,0.657-1.61,1.61-1.61h1.202v1.542H31.155z M33.479,57.036
		c0.953,0,1.61,0.657,1.61,1.61v5.034c0,0.952-0.657,1.609-1.61,1.609h-1.19v-1.541h0.782c0.25,0,0.386-0.137,0.386-0.386v-4.399
		c0-0.25-0.136-0.386-0.386-0.386h-0.782v-1.542H33.479z"/>
	<path d="M38.321,57.081v8.163h-1.633v-8.163H38.321z M40.951,65.244l-1.315-3.027h-0.975v-1.52h1.78
		c0.249,0,0.385-0.136,0.385-0.385v-1.304c0-0.25-0.136-0.386-0.385-0.386h-1.78v-1.542h2.188c0.952,0,1.61,0.658,1.61,1.61v1.916
		c0,0.771-0.431,1.349-1.111,1.542l1.36,3.095H40.951z"/>
	<path d="M45.476,65.289c-0.953,0-1.61-0.657-1.61-1.609v-5.034c0-0.953,0.657-1.61,1.61-1.61h1.179v1.542h-0.771
		c-0.249,0-0.385,0.136-0.385,0.386v4.399c0,0.249,0.136,0.386,0.385,0.386h0.771v1.541H45.476z M47.754,63.748
		c0.249,0,0.385-0.137,0.385-0.386v-1.213h-1.497v-1.474h3.129v3.004c0,0.952-0.658,1.609-1.61,1.609h-1.167v-1.541H47.754z
		 M48.162,57.036c0.953,0,1.61,0.657,1.61,1.61v1.065H48.14v-0.748c0-0.25-0.136-0.386-0.385-0.386h-0.76v-1.542H48.162z"/>
	<path d="M53.163,57.081h0.08l0.703,2.415l-1.723,5.748h-1.689L53.163,57.081z M55.408,63.408h-2.324l0.453-1.542h1.429
		l-1.383-4.785h1.485l2.63,8.163h-1.757L55.408,63.408z"/>
	<path d="M60.408,67.104c-0.953,0-1.61-0.657-1.61-1.61v-6.847c0-0.953,0.657-1.61,1.61-1.61h2.846v1.088h-2.846
		c-0.295,0-0.454,0.227-0.454,0.521v6.847c0,0.295,0.159,0.521,0.454,0.521h2.846v1.089H60.408z M63.877,60.981
		c-0.25-0.136-0.612-0.182-0.907-0.182h-0.125c-0.25,0-0.386,0.136-0.386,0.386v1.791c0,0.25,0.136,0.386,0.386,0.386h0.125
		c0.295,0,0.658-0.045,0.907-0.182v0.918c-0.284,0.272-0.76,0.556-1.1,0.556h-0.295c-0.953,0-1.61-0.657-1.61-1.609v-1.928
		c0-0.952,0.657-1.61,1.61-1.61h0.295c0.34,0,0.816,0.272,1.1,0.544V60.981z M66.451,57.036c0.953,0,1.61,0.657,1.61,1.61V63
		c0,0.953-0.657,1.61-1.61,1.61h-2.018l-0.227-0.794v-3.469l0.227-0.794h1.361v4.195h0.657c0.352,0,0.454-0.329,0.454-0.749v-4.354
		c0-0.295-0.159-0.521-0.454-0.521h-2.857v-1.088H66.451z M66.179,67.104h-2.585v-1.089h2.585V67.104z"/>
	<path d="M69.876,57.081h1.632v8.163h-1.632V57.081z M74.321,57.081h1.632v8.163h-1.632v-3.401h-2.472v-1.542h2.472V57.081z"/>
	<path d="M77.745,65.244v-8.163h1.633v8.163H77.745z M83.084,58.623h-3.367v-1.542h3.367V58.623z M82.381,61.843h-2.664v-1.542
		h2.664V61.843z M83.084,65.244h-3.367v-1.542h3.367V65.244z"/>
	<path d="M84.525,57.081h1.633v8.163h-1.633V57.081z"/>
	<path d="M87.949,65.244v-8.163h1.633v8.163H87.949z M92.201,57.081c0.952,0,1.609,0.658,1.609,1.61v4.942
		c0,0.953-0.657,1.61-1.609,1.61h-2.279v-1.542h1.871c0.249,0,0.385-0.136,0.385-0.385v-4.308c0-0.25-0.136-0.386-0.385-0.386
		h-1.871v-1.542H92.201z"/>
	<path d="M95.41,65.244v-8.163h1.633v8.163H95.41z M100.75,58.623h-3.367v-1.542h3.367V58.623z M100.046,61.843h-2.664v-1.542h2.664
		V61.843z M100.75,65.244h-3.367v-1.542h3.367V65.244z"/>
	<path d="M103.823,57.081v8.163h-1.633v-8.163H103.823z M107.247,65.244h-3.084v-1.542h3.084V65.244z"/>
	<path d="M108.483,57.081h1.633v8.163h-1.633V57.081z M112.61,57.081c0.952,0,1.609,0.658,1.609,1.61v1.156
		c0,0.487-0.192,0.918-0.714,1.225c0.567,0.272,0.805,0.737,0.805,1.224v1.337c0,0.953-0.657,1.61-1.609,1.61h-2.245v-1.52h1.837
		c0.249,0,0.386-0.136,0.386-0.385V62.16c0-0.34-0.204-0.362-0.521-0.362h-1.701v-1.451h1.746c0.295,0,0.386-0.068,0.386-0.386
		v-0.975c0-0.25-0.137-0.385-0.386-0.385h-1.746v-1.52H112.61z"/>
	<path d="M115.841,65.244v-8.163h1.633v8.163H115.841z M121.182,58.623h-3.368v-1.542h3.368V58.623z M120.478,61.843h-2.664v-1.542
		h2.664V61.843z M121.182,65.244h-3.368v-1.542h3.368V65.244z"/>
	<path d="M124.255,57.081v8.163h-1.633v-8.163H124.255z M126.885,65.244l-1.314-3.027h-0.976v-1.52h1.78
		c0.249,0,0.386-0.136,0.386-0.385v-1.304c0-0.25-0.137-0.386-0.386-0.386h-1.78v-1.542h2.188c0.952,0,1.609,0.658,1.609,1.61v1.916
		c0,0.771-0.431,1.349-1.11,1.542l1.36,3.095H126.885z"/>
	<path d="M131.409,65.289c-0.952,0-1.609-0.657-1.609-1.609v-5.034c0-0.953,0.657-1.61,1.609-1.61h1.18v1.542h-0.771
		c-0.249,0-0.385,0.136-0.385,0.386v4.399c0,0.249,0.136,0.386,0.385,0.386h0.771v1.541H131.409z M133.688,63.748
		c0.249,0,0.386-0.137,0.386-0.386v-1.213h-1.497v-1.474h3.129v3.004c0,0.952-0.657,1.609-1.609,1.609h-1.168v-1.541H133.688z
		 M134.097,57.036c0.952,0,1.609,0.657,1.609,1.61v1.065h-1.632v-0.748c0-0.25-0.137-0.386-0.386-0.386h-0.76v-1.542H134.097z"/>
	<path d="M141.035,62.251h-4.081v-1.474h4.081V62.251z"/>
	<path d="M142.51,65.244v-8.163h0.034l1.508,3.538v4.625H142.51z M142.884,57.081h1.417l2.109,4.785l2.108-4.785h1.417l-2.937,6.859
		h-1.179L142.884,57.081z M150.31,57.081v8.163h-1.541v-4.625l1.508-3.538H150.31z"/>
	<path d="M154.019,57.081h0.079l0.703,2.415l-1.723,5.748h-1.689L154.019,57.081z M156.264,63.408h-2.324l0.453-1.542h1.429
		l-1.383-4.785h1.485l2.63,8.163h-1.758L156.264,63.408z"/>
	<path d="M161.241,65.244h-1.61v-8.163h1.61V65.244z M164.063,57.081h1.916l-4.398,5.669v-2.279L164.063,57.081z M163.633,60.607
		l2.472,4.637h-1.837l-1.712-3.231L163.633,60.607z"/>
	<path d="M167.171,65.244v-8.163h1.633v8.163H167.171z M172.511,58.623h-3.367v-1.542h3.367V58.623z M171.808,61.843h-2.664v-1.542
		h2.664V61.843z M172.511,65.244h-3.367v-1.542h3.367V65.244z"/>
	<path d="M175.584,57.081v8.163h-1.633v-8.163H175.584z M178.214,65.244l-1.314-3.027h-0.976v-1.52h1.78
		c0.249,0,0.386-0.136,0.386-0.385v-1.304c0-0.25-0.137-0.386-0.386-0.386h-1.78v-1.542h2.188c0.952,0,1.609,0.658,1.609,1.61v1.916
		c0,0.771-0.431,1.349-1.11,1.542l1.36,3.095H178.214z"/>
	<path d="M184.836,63.748c0.249,0,0.386-0.137,0.386-0.386V62.5c0-0.25-0.137-0.329-0.386-0.385l-2.108-0.454
		c-0.885-0.193-1.633-0.726-1.633-1.633v-1.383c0-0.953,0.657-1.61,1.609-1.61h1.101v1.542h-0.692c-0.249,0-0.385,0.136-0.385,0.386
		v0.771c0,0.249,0.136,0.329,0.385,0.385l2.109,0.454c0.884,0.193,1.633,0.726,1.633,1.632v1.474c0,0.952-0.658,1.609-1.61,1.609
		h-1.1v-1.541H184.836z M182.704,65.289c-0.952,0-1.609-0.657-1.609-1.609v-1.043h1.587v0.726c0,0.249,0.137,0.386,0.386,0.386
		h0.737v1.541H182.704z M185.108,57.036c0.952,0,1.609,0.657,1.609,1.61v0.952h-1.587v-0.635c0-0.25-0.136-0.386-0.386-0.386h-0.601
		v-1.542H185.108z"/>
	<path d="M188.408,65.244v-8.163h1.633v8.163H188.408z M192.58,57.081c0.953,0,1.61,0.658,1.61,1.61v2.063
		c0,0.953-0.657,1.61-1.61,1.61h-2.199v-1.542h1.791c0.25,0,0.386-0.136,0.386-0.386v-1.428c0-0.25-0.136-0.386-0.386-0.386h-1.791
		v-1.542H192.58z"/>
	<path d="M196.912,57.081h0.079l0.703,2.415l-1.723,5.748h-1.689L196.912,57.081z M199.157,63.408h-2.324l0.453-1.542h1.429
		l-1.383-4.785h1.484l2.631,8.163h-1.758L199.157,63.408z"/>
	<path d="M204.19,58.578c-0.249,0-0.385,0.136-0.385,0.386v4.399c0,0.249,0.136,0.386,0.385,0.386h0.715v1.541h-1.123
		c-0.952,0-1.609-0.657-1.609-1.609v-5.034c0-0.953,0.657-1.61,1.609-1.61h1.123v1.542H204.19z M206.367,57.036
		c0.952,0,1.61,0.657,1.61,1.61v1.315h-1.633v-0.998c0-0.25-0.136-0.386-0.386-0.386h-0.714v-1.542H206.367z M205.959,63.748
		c0.25,0,0.386-0.137,0.386-0.386v-0.998h1.633v1.315c0,0.952-0.658,1.609-1.61,1.609h-1.122v-1.541H205.959z"/>
	<path d="M209.43,65.244v-8.163h1.633v8.163H209.43z M214.77,58.623h-3.367v-1.542h3.367V58.623z M214.066,61.843h-2.664v-1.542
		h2.664V61.843z M214.77,65.244h-3.367v-1.542h3.367V65.244z"/>
	<path d="M215.938,65.244v-1.655h1.587v1.655H215.938z"/>
	<path d="M219.045,65.244v-8.163h1.633v8.163H219.045z M223.297,57.081c0.952,0,1.609,0.658,1.609,1.61v4.942
		c0,0.953-0.657,1.61-1.609,1.61h-2.279v-1.542h1.871c0.249,0,0.385-0.136,0.385-0.385v-4.308c0-0.25-0.136-0.386-0.385-0.386
		h-1.871v-1.542H223.297z"/>
	<path d="M226.505,65.244v-8.163h1.633v8.163H226.505z M231.845,58.623h-3.367v-1.542h3.367V58.623z M231.142,61.843h-2.664v-1.542
		h2.664V61.843z M231.845,65.244h-3.367v-1.542h3.367V65.244z"/>
</g>
<g>
	<path d="M23.532,98.565c-0.33-1.195-1.093-1.993-2.247-2.422c-0.175-0.065-0.364-0.091-0.547-0.135
		c-0.071-0.017-0.142-0.036-0.213-0.054c-4.13,0-8.26,0-12.39,0C7.959,95.996,7.78,96.03,7.605,96.08
		c-1.209,0.343-2.013,1.118-2.424,2.3c-0.079,0.227-0.116,0.468-0.172,0.702c0,4.13,0,8.26,0,12.39
		c0.041,0.177,0.075,0.356,0.124,0.531c0.336,1.193,1.1,1.991,2.258,2.411c0.239,0.087,0.496,0.125,0.745,0.185
		c4.13,0,8.26,0,12.39,0c0.177-0.041,0.356-0.075,0.531-0.124c1.193-0.336,1.991-1.1,2.411-2.258
		c0.087-0.239,0.125-0.496,0.185-0.745c0-4.13,0-8.26,0-12.39C23.613,98.91,23.579,98.736,23.532,98.565z"/>
	<path style="fill:none;stroke:#009FE3;stroke-width:0.2835;stroke-miterlimit:10;" d="M19.609,101.324
		c-0.43,0.151-0.854,0.299-1.277,0.449c-0.098,0.035-0.167,0.016-0.25-0.058c-0.666-0.597-1.433-0.779-2.291-0.514
		c-0.882,0.272-1.529,1.114-1.574,2.038c-0.01,0.211-0.002,0.422-0.002,0.658c-1.874-0.127-3.423-0.936-4.673-2.384
		c-0.307,0.522-0.371,1.066-0.258,1.63c0.115,0.573,0.433,1.03,0.894,1.395c-0.344,0.007-0.651-0.102-0.977-0.255
		c0.084,1.189,0.686,1.924,1.784,2.272c-0.002,0.013-0.004,0.027-0.007,0.041c-0.313,0-0.625,0-0.954,0
		c0.15,0.486,0.426,0.845,0.8,1.132c0.375,0.289,0.811,0.429,1.282,0.484c-0.975,0.741-2.068,1.046-3.281,0.937
		c-0.004,0.02-0.008,0.04-0.012,0.06c0.402,0.186,0.794,0.397,1.207,0.554c0.917,0.35,1.871,0.468,2.85,0.386
		c0.99-0.082,1.919-0.357,2.77-0.87c0.994-0.598,1.762-1.418,2.321-2.435c0.578-1.053,0.859-2.178,0.849-3.379
		c-0.001-0.062,0.039-0.139,0.085-0.184c0.252-0.252,0.516-0.492,0.767-0.744c0.093-0.094,0.163-0.212,0.243-0.319
		c-0.396,0.115-0.771,0.241-1.175,0.266C19.139,102.169,19.456,101.797,19.609,101.324z"/>
</g>
<g>
	<path d="M31.412,111.095c-1.122,0-1.896-0.774-1.896-1.896v-8.064c0-1.122,0.774-1.896,1.896-1.896h3.351v1.282h-3.351
		c-0.347,0-0.534,0.267-0.534,0.614v8.064c0,0.347,0.187,0.613,0.534,0.613h3.351v1.282H31.412z M35.497,103.885
		c-0.294-0.16-0.721-0.214-1.068-0.214h-0.146c-0.294,0-0.454,0.16-0.454,0.454v2.109c0,0.294,0.16,0.454,0.454,0.454h0.146
		c0.347,0,0.774-0.053,1.068-0.214v1.082c-0.334,0.32-0.895,0.654-1.295,0.654h-0.347c-1.122,0-1.896-0.774-1.896-1.896v-2.27
		c0-1.121,0.774-1.896,1.896-1.896h0.347c0.4,0,0.961,0.32,1.295,0.641V103.885z M38.528,99.238c1.122,0,1.896,0.774,1.896,1.896
		v5.127c0,1.121-0.774,1.896-1.896,1.896h-2.376l-0.267-0.935v-4.086l0.267-0.935h1.602v4.94h0.774c0.414,0,0.534-0.387,0.534-0.881
		v-5.127c0-0.348-0.187-0.614-0.534-0.614h-3.365v-1.282H38.528z M38.208,111.095h-3.044v-1.282h3.044V111.095z"/>
	<path d="M42.558,99.292h1.923v9.613h-1.923V99.292z M47.792,99.292h1.922v9.613h-1.922v-4.006h-2.911v-1.815h2.911V99.292z"/>
	<path d="M51.823,108.905v-9.613h1.923v9.613H51.823z M56.83,99.292c1.122,0,1.896,0.774,1.896,1.896v5.821
		c0,1.122-0.774,1.896-1.896,1.896h-2.684v-1.816h2.203c0.293,0,0.454-0.16,0.454-0.453v-5.074c0-0.294-0.16-0.454-0.454-0.454
		h-2.203v-1.815H56.83z"/>
	<path d="M67.163,111.175h-7.53v-1.683h7.53V111.175z"/>
	<path d="M68.296,108.905v-9.613h0.04l1.776,4.166v5.447H68.296z M68.737,99.292h1.668l2.483,5.635l2.483-5.635h1.669l-3.458,8.077
		h-1.388L68.737,99.292z M77.482,99.292v9.613h-1.816v-5.447l1.776-4.166H77.482z"/>
	<path d="M81.847,99.292h0.094l0.828,2.844l-2.029,6.77H78.75L81.847,99.292z M84.491,106.742h-2.737l0.534-1.815h1.682
		l-1.629-5.635h1.749l3.098,9.613h-2.07L84.491,106.742z"/>
	<path d="M90.351,108.905h-1.896v-9.613h1.896V108.905z M93.675,99.292h2.256l-5.181,6.676v-2.684L93.675,99.292z M93.168,103.444
		l2.91,5.461h-2.163l-2.016-3.806L93.168,103.444z"/>
	<path d="M97.333,108.905v-9.613h1.923v9.613H97.333z M103.621,101.107h-3.965v-1.815h3.965V101.107z M102.793,104.899h-3.138
		v-1.815h3.138V104.899z M103.621,108.905h-3.965v-1.816h3.965V108.905z"/>
	<path d="M107.238,99.292v9.613h-1.923v-9.613H107.238z M110.335,108.905l-1.548-3.565h-1.148v-1.789h2.096
		c0.293,0,0.454-0.16,0.454-0.454v-1.535c0-0.294-0.161-0.454-0.454-0.454h-2.096v-1.815h2.577c1.122,0,1.896,0.774,1.896,1.896
		v2.257c0,0.908-0.507,1.589-1.309,1.815l1.603,3.646H110.335z"/>
	<path d="M118.132,107.143c0.293,0,0.454-0.16,0.454-0.454v-1.015c0-0.294-0.16-0.387-0.454-0.454l-2.483-0.534
		c-1.042-0.227-1.923-0.854-1.923-1.922v-1.629c0-1.122,0.774-1.896,1.896-1.896h1.295v1.816h-0.814
		c-0.293,0-0.454,0.16-0.454,0.454v0.907c0,0.294,0.16,0.388,0.454,0.454l2.483,0.534c1.042,0.227,1.923,0.854,1.923,1.923v1.735
		c0,1.121-0.774,1.896-1.896,1.896h-1.295v-1.815H118.132z M115.622,108.958c-1.122,0-1.896-0.774-1.896-1.896v-1.229h1.869v0.854
		c0,0.294,0.161,0.454,0.454,0.454h0.868v1.815H115.622z M118.453,99.238c1.122,0,1.896,0.774,1.896,1.896v1.121h-1.869v-0.747
		c0-0.294-0.16-0.454-0.454-0.454h-0.708v-1.816H118.453z"/>
	<path d="M122.337,108.905v-9.613h1.923v9.613H122.337z M127.251,99.292c1.121,0,1.896,0.774,1.896,1.896v2.431
		c0,1.121-0.774,1.896-1.896,1.896h-2.591v-1.815h2.109c0.294,0,0.454-0.16,0.454-0.454v-1.683c0-0.294-0.16-0.454-0.454-0.454
		h-2.109v-1.815H127.251z"/>
	<path d="M132.35,99.292h0.093l0.828,2.844l-2.029,6.77h-1.989L132.35,99.292z M134.993,106.742h-2.737l0.534-1.815h1.682
		l-1.629-5.635h1.749l3.098,9.613h-2.069L134.993,106.742z"/>
	<path d="M140.92,101.055c-0.294,0-0.454,0.16-0.454,0.454v5.18c0,0.294,0.16,0.454,0.454,0.454h0.842v1.815h-1.322
		c-1.121,0-1.896-0.774-1.896-1.896v-5.928c0-1.122,0.774-1.896,1.896-1.896h1.322v1.816H140.92z M143.483,99.238
		c1.122,0,1.896,0.774,1.896,1.896v1.549h-1.923v-1.175c0-0.294-0.16-0.454-0.454-0.454h-0.841v-1.816H143.483z M143.003,107.143
		c0.294,0,0.454-0.16,0.454-0.454v-1.175h1.923v1.549c0,1.121-0.774,1.896-1.896,1.896h-1.321v-1.815H143.003z"/>
	<path d="M147.087,108.905v-9.613h1.923v9.613H147.087z M153.376,101.107h-3.966v-1.815h3.966V101.107z M152.548,104.899h-3.138
		v-1.815h3.138V104.899z M153.376,108.905h-3.966v-1.816h3.966V108.905z"/>
</g>
<g>
	<path d="M29.489,77.718h1.923v9.613h-1.923V77.718z M34.723,77.718h1.922v9.613h-1.922v-4.006h-2.911V81.51h2.911V77.718z"/>
	<path d="M38.753,87.331v-9.613h1.923v9.613H38.753z M45.042,79.533h-3.965v-1.815h3.965V79.533z M44.214,83.325h-3.138V81.51h3.138
		V83.325z M45.042,87.331h-3.965v-1.816h3.965V87.331z"/>
	<path d="M46.737,77.718h1.923v9.613h-1.923V77.718z"/>
	<path d="M50.768,87.331v-9.613h1.923v9.613H50.768z M55.775,77.718c1.122,0,1.896,0.774,1.896,1.895v5.821
		c0,1.122-0.774,1.896-1.896,1.896h-2.684v-1.816h2.203c0.293,0,0.454-0.16,0.454-0.453v-5.074c0-0.294-0.16-0.454-0.454-0.454
		h-2.203v-1.815H55.775z"/>
	<path d="M59.552,87.331v-9.613h1.923v9.613H59.552z M65.841,79.533h-3.965v-1.815h3.965V79.533z M65.013,83.325h-3.138V81.51h3.138
		V83.325z M65.841,87.331h-3.965v-1.816h3.965V87.331z"/>
	<path d="M69.458,77.718v9.613h-1.923v-9.613H69.458z M73.49,87.331h-3.631v-1.816h3.631V87.331z"/>
	<path d="M74.945,77.718h1.923v9.613h-1.923V77.718z M79.805,77.718c1.122,0,1.896,0.774,1.896,1.895v1.362
		c0,0.574-0.227,1.081-0.841,1.441c0.668,0.321,0.948,0.868,0.948,1.442v1.575c0,1.122-0.774,1.896-1.896,1.896h-2.644v-1.789h2.163
		c0.293,0,0.454-0.16,0.454-0.454v-1.389c0-0.4-0.24-0.428-0.614-0.428h-2.003v-1.709h2.056c0.347,0,0.454-0.08,0.454-0.453v-1.148
		c0-0.294-0.161-0.454-0.454-0.454h-2.056v-1.789H79.805z"/>
	<path d="M83.608,87.331v-9.613h1.923v9.613H83.608z M89.897,79.533h-3.965v-1.815h3.965V79.533z M89.069,83.325h-3.138V81.51h3.138
		V83.325z M89.897,87.331h-3.965v-1.816h3.965V87.331z"/>
	<path d="M93.515,77.718v9.613h-1.923v-9.613H93.515z M96.612,87.331l-1.548-3.565h-1.148v-1.789h2.096
		c0.293,0,0.454-0.16,0.454-0.454v-1.535c0-0.294-0.161-0.454-0.454-0.454h-2.096v-1.815h2.577c1.122,0,1.896,0.774,1.896,1.895
		v2.257c0,0.908-0.507,1.589-1.309,1.815l1.603,3.646H96.612z"/>
	<path d="M101.938,87.384c-1.122,0-1.896-0.774-1.896-1.896v-5.928c0-1.122,0.774-1.896,1.896-1.896h1.389v1.816h-0.908
		c-0.294,0-0.454,0.16-0.454,0.454v5.18c0,0.294,0.16,0.454,0.454,0.454h0.908v1.815H101.938z M104.622,85.568
		c0.294,0,0.454-0.16,0.454-0.454v-1.429h-1.762V81.95h3.685v3.538c0,1.121-0.774,1.896-1.896,1.896h-1.375v-1.815H104.622z
		 M105.103,77.665c1.121,0,1.896,0.774,1.896,1.896v1.255h-1.922v-0.881c0-0.294-0.16-0.454-0.454-0.454h-0.895v-1.816H105.103z"/>
	<path d="M108.84,87.331v-9.613h0.04l1.776,4.166v5.447H108.84z M109.28,77.718h1.669l2.483,5.634l2.483-5.634h1.669l-3.458,8.077
		h-1.388L109.28,77.718z M118.026,77.718v9.613h-1.816v-5.447l1.776-4.166H118.026z"/>
	<path d="M122.391,77.718h0.094l0.827,2.843l-2.029,6.77h-1.989L122.391,77.718z M125.034,85.168h-2.737l0.534-1.815h1.683
		l-1.629-5.634h1.749l3.098,9.613h-2.07L125.034,85.168z"/>
	<path d="M130.894,87.331h-1.896v-9.613h1.896V87.331z M134.219,77.718h2.256l-5.18,6.675V81.71L134.219,77.718z M133.711,81.87
		l2.911,5.461h-2.163l-2.017-3.806L133.711,81.87z"/>
	<path d="M137.876,87.331v-9.613h1.923v9.613H137.876z M144.165,79.533h-3.966v-1.815h3.966V79.533z M143.337,83.325h-3.138V81.51
		h3.138V83.325z M144.165,87.331h-3.966v-1.816h3.966V87.331z"/>
	<path d="M147.782,77.718v9.613h-1.923v-9.613H147.782z M150.88,87.331l-1.549-3.565h-1.148v-1.789h2.096
		c0.294,0,0.454-0.16,0.454-0.454v-1.535c0-0.294-0.16-0.454-0.454-0.454h-2.096v-1.815h2.577c1.121,0,1.896,0.774,1.896,1.895
		v2.257c0,0.908-0.507,1.589-1.309,1.815l1.603,3.646H150.88z"/>
	<path d="M158.675,85.568c0.294,0,0.454-0.16,0.454-0.454V84.1c0-0.294-0.16-0.387-0.454-0.454l-2.483-0.534
		c-1.041-0.227-1.922-0.854-1.922-1.922v-1.629c0-1.122,0.774-1.896,1.896-1.896h1.295v1.816h-0.814
		c-0.294,0-0.454,0.16-0.454,0.454v0.907c0,0.294,0.16,0.388,0.454,0.454l2.483,0.534c1.042,0.227,1.923,0.854,1.923,1.923v1.735
		c0,1.121-0.774,1.896-1.896,1.896h-1.296v-1.815H158.675z M156.165,87.384c-1.121,0-1.896-0.774-1.896-1.896V84.26h1.869v0.854
		c0,0.294,0.16,0.454,0.454,0.454h0.867v1.815H156.165z M158.995,77.665c1.122,0,1.896,0.774,1.896,1.896v1.121h-1.869v-0.747
		c0-0.294-0.16-0.454-0.454-0.454h-0.708v-1.816H158.995z"/>
	<path d="M162.88,87.331v-9.613h1.923v9.613H162.88z M167.793,77.718c1.122,0,1.896,0.774,1.896,1.895v2.431
		c0,1.121-0.774,1.896-1.896,1.896h-2.59v-1.815h2.109c0.294,0,0.454-0.16,0.454-0.454v-1.683c0-0.294-0.16-0.454-0.454-0.454
		h-2.109v-1.815H167.793z"/>
	<path d="M172.894,77.718h0.093l0.828,2.843l-2.029,6.77h-1.989L172.894,77.718z M175.537,85.168H172.8l0.534-1.815h1.682
		l-1.629-5.634h1.75l3.097,9.613h-2.069L175.537,85.168z"/>
	<path d="M181.463,79.48c-0.294,0-0.454,0.16-0.454,0.454v5.18c0,0.294,0.16,0.454,0.454,0.454h0.842v1.815h-1.322
		c-1.121,0-1.896-0.774-1.896-1.896v-5.928c0-1.122,0.774-1.896,1.896-1.896h1.322v1.816H181.463z M184.026,77.665
		c1.122,0,1.896,0.774,1.896,1.896v1.549H184v-1.175c0-0.294-0.16-0.454-0.454-0.454h-0.841v-1.816H184.026z M183.546,85.568
		c0.294,0,0.454-0.16,0.454-0.454v-1.175h1.923v1.549c0,1.121-0.774,1.896-1.896,1.896h-1.321v-1.815H183.546z"/>
	<path d="M187.631,87.331v-9.613h1.923v9.613H187.631z M193.92,79.533h-3.966v-1.815h3.966V79.533z M193.092,83.325h-3.138V81.51
		h3.138V83.325z M193.92,87.331h-3.966v-1.816h3.966V87.331z"/>
</g>
<g>
	<path d="M23.532,76.795c-0.33-1.195-1.093-1.993-2.247-2.422c-0.175-0.065-0.364-0.091-0.546-0.135
		c-0.071-0.017-0.142-0.036-0.213-0.054c-4.13,0-8.26,0-12.39,0c-0.177,0.041-0.357,0.075-0.531,0.125
		c-1.209,0.343-2.013,1.118-2.424,2.3c-0.079,0.227-0.116,0.468-0.172,0.702c0,4.13,0,8.26,0,12.39
		c0.041,0.177,0.075,0.356,0.124,0.531c0.336,1.193,1.1,1.991,2.258,2.411c0.239,0.087,0.496,0.125,0.745,0.185
		c4.13,0,8.26,0,12.39,0c0.177-0.041,0.356-0.075,0.531-0.124c1.193-0.336,1.991-1.1,2.411-2.258
		c0.087-0.239,0.125-0.496,0.185-0.745c0-4.13,0-8.26,0-12.39C23.613,77.139,23.579,76.965,23.532,76.795z"/>
	<path style="fill:none;stroke:#009FE3;stroke-width:0.2835;stroke-miterlimit:10;" d="M13.495,79.091
		c-0.335,0.402-0.503,1.052-0.503,1.949v0.396h-0.766v1.503h0.766v5.584h1.687v-5.584h1.205v-1.503h-1.205
		c0-0.51,0.038-0.871,0.113-1.084s0.25-0.319,0.524-0.319c0.142,0,0.279,0.008,0.411,0.021c0.132,0.015,0.283,0.055,0.454,0.121
		l0.312-1.432c-0.416-0.17-0.935-0.255-1.559-0.255C14.31,78.489,13.831,78.689,13.495,79.091z"/>
</g>
<g>
	<path d="M10.661,149.581l-2.39-9.613h2.056l1.803,9.613H10.661z M15.708,149.581l-1.576-6.328l-1.575,6.328h-0.054l-0.667-3.444
		l1.536-6.169h1.522l2.363,9.613H15.708z M16.775,146.163l1.162-6.195h1.976l-2.336,9.48L16.775,146.163z"/>
	<path d="M21.211,139.968h1.923v9.613h-1.923V139.968z"/>
	<path d="M27.14,149.581h-1.896v-9.613h1.896V149.581z M30.465,139.968h2.256l-5.181,6.676v-2.684L30.465,139.968z M29.957,144.12
		l2.911,5.461h-2.163l-2.016-3.805L29.957,144.12z"/>
	<path d="M34.125,139.968h1.923v9.613h-1.923V139.968z"/>
	<path d="M37.837,149.581v-1.949h1.869v1.949H37.837z"/>
	<path d="M41.497,139.968h1.923v9.613h-1.923V139.968z M46.73,139.968h1.922v9.613H46.73v-4.005H43.82v-1.816h2.911V139.968z"/>
	<path d="M50.765,149.581v-9.613h1.923v9.613H50.765z M57.053,141.784h-3.965v-1.816h3.965V141.784z M56.226,145.576h-3.138v-1.816
		h3.138V145.576z M57.053,149.581h-3.965v-1.815h3.965V149.581z"/>
	<path d="M58.75,139.968h1.923v9.613H58.75V139.968z"/>
	<path d="M62.784,149.581v-9.613h1.923v9.613H62.784z M67.791,139.968c1.122,0,1.896,0.774,1.896,1.896v5.821
		c0,1.121-0.774,1.896-1.896,1.896h-2.684v-1.815h2.203c0.293,0,0.454-0.16,0.454-0.454v-5.073c0-0.294-0.16-0.454-0.454-0.454
		h-2.203v-1.816H67.791z"/>
	<path d="M71.571,149.581v-9.613h1.923v9.613H71.571z M77.859,141.784h-3.965v-1.816h3.965V141.784z M77.032,145.576h-3.138v-1.816
		h3.138V145.576z M77.859,149.581h-3.965v-1.815h3.965V149.581z"/>
	<path d="M81.48,139.968v9.613h-1.923v-9.613H81.48z M85.512,149.581H81.88v-1.815h3.631V149.581z"/>
	<path d="M86.969,139.968h1.923v9.613h-1.923V139.968z M91.829,139.968c1.122,0,1.896,0.774,1.896,1.896v1.361
		c0,0.574-0.227,1.082-0.841,1.442c0.668,0.32,0.948,0.868,0.948,1.442v1.575c0,1.121-0.774,1.896-1.896,1.896h-2.644v-1.789h2.163
		c0.293,0,0.454-0.16,0.454-0.454v-1.389c0-0.4-0.24-0.427-0.614-0.427h-2.003v-1.709h2.056c0.347,0,0.454-0.08,0.454-0.454v-1.148
		c0-0.293-0.161-0.453-0.454-0.453h-2.056v-1.79H91.829z"/>
	<path d="M95.636,149.581v-9.613h1.923v9.613H95.636z M101.925,141.784h-3.965v-1.816h3.965V141.784z M101.097,145.576h-3.138
		v-1.816h3.138V145.576z M101.925,149.581h-3.965v-1.815h3.965V149.581z"/>
	<path d="M105.545,139.968v9.613h-1.923v-9.613H105.545z M108.642,149.581l-1.548-3.564h-1.148v-1.789h2.096
		c0.293,0,0.454-0.16,0.454-0.454v-1.535c0-0.294-0.161-0.454-0.454-0.454h-2.096v-1.816h2.577c1.122,0,1.896,0.774,1.896,1.896
		v2.256c0,0.908-0.507,1.589-1.309,1.816l1.603,3.645H108.642z"/>
	<path d="M113.972,149.635c-1.122,0-1.896-0.774-1.896-1.896v-5.929c0-1.121,0.774-1.896,1.896-1.896h1.389v1.815h-0.908
		c-0.293,0-0.454,0.16-0.454,0.454v5.181c0,0.293,0.16,0.454,0.454,0.454h0.908v1.815H113.972z M116.655,147.819
		c0.294,0,0.454-0.161,0.454-0.454v-1.429h-1.762V144.2h3.685v3.539c0,1.121-0.774,1.896-1.896,1.896h-1.375v-1.815H116.655z
		 M117.136,139.915c1.121,0,1.896,0.774,1.896,1.896v1.255h-1.922v-0.881c0-0.294-0.16-0.454-0.454-0.454h-0.895v-1.815H117.136z"/>
	<path d="M125.31,146.057h-4.807v-1.735h4.807V146.057z"/>
	<path d="M127.046,149.581v-9.613h0.04l1.775,4.166v5.447H127.046z M127.486,139.968h1.669l2.483,5.635l2.483-5.635h1.669
		l-3.458,8.078h-1.389L127.486,139.968z M136.231,139.968v9.613h-1.815v-5.447l1.775-4.166H136.231z"/>
	<path d="M140.602,139.968h0.093l0.828,2.845l-2.029,6.769h-1.989L140.602,139.968z M143.245,147.418h-2.737l0.534-1.815h1.682
		l-1.629-5.635h1.75l3.097,9.613h-2.069L143.245,147.418z"/>
	<path d="M149.107,149.581h-1.896v-9.613h1.896V149.581z M152.433,139.968h2.256l-5.18,6.676v-2.684L152.433,139.968z
		 M151.925,144.12l2.911,5.461h-2.163l-2.017-3.805L151.925,144.12z"/>
	<path d="M156.093,149.581v-9.613h1.923v9.613H156.093z M162.382,141.784h-3.966v-1.816h3.966V141.784z M161.554,145.576h-3.138
		v-1.816h3.138V145.576z M162.382,149.581h-3.966v-1.815h3.966V149.581z"/>
	<path d="M166.002,139.968v9.613h-1.923v-9.613H166.002z M169.1,149.581l-1.549-3.564h-1.148v-1.789h2.096
		c0.294,0,0.454-0.16,0.454-0.454v-1.535c0-0.294-0.16-0.454-0.454-0.454h-2.096v-1.816h2.577c1.121,0,1.896,0.774,1.896,1.896
		v2.256c0,0.908-0.507,1.589-1.309,1.816l1.603,3.645H169.1z"/>
	<path d="M176.897,147.819c0.294,0,0.454-0.161,0.454-0.454v-1.015c0-0.294-0.16-0.388-0.454-0.454l-2.483-0.534
		c-1.041-0.227-1.922-0.854-1.922-1.923v-1.629c0-1.121,0.774-1.896,1.896-1.896h1.295v1.815h-0.814
		c-0.294,0-0.454,0.16-0.454,0.454v0.908c0,0.293,0.16,0.387,0.454,0.454l2.483,0.533c1.042,0.228,1.923,0.854,1.923,1.923v1.736
		c0,1.121-0.774,1.896-1.896,1.896h-1.296v-1.815H176.897z M174.388,149.635c-1.121,0-1.896-0.774-1.896-1.896v-1.229h1.869v0.854
		c0,0.293,0.16,0.454,0.454,0.454h0.867v1.815H174.388z M177.218,139.915c1.122,0,1.896,0.774,1.896,1.896v1.122h-1.869v-0.748
		c0-0.294-0.16-0.454-0.454-0.454h-0.708v-1.815H177.218z"/>
	<path d="M181.106,149.581v-9.613h1.923v9.613H181.106z M186.02,139.968c1.122,0,1.896,0.774,1.896,1.896v2.43
		c0,1.122-0.774,1.896-1.896,1.896h-2.59v-1.816h2.109c0.294,0,0.454-0.16,0.454-0.454v-1.682c0-0.294-0.16-0.454-0.454-0.454
		h-2.109v-1.816H186.02z"/>
	<path d="M191.122,139.968h0.093l0.828,2.845l-2.029,6.769h-1.989L191.122,139.968z M193.766,147.418h-2.737l0.534-1.815h1.682
		l-1.629-5.635h1.749l3.098,9.613h-2.069L193.766,147.418z"/>
	<path d="M199.695,141.73c-0.294,0-0.454,0.16-0.454,0.454v5.181c0,0.293,0.16,0.454,0.454,0.454h0.842v1.815h-1.322
		c-1.121,0-1.896-0.774-1.896-1.896v-5.929c0-1.121,0.774-1.896,1.896-1.896h1.322v1.815H199.695z M202.259,139.915
		c1.122,0,1.896,0.774,1.896,1.896v1.549h-1.923v-1.175c0-0.294-0.16-0.454-0.454-0.454h-0.841v-1.815H202.259z M201.778,147.819
		c0.294,0,0.454-0.161,0.454-0.454v-1.175h1.923v1.549c0,1.121-0.774,1.896-1.896,1.896h-1.321v-1.815H201.778z"/>
	<path d="M205.865,149.581v-9.613h1.923v9.613H205.865z M212.154,141.784h-3.966v-1.816h3.966V141.784z M211.326,145.576h-3.138
		v-1.816h3.138V145.576z M212.154,149.581h-3.966v-1.815h3.966V149.581z"/>
	<path d="M213.531,149.581v-1.949h1.869v1.949H213.531z"/>
	<path d="M217.19,149.581v-9.613h1.923v9.613H217.19z M222.197,139.968c1.121,0,1.896,0.774,1.896,1.896v5.821
		c0,1.121-0.774,1.896-1.896,1.896h-2.684v-1.815h2.203c0.294,0,0.454-0.16,0.454-0.454v-5.073c0-0.294-0.16-0.454-0.454-0.454
		h-2.203v-1.816H222.197z"/>
	<path d="M225.978,149.581v-9.613h1.923v9.613H225.978z M232.267,141.784h-3.966v-1.816h3.966V141.784z M231.438,145.576h-3.138
		v-1.816h3.138V145.576z M232.267,149.581h-3.966v-1.815h3.966V149.581z"/>
</g>
<rect x="-0.002" y="0.002" style="fill:none;stroke:#009640;stroke-width:0.2835;stroke-miterlimit:10;" width="240.945" height="155.906"/>
<g>
	<path d="M161.146,111.015l0.012,0.5h0.023l0.102-0.47l0.357-1.107h0.606l0.334,1.107l0.107,0.47h0.023l0.012-0.512l0.167-2.315
		h0.75l-0.429,4.167h-0.69l-0.446-1.315l-0.138-0.571h-0.029l-0.143,0.571l-0.482,1.315h-0.715l-0.428-4.167h0.815L161.146,111.015z
		"/>
	<path d="M166.813,112.539c-0.052,0.048-0.118,0.095-0.199,0.14c-0.081,0.046-0.177,0.089-0.286,0.128
		c-0.109,0.04-0.229,0.071-0.36,0.096c-0.131,0.023-0.27,0.035-0.416,0.035c-0.254,0-0.481-0.035-0.682-0.106
		c-0.2-0.072-0.37-0.176-0.509-0.312c-0.14-0.138-0.245-0.302-0.318-0.494c-0.074-0.192-0.11-0.412-0.11-0.658
		c0-0.262,0.041-0.491,0.125-0.688c0.083-0.196,0.197-0.36,0.342-0.491c0.146-0.131,0.314-0.229,0.509-0.295
		c0.195-0.065,0.405-0.098,0.632-0.098c0.15,0,0.307,0.02,0.467,0.06c0.161,0.039,0.309,0.108,0.443,0.205
		c0.135,0.098,0.245,0.228,0.331,0.39c0.085,0.163,0.128,0.369,0.128,0.619c0,0.171-0.021,0.355-0.06,0.554h-2.144
		c0.004,0.127,0.031,0.234,0.081,0.321c0.049,0.088,0.114,0.159,0.196,0.215c0.081,0.056,0.174,0.096,0.279,0.122
		c0.105,0.025,0.218,0.038,0.337,0.038c0.237,0,0.433-0.027,0.586-0.083c0.152-0.056,0.276-0.123,0.372-0.202L166.813,112.539z
		 M165.527,110.414c-0.103,0-0.2,0.014-0.291,0.042c-0.092,0.028-0.174,0.07-0.247,0.125s-0.134,0.122-0.182,0.203
		s-0.075,0.172-0.084,0.272h1.465c0-0.198-0.055-0.354-0.164-0.47C165.916,110.472,165.75,110.414,165.527,110.414z"/>
	<path d="M170.343,112.539c-0.052,0.048-0.118,0.095-0.199,0.14c-0.081,0.046-0.177,0.089-0.286,0.128
		c-0.109,0.04-0.229,0.071-0.36,0.096c-0.131,0.023-0.27,0.035-0.416,0.035c-0.254,0-0.481-0.035-0.682-0.106
		c-0.2-0.072-0.37-0.176-0.509-0.312c-0.14-0.138-0.245-0.302-0.318-0.494c-0.074-0.192-0.11-0.412-0.11-0.658
		c0-0.262,0.041-0.491,0.125-0.688c0.083-0.196,0.197-0.36,0.342-0.491c0.146-0.131,0.314-0.229,0.509-0.295
		c0.195-0.065,0.405-0.098,0.632-0.098c0.15,0,0.307,0.02,0.467,0.06c0.161,0.039,0.309,0.108,0.443,0.205
		c0.135,0.098,0.245,0.228,0.331,0.39c0.085,0.163,0.128,0.369,0.128,0.619c0,0.171-0.021,0.355-0.06,0.554h-2.144
		c0.004,0.127,0.031,0.234,0.081,0.321c0.049,0.088,0.114,0.159,0.196,0.215c0.081,0.056,0.174,0.096,0.279,0.122
		c0.105,0.025,0.218,0.038,0.337,0.038c0.237,0,0.433-0.027,0.586-0.083c0.152-0.056,0.276-0.123,0.372-0.202L170.343,112.539z
		 M169.057,110.414c-0.103,0-0.2,0.014-0.291,0.042c-0.092,0.028-0.174,0.07-0.247,0.125s-0.134,0.122-0.182,0.203
		s-0.075,0.172-0.084,0.272h1.465c0-0.198-0.055-0.354-0.164-0.47C169.445,110.472,169.279,110.414,169.057,110.414z"/>
	<path d="M170.694,108.688h1.262v2.375h0.179l0.977-1.185h0.91l-1.202,1.357l0.78,0.964h0.554v0.655h-0.965l-1.023-1.232h-0.209
		v1.232h-0.773v-3.512h-0.488V108.688z"/>
	<path d="M174.742,108.688h1.269v2.75c0,0.306,0.037,0.519,0.113,0.637c0.075,0.119,0.196,0.179,0.362,0.179
		c0.123,0,0.225-0.013,0.304-0.038c0.079-0.026,0.159-0.062,0.238-0.11l0.292,0.536c-0.067,0.043-0.135,0.084-0.203,0.122
		c-0.067,0.037-0.139,0.069-0.214,0.095s-0.158,0.046-0.247,0.06s-0.189,0.021-0.301,0.021c-0.373,0-0.652-0.095-0.839-0.285
		s-0.28-0.461-0.28-0.81v-2.5h-0.494V108.688z"/>
	<path d="M179.546,112.016h0.226l0.578-2.138h0.798l-0.846,2.685c-0.075,0.223-0.148,0.426-0.221,0.61
		c-0.071,0.185-0.154,0.345-0.25,0.479c-0.095,0.135-0.207,0.239-0.336,0.312s-0.287,0.11-0.474,0.11
		c-0.091,0-0.178-0.013-0.259-0.036s-0.155-0.053-0.223-0.086c-0.068-0.034-0.127-0.07-0.179-0.107
		c-0.052-0.038-0.094-0.072-0.125-0.104l0.398-0.529c0.052,0.043,0.113,0.084,0.185,0.122c0.071,0.037,0.139,0.057,0.202,0.057
		c0.119,0,0.214-0.042,0.283-0.125c0.069-0.084,0.136-0.221,0.199-0.411h-0.423l-1.238-2.977h0.84L179.546,112.016z"/>
	<path d="M187.332,110.634l0.03-0.648h-0.036l-0.666,1.089h-0.144l-0.696-1.089h-0.029l0.035,0.583v2.286h-0.773v-4.167h0.827
		l0.715,1.155h0.023l0.708-1.155h0.822v4.167h-0.816V110.634z"/>
	<path d="M188.88,110.08c0.158-0.071,0.342-0.133,0.55-0.185c0.209-0.051,0.456-0.077,0.741-0.077c0.207,0,0.382,0.025,0.527,0.074
		c0.145,0.05,0.262,0.12,0.351,0.212c0.09,0.091,0.154,0.2,0.194,0.327c0.039,0.127,0.06,0.27,0.06,0.429
		c0,0.202-0.008,0.375-0.021,0.518c-0.014,0.144-0.021,0.271-0.021,0.381c0,0.084,0.004,0.177,0.012,0.28
		c0.008,0.056,0.014,0.109,0.018,0.16h0.388v0.655h-1l-0.078-0.405h-0.029c-0.079,0.124-0.191,0.229-0.337,0.319
		c-0.146,0.089-0.344,0.134-0.592,0.134c-0.296,0-0.53-0.079-0.704-0.238s-0.261-0.369-0.261-0.631c0-0.167,0.031-0.311,0.092-0.432
		c0.062-0.121,0.15-0.221,0.267-0.298s0.256-0.135,0.42-0.173c0.163-0.037,0.346-0.057,0.547-0.057c0.071,0,0.146,0.005,0.225,0.013
		s0.176,0.016,0.29,0.023c0.008-0.04,0.012-0.079,0.012-0.119v-0.113c0-0.15-0.043-0.259-0.13-0.324s-0.215-0.099-0.384-0.099
		c-0.201,0-0.383,0.026-0.544,0.078c-0.162,0.052-0.298,0.103-0.408,0.154L188.88,110.08z M189.893,112.266
		c0.188,0,0.33-0.035,0.424-0.104s0.163-0.144,0.206-0.224v-0.356c-0.039-0.009-0.098-0.018-0.177-0.027
		c-0.078-0.01-0.163-0.015-0.253-0.015c-0.074,0-0.149,0.007-0.224,0.021s-0.142,0.036-0.2,0.065
		c-0.059,0.03-0.105,0.068-0.142,0.116c-0.035,0.048-0.053,0.105-0.053,0.173c0,0.111,0.032,0.197,0.098,0.259
		C189.637,112.234,189.743,112.266,189.893,112.266z"/>
	<path d="M191.874,108.688h1.262v2.375h0.179l0.977-1.185h0.91l-1.202,1.357l0.78,0.964h0.554v0.655h-0.965l-1.023-1.232h-0.209
		v1.232h-0.773v-3.512h-0.488V108.688z"/>
	<path d="M195.755,112.199h1.047v-1.666h-1.047v-0.655h1.821v2.321h1.102v0.655h-2.923V112.199z M196.659,109.068
		c0-0.123,0.046-0.228,0.137-0.315c0.092-0.087,0.219-0.131,0.381-0.131c0.167,0,0.3,0.044,0.399,0.131
		c0.099,0.088,0.148,0.192,0.148,0.315c0,0.127-0.05,0.231-0.148,0.312c-0.1,0.082-0.232,0.122-0.399,0.122
		c-0.162,0-0.289-0.04-0.381-0.122C196.705,109.3,196.659,109.195,196.659,109.068z"/>
	<path d="M199.005,109.878h1.042l0.089,0.393h0.024c0.091-0.127,0.222-0.237,0.393-0.333c0.171-0.095,0.375-0.143,0.613-0.143
		c0.146,0,0.284,0.02,0.414,0.06c0.129,0.039,0.238,0.105,0.33,0.196c0.091,0.091,0.163,0.215,0.217,0.372s0.081,0.351,0.081,0.58
		v1.852h-0.774v-1.69c0-0.242-0.055-0.417-0.163-0.524c-0.109-0.106-0.247-0.16-0.414-0.16c-0.147,0-0.281,0.043-0.402,0.128
		s-0.203,0.191-0.247,0.318v1.929h-0.773v-2.321h-0.429V109.878z"/>
	<path d="M205.619,112.854c0,0.214-0.037,0.4-0.11,0.56c-0.073,0.158-0.175,0.291-0.304,0.396c-0.129,0.105-0.282,0.183-0.458,0.232
		c-0.177,0.05-0.37,0.074-0.581,0.074c-0.143,0-0.276-0.011-0.401-0.032c-0.125-0.022-0.24-0.051-0.346-0.087
		c-0.104-0.035-0.197-0.074-0.276-0.116c-0.079-0.041-0.143-0.082-0.19-0.121l0.298-0.548c0.095,0.063,0.209,0.124,0.342,0.182
		s0.301,0.086,0.503,0.086c0.25,0,0.44-0.058,0.571-0.173s0.197-0.279,0.197-0.494v-0.19h-0.024
		c-0.071,0.096-0.177,0.166-0.315,0.212c-0.139,0.045-0.3,0.068-0.482,0.068c-0.19,0-0.366-0.03-0.526-0.09
		c-0.161-0.06-0.301-0.149-0.42-0.271s-0.211-0.274-0.276-0.461s-0.099-0.405-0.099-0.655c0-0.262,0.039-0.494,0.116-0.696
		s0.187-0.372,0.327-0.509c0.141-0.138,0.31-0.24,0.506-0.31c0.197-0.069,0.416-0.104,0.658-0.104c0.127,0,0.254,0.005,0.381,0.015
		s0.247,0.023,0.36,0.039s0.217,0.035,0.312,0.057c0.095,0.021,0.175,0.045,0.238,0.068V112.854z M204.19,112.283
		c0.15,0,0.286-0.034,0.407-0.102s0.203-0.168,0.247-0.304v-1.339c-0.056-0.024-0.134-0.043-0.235-0.057
		c-0.101-0.014-0.197-0.021-0.288-0.021c-0.111,0-0.216,0.018-0.312,0.053c-0.098,0.036-0.183,0.093-0.256,0.17
		c-0.074,0.077-0.131,0.175-0.173,0.292s-0.062,0.257-0.062,0.42c0,0.143,0.018,0.27,0.054,0.381
		c0.035,0.111,0.085,0.204,0.148,0.279s0.135,0.132,0.215,0.17C204.014,112.265,204.099,112.283,204.19,112.283z"/>
	<path d="M211.981,111.11h-1.345v1.744h-0.815v-4.167h0.815v1.696h1.345v-1.696h0.816v4.167h-0.816V111.11z"/>
	<path d="M213.262,111.366c0-0.25,0.038-0.472,0.113-0.667c0.075-0.194,0.183-0.358,0.321-0.494c0.14-0.135,0.305-0.236,0.497-0.306
		c0.192-0.07,0.408-0.104,0.646-0.104c0.25,0,0.473,0.038,0.669,0.113c0.197,0.075,0.362,0.182,0.497,0.318
		c0.136,0.137,0.237,0.303,0.307,0.497s0.104,0.408,0.104,0.643c0,0.25-0.038,0.473-0.113,0.667s-0.183,0.359-0.321,0.494
		s-0.305,0.237-0.497,0.307s-0.407,0.104-0.646,0.104c-0.25,0-0.474-0.037-0.67-0.112c-0.196-0.076-0.362-0.182-0.497-0.319
		c-0.135-0.137-0.237-0.302-0.307-0.497C213.297,111.814,213.262,111.601,213.262,111.366z M214.06,111.366
		c0,0.131,0.018,0.252,0.054,0.363s0.087,0.208,0.155,0.292c0.067,0.083,0.148,0.147,0.243,0.193
		c0.096,0.045,0.205,0.068,0.328,0.068c0.229,0,0.417-0.073,0.562-0.221c0.145-0.146,0.217-0.379,0.217-0.696
		c0-0.273-0.067-0.495-0.202-0.664c-0.135-0.168-0.327-0.253-0.577-0.253c-0.111,0-0.215,0.018-0.31,0.051
		c-0.096,0.034-0.178,0.089-0.247,0.164s-0.124,0.171-0.164,0.285C214.079,111.064,214.06,111.204,214.06,111.366z"/>
	<path d="M218.548,109.878h1.106v2.071c0,0.084,0,0.167,0,0.25h0.453v0.655h-0.94l-0.138-0.44h-0.023
		c-0.092,0.15-0.229,0.275-0.411,0.375c-0.183,0.099-0.385,0.148-0.606,0.148c-0.151,0-0.289-0.02-0.414-0.06
		c-0.125-0.039-0.231-0.104-0.318-0.196c-0.088-0.091-0.155-0.214-0.202-0.369c-0.048-0.154-0.072-0.349-0.072-0.583v-1.196h-0.339
		v-0.655h1.113v1.69c0,0.242,0.038,0.417,0.116,0.524c0.077,0.106,0.199,0.16,0.366,0.16c0.146,0,0.278-0.043,0.396-0.131
		c0.117-0.087,0.199-0.194,0.247-0.321v-1.268h-0.333V109.878z"/>
	<path d="M220.346,112.199h0.738v-1.666h-0.738v-0.655h1.339l0.09,0.393h0.023c0.111-0.131,0.238-0.239,0.381-0.327
		c0.143-0.087,0.31-0.131,0.5-0.131c0.238,0,0.426,0.088,0.562,0.262c0.137,0.175,0.206,0.467,0.206,0.875h-0.697
		c0-0.143-0.021-0.247-0.062-0.312c-0.041-0.065-0.107-0.098-0.199-0.098c-0.158,0-0.286,0.039-0.384,0.119
		c-0.098,0.079-0.18,0.17-0.247,0.273v1.268h1.292v0.655h-2.804V112.199z"/>
	<path d="M226.036,112.033c0-0.079-0.048-0.143-0.146-0.19s-0.217-0.092-0.36-0.131c-0.143-0.04-0.3-0.081-0.47-0.122
		c-0.171-0.042-0.328-0.1-0.471-0.173s-0.263-0.167-0.36-0.28c-0.097-0.112-0.146-0.259-0.146-0.438
		c0-0.146,0.033-0.275,0.099-0.387s0.154-0.205,0.268-0.282c0.113-0.078,0.248-0.137,0.404-0.176c0.157-0.04,0.327-0.06,0.51-0.06
		c0.194,0,0.364,0.014,0.512,0.042c0.146,0.027,0.274,0.062,0.384,0.101c0.109,0.04,0.202,0.085,0.28,0.134
		c0.077,0.05,0.144,0.095,0.199,0.134l-0.328,0.53c-0.059-0.036-0.128-0.072-0.205-0.11c-0.077-0.037-0.158-0.072-0.244-0.104
		c-0.085-0.032-0.175-0.058-0.268-0.078c-0.094-0.02-0.186-0.029-0.277-0.029c-0.166,0-0.301,0.021-0.404,0.065
		s-0.154,0.111-0.154,0.202c0,0.071,0.048,0.129,0.146,0.173c0.097,0.044,0.217,0.084,0.36,0.122
		c0.143,0.037,0.299,0.078,0.47,0.122s0.327,0.1,0.471,0.17c0.143,0.069,0.263,0.159,0.36,0.271
		c0.097,0.111,0.146,0.254,0.146,0.429c0,0.302-0.11,0.538-0.33,0.711c-0.221,0.173-0.547,0.259-0.979,0.259
		c-0.342,0-0.636-0.05-0.884-0.151s-0.448-0.22-0.599-0.354l0.357-0.56c0.052,0.044,0.12,0.093,0.205,0.146
		c0.085,0.053,0.182,0.102,0.289,0.146c0.106,0.044,0.221,0.08,0.342,0.11c0.121,0.029,0.241,0.044,0.36,0.044
		c0.127,0,0.236-0.021,0.327-0.065C225.991,112.21,226.036,112.137,226.036,112.033z"/>
	<path d="M228.477,110.307c0-0.139,0.044-0.249,0.131-0.33s0.202-0.122,0.346-0.122c0.15,0,0.27,0.041,0.356,0.122
		c0.088,0.081,0.131,0.191,0.131,0.33s-0.043,0.25-0.131,0.333c-0.087,0.084-0.206,0.125-0.356,0.125
		c-0.144,0-0.259-0.041-0.346-0.125C228.521,110.557,228.477,110.445,228.477,110.307z M228.477,112.462
		c0-0.14,0.044-0.249,0.131-0.331c0.087-0.081,0.202-0.122,0.346-0.122c0.15,0,0.27,0.041,0.356,0.122
		c0.088,0.082,0.131,0.191,0.131,0.331c0,0.139-0.043,0.25-0.131,0.333c-0.087,0.083-0.206,0.125-0.356,0.125
		c-0.144,0-0.259-0.042-0.346-0.125S228.477,112.601,228.477,112.462z"/>
</g>
<g>
	<path d="M161.146,120.678l0.012,0.5h0.023l0.102-0.47l0.357-1.107h0.606l0.334,1.107l0.107,0.47h0.023l0.012-0.512l0.167-2.315
		h0.75l-0.429,4.167h-0.69l-0.446-1.315l-0.138-0.571h-0.029l-0.143,0.571l-0.482,1.315h-0.715l-0.428-4.167h0.815L161.146,120.678z
		"/>
	<path d="M166.813,122.202c-0.052,0.048-0.118,0.095-0.199,0.14c-0.081,0.046-0.177,0.089-0.286,0.128
		c-0.109,0.04-0.229,0.071-0.36,0.096c-0.131,0.023-0.27,0.035-0.416,0.035c-0.254,0-0.481-0.035-0.682-0.106
		c-0.2-0.072-0.37-0.176-0.509-0.312c-0.14-0.138-0.245-0.302-0.318-0.494c-0.074-0.192-0.11-0.412-0.11-0.658
		c0-0.262,0.041-0.491,0.125-0.688c0.083-0.196,0.197-0.36,0.342-0.491c0.146-0.131,0.314-0.229,0.509-0.295
		c0.195-0.065,0.405-0.098,0.632-0.098c0.15,0,0.307,0.02,0.467,0.06c0.161,0.039,0.309,0.108,0.443,0.205
		c0.135,0.098,0.245,0.228,0.331,0.39c0.085,0.163,0.128,0.369,0.128,0.619c0,0.171-0.021,0.355-0.06,0.554h-2.144
		c0.004,0.127,0.031,0.234,0.081,0.321c0.049,0.088,0.114,0.159,0.196,0.215c0.081,0.056,0.174,0.096,0.279,0.122
		c0.105,0.025,0.218,0.038,0.337,0.038c0.237,0,0.433-0.027,0.586-0.083c0.152-0.056,0.276-0.123,0.372-0.202L166.813,122.202z
		 M165.527,120.077c-0.103,0-0.2,0.014-0.291,0.042c-0.092,0.028-0.174,0.07-0.247,0.125s-0.134,0.122-0.182,0.203
		s-0.075,0.172-0.084,0.272h1.465c0-0.198-0.055-0.354-0.164-0.47C165.916,120.135,165.75,120.077,165.527,120.077z"/>
	<path d="M168.985,118.351h1.244v2.571c0,0.298,0.016,0.592,0.048,0.882c0,0.02,0.002,0.039,0.006,0.059h0.381v0.655h-0.958
		l-0.077-0.381h-0.024c-0.039,0.071-0.093,0.135-0.16,0.19c-0.068,0.056-0.144,0.104-0.227,0.146
		c-0.083,0.042-0.175,0.073-0.273,0.096c-0.1,0.021-0.199,0.032-0.298,0.032c-0.187,0-0.362-0.029-0.527-0.089
		c-0.164-0.06-0.309-0.152-0.432-0.277s-0.22-0.283-0.291-0.476s-0.107-0.42-0.107-0.682c0-0.254,0.039-0.48,0.116-0.679
		s0.185-0.366,0.321-0.503s0.299-0.242,0.485-0.315s0.391-0.11,0.613-0.11c0.123,0,0.238,0.007,0.348,0.021
		c0.109,0.015,0.203,0.037,0.283,0.068v-0.553h-0.471V118.351z M168.825,121.946c0.15,0,0.284-0.037,0.401-0.11
		s0.193-0.18,0.229-0.318v-1.262c-0.056-0.044-0.132-0.077-0.229-0.099c-0.097-0.021-0.199-0.032-0.307-0.032
		s-0.211,0.018-0.312,0.053c-0.101,0.036-0.19,0.093-0.268,0.17s-0.139,0.178-0.185,0.301s-0.068,0.273-0.068,0.452
		c0,0.254,0.063,0.459,0.19,0.613C168.404,121.869,168.587,121.946,168.825,121.946z"/>
	<path d="M174.855,121.862h0.911v-2.601l-0.786,0.601l-0.357-0.476l1.357-1.036h0.524v3.512h0.893v0.655h-2.542V121.862z"/>
	<path d="M178.111,121.5c0-0.14,0.022-0.267,0.068-0.381c0.046-0.115,0.104-0.219,0.179-0.31c0.073-0.092,0.157-0.174,0.253-0.247
		c0.095-0.074,0.192-0.139,0.291-0.194c-0.198-0.114-0.362-0.25-0.493-0.407c-0.132-0.157-0.197-0.354-0.197-0.593
		c0-0.154,0.034-0.299,0.102-0.435c0.067-0.135,0.162-0.252,0.283-0.351c0.12-0.1,0.265-0.177,0.431-0.232
		c0.167-0.056,0.348-0.083,0.542-0.083c0.179,0,0.347,0.023,0.503,0.071c0.157,0.048,0.295,0.115,0.414,0.202
		c0.119,0.088,0.212,0.193,0.279,0.318s0.102,0.263,0.102,0.414c0,0.234-0.061,0.438-0.182,0.613s-0.287,0.325-0.497,0.452
		c0.238,0.123,0.428,0.268,0.568,0.435s0.212,0.381,0.212,0.643c0,0.179-0.039,0.341-0.116,0.485s-0.182,0.269-0.312,0.372
		s-0.285,0.184-0.462,0.241s-0.364,0.086-0.562,0.086s-0.383-0.026-0.554-0.08c-0.17-0.054-0.319-0.128-0.446-0.224
		c-0.127-0.095-0.226-0.21-0.298-0.345C178.146,121.817,178.111,121.666,178.111,121.5z M180.23,121.398
		c0-0.1-0.026-0.185-0.077-0.256c-0.052-0.071-0.116-0.135-0.194-0.19c-0.077-0.056-0.162-0.106-0.256-0.152
		c-0.093-0.045-0.184-0.092-0.271-0.14c-0.198,0.088-0.352,0.199-0.458,0.337c-0.107,0.137-0.161,0.267-0.161,0.39
		c0,0.179,0.063,0.316,0.19,0.413c0.127,0.098,0.304,0.146,0.53,0.146c0.202,0,0.369-0.047,0.5-0.14
		C180.165,121.713,180.23,121.577,180.23,121.398z M178.95,119.404c0,0.096,0.021,0.176,0.062,0.241
		c0.042,0.065,0.096,0.123,0.161,0.173c0.065,0.049,0.14,0.094,0.223,0.134c0.084,0.039,0.167,0.079,0.25,0.119
		c0.063-0.032,0.126-0.071,0.188-0.119s0.116-0.101,0.164-0.158s0.086-0.117,0.116-0.179c0.029-0.062,0.045-0.124,0.045-0.188
		c0-0.083-0.019-0.155-0.054-0.217c-0.036-0.062-0.083-0.114-0.14-0.158c-0.058-0.043-0.122-0.076-0.194-0.098
		c-0.071-0.022-0.145-0.033-0.22-0.033c-0.088,0-0.168,0.015-0.241,0.042s-0.137,0.063-0.19,0.107
		c-0.054,0.043-0.096,0.095-0.125,0.154C178.965,119.285,178.95,119.345,178.95,119.404z"/>
	<path d="M182.588,119.97c0-0.139,0.044-0.249,0.131-0.33s0.202-0.122,0.346-0.122c0.15,0,0.27,0.041,0.356,0.122
		c0.088,0.081,0.131,0.191,0.131,0.33s-0.043,0.25-0.131,0.333c-0.087,0.084-0.206,0.125-0.356,0.125
		c-0.144,0-0.259-0.041-0.346-0.125C182.632,120.22,182.588,120.108,182.588,119.97z M182.588,122.125
		c0-0.14,0.044-0.249,0.131-0.331c0.087-0.081,0.202-0.122,0.346-0.122c0.15,0,0.27,0.041,0.356,0.122
		c0.088,0.082,0.131,0.191,0.131,0.331c0,0.139-0.043,0.25-0.131,0.333c-0.087,0.083-0.206,0.125-0.356,0.125
		c-0.144,0-0.259-0.042-0.346-0.125S182.588,122.264,182.588,122.125z"/>
	<path d="M185.041,120.428c0-0.36,0.037-0.677,0.113-0.949c0.075-0.271,0.182-0.497,0.319-0.676s0.302-0.312,0.493-0.401
		c0.191-0.09,0.404-0.134,0.64-0.134c0.502,0,0.888,0.176,1.159,0.526c0.271,0.352,0.406,0.896,0.406,1.634
		c0,0.365-0.038,0.684-0.113,0.956c-0.076,0.271-0.183,0.498-0.32,0.679c-0.137,0.181-0.303,0.315-0.496,0.404
		c-0.192,0.09-0.407,0.134-0.642,0.134c-0.506,0-0.893-0.186-1.159-0.557C185.174,121.673,185.041,121.135,185.041,120.428z
		 M185.814,120.428c0,0.06,0.001,0.116,0.003,0.17s0.005,0.108,0.009,0.164l1.44-1.328c-0.118-0.341-0.34-0.512-0.667-0.512
		c-0.252,0-0.445,0.122-0.581,0.366S185.814,119.912,185.814,120.428z M187.398,120.428c0-0.063-0.002-0.124-0.004-0.181
		c-0.002-0.058-0.005-0.114-0.009-0.17l-1.446,1.327c0.122,0.361,0.345,0.542,0.667,0.542c0.252,0,0.447-0.121,0.585-0.363
		S187.398,120.956,187.398,120.428z"/>
	<path d="M188.57,120.428c0-0.36,0.037-0.677,0.113-0.949c0.075-0.271,0.182-0.497,0.319-0.676s0.302-0.312,0.493-0.401
		c0.191-0.09,0.404-0.134,0.64-0.134c0.502,0,0.888,0.176,1.159,0.526c0.271,0.352,0.406,0.896,0.406,1.634
		c0,0.365-0.038,0.684-0.113,0.956c-0.076,0.271-0.183,0.498-0.32,0.679c-0.137,0.181-0.303,0.315-0.496,0.404
		c-0.192,0.09-0.407,0.134-0.642,0.134c-0.506,0-0.893-0.186-1.159-0.557C188.703,121.673,188.57,121.135,188.57,120.428z
		 M189.344,120.428c0,0.06,0.001,0.116,0.003,0.17s0.005,0.108,0.009,0.164l1.44-1.328c-0.118-0.341-0.34-0.512-0.667-0.512
		c-0.252,0-0.445,0.122-0.581,0.366S189.344,119.912,189.344,120.428z M190.928,120.428c0-0.063-0.002-0.124-0.004-0.181
		c-0.002-0.058-0.005-0.114-0.009-0.17l-1.446,1.327c0.122,0.361,0.345,0.542,0.667,0.542c0.252,0,0.447-0.121,0.585-0.363
		S190.928,120.956,190.928,120.428z"/>
	<path d="M195.874,120.458h2.631v0.685h-2.631V120.458z"/>
	<path d="M205.577,122.518h-2.655v-0.577c0.048-0.04,0.107-0.093,0.179-0.158s0.152-0.14,0.241-0.223
		c0.09-0.084,0.184-0.175,0.283-0.274c0.099-0.099,0.196-0.202,0.291-0.31c0.135-0.15,0.253-0.287,0.354-0.41
		s0.185-0.239,0.25-0.349s0.114-0.216,0.146-0.321c0.032-0.105,0.048-0.214,0.048-0.324c0-0.08-0.018-0.157-0.054-0.232
		c-0.035-0.075-0.085-0.142-0.148-0.199s-0.14-0.104-0.229-0.137c-0.089-0.034-0.188-0.051-0.295-0.051
		c-0.143,0-0.272,0.021-0.39,0.065s-0.239,0.117-0.366,0.22l-0.31-0.547c0.167-0.119,0.353-0.22,0.557-0.301
		c0.205-0.082,0.439-0.122,0.706-0.122c0.17,0,0.334,0.023,0.491,0.071c0.156,0.048,0.295,0.118,0.416,0.211
		c0.121,0.094,0.218,0.21,0.289,0.349s0.107,0.3,0.107,0.482c0,0.127-0.012,0.245-0.033,0.354c-0.021,0.109-0.056,0.219-0.102,0.328
		c-0.045,0.108-0.104,0.221-0.178,0.336c-0.074,0.115-0.162,0.24-0.266,0.375c-0.079,0.104-0.165,0.207-0.259,0.312
		c-0.093,0.105-0.186,0.205-0.276,0.301c-0.092,0.095-0.182,0.185-0.271,0.268c-0.089,0.083-0.169,0.153-0.241,0.208h1.715V122.518z
		"/>
	<path d="M209.106,122.518h-2.655v-0.577c0.048-0.04,0.107-0.093,0.179-0.158s0.152-0.14,0.241-0.223
		c0.09-0.084,0.184-0.175,0.283-0.274c0.099-0.099,0.196-0.202,0.291-0.31c0.135-0.15,0.253-0.287,0.354-0.41
		s0.185-0.239,0.25-0.349s0.114-0.216,0.146-0.321c0.032-0.105,0.048-0.214,0.048-0.324c0-0.08-0.018-0.157-0.054-0.232
		c-0.035-0.075-0.085-0.142-0.148-0.199s-0.14-0.104-0.229-0.137c-0.089-0.034-0.188-0.051-0.295-0.051
		c-0.143,0-0.272,0.021-0.39,0.065s-0.239,0.117-0.366,0.22l-0.31-0.547c0.167-0.119,0.353-0.22,0.557-0.301
		c0.205-0.082,0.439-0.122,0.706-0.122c0.17,0,0.334,0.023,0.491,0.071c0.156,0.048,0.295,0.118,0.416,0.211
		c0.121,0.094,0.218,0.21,0.289,0.349s0.107,0.3,0.107,0.482c0,0.127-0.012,0.245-0.033,0.354c-0.021,0.109-0.056,0.219-0.102,0.328
		c-0.045,0.108-0.104,0.221-0.178,0.336c-0.074,0.115-0.162,0.24-0.266,0.375c-0.079,0.104-0.165,0.207-0.259,0.312
		c-0.093,0.105-0.186,0.205-0.276,0.301c-0.092,0.095-0.182,0.185-0.271,0.268c-0.089,0.083-0.169,0.153-0.241,0.208h1.715V122.518z
		"/>
	<path d="M210.827,119.97c0-0.139,0.044-0.249,0.131-0.33s0.202-0.122,0.346-0.122c0.15,0,0.27,0.041,0.356,0.122
		c0.088,0.081,0.131,0.191,0.131,0.33s-0.043,0.25-0.131,0.333c-0.087,0.084-0.206,0.125-0.356,0.125
		c-0.144,0-0.259-0.041-0.346-0.125C210.871,120.22,210.827,120.108,210.827,119.97z M210.827,122.125
		c0-0.14,0.044-0.249,0.131-0.331c0.087-0.081,0.202-0.122,0.346-0.122c0.15,0,0.27,0.041,0.356,0.122
		c0.088,0.082,0.131,0.191,0.131,0.331c0,0.139-0.043,0.25-0.131,0.333c-0.087,0.083-0.206,0.125-0.356,0.125
		c-0.144,0-0.259-0.042-0.346-0.125S210.827,122.264,210.827,122.125z"/>
	<path d="M213.28,120.428c0-0.36,0.037-0.677,0.113-0.949c0.075-0.271,0.182-0.497,0.319-0.676s0.302-0.312,0.493-0.401
		c0.191-0.09,0.404-0.134,0.64-0.134c0.502,0,0.888,0.176,1.159,0.526c0.271,0.352,0.406,0.896,0.406,1.634
		c0,0.365-0.038,0.684-0.113,0.956c-0.076,0.271-0.183,0.498-0.32,0.679c-0.137,0.181-0.303,0.315-0.496,0.404
		c-0.192,0.09-0.407,0.134-0.642,0.134c-0.506,0-0.893-0.186-1.159-0.557C213.413,121.673,213.28,121.135,213.28,120.428z
		 M214.054,120.428c0,0.06,0.001,0.116,0.003,0.17s0.005,0.108,0.009,0.164l1.44-1.328c-0.118-0.341-0.34-0.512-0.667-0.512
		c-0.252,0-0.445,0.122-0.581,0.366S214.054,119.912,214.054,120.428z M215.638,120.428c0-0.063-0.002-0.124-0.004-0.181
		c-0.002-0.058-0.005-0.114-0.009-0.17l-1.446,1.327c0.122,0.361,0.345,0.542,0.667,0.542c0.252,0,0.447-0.121,0.585-0.363
		S215.638,120.956,215.638,120.428z"/>
	<path d="M216.81,120.428c0-0.36,0.037-0.677,0.113-0.949c0.075-0.271,0.182-0.497,0.319-0.676s0.302-0.312,0.493-0.401
		c0.191-0.09,0.404-0.134,0.64-0.134c0.502,0,0.888,0.176,1.159,0.526c0.271,0.352,0.406,0.896,0.406,1.634
		c0,0.365-0.038,0.684-0.113,0.956c-0.076,0.271-0.183,0.498-0.32,0.679c-0.137,0.181-0.303,0.315-0.496,0.404
		c-0.192,0.09-0.407,0.134-0.642,0.134c-0.506,0-0.893-0.186-1.159-0.557C216.942,121.673,216.81,121.135,216.81,120.428z
		 M217.583,120.428c0,0.06,0.001,0.116,0.003,0.17s0.005,0.108,0.009,0.164l1.44-1.328c-0.118-0.341-0.34-0.512-0.667-0.512
		c-0.252,0-0.445,0.122-0.581,0.366S217.583,119.912,217.583,120.428z M219.167,120.428c0-0.063-0.002-0.124-0.004-0.181
		c-0.002-0.058-0.005-0.114-0.009-0.17l-1.446,1.327c0.122,0.361,0.345,0.542,0.667,0.542c0.252,0,0.447-0.121,0.585-0.363
		S219.167,120.956,219.167,120.428z"/>
</g>
<rect x="157.885" y="98.45" style="fill:none;stroke:#000000;stroke-width:0.7087;stroke-miterlimit:10;" width="73.907" height="34.524"/>
<g>
	<path d="M227.851,105.656c1.337-0.376,2.261-1.658,2.136-3.092c-0.126-1.434-1.259-2.536-2.641-2.674L227.851,105.656z"/>
	<path d="M226.251,99.986c-1.337,0.376-2.261,1.658-2.136,3.092c0.126,1.434,1.259,2.536,2.641,2.674L226.251,99.986z"/>
</g>
<g>
	<path d="M165.145,104.348c0.721-1.187,0.523-2.755-0.547-3.718c-1.07-0.963-2.65-0.996-3.755-0.154L165.145,104.348z"/>
	<path d="M160.108,101.293c-0.721,1.187-0.523,2.755,0.547,3.718c1.07,0.963,2.65,0.996,3.755,0.154L160.108,101.293z"/>
</g>
<g>
	<path d="M229.995,128.672c-0.041-1.388-1.062-2.595-2.484-2.82c-1.422-0.225-2.765,0.608-3.233,1.916L229.995,128.672z"/>
	<path d="M224.107,128.853c0.041,1.388,1.062,2.595,2.484,2.82c1.422,0.225,2.765-0.608,3.233-1.916L224.107,128.853z"/>
</g>
<g>
	<path d="M161.679,125.974c-1.315,0.445-2.171,1.774-1.971,3.2c0.201,1.426,1.39,2.467,2.777,2.532L161.679,125.974z"/>
	<path d="M163.574,131.552c1.315-0.445,2.171-1.774,1.971-3.2c-0.201-1.426-1.39-2.467-2.777-2.532L163.574,131.552z"/>
</g>
</svg>
