<?xml version="1.0" encoding="iso-8859-1"?>
<!-- Generator: Adobe Illustrator 21.0.2, SVG Export Plug-In . SVG Version: 6.00 Build 0)  -->
<svg version="1.1" id="Ebene_1" xmlns="http://www.w3.org/2000/svg" xmlns:xlink="http://www.w3.org/1999/xlink" x="0px" y="0px"
	 viewBox="0 0 807.874 680.315" style="enable-background:new 0 0 807.874 680.315;" xml:space="preserve">
<path style="fill:#FFFFFF;stroke:#65B32E;stroke-miterlimit:10;" d="M779.269,680.315H28.605C12.807,680.315,0,667.508,0,651.71
	V28.605C0,12.807,12.807,0,28.605,0h750.664c15.798,0,28.605,12.807,28.605,28.605V651.71
	C807.874,667.508,795.067,680.315,779.269,680.315z"/>
<circle style="fill:#E52421;" cx="403.937" cy="262.205" r="32.598"/>
<line style="fill:none;stroke:#65B32E;stroke-miterlimit:10;" x1="0" y1="530.079" x2="807.874" y2="530.079"/>
<g>
	<path d="M455.996,288.239v-6.293h-6.293v-19.049h6.293v-6.293h10.147h8.901v31.635H455.996z M468.582,263.067h-12.473v18.765
		h12.473V263.067z"/>
	<path d="M506.396,288.239v-6.293h-6.293v-6.293h-6.18v12.586h-6.406v-44.22h6.406v25.228h6.18v-6.35h6.293v-6.293h6.463v6.463
		h-6.293v6.292h-6.35v6.18h6.35v6.293h6.293v6.406H506.396z"/>
	<path d="M531.737,275.653v6.18h12.643v6.406h-12.756v-6.293h-6.293v-19.049h6.293v-6.293h12.756v6.293h6.293v12.756H531.737z
		 M544.21,263.067h-12.473v6.179h12.473V263.067z"/>
	<path d="M569.551,263.067v25.171h-6.406v-31.635h19.049v6.463H569.551z"/>
	<path d="M601.071,281.946v6.293h-12.756v-6.406h12.643v-6.18h-6.35v-6.293h-6.293v-6.463h6.293v-6.293h12.756v6.463h-12.643v6.179
		h6.35v6.293h6.293v6.406H601.071z"/>
	<path d="M638.885,281.946v6.293h-12.643v12.586h-6.406v-44.221h19.049v6.293h6.293v19.049H638.885z M638.715,263.067h-12.473
		v18.765h12.473V263.067z"/>
	<path d="M663.943,288.239v-6.293h-6.293v-19.049h6.293v-6.293h10.147h8.901v31.635H663.943z M676.529,263.067h-12.473v18.765
		h12.473V263.067z"/>
	<path d="M701.757,288.239v-6.293h-6.293v-19.049h6.293v-6.293h12.756v6.463H701.87v18.765h12.643v6.406H701.757z"/>
	<path d="M733.392,275.653v6.18h12.643v6.406h-12.756v-6.293h-6.293v-19.049h6.293v-6.293h12.756v6.293h6.293v12.756H733.392z
		 M745.864,263.067h-12.473v6.179h12.473V263.067z"/>
</g>
<g>
	<path d="M58.703,288.239V269.36H46.23v18.879h-6.406v-37.928h6.406v12.586h12.472v-12.586h6.463v37.928H58.703z"/>
	<path d="M84.044,275.653v6.18h12.643v6.406H83.931v-6.293h-6.293v-19.049h6.293v-6.293h12.756v6.293h6.293v12.756H84.044z
		 M96.517,263.068H84.044v6.179h12.473V263.068z"/>
	<path d="M115.452,250.425v-6.406h6.406v6.406H115.452z M115.452,288.239v-31.635h6.406v31.635H115.452z"/>
	<path d="M140.623,288.239v-6.293h-6.293v-19.049h6.293v-6.293h12.586v-12.585h6.463v44.22H140.623z M153.208,263.068h-12.473
		v18.765h12.473V263.068z"/>
	<path d="M178.55,275.653v6.18h12.643v6.406h-12.756v-6.293h-6.293v-19.049h6.293v-6.293h12.756v6.293h6.293v12.756H178.55z
		 M191.023,263.068H178.55v6.179h12.473V263.068z"/>
	<path d="M209.958,288.239v-44.22h6.406v44.22H209.958z"/>
	<path d="M247.885,281.946v6.293h-19.049v-44.22h6.406v12.585h12.643v6.293h6.293v19.049H247.885z M247.715,263.068h-12.473v18.765
		h12.473V263.068z"/>
	<path d="M273.057,275.653v6.18h12.643v6.406h-12.756v-6.293h-6.293v-19.049h6.293v-6.293h12.756v6.293h6.293v12.756H273.057z
		 M285.529,263.068h-12.473v6.179h12.473V263.068z"/>
	<path d="M310.87,263.068v25.171h-6.406v-31.635h19.049v6.463H310.87z"/>
	<path d="M348.684,294.532v6.293h-12.756v-6.406h12.586v-6.18h-12.586v-6.293h-6.293v-19.049h6.293v-6.293h19.049v37.928H348.684z
		 M348.514,263.068h-12.473v18.765h12.473V263.068z"/>
</g>
<g>
	<path style="fill:#010202;" d="M659.583,424.206c0.042,0,0.084-0.01,0.126-0.019c0.092,0.212,0.303,0.36,0.549,0.36
		c0.331,0,0.599-0.268,0.599-0.599v-0.2h0.2c0.331,0,0.599-0.268,0.599-0.599s-0.268-0.599-0.599-0.599h-0.799
		c-0.005,0-0.01,0.001-0.015,0.002c-0.121-0.001-0.243,0.033-0.349,0.107l-0.655,0.458c-0.271,0.19-0.338,0.563-0.148,0.835
		C659.208,424.117,659.394,424.206,659.583,424.206z"/>
	<path style="fill:#010202;" d="M674.214,423.748h1.645c0.331,0,0.599-0.268,0.599-0.599s-0.268-0.599-0.599-0.599h-1.645
		c-0.331,0-0.599,0.268-0.599,0.599S673.883,423.748,674.214,423.748z"/>
	<path style="fill:#010202;" d="M679.148,423.748h1.644c0.331,0,0.599-0.268,0.599-0.599s-0.268-0.599-0.599-0.599h-1.644
		c-0.331,0-0.599,0.268-0.599,0.599S678.816,423.748,679.148,423.748z"/>
	<path style="fill:#010202;" d="M664.346,423.748h1.644c0.331,0,0.599-0.268,0.599-0.599s-0.268-0.599-0.599-0.599h-1.644
		c-0.331,0-0.599,0.268-0.599,0.599S664.015,423.748,664.346,423.748z"/>
	<path style="fill:#010202;" d="M684.081,423.748h1.644c0.331,0,0.599-0.268,0.599-0.599s-0.268-0.599-0.599-0.599h-1.644
		c-0.331,0-0.599,0.268-0.599,0.599S683.75,423.748,684.081,423.748z"/>
	<path style="fill:#010202;" d="M669.28,423.748h1.645c0.331,0,0.599-0.268,0.599-0.599s-0.268-0.599-0.599-0.599h-1.645
		c-0.331,0-0.599,0.268-0.599,0.599S668.949,423.748,669.28,423.748z"/>
	<path style="fill:#010202;" d="M698.387,449.067l0.522,1.469c0.087,0.245,0.318,0.399,0.565,0.399c0.067,0,0.134-0.011,0.201-0.035
		c0.312-0.111,0.475-0.454,0.364-0.766l-0.522-1.468c-0.111-0.312-0.454-0.476-0.765-0.364
		C698.439,448.413,698.276,448.756,698.387,449.067z"/>
	<path style="fill:#010202;" d="M693.691,435.851l0.522,1.468c0.087,0.246,0.318,0.399,0.565,0.399c0.067,0,0.134-0.011,0.201-0.035
		c0.312-0.111,0.475-0.454,0.364-0.765l-0.522-1.469c-0.111-0.312-0.454-0.474-0.765-0.364
		C693.743,435.196,693.58,435.539,693.691,435.851z"/>
	<path style="fill:#010202;" d="M696.822,444.662l0.522,1.468c0.087,0.246,0.318,0.399,0.565,0.399c0.067,0,0.134-0.011,0.201-0.035
		c0.312-0.111,0.475-0.454,0.364-0.765l-0.522-1.468c-0.111-0.312-0.453-0.475-0.766-0.364
		C696.874,444.007,696.711,444.35,696.822,444.662z"/>
	<path style="fill:#010202;" d="M692.126,431.445l0.522,1.468c0.087,0.246,0.318,0.399,0.565,0.399c0.067,0,0.134-0.011,0.201-0.035
		c0.312-0.111,0.475-0.454,0.364-0.765l-0.522-1.468c-0.111-0.312-0.454-0.474-0.765-0.364
		C692.178,430.791,692.015,431.134,692.126,431.445z"/>
	<path style="fill:#010202;" d="M695.256,440.256l0.522,1.468c0.087,0.246,0.318,0.399,0.565,0.399c0.067,0,0.134-0.011,0.201-0.035
		c0.312-0.111,0.475-0.454,0.364-0.765l-0.522-1.468c-0.111-0.312-0.454-0.475-0.766-0.364
		C695.309,439.602,695.145,439.945,695.256,440.256z"/>
	<path style="fill:#010202;" d="M690.56,427.04l0.522,1.468c0.087,0.246,0.318,0.399,0.565,0.399c0.067,0,0.134-0.011,0.201-0.035
		c0.312-0.111,0.475-0.454,0.364-0.765l-0.522-1.469c-0.111-0.312-0.454-0.474-0.766-0.364
		C690.612,426.385,690.449,426.728,690.56,427.04z"/>
	<path style="fill:#010202;" d="M721.919,428.106c-0.111,0.312,0.052,0.655,0.363,0.766c0.067,0.024,0.135,0.035,0.201,0.035
		c0.246,0,0.477-0.153,0.565-0.398l0.523-1.469c0.111-0.312-0.052-0.655-0.363-0.766c-0.313-0.111-0.655,0.052-0.766,0.363
		L721.919,428.106z"/>
	<path style="fill:#010202;" d="M723.853,424.466c0.066,0.024,0.134,0.035,0.201,0.035c0.216,0,0.415-0.123,0.521-0.318
		c0.067-0.017,0.132-0.043,0.191-0.085l0.552-0.385c0.234-0.082,0.403-0.302,0.403-0.564c0-0.331-0.268-0.599-0.599-0.599h-0.053
		c0,0-0.001,0-0.001,0h-0.745c-0.254,0-0.48,0.159-0.565,0.398l-0.268,0.753C723.378,424.013,723.541,424.355,723.853,424.466z"/>
	<path style="fill:#010202;" d="M728.401,423.748h1.64c0.331,0,0.599-0.268,0.599-0.599s-0.268-0.599-0.599-0.599h-1.64
		c-0.331,0-0.599,0.268-0.599,0.599S728.07,423.748,728.401,423.748z"/>
	<path style="fill:#010202;" d="M739.88,422.55h-1.64c-0.331,0-0.599,0.268-0.599,0.599s0.268,0.599,0.599,0.599h1.64
		c0.331,0,0.599-0.268,0.599-0.599S740.211,422.55,739.88,422.55z"/>
	<path style="fill:#010202;" d="M748.08,423.748h1.64c0.331,0,0.599-0.268,0.599-0.599s-0.268-0.599-0.599-0.599h-1.64
		c-0.331,0-0.599,0.268-0.599,0.599S747.749,423.748,748.08,423.748z"/>
	<path style="fill:#010202;" d="M745.4,423.149c0-0.331-0.268-0.599-0.599-0.599h-1.64c-0.331,0-0.599,0.268-0.599,0.599
		s0.268,0.599,0.599,0.599h1.64C745.131,423.748,745.4,423.48,745.4,423.149z"/>
	<path style="fill:#010202;" d="M733.321,423.748h1.64c0.331,0,0.599-0.268,0.599-0.599s-0.268-0.599-0.599-0.599h-1.64
		c-0.331,0-0.599,0.268-0.599,0.599S732.99,423.748,733.321,423.748z"/>
	<path style="fill:#010202;" d="M754.398,423.144c0-0.028-0.004-0.056-0.008-0.084c-0.002-0.011-0.002-0.023-0.004-0.034
		c-0.004-0.018-0.011-0.035-0.016-0.052c-0.006-0.02-0.011-0.041-0.019-0.06c-0.004-0.009-0.009-0.016-0.013-0.025
		c-0.013-0.027-0.027-0.054-0.044-0.079c-0.001-0.001-0.001-0.002-0.002-0.004c-0.007-0.01-0.016-0.018-0.024-0.028
		c-0.016-0.02-0.032-0.04-0.05-0.058c-0.014-0.014-0.029-0.025-0.044-0.036c-0.015-0.012-0.03-0.025-0.046-0.036
		c-0.017-0.011-0.035-0.02-0.053-0.029c-0.017-0.009-0.032-0.018-0.05-0.025c-0.019-0.008-0.039-0.013-0.059-0.018
		c-0.017-0.005-0.034-0.011-0.052-0.014c-0.025-0.005-0.051-0.006-0.077-0.008c-0.012-0.001-0.024-0.004-0.036-0.004h-0.01
		c0,0-0.001,0-0.001,0H753c-0.331,0-0.599,0.268-0.599,0.599c0,0.151,0.058,0.287,0.15,0.393c-0.015,0.139,0.015,0.284,0.102,0.408
		c0.117,0.167,0.303,0.256,0.492,0.256c0.036,0,0.071-0.01,0.107-0.016c0.093,0.21,0.303,0.358,0.548,0.358
		c0.331,0,0.599-0.268,0.599-0.599v-0.799C754.399,423.147,754.398,423.146,754.398,423.144z"/>
	<path style="fill:#010202;" d="M753.799,475.634c-0.331,0-0.599,0.268-0.599,0.599v1.634c0,0.331,0.268,0.599,0.599,0.599
		s0.599-0.268,0.599-0.599v-1.634C754.399,475.902,754.13,475.634,753.799,475.634z"/>
	<path style="fill:#010202;" d="M753.799,490.339c-0.331,0-0.599,0.268-0.599,0.599v1.634c0,0.331,0.268,0.599,0.599,0.599
		s0.599-0.268,0.599-0.599v-1.634C754.399,490.608,754.13,490.339,753.799,490.339z"/>
	<path style="fill:#010202;" d="M753.799,441.322c-0.331,0-0.599,0.268-0.599,0.599v1.634c0,0.331,0.268,0.599,0.599,0.599
		s0.599-0.268,0.599-0.599v-1.634C754.399,441.59,754.13,441.322,753.799,441.322z"/>
	<path style="fill:#010202;" d="M753.799,480.536c-0.331,0-0.599,0.268-0.599,0.599v1.634c0,0.331,0.268,0.599,0.599,0.599
		s0.599-0.268,0.599-0.599v-1.634C754.399,480.804,754.13,480.536,753.799,480.536z"/>
	<path style="fill:#010202;" d="M753.799,485.437c-0.331,0-0.599,0.268-0.599,0.599v1.634c0,0.331,0.268,0.599,0.599,0.599
		s0.599-0.268,0.599-0.599v-1.634C754.399,485.706,754.13,485.437,753.799,485.437z"/>
	<path style="fill:#010202;" d="M753.799,470.732c-0.331,0-0.599,0.268-0.599,0.599v1.634c0,0.331,0.268,0.599,0.599,0.599
		s0.599-0.268,0.599-0.599v-1.634C754.399,471,754.13,470.732,753.799,470.732z"/>
	<path style="fill:#010202;" d="M753.799,465.83c-0.331,0-0.599,0.268-0.599,0.599v1.634c0,0.331,0.268,0.599,0.599,0.599
		s0.599-0.268,0.599-0.599v-1.634C754.399,466.099,754.13,465.83,753.799,465.83z"/>
	<path style="fill:#010202;" d="M753.799,460.929c-0.331,0-0.599,0.268-0.599,0.599v1.634c0,0.331,0.268,0.599,0.599,0.599
		s0.599-0.268,0.599-0.599v-1.634C754.399,461.197,754.13,460.929,753.799,460.929z"/>
	<path style="fill:#010202;" d="M753.799,456.027c-0.331,0-0.599,0.268-0.599,0.599v1.634c0,0.331,0.268,0.599,0.599,0.599
		s0.599-0.268,0.599-0.599v-1.634C754.399,456.295,754.13,456.027,753.799,456.027z"/>
	<path style="fill:#010202;" d="M753.799,446.223c-0.331,0-0.599,0.268-0.599,0.599v1.634c0,0.331,0.268,0.599,0.599,0.599
		s0.599-0.268,0.599-0.599v-1.634C754.399,446.492,754.13,446.223,753.799,446.223z"/>
	<path style="fill:#010202;" d="M753.799,500.142c-0.331,0-0.599,0.268-0.599,0.599v1.634c0,0.331,0.268,0.599,0.599,0.599
		s0.599-0.268,0.599-0.599v-1.634C754.399,500.411,754.13,500.142,753.799,500.142z"/>
	<path style="fill:#010202;" d="M753.799,431.518c-0.331,0-0.599,0.268-0.599,0.599v1.634c0,0.331,0.268,0.599,0.599,0.599
		s0.599-0.268,0.599-0.599v-1.634C754.399,431.787,754.13,431.518,753.799,431.518z"/>
	<path style="fill:#010202;" d="M753.799,426.616c-0.331,0-0.599,0.268-0.599,0.599v1.634c0,0.331,0.268,0.599,0.599,0.599
		s0.599-0.268,0.599-0.599v-1.634C754.399,426.885,754.13,426.616,753.799,426.616z"/>
	<path style="fill:#010202;" d="M753.799,495.241c-0.331,0-0.599,0.268-0.599,0.599v1.634c0,0.331,0.268,0.599,0.599,0.599
		s0.599-0.268,0.599-0.599v-1.634C754.399,495.509,754.13,495.241,753.799,495.241z"/>
	<path style="fill:#010202;" d="M753.799,451.125c-0.331,0-0.599,0.268-0.599,0.599v1.634c0,0.331,0.268,0.599,0.599,0.599
		s0.599-0.268,0.599-0.599v-1.634C754.399,451.393,754.13,451.125,753.799,451.125z"/>
	<path style="fill:#010202;" d="M753.799,436.42c-0.331,0-0.599,0.268-0.599,0.599v1.634c0,0.331,0.268,0.599,0.599,0.599
		s0.599-0.268,0.599-0.599v-1.634C754.399,436.688,754.13,436.42,753.799,436.42z"/>
	<path style="fill:#010202;" d="M753.799,505.044c-0.331,0-0.599,0.268-0.599,0.599v0.2H753c-0.331,0-0.599,0.268-0.599,0.599
		c0,0.136,0.047,0.261,0.124,0.361c-0.012,0.126,0.013,0.257,0.084,0.373c0.113,0.184,0.309,0.285,0.51,0.285
		c0.108,0,0.216-0.029,0.314-0.089l0.68-0.419c0.003-0.002,0.005-0.005,0.009-0.007c0.02-0.013,0.038-0.028,0.056-0.043
		c0.013-0.01,0.026-0.02,0.038-0.031c0.015-0.014,0.027-0.03,0.04-0.046c0.012-0.014,0.025-0.028,0.035-0.043
		c0.011-0.016,0.02-0.034,0.029-0.051c0.009-0.016,0.019-0.032,0.027-0.049c0.008-0.018,0.013-0.037,0.019-0.056
		c0.006-0.018,0.013-0.036,0.017-0.055c0.004-0.017,0.005-0.034,0.007-0.052c0.003-0.022,0.006-0.044,0.007-0.067
		c0-0.004,0.001-0.008,0.001-0.011v-0.799C754.399,505.313,754.13,505.044,753.799,505.044z"/>
	<path style="fill:#010202;" d="M744.115,505.843h-1.777c-0.331,0-0.599,0.268-0.599,0.599c0,0.331,0.268,0.599,0.599,0.599h1.777
		c0.331,0,0.599-0.268,0.599-0.599C744.715,506.112,744.446,505.843,744.115,505.843z"/>
	<path style="fill:#010202;" d="M750.045,506.443c0-0.331-0.268-0.599-0.599-0.599h-1.777c-0.331,0-0.599,0.268-0.599,0.599
		c0,0.331,0.268,0.599,0.599,0.599h1.777C749.777,507.042,750.045,506.774,750.045,506.443z"/>
	<path style="fill:#010202;" d="M716.67,500.778c-0.313-0.108-0.654,0.06-0.761,0.373l-0.495,1.447
		c-0.107,0.313,0.06,0.654,0.373,0.761c0.064,0.022,0.13,0.032,0.194,0.032c0.249,0,0.482-0.156,0.567-0.405l0.495-1.447
		C717.15,501.225,716.983,500.885,716.67,500.778z"/>
	<path style="fill:#010202;" d="M715.185,505.12c-0.314-0.109-0.654,0.06-0.761,0.373l-0.12,0.351h-0.371
		c-0.331,0-0.599,0.268-0.599,0.599c0,0.13,0.042,0.249,0.112,0.347c-0.006,0.117,0.022,0.237,0.088,0.344
		c0.113,0.184,0.309,0.285,0.51,0.285c0.108,0,0.216-0.029,0.314-0.089l0.497-0.307c0.203-0.043,0.374-0.184,0.443-0.386
		l0.259-0.756C715.665,505.568,715.498,505.227,715.185,505.12z"/>
	<path style="fill:#010202;" d="M710.923,506.443c0-0.331-0.268-0.599-0.599-0.599h-1.804c-0.331,0-0.599,0.268-0.599,0.599
		c0,0.331,0.268,0.599,0.599,0.599h1.804C710.654,507.042,710.923,506.774,710.923,506.443z"/>
	<path style="fill:#010202;" d="M675.33,507.042h1.784c0.331,0,0.599-0.268,0.599-0.599c0-0.331-0.268-0.599-0.599-0.599h-1.784
		c-0.331,0-0.599,0.268-0.599,0.599C674.731,506.774,674.999,507.042,675.33,507.042z"/>
	<path style="fill:#010202;" d="M671.762,505.843h-1.784c-0.331,0-0.599,0.268-0.599,0.599c0,0.331,0.268,0.599,0.599,0.599h1.784
		c0.331,0,0.599-0.268,0.599-0.599C672.361,506.112,672.093,505.843,671.762,505.843z"/>
	<path style="fill:#010202;" d="M660.258,426.616c-0.331,0-0.599,0.268-0.599,0.599v1.634c0,0.331,0.268,0.599,0.599,0.599
		s0.599-0.268,0.599-0.599v-1.634C660.857,426.885,660.589,426.616,660.258,426.616z"/>
	<path style="fill:#010202;" d="M656.042,426.681c0.118,0,0.238-0.035,0.343-0.108l1.18-0.825c0.271-0.19,0.338-0.563,0.148-0.835
		c-0.19-0.271-0.563-0.337-0.835-0.148l-1.18,0.825c-0.271,0.19-0.338,0.563-0.148,0.835
		C655.667,426.592,655.853,426.681,656.042,426.681z"/>
	<path style="fill:#010202;" d="M648.961,431.631c0.118,0,0.238-0.035,0.343-0.108l1.18-0.825c0.271-0.19,0.338-0.563,0.148-0.835
		c-0.189-0.271-0.563-0.337-0.835-0.148l-1.18,0.825c-0.271,0.19-0.338,0.563-0.148,0.835
		C648.586,431.542,648.771,431.631,648.961,431.631z"/>
	<path style="fill:#010202;" d="M652.501,429.156c0.118,0,0.238-0.035,0.343-0.108l1.18-0.825c0.271-0.19,0.338-0.563,0.148-0.835
		c-0.19-0.271-0.563-0.338-0.835-0.148l-1.18,0.825c-0.271,0.19-0.338,0.563-0.148,0.835
		C652.126,429.067,652.312,429.156,652.501,429.156z"/>
	<path style="fill:#010202;" d="M688.613,423.95c0.117,0.167,0.303,0.256,0.492,0.256c0.118,0,0.238-0.035,0.343-0.108l0.054-0.038
		l0.015,0.042c0.087,0.246,0.318,0.399,0.565,0.399c0.067,0,0.134-0.011,0.201-0.035c0.312-0.111,0.475-0.454,0.364-0.765
		l-0.268-0.753c-0.085-0.239-0.311-0.399-0.565-0.399h-0.799c-0.331,0-0.599,0.268-0.599,0.599c0,0.125,0.038,0.24,0.103,0.336
		C688.486,423.641,688.514,423.809,688.613,423.95z"/>
	<path style="fill:#010202;" d="M684.975,425.762c-0.271,0.19-0.338,0.563-0.148,0.835c0.117,0.167,0.303,0.256,0.492,0.256
		c0.118,0,0.238-0.035,0.343-0.108l1.262-0.882c0.271-0.19,0.338-0.563,0.148-0.835c-0.19-0.271-0.563-0.337-0.835-0.148
		L684.975,425.762z"/>
	<path style="fill:#010202;" d="M681.041,429.243c0.117,0.167,0.303,0.256,0.492,0.256c0.118,0,0.238-0.035,0.343-0.108l1.262-0.882
		c0.271-0.19,0.338-0.563,0.148-0.835c-0.189-0.271-0.563-0.337-0.835-0.148l-1.262,0.882
		C680.917,428.598,680.851,428.971,681.041,429.243z"/>
	<path style="fill:#010202;" d="M677.747,432.145c0.118,0,0.238-0.035,0.343-0.108l1.262-0.882c0.271-0.19,0.338-0.563,0.148-0.835
		c-0.189-0.271-0.563-0.337-0.835-0.148l-1.262,0.882c-0.271,0.19-0.338,0.563-0.148,0.835
		C677.372,432.056,677.557,432.145,677.747,432.145z"/>
	<path style="fill:#010202;" d="M720.637,426.853c0.119,0,0.238-0.035,0.343-0.108l1.262-0.882c0.271-0.19,0.338-0.563,0.148-0.835
		c-0.19-0.272-0.564-0.337-0.835-0.148l-1.262,0.882c-0.271,0.19-0.338,0.563-0.148,0.835
		C720.262,426.763,720.448,426.853,720.637,426.853z"/>
	<path style="fill:#010202;" d="M713.065,432.145c0.119,0,0.238-0.035,0.343-0.108l1.262-0.882c0.271-0.19,0.338-0.563,0.148-0.835
		c-0.19-0.271-0.564-0.337-0.835-0.148l-1.262,0.882c-0.271,0.19-0.338,0.563-0.148,0.835
		C712.69,432.056,712.876,432.145,713.065,432.145z"/>
	<path style="fill:#010202;" d="M716.851,429.499c0.119,0,0.238-0.035,0.343-0.108l1.262-0.882c0.271-0.19,0.338-0.563,0.148-0.835
		c-0.19-0.272-0.563-0.337-0.835-0.148l-1.262,0.882c-0.271,0.19-0.338,0.563-0.148,0.835
		C716.476,429.41,716.662,429.499,716.851,429.499z"/>
	<path style="fill:#010202;" d="M750.277,424.88l-1.262,0.882c-0.271,0.19-0.338,0.563-0.148,0.835
		c0.117,0.167,0.303,0.256,0.492,0.256c0.119,0,0.238-0.035,0.343-0.108l1.262-0.882c0.271-0.19,0.338-0.563,0.148-0.835
		C750.922,424.756,750.548,424.691,750.277,424.88z"/>
	<path style="fill:#010202;" d="M741.787,432.145c0.119,0,0.238-0.035,0.343-0.108l1.262-0.882c0.271-0.19,0.338-0.563,0.148-0.835
		c-0.19-0.272-0.564-0.337-0.835-0.148l-1.262,0.882c-0.271,0.19-0.338,0.563-0.148,0.835
		C741.412,432.056,741.598,432.145,741.787,432.145z"/>
	<path style="fill:#010202;" d="M745.081,429.243c0.117,0.167,0.303,0.256,0.492,0.256c0.119,0,0.238-0.035,0.343-0.108l1.262-0.882
		c0.271-0.19,0.338-0.564,0.148-0.835c-0.19-0.272-0.563-0.337-0.835-0.148l-1.262,0.882
		C744.958,428.598,744.891,428.972,745.081,429.243z"/>
	<path style="fill:#010202;" d="M738.951,434.259l0.655-0.458c0.271-0.19,0.338-0.563,0.148-0.835
		c-0.19-0.271-0.563-0.337-0.835-0.148l-0.5,0.35h-17.123c0.08-0.066,0.147-0.15,0.184-0.254l0.523-1.468
		c0.111-0.312-0.052-0.655-0.364-0.766c-0.311-0.111-0.654,0.052-0.766,0.364l-0.523,1.468c-0.086,0.241-0.007,0.5,0.178,0.657
		h-9.406c-0.017-0.07-0.046-0.139-0.09-0.202c-0.19-0.271-0.563-0.337-0.835-0.148l-0.501,0.35h-0.513l-7.596,21.325l-0.505-1.422
		c-0.111-0.312-0.454-0.475-0.766-0.364c-0.312,0.111-0.475,0.454-0.364,0.766l0.522,1.468c0.087,0.245,0.318,0.399,0.565,0.399
		c0.067,0,0.134-0.011,0.201-0.035c0.025-0.009,0.047-0.021,0.07-0.033l-9.402,26.394l-16.875-47.493l0.533-0.373
		c0.271-0.19,0.338-0.564,0.148-0.835c-0.19-0.271-0.563-0.337-0.835-0.148l-0.501,0.35h-13.521v-1.051
		c0-0.331-0.268-0.599-0.599-0.599s-0.599,0.268-0.599,0.599v1.051h-12.711c0.267-0.191,0.332-0.561,0.143-0.831
		c-0.19-0.271-0.563-0.338-0.835-0.148l-0.655,0.458c-0.175,0.122-0.263,0.322-0.254,0.521h-0.228v83.294h21.224v-0.07
		c0.045,0.011,0.092,0.017,0.139,0.017c0.107,0,0.216-0.029,0.314-0.089l0.68-0.419c0.282-0.174,0.369-0.543,0.195-0.825
		c-0.173-0.282-0.543-0.37-0.825-0.195l-0.503,0.31v-8.149h0.066c0.331,0,0.599-0.268,0.599-0.599c0-0.331-0.268-0.599-0.599-0.599
		h-0.066v-40.998l13.792,41.355c-0.033,0.074-0.052,0.156-0.052,0.243c0,0.222,0.125,0.408,0.304,0.511l3.171,9.508h16.036
		l0.025-0.072c0.058-0.015,0.115-0.036,0.169-0.069l0.68-0.419c0.282-0.174,0.369-0.543,0.196-0.825
		c-0.111-0.18-0.302-0.28-0.498-0.284l2.673-7.816c0.081,0.04,0.17,0.065,0.267,0.065h1.805c0.331,0,0.599-0.268,0.599-0.599
		c0-0.331-0.268-0.599-0.599-0.599h-1.684l14.211-41.548l0.049,32.347c-0.038,0.05-0.07,0.105-0.092,0.167l-0.495,1.447
		c-0.107,0.313,0.06,0.654,0.373,0.761c0.064,0.022,0.13,0.032,0.194,0.032c0.008,0,0.016-0.003,0.024-0.004l0.026,17.416h21.145
		v-0.025c0.069-0.013,0.138-0.035,0.201-0.074l0.68-0.419c0.282-0.174,0.37-0.543,0.195-0.825c-0.173-0.282-0.543-0.369-0.825-0.195
		l-0.252,0.156v-8.037h0.124c0.331,0,0.599-0.268,0.599-0.599c0-0.331-0.268-0.599-0.599-0.599h-0.124v-71.484
		C738.762,434.35,738.862,434.321,738.951,434.259z M736.268,508.031c0,0.263-0.162,0.468-0.371,0.468h-6.582v3.009h6.582
		c0.208,0,0.371,0.204,0.371,0.467v0.935c0,0.263-0.162,0.468-0.371,0.468h-14.648c-0.023,0-0.023,0-0.023,0
		c-0.185,0-0.371-0.205-0.371-0.468v-0.935c0-0.263,0.185-0.467,0.371-0.467h6.606v-3.009h-6.606c-0.185,0-0.371-0.204-0.371-0.468
		v-0.906c0-0.263,0.185-0.467,0.371-0.467h14.671c0.208,0,0.371,0.204,0.371,0.467V508.031z M736.268,503.298
		c0,0.526-0.324,0.935-0.741,0.935h-13.929c-0.394,0-0.742-0.409-0.742-0.935v-3.477c0-0.263,0.185-0.467,0.371-0.467h0.742
		c0.208,0,0.371,0.204,0.371,0.467v2.542h5.493v-2.542c0-0.263,0.162-0.467,0.371-0.467h0.742c0.185,0,0.371,0.204,0.371,0.467
		v2.542h5.47v-2.542c0-0.263,0.185-0.467,0.371-0.467h0.742c0.208,0,0.371,0.204,0.371,0.467V503.298z M736.268,496.462
		c0,0.263-0.162,0.467-0.371,0.467h-14.648c-0.023,0-0.023,0-0.023,0c-0.185,0-0.371-0.204-0.371-0.467v-0.935
		c0-0.263,0.185-0.467,0.371-0.467h14.671c0.208,0,0.371,0.204,0.371,0.467V496.462z M736.268,491.701
		c0,0.496-0.324,0.935-0.741,0.935h-13.929c-0.394,0-0.742-0.438-0.742-0.935v-2.454c0-1.87,1.206-3.359,2.689-3.359h10.058
		c1.46,0,2.665,1.49,2.665,3.359V491.701z M736.268,482.528c0,0.526-0.324,0.935-0.741,0.935h-13.929
		c-0.394,0-0.742-0.409-0.742-0.935v-3.477c0-0.263,0.185-0.467,0.371-0.467h0.742c0.208,0,0.371,0.204,0.371,0.467v2.542h5.493
		v-2.542c0-0.263,0.162-0.467,0.371-0.467h0.742c0.185,0,0.371,0.204,0.371,0.467v2.542h5.47v-2.542
		c0-0.263,0.185-0.467,0.371-0.467h0.742c0.208,0,0.371,0.204,0.371,0.467V482.528z M736.268,475.224
		c0,0.526-0.324,0.935-0.741,0.935h-14.3c-0.185,0-0.371-0.204-0.371-0.468v-0.935c0-0.234,0.185-0.467,0.371-0.467h13.559v-2.512
		c0-0.263,0.185-0.467,0.371-0.467h0.742c0.208,0,0.371,0.204,0.371,0.467V475.224z M736.268,468.242
		c0,0.496-0.324,0.935-0.741,0.935h-13.929c-0.394,0-0.742-0.438-0.742-0.935v-2.454c0-1.84,1.206-3.359,2.689-3.359h3.083
		c0.764,0,1.46,0.409,1.947,1.052c0.487-0.643,1.159-1.052,1.924-1.052h3.106c1.46,0,2.665,1.519,2.665,3.359V468.242z
		 M736.268,459.069c0,0.526-0.324,0.935-0.741,0.935h-13.929c-0.394,0-0.742-0.409-0.742-0.935v-3.476
		c0-0.263,0.185-0.468,0.371-0.468h0.742c0.208,0,0.371,0.204,0.371,0.468v2.541h5.493v-2.541c0-0.263,0.162-0.468,0.371-0.468
		h0.742c0.185,0,0.371,0.204,0.371,0.468v2.541h5.47v-2.541c0-0.263,0.185-0.468,0.371-0.468h0.742c0.208,0,0.371,0.204,0.371,0.468
		V459.069z M736.268,447.53c0,0.263-0.162,0.467-0.371,0.467h-5.4c-0.672,0-1.205,0.672-1.205,1.49v1.49h6.606
		c0.208,0,0.371,0.234,0.371,0.467v0.935c0,0.263-0.162,0.468-0.371,0.468h-14.3c-0.394,0-0.742-0.409-0.742-0.935v-2.425
		c0-1.87,1.206-3.36,2.689-3.36h3.083c0.764,0,1.437,0.38,1.924,1.023c0.487-0.643,1.182-1.023,1.947-1.023h5.4
		c0.208,0,0.371,0.204,0.371,0.467V447.53z M733.602,443.703H723.52c-1.46,0-2.665-1.519-2.665-3.36c0-1.84,1.206-3.359,2.665-3.359
		h0.788c0.209,0,0.371,0.204,0.371,0.467v0.935c0,0.263-0.162,0.467-0.371,0.467h-0.788c-0.649,0-1.182,0.672-1.182,1.49
		c0,0.818,0.533,1.49,1.182,1.49h10.082c0.649,0,1.182-0.672,1.182-1.49c0-0.818-0.533-1.49-1.182-1.49h-4.334v1.022
		c0,0.263-0.162,0.467-0.371,0.467h-0.742c-0.208,0-0.371-0.204-0.371-0.467v-2.425c0-0.263,0.162-0.467,0.371-0.467h5.447
		c1.46,0,2.665,1.519,2.665,3.359C736.268,442.184,735.062,443.703,733.602,443.703z"/>
	<path style="fill:#010202;" d="M742.701,512.586l-1.263,0.779c-0.282,0.174-0.369,0.543-0.195,0.825
		c0.113,0.183,0.309,0.284,0.51,0.284c0.108,0,0.216-0.029,0.315-0.089l1.263-0.779c0.282-0.174,0.369-0.543,0.195-0.825
		C743.352,512.499,742.983,512.413,742.701,512.586z"/>
	<path style="fill:#010202;" d="M746.49,510.249l-1.263,0.779c-0.282,0.174-0.369,0.543-0.195,0.825
		c0.113,0.183,0.309,0.284,0.51,0.284c0.108,0,0.216-0.029,0.315-0.089l1.263-0.779c0.282-0.174,0.369-0.543,0.195-0.825
		C747.141,510.162,746.772,510.075,746.49,510.249z"/>
	<path style="fill:#010202;" d="M750.278,507.911l-1.263,0.779c-0.282,0.174-0.369,0.543-0.195,0.825
		c0.113,0.183,0.309,0.284,0.51,0.284c0.108,0,0.216-0.029,0.315-0.089l1.263-0.779c0.282-0.174,0.369-0.543,0.195-0.825
		C750.93,507.825,750.56,507.738,750.278,507.911z"/>
	<path style="fill:#010202;" d="M707.415,510.206l-1.263,0.779c-0.282,0.174-0.369,0.543-0.195,0.825
		c0.113,0.183,0.309,0.284,0.51,0.284c0.108,0,0.216-0.029,0.315-0.089l1.263-0.779c0.282-0.174,0.369-0.543,0.195-0.825
		C708.066,510.119,707.697,510.032,707.415,510.206z"/>
	<path style="fill:#010202;" d="M703.627,512.543l-1.263,0.779c-0.282,0.174-0.369,0.543-0.195,0.825
		c0.113,0.183,0.31,0.284,0.511,0.284c0.107,0,0.216-0.029,0.314-0.089l1.263-0.779c0.282-0.174,0.369-0.543,0.195-0.825
		C704.278,512.457,703.908,512.369,703.627,512.543z"/>
	<path style="fill:#010202;" d="M711.203,507.868l-1.263,0.779c-0.282,0.174-0.369,0.543-0.195,0.825
		c0.113,0.183,0.309,0.284,0.51,0.284c0.108,0,0.216-0.029,0.315-0.089l1.263-0.779c0.282-0.174,0.369-0.543,0.195-0.825
		C711.855,507.781,711.485,507.695,711.203,507.868z"/>
	<path style="fill:#010202;" d="M670.635,512.544l-1.263,0.779c-0.282,0.174-0.369,0.543-0.196,0.825
		c0.113,0.184,0.31,0.285,0.511,0.285c0.107,0,0.216-0.029,0.314-0.089l1.263-0.779c0.282-0.174,0.369-0.543,0.195-0.825
		C671.286,512.457,670.917,512.37,670.635,512.544z"/>
	<path style="fill:#010202;" d="M674.424,510.206l-1.263,0.779c-0.282,0.174-0.369,0.543-0.195,0.825
		c0.113,0.183,0.31,0.284,0.511,0.284c0.107,0,0.216-0.029,0.314-0.089l1.263-0.779c0.282-0.174,0.369-0.543,0.195-0.825
		C675.075,510.119,674.706,510.032,674.424,510.206z"/>
	<path style="fill:#010202;" d="M678.212,507.868l-1.263,0.779c-0.282,0.174-0.369,0.543-0.195,0.825
		c0.113,0.183,0.31,0.284,0.511,0.284c0.107,0,0.216-0.029,0.314-0.089l1.263-0.779c0.282-0.174,0.369-0.543,0.195-0.825
		C678.864,507.782,678.494,507.694,678.212,507.868z"/>
	<path style="fill:#010202;" d="M733.602,464.298h-3.106c-0.649,0-1.182,0.672-1.182,1.49v1.519h5.47v-1.519
		C734.784,464.97,734.251,464.298,733.602,464.298z"/>
	<path style="fill:#010202;" d="M733.602,487.757h-10.058c-0.672,0-1.205,0.672-1.205,1.49v1.519h12.446v-1.519
		C734.784,488.429,734.251,487.757,733.602,487.757z"/>
	<path style="fill:#010202;" d="M726.626,447.997h-3.083c-0.672,0-1.205,0.672-1.205,1.49v1.49h5.47v-1.49
		C727.808,448.669,727.275,447.997,726.626,447.997z"/>
	<path style="fill:#010202;" d="M726.626,464.298h-3.083c-0.672,0-1.205,0.672-1.205,1.49v1.519h5.493v-1.519
		C727.831,464.97,727.298,464.298,726.626,464.298z"/>
</g>
<g>
</g>
<g>
</g>
<g>
</g>
<g>
</g>
<g>
</g>
<g>
</g>
</svg>
