<?xml version="1.0" encoding="iso-8859-1"?>
<!-- Generator: Adobe Illustrator 20.1.0, SVG Export Plug-In . SVG Version: 6.00 Build 0)  -->
<svg version="1.1" id="Ebene_1" xmlns="http://www.w3.org/2000/svg" xmlns:xlink="http://www.w3.org/1999/xlink" x="0px" y="0px"
	 viewBox="0 0 1354.961 1800" style="enable-background:new 0 0 1354.961 1800;" xml:space="preserve">
<rect style="fill:none;stroke:#000000;stroke-miterlimit:10;" width="1354.961" height="1800"/>
<circle style="fill:none;stroke:#000000;stroke-miterlimit:10;" cx="897.165" cy="1342.205" r="174.331"/>
<path style="fill:#E30613;" d="M387.461,147.115h4.596c0.948,0,1.718-0.769,1.718-1.717s-0.769-1.718-1.718-1.718h-4.596
	c-0.948,0-1.717,0.769-1.717,1.718S386.513,147.115,387.461,147.115z M483.99,147.115h4.597c0.948,0,1.717-0.769,1.717-1.717
	s-0.769-1.718-1.717-1.718h-4.597c-0.948,0-1.717,0.769-1.717,1.718S483.041,147.115,483.99,147.115z M428.83,147.115h4.597
	c0.948,0,1.717-0.769,1.717-1.717s-0.769-1.718-1.717-1.718h-4.597c-0.948,0-1.717,0.769-1.717,1.718
	S427.882,147.115,428.83,147.115z M401.251,147.115h4.597c0.948,0,1.718-0.769,1.718-1.717s-0.769-1.718-1.718-1.718h-4.597
	c-0.948,0-1.718,0.769-1.718,1.718S400.303,147.115,401.251,147.115z M442.621,147.115h4.597c0.948,0,1.717-0.769,1.717-1.717
	s-0.769-1.718-1.717-1.718h-4.597c-0.948,0-1.717,0.769-1.717,1.718S441.673,147.115,442.621,147.115z M470.2,147.115h4.597
	c0.948,0,1.717-0.769,1.717-1.717s-0.769-1.718-1.717-1.718H470.2c-0.948,0-1.717,0.769-1.717,1.718S469.252,147.115,470.2,147.115z
	 M456.41,147.115h4.597c0.948,0,1.718-0.769,1.718-1.717s-0.769-1.718-1.718-1.718h-4.597c-0.948,0-1.718,0.769-1.718,1.718
	S455.462,147.115,456.41,147.115z M415.041,147.115h4.596c0.948,0,1.717-0.769,1.717-1.717s-0.769-1.718-1.717-1.718h-4.596
	c-0.948,0-1.718,0.769-1.718,1.718S414.093,147.115,415.041,147.115z M315.926,171.113c0.354,0,0.712-0.11,1.02-0.336l3.404-2.515
	c0.763-0.564,0.924-1.639,0.36-2.402c-0.564-0.763-1.638-0.922-2.402-0.361l-3.404,2.515c-0.763,0.564-0.924,1.639-0.36,2.402
	C314.88,170.872,315.4,171.113,315.926,171.113z M718.417,147.115h4.597c0.948,0,1.718-0.769,1.718-1.717s-0.769-1.718-1.718-1.718
	h-4.597c-0.948,0-1.718,0.769-1.718,1.718S717.469,147.115,718.417,147.115z M326.137,163.567c0.354,0,0.712-0.11,1.02-0.337
	l3.403-2.515c0.763-0.564,0.924-1.639,0.36-2.402c-0.564-0.763-1.638-0.923-2.402-0.36l-3.403,2.515
	c-0.763,0.564-0.924,1.639-0.36,2.402C325.091,163.326,325.611,163.567,326.137,163.567z M359.882,147.115h4.596
	c0.948,0,1.717-0.769,1.717-1.717s-0.769-1.718-1.717-1.718h-4.596c-0.948,0-1.718,0.769-1.718,1.718
	S358.934,147.115,359.882,147.115z M373.671,147.115h4.597c0.948,0,1.717-0.769,1.717-1.717s-0.769-1.718-1.717-1.718h-4.597
	c-0.948,0-1.717,0.769-1.717,1.718S372.723,147.115,373.671,147.115z M342.558,161.796c0.19,0.068,0.385,0.1,0.576,0.1
	c0.706,0,1.368-0.439,1.618-1.142l1.498-4.208c0.319-0.894-0.149-1.876-1.042-2.194c-0.892-0.317-1.876,0.148-2.194,1.042
	l-1.498,4.208C341.197,160.496,341.665,161.478,342.558,161.796z M336.347,156.022c0.354,0,0.712-0.11,1.02-0.336l3.404-2.515
	c0.763-0.564,0.924-1.639,0.36-2.402s-1.639-0.923-2.402-0.361l-3.404,2.515c-0.763,0.564-0.924,1.639-0.36,2.402
	C335.301,155.781,335.821,156.022,336.347,156.022z M621.889,147.115h4.596c0.948,0,1.718-0.769,1.718-1.717
	s-0.769-1.718-1.718-1.718h-4.596c-0.948,0-1.718,0.769-1.718,1.718S620.941,147.115,621.889,147.115z M690.838,147.115h4.597
	c0.948,0,1.717-0.769,1.717-1.717s-0.769-1.718-1.717-1.718h-4.597c-0.948,0-1.718,0.769-1.718,1.718
	S689.889,147.115,690.838,147.115z M608.099,147.115h4.597c0.948,0,1.718-0.769,1.718-1.717s-0.769-1.718-1.718-1.718h-4.597
	c-0.948,0-1.717,0.769-1.717,1.718S607.15,147.115,608.099,147.115z M594.308,147.115h4.597c0.948,0,1.717-0.769,1.717-1.717
	s-0.769-1.718-1.717-1.718h-4.597c-0.948,0-1.718,0.769-1.718,1.718S593.36,147.115,594.308,147.115z M635.678,147.115h4.597
	c0.948,0,1.718-0.769,1.718-1.717s-0.769-1.718-1.718-1.718h-4.597c-0.948,0-1.717,0.769-1.717,1.718
	S634.73,147.115,635.678,147.115z M649.469,147.115h4.596c0.948,0,1.718-0.769,1.718-1.717s-0.769-1.718-1.718-1.718h-4.596
	c-0.948,0-1.718,0.769-1.718,1.718S648.52,147.115,649.469,147.115z M663.258,147.115h4.597c0.948,0,1.717-0.769,1.717-1.717
	s-0.769-1.718-1.717-1.718h-4.597c-0.948,0-1.718,0.769-1.718,1.718S662.31,147.115,663.258,147.115z M677.048,147.115h4.596
	c0.948,0,1.718-0.769,1.718-1.717s-0.769-1.718-1.718-1.718h-4.596c-0.948,0-1.717,0.769-1.717,1.718S676.1,147.115,677.048,147.115
	z M497.78,147.115h4.597c0.948,0,1.717-0.769,1.717-1.717s-0.769-1.718-1.717-1.718h-4.597c-0.948,0-1.717,0.769-1.717,1.718
	S496.832,147.115,497.78,147.115z M539.149,147.115h4.597c0.948,0,1.718-0.769,1.718-1.717s-0.769-1.718-1.718-1.718h-4.597
	c-0.948,0-1.717,0.769-1.717,1.718S538.201,147.115,539.149,147.115z M525.36,147.115h4.597c0.948,0,1.718-0.769,1.718-1.717
	s-0.769-1.718-1.718-1.718h-4.597c-0.948,0-1.718,0.769-1.718,1.718S524.411,147.115,525.36,147.115z M511.569,147.115h4.597
	c0.948,0,1.718-0.769,1.718-1.717s-0.769-1.718-1.718-1.718h-4.597c-0.948,0-1.717,0.769-1.717,1.718
	S510.621,147.115,511.569,147.115z M704.628,147.115h4.597c0.948,0,1.718-0.769,1.718-1.717s-0.769-1.718-1.718-1.718h-4.597
	c-0.948,0-1.717,0.769-1.717,1.718S703.68,147.115,704.628,147.115z M552.939,147.115h4.597c0.948,0,1.717-0.769,1.717-1.717
	s-0.769-1.718-1.717-1.718h-4.597c-0.948,0-1.718,0.769-1.718,1.718S551.991,147.115,552.939,147.115z M580.519,147.115h4.597
	c0.948,0,1.718-0.769,1.718-1.717s-0.769-1.718-1.718-1.718h-4.597c-0.948,0-1.718,0.769-1.718,1.718
	S579.571,147.115,580.519,147.115z M566.729,147.115h4.597c0.948,0,1.718-0.769,1.718-1.717s-0.769-1.718-1.718-1.718h-4.597
	c-0.948,0-1.718,0.769-1.718,1.718S565.78,147.115,566.729,147.115z M1008.004,147.115h4.597c0.948,0,1.717-0.769,1.717-1.717
	s-0.769-1.718-1.717-1.718h-4.597c-0.948,0-1.718,0.769-1.718,1.718S1007.056,147.115,1008.004,147.115z M1118.323,147.115h4.597
	c0.948,0,1.718-0.769,1.718-1.717s-0.769-1.718-1.718-1.718h-4.597c-0.948,0-1.718,0.769-1.718,1.718
	S1117.374,147.115,1118.323,147.115z M1090.743,147.115h4.597c0.948,0,1.718-0.769,1.718-1.717s-0.769-1.718-1.718-1.718h-4.597
	c-0.948,0-1.718,0.769-1.718,1.718S1089.795,147.115,1090.743,147.115z M994.215,147.115h4.597c0.948,0,1.717-0.769,1.717-1.717
	s-0.769-1.718-1.717-1.718h-4.597c-0.948,0-1.718,0.769-1.718,1.718S993.266,147.115,994.215,147.115z M1063.163,147.115h4.597
	c0.948,0,1.717-0.769,1.717-1.717s-0.769-1.718-1.717-1.718h-4.597c-0.948,0-1.718,0.769-1.718,1.718
	S1062.215,147.115,1063.163,147.115z M1076.954,147.115h4.597c0.948,0,1.718-0.769,1.718-1.717s-0.769-1.718-1.718-1.718h-4.597
	c-0.948,0-1.718,0.769-1.718,1.718S1076.005,147.115,1076.954,147.115z M278.571,232.286l1.495,4.208
	c0.249,0.704,0.911,1.143,1.618,1.143c0.191,0,0.385-0.032,0.575-0.1c0.895-0.318,1.361-1.3,1.043-2.193l-1.495-4.208
	c-0.318-0.895-1.302-1.36-2.193-1.044C278.72,230.41,278.253,231.393,278.571,232.286z M1049.374,147.115h4.597
	c0.948,0,1.718-0.769,1.718-1.717s-0.769-1.718-1.718-1.718h-4.597c-0.948,0-1.718,0.769-1.718,1.718
	S1048.426,147.115,1049.374,147.115z M1021.794,147.115h4.597c0.948,0,1.717-0.769,1.717-1.717s-0.769-1.718-1.717-1.718h-4.597
	c-0.948,0-1.717,0.769-1.717,1.718S1020.846,147.115,1021.794,147.115z M1035.583,147.115h4.597c0.948,0,1.718-0.769,1.718-1.717
	s-0.769-1.718-1.718-1.718h-4.597c-0.948,0-1.717,0.769-1.717,1.718S1034.635,147.115,1035.583,147.115z M1104.533,147.115h4.597
	c0.948,0,1.718-0.769,1.718-1.717s-0.769-1.718-1.718-1.718h-4.597c-0.948,0-1.718,0.769-1.718,1.718
	S1103.585,147.115,1104.533,147.115z M1132.113,147.115h4.597c0.948,0,1.718-0.769,1.718-1.717s-0.769-1.718-1.718-1.718h-4.597
	c-0.948,0-1.718,0.769-1.718,1.718S1131.165,147.115,1132.113,147.115z M1201.062,147.115h4.596c0.948,0,1.717-0.769,1.717-1.717
	s-0.769-1.718-1.717-1.718h-4.596c-0.948,0-1.718,0.769-1.718,1.718S1200.114,147.115,1201.062,147.115z M1214.852,147.115h4.597
	c0.948,0,1.718-0.769,1.718-1.717s-0.769-1.718-1.718-1.718h-4.597c-0.948,0-1.717,0.769-1.717,1.718
	S1213.904,147.115,1214.852,147.115z M1217.222,152.884c-0.777,0.543-0.967,1.614-0.424,2.392c0.334,0.478,0.868,0.734,1.409,0.734
	c0.34,0,0.683-0.101,0.983-0.31l3.616-2.528c0.777-0.543,0.967-1.614,0.424-2.392c-0.543-0.778-1.615-0.966-2.392-0.424
	L1217.222,152.884z M1205.951,162.858c0.334,0.478,0.868,0.734,1.409,0.734c0.34,0,0.683-0.101,0.983-0.31l3.616-2.528
	c0.777-0.543,0.967-1.614,0.424-2.392c-0.543-0.778-1.615-0.966-2.392-0.424l-3.616,2.528
	C1205.598,161.01,1205.408,162.081,1205.951,162.858z M1145.903,147.115h4.596c0.948,0,1.718-0.769,1.718-1.717
	s-0.769-1.718-1.718-1.718h-4.596c-0.948,0-1.718,0.769-1.718,1.718S1144.955,147.115,1145.903,147.115z M1173.483,147.115h4.596
	c0.948,0,1.718-0.769,1.718-1.717s-0.769-1.718-1.718-1.718h-4.596c-0.948,0-1.717,0.769-1.717,1.718
	S1172.535,147.115,1173.483,147.115z M1159.693,147.115h4.597c0.948,0,1.717-0.769,1.717-1.717s-0.769-1.718-1.717-1.718h-4.597
	c-0.948,0-1.718,0.769-1.718,1.718S1158.744,147.115,1159.693,147.115z M870.106,147.115h4.597c0.948,0,1.717-0.769,1.717-1.717
	s-0.769-1.718-1.717-1.718h-4.597c-0.948,0-1.718,0.769-1.718,1.718S869.158,147.115,870.106,147.115z M980.424,147.115h4.597
	c0.948,0,1.718-0.769,1.718-1.717s-0.769-1.718-1.718-1.718h-4.597c-0.948,0-1.718,0.769-1.718,1.718
	S979.476,147.115,980.424,147.115z M801.156,147.115h4.597c0.948,0,1.717-0.769,1.717-1.717s-0.769-1.718-1.717-1.718h-4.597
	c-0.948,0-1.718,0.769-1.718,1.718S800.208,147.115,801.156,147.115z M814.946,147.115h4.597c0.948,0,1.718-0.769,1.718-1.717
	s-0.769-1.718-1.718-1.718h-4.597c-0.948,0-1.717,0.769-1.717,1.718S813.998,147.115,814.946,147.115z M842.526,147.115h4.597
	c0.948,0,1.718-0.769,1.718-1.717s-0.769-1.718-1.718-1.718h-4.597c-0.948,0-1.717,0.769-1.717,1.718
	S841.578,147.115,842.526,147.115z M745.997,147.115h4.597c0.948,0,1.718-0.769,1.718-1.717s-0.769-1.718-1.718-1.718h-4.597
	c-0.948,0-1.717,0.769-1.717,1.718S745.049,147.115,745.997,147.115z M856.315,147.115h4.597c0.948,0,1.718-0.769,1.718-1.717
	s-0.769-1.718-1.718-1.718h-4.597c-0.948,0-1.717,0.769-1.717,1.718S855.367,147.115,856.315,147.115z M759.787,147.115h4.597
	c0.948,0,1.717-0.769,1.717-1.717s-0.769-1.718-1.717-1.718h-4.597c-0.948,0-1.718,0.769-1.718,1.718
	S758.839,147.115,759.787,147.115z M787.367,147.115h4.597c0.948,0,1.718-0.769,1.718-1.717s-0.769-1.718-1.718-1.718h-4.597
	c-0.948,0-1.718,0.769-1.718,1.718S786.419,147.115,787.367,147.115z M773.576,147.115h4.597c0.948,0,1.718-0.769,1.718-1.717
	s-0.769-1.718-1.718-1.718h-4.597c-0.948,0-1.718,0.769-1.718,1.718S772.628,147.115,773.576,147.115z M828.736,147.115h4.597
	c0.948,0,1.718-0.769,1.718-1.717s-0.769-1.718-1.718-1.718h-4.597c-0.948,0-1.718,0.769-1.718,1.718
	S827.787,147.115,828.736,147.115z M925.265,147.115h4.597c0.948,0,1.718-0.769,1.718-1.717s-0.769-1.718-1.718-1.718h-4.597
	c-0.948,0-1.718,0.769-1.718,1.718S924.317,147.115,925.265,147.115z M952.845,147.115h4.597c0.948,0,1.718-0.769,1.718-1.717
	s-0.769-1.718-1.718-1.718h-4.597c-0.948,0-1.717,0.769-1.717,1.718S951.896,147.115,952.845,147.115z M939.055,147.115h4.596
	c0.948,0,1.717-0.769,1.717-1.717s-0.769-1.718-1.717-1.718h-4.596c-0.948,0-1.718,0.769-1.718,1.718
	S938.107,147.115,939.055,147.115z M966.635,147.115h4.597c0.948,0,1.717-0.769,1.717-1.717s-0.769-1.718-1.717-1.718h-4.597
	c-0.948,0-1.718,0.769-1.718,1.718S965.687,147.115,966.635,147.115z M732.208,147.115h4.597c0.948,0,1.718-0.769,1.718-1.717
	s-0.769-1.718-1.718-1.718h-4.597c-0.948,0-1.718,0.769-1.718,1.718S731.259,147.115,732.208,147.115z M883.896,147.115h4.596
	c0.948,0,1.718-0.769,1.718-1.717s-0.769-1.718-1.718-1.718h-4.596c-0.948,0-1.718,0.769-1.718,1.718
	S882.948,147.115,883.896,147.115z M897.685,147.115h4.597c0.948,0,1.717-0.769,1.717-1.717s-0.769-1.718-1.717-1.718h-4.597
	c-0.948,0-1.718,0.769-1.718,1.718S896.737,147.115,897.685,147.115z M911.476,147.115h4.596c0.948,0,1.717-0.769,1.717-1.717
	s-0.769-1.718-1.717-1.718h-4.596c-0.948,0-1.717,0.769-1.717,1.718S910.528,147.115,911.476,147.115z M346.161,148.429
	c0.198,0.332,0.501,0.604,0.894,0.744c0.19,0.068,0.385,0.1,0.576,0.1c0.706,0,1.368-0.439,1.618-1.142l0.362-1.016h1.078
	c0.948,0,1.717-0.769,1.717-1.717s-0.769-1.718-1.717-1.718h-2.29c-0.01,0-0.019,0.004-0.028,0.004
	c-0.152,0.002-0.303,0.027-0.452,0.071c-0.035,0.01-0.068,0.023-0.102,0.035c-0.127,0.046-0.25,0.105-0.366,0.183
	c-0.017,0.011-0.035,0.019-0.052,0.031c-0.007,0.005-0.014,0.007-0.02,0.012l-1.842,1.361c-0.763,0.564-0.924,1.639-0.36,2.402
	C345.427,148.119,345.779,148.339,346.161,148.429z M1207.275,384.062c0-0.948-0.769-1.717-1.718-1.717h-4.617
	c-0.948,0-1.717,0.769-1.717,1.717s0.769,1.717,1.717,1.717h4.617C1206.506,385.779,1207.275,385.01,1207.275,384.062z
	 M1210.482,394.383l-3.518,2.327c-0.792,0.523-1.009,1.589-0.485,2.379c0.33,0.5,0.877,0.77,1.433,0.77
	c0.325,0,0.655-0.092,0.946-0.285l3.518-2.327c0.792-0.523,1.009-1.589,0.485-2.379
	C1212.338,394.076,1211.269,393.858,1210.482,394.383z M1199.927,401.363l-3.519,2.327c-0.792,0.523-1.009,1.589-0.485,2.379
	c0.33,0.5,0.877,0.77,1.433,0.77c0.325,0,0.654-0.092,0.946-0.285l3.519-2.327c0.792-0.523,1.009-1.589,0.485-2.379
	C1201.784,401.057,1200.718,400.839,1199.927,401.363z M1197.494,170.865l3.616-2.528c0.777-0.543,0.967-1.614,0.424-2.392
	c-0.543-0.778-1.615-0.964-2.392-0.424l-3.616,2.528c-0.777,0.543-0.967,1.614-0.424,2.392c0.334,0.478,0.868,0.734,1.409,0.734
	C1196.851,171.175,1197.195,171.074,1197.494,170.865z M1221.037,387.402l-3.519,2.327c-0.792,0.523-1.009,1.589-0.485,2.379
	c0.33,0.5,0.877,0.77,1.433,0.77c0.325,0,0.654-0.092,0.946-0.285l3.519-2.327c0.792-0.523,1.009-1.589,0.485-2.379
	C1222.894,387.095,1221.828,386.876,1221.037,387.402z M1230.931,380.054c-0.948,0-1.718,0.769-1.718,1.717v0.222l-0.53,0.351
	h-0.042c-0.948,0-1.718,0.769-1.718,1.717c0,0.849,0.619,1.55,1.429,1.688c0.213,0.09,0.439,0.148,0.67,0.148
	c0.199,0,0.397-0.047,0.59-0.119h1.319c0.948,0,1.718-0.769,1.718-1.717v-2.29C1232.649,380.824,1231.879,380.054,1230.931,380.054z
	 M1191.869,143.68h-4.597c-0.948,0-1.718,0.769-1.718,1.718s0.769,1.717,1.718,1.717h4.597c0.948,0,1.718-0.769,1.718-1.717
	S1192.817,143.68,1191.869,143.68z M1221.125,384.062c0-0.948-0.769-1.717-1.718-1.717h-4.616c-0.948,0-1.718,0.769-1.718,1.717
	s0.769,1.717,1.718,1.717h4.616C1220.355,385.779,1221.125,385.01,1221.125,384.062z M862.972,340.832
	c-6.309,0-11.206,1.884-14.693,5.646c-3.488,3.764-5.231,8.69-5.231,14.775c0,6.088,1.743,11.015,5.231,14.777
	c3.486,3.764,8.384,5.645,14.693,5.645s11.206-1.881,14.693-5.645c3.488-3.762,5.231-8.688,5.231-14.777
	c0-6.085-1.743-11.012-5.231-14.775C874.178,342.716,869.281,340.832,862.972,340.832z M434.049,366.483
	c-2.822,0.167-5.536,0.638-8.136,1.412c-2.602,0.775-4.815,1.938-6.641,3.486c-1.826,1.551-2.74,3.709-2.74,6.474
	c0,2.989,1.271,5.204,3.819,6.642c2.545,1.439,5.202,2.158,7.969,2.158c2.433,0,4.787-0.332,7.057-0.996
	c2.267-0.664,4.287-1.603,6.059-2.822c1.769-1.217,3.18-2.765,4.233-4.649c1.051-1.881,1.578-4.094,1.578-6.641v-5.312h-6.143
	C439.222,366.235,436.871,366.318,434.049,366.483z M618.086,336.848c-2.767,0-5.204,0.444-7.305,1.328
	c-2.104,0.887-3.901,2.021-5.396,3.403c-1.494,1.385-2.656,2.989-3.486,4.815c-0.83,1.827-1.302,3.736-1.411,5.728h32.873
	c0.11-4.205-1.274-7.804-4.151-10.791C626.33,338.342,622.624,336.848,618.086,336.848z M515.938,250.776v-48.695
	c0-3.254-3.253-5.835-7.213-5.835h-7.354v60.252h7.354C512.685,256.498,515.938,253.918,515.938,250.776z M1191.708,382.344h-3.299
	V177.215l1.854-1.295c0.777-0.543,0.967-1.614,0.424-2.391c-0.543-0.779-1.615-0.967-2.392-0.424l-1.571,1.097H339.628
	c0.279-0.197,0.504-0.477,0.627-0.824l1.499-4.208c0.319-0.893-0.148-1.876-1.041-2.194c-0.897-0.318-1.876,0.149-2.195,1.042
	l-1.499,4.208c-0.265,0.744,0.019,1.543,0.635,1.976h-26.84c-0.037-0.279-0.134-0.553-0.313-0.796
	c-0.565-0.763-1.64-0.925-2.402-0.361l-1.566,1.157h-0.656l-49.501,138.964l-48.512-136.532l1.075-0.751
	c0.777-0.543,0.967-1.614,0.424-2.392c-0.543-0.778-1.615-0.966-2.392-0.424l-1.623,1.134h-38.795v-3.105
	c0-0.949-0.769-1.718-1.718-1.718c-0.948,0-1.717,0.769-1.717,1.718v3.105h-36.364l0.172-0.12c0.777-0.543,0.967-1.614,0.424-2.392
	c-0.543-0.777-1.614-0.966-2.392-0.423l-1.876,1.312c-0.54,0.378-0.789,1.01-0.712,1.622h-0.056v238.665h60.813v-0.312
	c0.236-0.03,0.469-0.094,0.684-0.226l1.949-1.202c0.807-0.498,1.059-1.555,0.56-2.363c-0.499-0.808-1.558-1.057-2.363-0.56
	l-0.83,0.512v-23.069c0.619-0.26,1.054-0.871,1.054-1.584s-0.435-1.324-1.054-1.584V264.967l39.25,117.689
	c-0.444,0.311-0.736,0.824-0.736,1.406c0,0.851,0.621,1.553,1.434,1.689c0.036,0.087,0.074,0.174,0.125,0.257
	c0.12,0.194,0.279,0.343,0.452,0.47l8.801,26.388h45.947l0.249-0.728l1.642-1.013c0.807-0.498,1.059-1.555,0.56-2.363
	c-0.199-0.323-0.488-0.551-0.814-0.684l7.628-22.3h5.112c0.948,0,1.718-0.769,1.718-1.717s-0.769-1.717-1.718-1.717h-3.937
	l40.688-118.954l0.139,91.986c-0.505,0.157-0.933,0.542-1.118,1.082l-1.418,4.147c-0.307,0.898,0.171,1.874,1.069,2.18
	c0.185,0.064,0.371,0.093,0.556,0.093c0.332,0,0.648-0.105,0.922-0.28l0.076,50.268h60.587v0h429.783v26.609h24.939v-26.609h343.349
	v-0.11l0.001,0c0.325,0,0.654-0.092,0.946-0.285l1.91-1.262c0.792-0.522,1.009-1.588,0.485-2.379
	c-0.523-0.793-1.589-1.01-2.379-0.485l-0.963,0.636v-23.201h3.299c0.948,0,1.718-0.769,1.718-1.717
	S1192.656,382.344,1191.708,382.344z M1070.206,211.522c0.457-2.664,2.776-5.207,6.709-7.355c3.661-1.999,8.472-3.488,13.201-4.083
	c3.723-0.469,9.136-0.614,13.779,1.356c3.055,1.296,4.569,3.014,5.905,4.529c1.357,1.539,2.428,2.754,5.09,3.531
	c7.815,2.283,16.948-2.901,20.512-5.235c1.909-1.251,3.941-2.882,5.7-4.581c1.221,0.728,2.251,1.464,3.247,2.069
	c-2.03,2.054-4.497,4.094-6.885,5.659c-4.001,2.621-14.309,8.422-23.63,5.7c-3.707-1.083-5.38-2.98-6.856-4.654
	c-1.227-1.391-2.286-2.592-4.553-3.554c-6.608-2.804-17.451-0.852-23.707,2.566c-2.764,1.51-4.56,3.262-4.804,4.688
	c-0.226,1.32,0.649,4.346,9.054,9.772c5.906,3.813,13.281,7.361,18.665,9.952c1.655,0.796,3.353,1.572,4.995,2.323
	c3.636,1.661,7.057,3.231,9.826,4.905c-0.981,0.809-1.965,1.698-2.946,2.634c-2.473-1.386-5.477-2.761-8.444-4.117
	c-1.659-0.758-3.375-1.542-5.062-2.354C1084.172,227.654,1068.831,219.546,1070.206,211.522z M936.27,202.195l8.011-8.011
	c0.546-0.546,1.431-0.546,1.977,0l0.175,0.175c0.546,0.546,0.546,1.431,0,1.977l-8.011,8.011c-0.546,0.546-1.431,0.546-1.977,0
	l-0.175-0.175C935.724,203.626,935.724,202.741,936.27,202.195z M925.079,190.799l8.011-8.011c0.546-0.546,1.431-0.546,1.977,0
	l0.175,0.175c0.546,0.546,0.546,1.431,0,1.977l-8.011,8.011c-0.546,0.546-1.431,0.546-1.977,0l-0.175-0.175
	C924.533,192.229,924.533,191.344,925.079,190.799z M908.569,198.933l9.618-9.618l21.82,21.82l-9.618,9.618
	c-4.109,4.109-10.771,4.109-14.881,0c-1.088-1.088-2.176-2.176-3.264-3.264l-3.674-3.674c-0.496-0.496-3.082-3.181-3.082-7.44
	C905.487,203.681,906.515,200.988,908.569,198.933z M836.22,187.779l11.542,2.245c0.823,0.16,1.58,0.563,2.174,1.156l22.834,22.834
	c1.229,1.229,1.229,3.222,0,4.451l-7.982,7.982c-1.229,1.229-3.222,1.229-4.451,0l-23.815-23.815c-0.48-0.48-0.836-1.068-1.04-1.716
	l-2.819-8.972C831.845,189.345,833.615,187.273,836.22,187.779z M684.935,192.656c0-1.908,1.979-3.59,4.525-3.59h11.739
	c9.052,0,16.265,5.835,16.265,13.015v14.923c0,3.703-1.838,6.957-4.95,9.313c3.112,2.357,4.95,5.722,4.95,9.425v26.143
	c0,1.01-0.99,1.795-2.263,1.795h-4.525c-1.274,0-2.263-0.786-2.263-1.795v-26.143c0-3.254-3.253-5.835-7.213-5.835h-7.212v31.977
	c0,1.01-1.132,1.795-2.263,1.795h-4.526c-1.273,0-2.262-0.786-2.262-1.795V192.656z M605.88,192.656c0-1.908,2.121-3.59,4.526-3.59
	h11.879c8.911,0,16.265,5.835,16.265,13.015v14.923c0,3.703-1.98,7.068-5.092,9.425c3.112,2.356,5.092,5.61,5.092,9.313v15.035
	c0,7.069-7.354,12.903-16.265,12.903h-11.879c-2.405,0-4.526-1.571-4.526-3.59V192.656z M536.725,192.656
	c0-1.908,1.98-3.59,4.526-3.59h16.83c1.274,0,2.263,0.897,2.263,1.795v3.59c0,1.01-0.99,1.795-2.263,1.795h-12.304v26.592h12.304
	c1.274,0,2.263,0.786,2.263,1.795v3.59c0,0.897-0.99,1.795-2.263,1.795h-12.304v26.479h12.304c1.274,0,2.263,0.898,2.263,1.795v3.59
	c0,1.01-0.99,1.795-2.263,1.795h-16.83c-2.546,0-4.526-1.571-4.526-3.59V192.656z M492.319,192.656c0-1.908,2.121-3.59,4.526-3.59
	h11.879c9.052,0,16.265,5.835,16.265,13.015v48.695c0,7.069-7.213,12.903-16.265,12.903h-11.879c-2.405,0-4.526-1.571-4.526-3.59
	V192.656z M436.176,192.656c0-1.908,1.98-3.59,4.526-3.59h16.83c1.274,0,2.263,0.897,2.263,1.795v3.59
	c0,1.01-0.99,1.795-2.263,1.795h-12.304v26.592h12.304c1.274,0,2.263,0.786,2.263,1.795v3.59c0,0.897-0.99,1.795-2.263,1.795
	h-12.304v26.479h12.304c1.274,0,2.263,0.898,2.263,1.795v3.59c0,1.01-0.99,1.795-2.263,1.795h-16.83
	c-2.546,0-4.526-1.571-4.526-3.59V192.656z M391.912,261.884v-70.911c0-0.112,0-0.112,0-0.112c0-0.898,0.99-1.795,2.263-1.795h4.525
	c1.274,0,2.263,0.897,2.263,1.795v31.977h14.568v-31.977c0-0.898,0.99-1.795,2.263-1.795h4.384c1.272,0,2.262,0.897,2.262,1.795
	v71.023c0,1.01-0.99,1.795-2.262,1.795h-4.384c-1.274,0-2.263-0.786-2.263-1.795v-31.865h-14.568v31.865
	c0,1.01-0.99,1.795-2.263,1.795h-4.525C392.901,263.679,391.912,262.894,391.912,261.884z M470.159,401.598h-22.911v-10.127h-0.332
	c-2.769,4.316-6.45,7.417-11.041,9.298c-4.595,1.881-9.437,2.822-14.527,2.822c-3.764,0-7.388-0.527-10.874-1.578
	c-3.488-1.05-6.558-2.628-9.215-4.731c-2.657-2.102-4.76-4.704-6.309-7.804c-1.552-3.097-2.325-6.696-2.325-10.791
	c0-4.649,0.857-8.576,2.573-11.788c1.715-3.209,4.04-5.866,6.974-7.969c2.931-2.102,6.28-3.736,10.045-4.899
	c3.762-1.162,7.663-2.017,11.704-2.573c4.04-0.552,8.079-0.884,12.12-0.996c4.04-0.108,7.775-0.165,11.207-0.165
	c0-4.426-1.578-7.941-4.732-10.543c-3.154-2.599-6.89-3.901-11.206-3.901c-4.097,0-7.832,0.859-11.207,2.573
	c-3.377,1.717-6.391,4.068-9.048,7.057l-13.282-13.615c4.648-4.316,10.07-7.553,16.27-9.712c6.197-2.158,12.617-3.237,19.259-3.237
	c7.305,0,13.307,0.914,18.014,2.74c4.703,1.826,8.467,4.511,11.289,8.052c2.822,3.543,4.787,7.886,5.894,13.033
	c1.106,5.147,1.66,11.098,1.66,17.847V401.598z M480.583,261.884c0,1.01-0.99,1.795-2.263,1.795h-4.525
	c-1.274,0-2.263-0.786-2.263-1.795v-70.911c0-0.112,0-0.112,0-0.112c0-0.898,0.99-1.795,2.263-1.795h4.525
	c1.274,0,2.263,0.897,2.263,1.795V261.884z M538.228,401.598l-27.229-40.842h-0.332v40.842h-24.904V276.083h24.904v76.704
	l27.561-31.877h30.548l-32.042,36.359l32.873,44.329H538.228z M572.08,260.089v-69.228c0-0.898,0.99-1.795,2.263-1.795h4.525
	c1.132,0,2.263,0.897,2.263,1.795v65.638h12.163c1.272,0,2.262,0.898,2.262,1.795v3.59c0,1.01-0.99,1.795-2.262,1.795h-16.689
	C574.06,263.679,572.08,262.108,572.08,260.089z M658.264,369.057h-57.777c0.996,4.76,3.154,8.551,6.475,11.373
	c3.321,2.822,7.415,4.233,12.285,4.233c4.094,0,7.554-0.914,10.377-2.74c2.823-1.826,5.284-4.176,7.389-7.056l17.432,12.784
	c-3.984,5.092-9.022,9.022-15.108,11.788c-6.088,2.765-12.398,4.151-18.927,4.151c-6.2,0-12.037-0.996-17.516-2.989
	c-5.479-1.993-10.239-4.841-14.278-8.551c-4.042-3.707-7.222-8.16-9.547-13.364c-2.324-5.202-3.486-11.013-3.486-17.433
	c0-6.417,1.163-12.228,3.486-17.432c2.325-5.202,5.505-9.655,9.547-13.365c4.039-3.707,8.799-6.558,14.278-8.549
	c5.479-1.993,11.316-2.989,17.516-2.989c5.754,0,10.984,0.996,15.689,2.989c4.703,1.991,8.688,4.843,11.954,8.549
	c3.263,3.71,5.782,8.164,7.554,13.365c1.769,5.204,2.656,11.015,2.656,17.432V369.057z M654.812,263.679
	c-2.546,0-4.526-1.571-4.526-3.59v-67.433c0-1.908,1.98-3.59,4.526-3.59h16.83c1.274,0,2.263,0.897,2.263,1.795v3.59
	c0,1.01-0.99,1.795-2.263,1.795h-12.304v26.592h12.304c1.274,0,2.263,0.786,2.263,1.795v3.59c0,0.897-0.99,1.795-2.263,1.795
	h-12.304v26.479h12.304c1.274,0,2.263,0.898,2.263,1.795v3.59c0,1.01-0.99,1.795-2.263,1.795H654.812z M730.152,342.493
	c-1.772-0.552-3.516-0.967-5.231-1.245c-1.716-0.275-3.514-0.416-5.395-0.416c-4.76,0-8.525,0.664-11.29,1.993
	c-2.767,1.328-4.898,3.183-6.391,5.562c-1.495,2.382-2.464,5.23-2.906,8.551c-0.443,3.32-0.664,6.973-0.664,10.958v33.703h-24.904
	V320.91h24.904v12.95h0.332c2.657-4.98,5.811-8.716,9.464-11.206c3.652-2.49,8.244-3.736,13.78-3.736
	c1.437,0,2.876,0.057,4.316,0.165c1.437,0.112,2.765,0.332,3.985,0.664V342.493z M729.2,250.776v-48.808
	c0-7.069,7.354-12.903,16.265-12.903c8.91,0,16.264,5.835,16.264,12.903v3.815c0,1.01-0.99,1.795-2.262,1.795h-4.526
	c-1.272,0-2.263-0.786-2.263-1.795v-3.815c0-3.142-3.253-5.722-7.212-5.722c-3.961,0-7.213,2.581-7.213,5.722v48.808
	c0,3.141,3.253,5.722,7.213,5.722c3.959,0,7.212-2.581,7.212-5.722v-20.982h-4.95c-1.272,0-2.262-0.785-2.262-1.795v-3.59
	c0-1.01,0.99-1.795,2.262-1.795h11.74c1.272,0,2.262,0.786,2.262,1.795v26.368c0,7.069-7.354,12.903-16.264,12.903
	C736.554,263.679,729.2,257.845,729.2,250.776z M801.626,389.893c-2.27,3.378-5.176,6.088-8.716,8.136
	c-3.543,2.048-7.529,3.486-11.954,4.316c-4.428,0.831-8.799,1.246-13.116,1.246c-5.645,0-11.346-0.804-17.1-2.407
	c-5.756-1.603-10.626-4.455-14.61-8.551l15.108-16.768c2.325,2.879,4.898,5.063,7.721,6.558c2.822,1.494,6.114,2.241,9.878,2.241
	c2.877,0,5.479-0.415,7.804-1.246c2.324-0.83,3.486-2.349,3.486-4.565c0-2.101-1.025-3.679-3.072-4.731
	c-2.05-1.051-4.649-1.936-7.804-2.657c-3.154-0.719-6.531-1.494-10.127-2.325c-3.598-0.83-6.973-2.075-10.127-3.736
	c-3.154-1.659-5.756-4.01-7.804-7.056c-2.05-3.043-3.072-7.11-3.072-12.203c0-4.758,0.968-8.854,2.906-12.286
	c1.934-3.429,4.483-6.252,7.637-8.467c3.154-2.213,6.778-3.845,10.874-4.898c4.094-1.051,8.244-1.578,12.452-1.578
	c5.314,0,10.681,0.776,16.105,2.325c5.422,1.551,10.015,4.316,13.78,8.301L786.6,344.651c-3.652-4.536-8.467-6.806-14.443-6.806
	c-2.104,0-4.151,0.498-6.143,1.494c-1.993,0.996-2.989,2.714-2.989,5.147c0,1.993,1.022,3.461,3.072,4.4
	c2.047,0.941,4.649,1.771,7.804,2.49c3.154,0.721,6.529,1.494,10.127,2.325c3.596,0.83,6.973,2.132,10.127,3.901
	c3.154,1.771,5.754,4.179,7.804,7.222c2.046,3.045,3.072,7.113,3.072,12.203C805.029,382.23,803.893,386.518,801.626,389.893z
	 M808.386,260.883c-1.446,1.584-3.918,1.637-5.434,0.12l-2.787-2.787c-1.51-1.51-1.463-3.973,0.106-5.422
	c7.112-6.569,25.289-23.393,29.944-28.048c4.23-4.23,8.11-9.227,9.919-11.647c0.574-0.768,1.688-0.839,2.366-0.161l5.803,5.803
	c0.661,0.661,0.608,1.746-0.12,2.333c-3.232,2.611-11.324,9.207-14.262,12.144C830.968,236.173,814.823,253.832,808.386,260.883z
	 M905.225,376.777c-1.718,5.147-4.151,9.712-7.305,13.698c-3.154,3.984-7.002,7.167-11.538,9.546
	c-4.54,2.379-9.687,3.57-15.441,3.57c-5.204,0-10.044-0.804-14.527-2.407c-4.483-1.603-8.164-4.343-11.041-8.219h-0.332v19.863
	h-24.904V320.91h22.911v10.625h0.332c0.996-1.437,2.297-2.905,3.902-4.399c1.602-1.495,3.486-2.849,5.645-4.068
	c2.158-1.217,4.508-2.213,7.056-2.989c2.545-0.773,5.257-1.162,8.136-1.162c5.977,0,11.399,1.024,16.271,3.072
	c4.87,2.05,9.048,4.927,12.535,8.633c3.486,3.709,6.169,8.109,8.052,13.199c1.881,5.092,2.823,10.683,2.823,16.768
	C907.799,366.235,906.94,371.63,905.225,376.777z M914.865,265.124c-0.516-0.516-0.82-1.086-0.998-1.579
	c-1.699-4.699,2.55-8.589,3.946-9.867c2.99-2.737,7.169-5.333,11.21-7.843c2.646-1.643,5.145-3.196,7.187-4.705
	c1.305-0.964,2.878-2.003,4.544-3.103c5.877-3.88,13.927-9.194,14.417-14.625c0.2-2.213-0.846-4.382-3.203-6.639
	c-1.248-1.194-2.547-1.719-3.972-1.604c-5.438,0.44-12.48,9.782-18.693,18.024c-6.877,9.123-13.372,17.739-19.536,18.03
	c-6.174,0.291-10.201-1.459-11.97-5.2c-1.579-3.341-1.092-8.104,1.409-13.774c2.055-4.66,5.401-9.731,9.18-13.914
	c0.603-0.668,1.634-0.72,2.302-0.117c0.671,0.601,0.72,1.634,0.117,2.302c-6.924,7.664-12.58,18.778-10.06,24.109
	c1.152,2.437,4.136,3.561,8.869,3.338c4.635-0.219,11.25-8.994,17.086-16.736c7.27-9.644,14.136-18.753,21.033-19.311
	c2.373-0.192,4.556,0.649,6.488,2.498c3.079,2.943,4.486,6.068,4.195,9.287c-0.631,6.994-9.08,12.571-15.868,17.052
	c-1.629,1.075-3.167,2.091-4.402,3.004c-2.148,1.587-4.701,3.173-7.404,4.853c-7.201,4.473-15.362,9.542-13.811,13.833
	c0.061,0.171,0.206,0.57,1.072,0.804c4.046,1.088,14.448-3.398,16.907-5.463c0.69-0.579,1.715-0.491,2.296,0.2
	c0.579,0.689,0.489,1.717-0.2,2.296c-1.573,1.32-5.203,3.168-8.829,4.492c-3.297,1.205-7.886,2.465-11.02,1.622
	C916.119,266.108,915.385,265.643,914.865,265.124z M995.957,401.598h-22.911v-10.127h-0.332c-2.769,4.316-6.45,7.417-11.041,9.298
	c-4.595,1.881-9.437,2.822-14.527,2.822c-3.764,0-7.388-0.527-10.874-1.578c-3.488-1.05-6.558-2.628-9.215-4.731
	c-2.657-2.102-4.76-4.704-6.309-7.804c-1.552-3.097-2.325-6.696-2.325-10.791c0-4.649,0.857-8.576,2.573-11.788
	c1.715-3.209,4.04-5.866,6.974-7.969c2.931-2.102,6.28-3.736,10.044-4.899c3.762-1.162,7.663-2.017,11.704-2.573
	c4.04-0.552,8.079-0.884,12.12-0.996c4.04-0.108,7.775-0.165,11.207-0.165c0-4.426-1.578-7.941-4.732-10.543
	c-3.154-2.599-6.89-3.901-11.206-3.901c-4.097,0-7.832,0.859-11.207,2.573c-3.377,1.717-6.391,4.068-9.048,7.057l-13.282-13.615
	c4.648-4.316,10.07-7.553,16.271-9.712c6.197-2.158,12.617-3.237,19.259-3.237c7.305,0,13.307,0.914,18.014,2.74
	c4.703,1.826,8.467,4.511,11.289,8.052c2.822,3.543,4.787,7.886,5.894,13.033c1.106,5.147,1.66,11.098,1.66,17.847V401.598z
	 M1000.1,271.486c-2.711,0.552-5.439,0.675-8.178,0.255c-2.345-0.359-4.587-1.045-6.489-2.515c-2.83-2.186-3.989-5.112-3.495-8.639
	c0.264-1.888,1.226-3.473,2.518-4.857c1.471-1.577,3.242-2.728,5.208-3.576c3.732-1.611,7.644-2.278,11.697-2.086
	c1.875,0.089,3.653,0.639,5.415,1.26c2.097,0.738,3.804,2.041,5.384,3.549c0.083,0.079,0.164,0.159,0.288,0.28
	c8.768-24.166,17.517-48.279,26.272-72.409c1.075,0.391,2.122,0.772,3.202,1.166c-0.063,0.173-0.125,0.343-0.187,0.513
	c-0.355,0.982-0.761,1.949-1.052,2.95c-0.278,0.958-0.468,1.944-0.643,2.928c-0.328,1.834-0.478,3.682-0.337,5.547
	c0.154,2.036,0.638,4.001,1.25,5.939c0.798,2.528,1.774,4.99,2.768,7.444c1.518,3.75,2.935,7.534,3.906,11.47
	c0.714,2.893,1.161,5.82,1.092,8.811c-0.046,2.008-0.29,3.991-0.841,5.923c-0.378,1.323-0.794,2.64-1.282,3.926
	c-0.531,1.398-1.287,2.693-2.083,3.957c-3.031,4.813-6.592,9.203-10.612,13.221c-0.915,0.914-1.863,1.796-2.96,2.497
	c-0.209,0.134-0.442,0.236-0.676,0.32c-0.117,0.042-0.261,0.009-0.393,0.01l-0.021-0.073c0.363-0.421,0.723-0.843,1.088-1.262
	c2.139-2.455,4.297-4.895,6.412-7.37c1.374-1.608,2.639-3.303,3.771-5.096c1.095-1.735,1.919-3.586,2.496-5.552
	c1.227-4.181,1.58-8.439,1.107-12.764c-0.24-2.194-0.718-4.333-1.676-6.338c-0.859-1.796-2.001-3.411-3.261-4.944
	c-1.666-2.028-3.476-3.912-5.575-5.502c-0.364-0.276-0.759-0.512-1.146-0.757c-0.117-0.074-0.255-0.113-0.4-0.176
	c-0.04,0.096-0.075,0.17-0.103,0.246c-2.892,7.893-5.785,15.785-8.674,23.68c-3.475,9.495-6.944,18.992-10.419,28.487
	c-0.342,0.935-0.903,1.744-1.536,2.502c-1.523,1.823-3.218,3.46-5.293,4.646C1004.599,270.261,1002.399,271.018,1000.1,271.486z
	 M1039.203,376.03c3.486,3.764,8.385,5.645,14.694,5.645c2.765,0,5.147-0.606,7.138-1.826c1.993-1.217,3.708-2.657,5.147-4.316
	l16.437,17.267c-3.875,3.984-8.441,6.781-13.698,8.384c-5.258,1.603-10.267,2.407-15.025,2.407c-6.2,0-12.037-0.996-17.516-2.989
	c-5.479-1.993-10.239-4.841-14.278-8.551c-4.042-3.707-7.222-8.16-9.547-13.364c-2.324-5.202-3.486-11.013-3.486-17.433
	c0-6.417,1.163-12.228,3.486-17.432c2.325-5.202,5.505-9.655,9.547-13.365c4.039-3.707,8.799-6.558,14.278-8.549
	c5.479-1.993,11.316-2.989,17.516-2.989c4.758,0,9.767,0.804,15.025,2.407c5.256,1.606,9.822,4.4,13.698,8.384l-16.437,17.267
	c-1.219-1.769-2.934-3.237-5.147-4.4c-2.215-1.162-4.593-1.743-7.138-1.743c-6.309,0-11.207,1.884-14.694,5.646
	c-3.486,3.764-5.23,8.69-5.23,14.775C1033.973,367.342,1035.717,372.269,1039.203,376.03z M1171.774,369.057h-57.777
	c0.996,4.76,3.154,8.551,6.475,11.373c3.321,2.822,7.415,4.233,12.285,4.233c4.094,0,7.554-0.914,10.377-2.74
	c2.823-1.826,5.284-4.176,7.389-7.056l17.432,12.784c-3.984,5.092-9.022,9.022-15.108,11.788
	c-6.088,2.765-12.398,4.151-18.927,4.151c-6.2,0-12.037-0.996-17.516-2.989c-5.479-1.993-10.239-4.841-14.278-8.551
	c-4.042-3.707-7.222-8.16-9.547-13.364c-2.323-5.202-3.486-11.013-3.486-17.433c0-6.417,1.163-12.228,3.486-17.432
	c2.325-5.202,5.505-9.655,9.547-13.365c4.039-3.707,8.799-6.558,14.278-8.549c5.479-1.993,11.316-2.989,17.516-2.989
	c5.754,0,10.984,0.996,15.689,2.989c4.703,1.991,8.688,4.843,11.954,8.549c3.263,3.71,5.782,8.164,7.554,13.365
	c1.769,5.204,2.656,11.015,2.656,17.432V369.057z M1124.613,258.387c0.13,1.332,0.621,2.032,2.921,5.119
	c0.505,0.678,1.083,1.454,1.742,2.355c6.177,8.453,6.562,10.216,5.943,11.996c-1.049,3.015-5.033,5.035-12.182,6.174l-0.592-3.715
	c7.785-1.241,9.021-3.194,9.208-3.66c-0.075-0.487-0.797-2.257-5.414-8.575c-0.651-0.891-1.222-1.657-1.721-2.328
	c-1.845-2.477-2.859-3.847-3.342-5.435c1.145-0.913,2.301-1.918,3.452-3.006C1124.586,257.638,1124.573,257.986,1124.613,258.387z
	 M1134.605,239.911c-1.03,3.839-4.555,9.247-9.666,14.358c-0.386,0.386-0.774,0.756-1.163,1.123
	c-1.15,1.088-2.307,2.093-3.452,3.006c-6.199,4.94-12.019,7.169-14.139,5.048c-2.644-2.644,1.464-11.041,9.177-18.753
	c0.329-0.329,0.661-0.633,0.992-0.948c0.981-0.935,1.965-1.824,2.946-2.634c3.77-3.112,7.446-5.252,10.287-6.049l43.235-39.815
	l0.781,0.781L1134.605,239.911z M1230.931,366.009c-0.948,0-1.718,0.769-1.718,1.717v4.682c0,0.948,0.769,1.718,1.718,1.718
	s1.718-0.769,1.718-1.718v-4.682C1232.649,366.778,1231.879,366.009,1230.931,366.009z M1122.719,243.566
	c-0.928,0.7-1.918,1.516-2.939,2.423c-0.879,0.78-1.778,1.623-2.683,2.528c-5.278,5.279-8.658,10.458-7.547,11.568
	c1.064,1.064,5.869-2.003,10.916-6.909c0.038-0.037,0.076-0.075,0.114-0.111c0.247-0.657,0.536-1.228,0.794-1.713
	c0.444-0.837,0.696-1.34,0.712-1.948c0.028-1.139,0.116-1.426-1.291-2.562c1.021-0.906,2.058-1.641,2.986-2.341
	c1.369,1.218,1.382,1.626,1.793,3.053c2.541-3.232,3.841-5.836,3.092-6.584C1127.966,240.269,1125.652,241.352,1122.719,243.566z
	 M1131.596,336.848c-2.767,0-5.204,0.444-7.305,1.328c-2.104,0.887-3.901,2.021-5.396,3.403c-1.494,1.385-2.656,2.989-3.486,4.815
	c-0.83,1.827-1.302,3.736-1.411,5.728h32.873c0.109-4.205-1.274-7.804-4.151-10.791
	C1139.84,338.342,1136.134,336.848,1131.596,336.848z M959.847,366.483c-2.822,0.167-5.536,0.638-8.136,1.412
	c-2.602,0.775-4.815,1.938-6.641,3.486c-1.826,1.551-2.74,3.709-2.74,6.474c0,2.989,1.271,5.204,3.819,6.642
	c2.545,1.439,5.202,2.158,7.969,2.158c2.433,0,4.787-0.332,7.057-0.996c2.267-0.664,4.287-1.603,6.059-2.822
	c1.769-1.217,3.18-2.765,4.233-4.649c1.051-1.881,1.578-4.094,1.578-6.641v-5.312h-6.143
	C965.019,366.235,962.669,366.318,959.847,366.483z M1230.931,155.333c-0.948,0-1.718,0.769-1.718,1.718v4.682
	c0,0.949,0.769,1.718,1.718,1.718s1.718-0.769,1.718-1.718v-4.682C1232.649,156.102,1231.879,155.333,1230.931,155.333z
	 M1230.931,197.469c-0.948,0-1.718,0.769-1.718,1.717v4.681c0,0.949,0.769,1.717,1.718,1.717s1.718-0.769,1.718-1.717v-4.681
	C1232.649,198.237,1231.879,197.469,1230.931,197.469z M1230.931,211.513c-0.948,0-1.718,0.769-1.718,1.718v4.682
	c0,0.949,0.769,1.717,1.718,1.717s1.718-0.769,1.718-1.717v-4.682C1232.649,212.282,1231.879,211.513,1230.931,211.513z
	 M1230.931,239.603c-0.948,0-1.718,0.769-1.718,1.718v4.682c0,0.949,0.769,1.718,1.718,1.718s1.718-0.769,1.718-1.718v-4.682
	C1232.649,240.372,1231.879,239.603,1230.931,239.603z M1230.931,351.964c-0.948,0-1.718,0.769-1.718,1.717v4.682
	c0,0.948,0.769,1.718,1.718,1.718s1.718-0.769,1.718-1.718v-4.682C1232.649,352.733,1231.879,351.964,1230.931,351.964z
	 M1230.931,225.559c-0.948,0-1.718,0.769-1.718,1.717v4.681c0,0.949,0.769,1.718,1.718,1.718s1.718-0.769,1.718-1.718v-4.681
	C1232.649,226.327,1231.879,225.559,1230.931,225.559z M1230.931,169.378c-0.948,0-1.718,0.769-1.718,1.717v4.682
	c0,0.949,0.769,1.718,1.718,1.718s1.718-0.769,1.718-1.718v-4.682C1232.649,170.147,1231.879,169.378,1230.931,169.378z
	 M1232.647,145.384c0-0.083-0.012-0.165-0.025-0.248c-0.005-0.03-0.004-0.061-0.01-0.09c-0.013-0.062-0.037-0.122-0.057-0.183
	c-0.015-0.046-0.026-0.095-0.044-0.139c-0.016-0.037-0.039-0.071-0.058-0.106c-0.033-0.065-0.065-0.131-0.107-0.191
	c-0.003-0.004-0.004-0.009-0.008-0.013c-0.026-0.037-0.058-0.066-0.086-0.1c-0.04-0.049-0.078-0.099-0.124-0.144
	c-0.041-0.04-0.087-0.073-0.131-0.108c-0.043-0.034-0.084-0.071-0.13-0.101c-0.046-0.03-0.095-0.053-0.143-0.078
	c-0.051-0.027-0.1-0.055-0.154-0.077c-0.048-0.019-0.098-0.031-0.148-0.046c-0.057-0.017-0.113-0.037-0.173-0.048
	c-0.058-0.011-0.118-0.013-0.177-0.018c-0.047-0.004-0.093-0.014-0.142-0.014h-2.29c-0.948,0-1.718,0.769-1.718,1.718
	c0,0.434,0.166,0.825,0.431,1.127c-0.044,0.399,0.044,0.815,0.292,1.17c0.334,0.477,0.868,0.733,1.409,0.733
	c0.103,0,0.204-0.028,0.306-0.046c0.267,0.603,0.868,1.024,1.569,1.024c0.948,0,1.718-0.769,1.718-1.718v-2.29
	C1232.649,145.393,1232.647,145.389,1232.647,145.384z M629.499,250.776v-15.035c0-3.141-3.253-5.722-7.213-5.722h-7.354v26.479
	h7.354C626.246,256.498,629.499,253.918,629.499,250.776z M1230.931,183.423c-0.948,0-1.718,0.769-1.718,1.717v4.682
	c0,0.949,0.769,1.718,1.718,1.718s1.718-0.769,1.718-1.718v-4.682C1232.649,184.192,1231.879,183.423,1230.931,183.423z
	 M274.086,219.663l1.495,4.208c0.249,0.704,0.911,1.143,1.618,1.143c0.191,0,0.385-0.032,0.575-0.1
	c0.895-0.318,1.361-1.3,1.043-2.193l-1.495-4.208c-0.318-0.895-1.302-1.362-2.193-1.044
	C274.235,217.787,273.768,218.769,274.086,219.663z M1230.931,253.649c-0.948,0-1.718,0.769-1.718,1.718v4.682
	c0,0.949,0.769,1.717,1.718,1.717s1.718-0.769,1.718-1.717v-4.682C1232.649,254.417,1231.879,253.649,1230.931,253.649z
	 M1230.931,337.919c-0.948,0-1.718,0.769-1.718,1.718v4.681c0,0.948,0.769,1.718,1.718,1.718s1.718-0.769,1.718-1.718v-4.681
	C1232.649,338.689,1231.879,337.919,1230.931,337.919z M1230.931,323.874c-0.948,0-1.718,0.769-1.718,1.718v4.682
	c0,0.948,0.769,1.717,1.718,1.717s1.718-0.769,1.718-1.717v-4.682C1232.649,324.643,1231.879,323.874,1230.931,323.874z
	 M1230.931,267.694c-0.948,0-1.718,0.769-1.718,1.717v4.682c0,0.948,0.769,1.718,1.718,1.718s1.718-0.769,1.718-1.718v-4.682
	C1232.649,268.463,1231.879,267.694,1230.931,267.694z M1230.931,281.738c-0.948,0-1.718,0.769-1.718,1.717v4.682
	c0,0.948,0.769,1.717,1.718,1.717s1.718-0.769,1.718-1.717v-4.682C1232.649,282.508,1231.879,281.738,1230.931,281.738z
	 M1230.931,295.784c-0.948,0-1.718,0.769-1.718,1.717v4.682c0,0.948,0.769,1.717,1.718,1.717s1.718-0.769,1.718-1.717v-4.682
	C1232.649,296.553,1231.879,295.784,1230.931,295.784z M1230.931,309.829c-0.948,0-1.718,0.769-1.718,1.717v4.682
	c0,0.948,0.769,1.717,1.718,1.717s1.718-0.769,1.718-1.717v-4.682C1232.649,310.598,1231.879,309.829,1230.931,309.829z
	 M215.186,171.138c0.34,0,0.683-0.101,0.983-0.31l3.616-2.528c0.777-0.543,0.967-1.614,0.424-2.392
	c-0.545-0.778-1.615-0.966-2.392-0.424l-3.616,2.528c-0.777,0.543-0.967,1.614-0.424,2.392
	C214.112,170.882,214.645,171.138,215.186,171.138z M629.499,217.004v-14.923c0-3.254-3.253-5.835-7.213-5.835h-7.354v26.592h7.354
	C626.246,222.838,629.499,220.257,629.499,217.004z M190.685,147.115h4.712c0.948,0,1.718-0.769,1.718-1.717
	s-0.769-1.718-1.718-1.718h-4.712c-0.948,0-1.718,0.769-1.718,1.718S189.737,147.115,190.685,147.115z M152.996,155.482
	c0.34,0,0.683-0.101,0.983-0.31l3.381-2.364c0.777-0.543,0.967-1.615,0.424-2.392c-0.543-0.778-1.615-0.965-2.392-0.424
	l-3.381,2.364c-0.777,0.543-0.967,1.615-0.424,2.392C151.921,155.226,152.455,155.482,152.996,155.482z M164.834,155.334
	c-0.948,0-1.717,0.769-1.717,1.717v4.682c0,0.949,0.769,1.718,1.717,1.718c0.948,0,1.718-0.769,1.718-1.718v-4.682
	C166.552,156.102,165.782,155.334,164.834,155.334z M176.548,147.115h4.713c0.948,0,1.718-0.769,1.718-1.717
	s-0.769-1.718-1.718-1.718h-4.713c-0.948,0-1.718,0.769-1.718,1.718S175.6,147.115,176.548,147.115z M224.626,162.822
	c0.334,0.478,0.868,0.734,1.409,0.734c0.34,0,0.683-0.101,0.983-0.31l3.615-2.528c0.777-0.544,0.967-1.615,0.424-2.392
	c-0.543-0.778-1.614-0.966-2.392-0.424l-3.615,2.528C224.273,160.974,224.082,162.045,224.626,162.822z M163.141,148.39
	c0.04,0,0.079-0.015,0.119-0.018c0.265,0.607,0.869,1.033,1.574,1.033c0.948,0,1.718-0.769,1.718-1.718v-0.573h0.572
	c0.948,0,1.718-0.769,1.718-1.717s-0.769-1.718-1.718-1.718h-1.775c-0.251-0.049-0.511-0.04-0.764,0.025
	c-0.436,0.064-0.815,0.29-1.08,0.617l-1.349,0.943c-0.777,0.543-0.967,1.615-0.424,2.392
	C162.067,148.135,162.6,148.39,163.141,148.39z M218.958,147.115h4.712c0.948,0,1.718-0.769,1.718-1.717s-0.769-1.718-1.718-1.718
	h-4.712c-0.948,0-1.718,0.769-1.718,1.718S218.01,147.115,218.958,147.115z M260.631,181.793l1.495,4.207
	c0.249,0.704,0.911,1.143,1.618,1.143c0.191,0,0.385-0.032,0.575-0.1c0.895-0.318,1.361-1.3,1.043-2.193l-1.495-4.208
	c-0.318-0.893-1.302-1.358-2.193-1.043C260.78,179.917,260.313,180.9,260.631,181.793z M265.116,194.416l1.495,4.208
	c0.249,0.704,0.911,1.143,1.618,1.143c0.191,0,0.385-0.032,0.575-0.1c0.895-0.318,1.361-1.3,1.043-2.193l-1.495-4.208
	c-0.318-0.894-1.299-1.361-2.193-1.044C265.265,192.54,264.798,193.523,265.116,194.416z M256.145,169.17l1.495,4.208
	c0.249,0.703,0.911,1.143,1.618,1.143c0.191,0,0.385-0.032,0.575-0.1c0.895-0.318,1.361-1.3,1.043-2.194l-1.495-4.208
	c-0.318-0.894-1.299-1.362-2.193-1.043C256.294,167.294,255.827,168.276,256.145,169.17z M269.601,207.04l1.495,4.207
	c0.249,0.704,0.911,1.143,1.618,1.143c0.191,0,0.385-0.032,0.575-0.1c0.895-0.318,1.361-1.3,1.043-2.193l-1.495-4.208
	c-0.316-0.894-1.3-1.359-2.193-1.043C269.75,205.164,269.283,206.146,269.601,207.04z M233.095,147.115h4.712
	c0.948,0,1.718-0.769,1.718-1.717s-0.769-1.718-1.718-1.718h-4.712c-0.948,0-1.718,0.769-1.718,1.718
	S232.147,147.115,233.095,147.115z M235.897,152.848c-0.777,0.543-0.967,1.614-0.424,2.392c0.334,0.478,0.868,0.734,1.409,0.734
	c0.34,0,0.683-0.101,0.983-0.31l3.616-2.528c0.777-0.543,0.967-1.614,0.424-2.392c-0.543-0.778-1.615-0.965-2.392-0.424
	L235.897,152.848z M251.66,156.547l1.495,4.207c0.249,0.704,0.911,1.143,1.618,1.143c0.191,0,0.385-0.032,0.575-0.1
	c0.895-0.318,1.361-1.3,1.043-2.194l-1.495-4.208c-0.318-0.894-1.302-1.363-2.193-1.043
	C251.809,154.671,251.342,155.653,251.66,156.547z M246.322,147.657c0.334,0.478,0.868,0.734,1.409,0.734
	c0.321,0,0.642-0.098,0.93-0.284l0.008,0.024c0.25,0.704,0.912,1.143,1.619,1.143c0.19,0,0.385-0.032,0.575-0.1
	c0.893-0.317,1.361-1.299,1.044-2.193l-0.584-1.645c-0.005-0.332-0.105-0.666-0.309-0.958c-0.405-0.578-1.099-0.828-1.748-0.697
	h-2.033c-0.948,0-1.717,0.769-1.717,1.718c0,0.475,0.193,0.905,0.505,1.216C246.006,146.973,246.1,147.339,246.322,147.657z
	 M204.822,147.115h4.712c0.948,0,1.718-0.769,1.718-1.717s-0.769-1.718-1.718-1.718h-4.712c-0.948,0-1.717,0.769-1.717,1.718
	S203.874,147.115,204.822,147.115z M289.34,401.504l-3.618,2.233c-0.807,0.498-1.058,1.557-0.559,2.364
	c0.324,0.526,0.887,0.815,1.463,0.815c0.309,0,0.619-0.083,0.901-0.256l3.618-2.233c0.807-0.498,1.058-1.556,0.559-2.364
	C291.206,401.256,290.148,401.008,289.34,401.504z M311.051,388.109l-3.618,2.233c-0.807,0.498-1.058,1.556-0.559,2.364
	c0.324,0.526,0.887,0.815,1.463,0.815c0.309,0,0.619-0.083,0.901-0.256l3.618-2.233c0.807-0.498,1.058-1.556,0.559-2.364
	C312.918,387.86,311.859,387.611,311.051,388.109z M300.196,394.806l-3.618,2.233c-0.807,0.498-1.058,1.556-0.559,2.364
	c0.324,0.526,0.887,0.815,1.463,0.815c0.309,0,0.619-0.083,0.901-0.256l3.618-2.233c0.807-0.498,1.058-1.556,0.559-2.364
	C302.062,394.558,301.004,394.31,300.196,394.806z M310.006,384.062c0-0.948-0.769-1.717-1.717-1.717h-5.172
	c-0.948,0-1.717,0.769-1.717,1.717s0.769,1.717,1.717,1.717h5.172C309.237,385.779,310.006,385.01,310.006,384.062z
	 M322.216,380.269c-0.899-0.305-1.875,0.172-2.182,1.07l-0.342,1.005h-1.062c-0.948,0-1.718,0.769-1.718,1.717
	c0,0.509,0.226,0.962,0.578,1.276c0.031,0.231,0.108,0.459,0.238,0.669c0.324,0.526,0.887,0.815,1.463,0.815
	c0.309,0,0.619-0.083,0.901-0.256l1.65-1.018c0.081-0.045,0.16-0.087,0.232-0.143l0.067-0.041c0.573-0.354,0.858-0.989,0.802-1.616
	l0.443-1.296C323.593,381.553,323.113,380.577,322.216,380.269z M708.412,217.004v-14.923c0-3.254-3.253-5.835-7.213-5.835h-7.212
	v26.479h7.212C705.159,222.726,708.412,220.145,708.412,217.004z M326.472,367.829c-0.899-0.31-1.874,0.171-2.18,1.069l-1.419,4.147
	c-0.307,0.897,0.171,1.874,1.069,2.18c0.184,0.064,0.371,0.093,0.556,0.093c0.715,0,1.381-0.448,1.625-1.162l1.419-4.147
	C327.849,369.113,327.37,368.136,326.472,367.829z M132.705,169.664c0.34,0,0.683-0.101,0.983-0.31l3.382-2.364
	c0.777-0.543,0.967-1.614,0.424-2.392c-0.543-0.778-1.615-0.966-2.392-0.424l-3.382,2.364c-0.777,0.543-0.967,1.614-0.424,2.392
	C131.63,169.409,132.163,169.664,132.705,169.664z M205.665,394.806l-3.618,2.233c-0.807,0.498-1.058,1.556-0.559,2.364
	c0.324,0.526,0.887,0.815,1.463,0.815c0.309,0,0.619-0.083,0.901-0.256l3.618-2.233c0.807-0.498,1.058-1.556,0.559-2.364
	C207.53,394.558,206.472,394.31,205.665,394.806z M197.797,382.344h-5.112c-0.948,0-1.717,0.769-1.717,1.717
	s0.769,1.717,1.717,1.717h5.112c0.948,0,1.717-0.769,1.717-1.717S198.745,382.344,197.797,382.344z M194.809,401.504l-3.618,2.233
	c-0.807,0.498-1.058,1.557-0.559,2.364c0.324,0.526,0.887,0.815,1.463,0.815c0.309,0,0.619-0.083,0.901-0.256l3.618-2.233
	c0.807-0.498,1.058-1.556,0.559-2.364C196.675,401.256,195.617,401.008,194.809,401.504z M216.52,388.109l-3.618,2.233
	c-0.807,0.498-1.058,1.556-0.559,2.364c0.324,0.526,0.887,0.815,1.463,0.815c0.309,0,0.619-0.083,0.901-0.256l3.618-2.233
	c0.807-0.498,1.058-1.556,0.559-2.364C218.387,387.86,217.328,387.611,216.52,388.109z M142.851,162.573
	c0.34,0,0.683-0.101,0.983-0.31l3.381-2.363c0.777-0.543,0.967-1.614,0.424-2.392c-0.545-0.778-1.614-0.966-2.392-0.424
	l-3.381,2.363c-0.777,0.543-0.967,1.614-0.424,2.392C141.776,162.317,142.31,162.573,142.851,162.573z M208.021,385.779h5.112
	c0.948,0,1.717-0.769,1.717-1.717s-0.769-1.717-1.717-1.717h-5.112c-0.948,0-1.717,0.769-1.717,1.717
	S207.073,385.779,208.021,385.779z"/>
<g>
	<path d="M173.783,699.797v28.536h87.44v29.583h-87.964v-29.06H144.2v-87.964h29.06v-29.06h87.964v29.06h29.06v58.904H173.783z
		 M260.438,641.677h-86.655v28.536h86.655V641.677z"/>
	<path d="M321.437,757.916v-29.583h29.583v29.583H321.437z"/>
	<path d="M528.254,728.856v29.06H411.23V582.773h117.023v29.06h29.06v30.106h-29.06v28.274h29.06v58.643H528.254z M527.468,612.618
		h-86.655v28.536h86.655V612.618z M527.468,670.737h-86.655v57.596h86.655V670.737z"/>
	<path d="M618.05,699.797v28.536h87.44v29.583h-87.964v-29.06h-29.06v-87.964h29.06v-29.06h87.964v29.06h29.06v58.904H618.05z
		 M704.706,641.677H618.05v28.536h86.655V641.677z"/>
	<path d="M881.943,757.916V641.677h-86.655v116.238h-29.583V611.833h117.023v29.06h29.06v117.023H881.943z"/>
	<path d="M972.003,757.916v-29.06h-29.06v-87.964h29.06v-29.06h87.964v29.845h-87.44v86.655h87.44v29.583H972.003z"/>
	<path d="M1207.357,757.916V641.677h-86.655v116.238h-29.583V553.714h29.583v58.119h87.44v29.06h29.06v117.023H1207.357z"/>
</g>
<g>
	<path d="M160.384,814.17v21.312h-7.104v14.208h-7.296v-14.208h-6.976v14.208h-7.232v-14.208h-7.104V814.17h-7.104v-7.296h14.336
		v28.479h6.976v-28.479h7.296v28.479h6.912v-28.479h14.4v7.296H160.384z"/>
	<path d="M168,807.002v-7.232h7.232v7.232H168z M168,849.69v-35.713h7.232v35.713H168z"/>
	<path d="M204.159,849.69v-7.104h-7.104v-7.104h-6.976v14.208h-7.232v-49.921h7.232v28.48h6.976v-7.168h7.104v-7.104h7.296v7.297
		h-7.104v7.104h-7.168v6.976h7.168v7.104h7.104v7.232H204.159z"/>
	<path d="M219.071,807.002v-7.232h7.233v7.232H219.071z M219.071,849.69v-35.713h7.233v35.713H219.071z"/>
	<path d="M233.919,828.378v-7.296h7.232v7.296H233.919z M233.919,849.69v-7.232h7.232v7.232H233.919z"/>
	<path d="M285.053,821.274v14.208h-7.104v14.208h-7.232v-14.337h7.104v-14.271h7.104v-14.208h7.296v14.4H285.053z"/>
	<path d="M299.838,849.69v-42.816h21.504v7.296H307.07v6.912h14.271v7.296H307.07v14.08h14.271v7.232H299.838z"/>
	<path d="M328.958,849.69v-49.921h7.232v49.921H328.958z"/>
	<path d="M351.038,835.482v6.976h14.271v7.232h-14.4v-7.104h-7.104v-21.504h7.104v-7.104h14.4v7.104h7.104v14.4H351.038z
		 M365.117,821.274h-14.079v6.976h14.079V821.274z"/>
	<path d="M387.133,849.69v-7.104h-7.104v-21.504h7.104v-7.104h14.4v7.297h-14.271v21.184h14.271v7.232H387.133z"/>
	<path d="M416.253,849.69v-7.104h-7.104v-21.312h-7.104v-7.297h7.104v-7.104h7.232v7.104h7.104v7.297h-7.104v21.184h7.104v7.232
		H416.253z"/>
	<path d="M438.332,821.274v28.416h-7.232v-35.713h21.504v7.297H438.332z"/>
	<path d="M474.554,842.586v7.104h-14.4v-7.104h-7.104v-21.504h7.104v-7.104h14.4v7.104h7.104v21.504H474.554z M474.362,821.274
		h-14.079v21.184h14.079V821.274z"/>
	<path d="M510.586,849.69v-28.416h-14.079v28.416h-7.232v-35.713h21.504v7.104h7.104v28.608H510.586z"/>
	<path d="M525.498,807.002v-7.232h7.232v7.232H525.498z M525.498,849.69v-35.713h7.232v35.713H525.498z"/>
	<path d="M547.449,849.69v-7.104h-7.104v-21.504h7.104v-7.104h14.4v7.297h-14.271v21.184h14.271v7.232H547.449z"/>
	<path d="M583.866,842.586v7.104h-14.4v-7.232h14.271v-6.976h-7.168v-7.104h-7.104v-7.296h7.104v-7.104h14.4v7.297h-14.271v6.976
		h7.168v7.104h7.104v7.232H583.866z"/>
	<path d="M591.48,856.794v-7.232h35.713v7.232H591.48z"/>
	<path d="M663.417,814.17v21.312h-7.104v14.208h-7.297v-14.208h-6.976v14.208h-7.232v-14.208h-7.104V814.17H620.6v-7.296h14.337
		v28.479h6.976v-28.479h7.296v28.479h6.912v-28.479h14.4v7.296H663.417z"/>
	<path d="M692.537,842.586v7.104h-14.4v-7.104h-7.104v-21.504h7.104v-7.104h14.4v7.104h7.104v21.504H692.537z M692.344,821.274
		h-14.079v21.184h14.079V821.274z"/>
	<path d="M714.489,821.274v28.416h-7.232v-35.713h21.504v7.297H714.489z"/>
	<path d="M750.519,849.69v-7.104h-7.104v-7.104h-6.976v14.208h-7.232v-49.921h7.232v28.48h6.976v-7.168h7.104v-7.104h7.297v7.297
		h-7.104v7.104h-7.168v6.976h7.168v7.104h7.104v7.232H750.519z"/>
	<path d="M786.935,842.586v7.104h-21.504v-49.921h7.232v14.208h14.271v7.104h7.104v21.504H786.935z M786.743,821.274h-14.079v21.184
		h14.079V821.274z"/>
	<path d="M808.887,835.482v6.976h14.271v7.232h-14.4v-7.104h-7.104v-21.504h7.104v-7.104h14.4v7.104h7.104v14.4H808.887z
		 M822.966,821.274h-14.079v6.976h14.079V821.274z"/>
	<path d="M859.189,849.69v-28.416H845.11v28.416h-7.232v-35.713h21.504v7.104h7.104v28.608H859.189z"/>
	<path d="M881.205,849.69v-7.104h-7.104v-21.504h7.104v-7.104h14.4v7.297h-14.271v21.184h14.271v7.232H881.205z"/>
	<path d="M924.533,849.69v-28.416h-14.079v28.416h-7.232v-49.921h7.232v14.208h14.271v7.104h7.104v28.608H924.533z"/>
	<path d="M932.341,856.794v-7.232h35.713v7.232H932.341z"/>
	<path d="M982.773,863.898v-7.104h-7.104v-7.104h-7.104v-35.713h7.104v-7.104h7.104v-7.104h7.296v7.232h-7.168v7.168h-7.104v35.392
		h7.104v7.104h7.168v7.232H982.773z"/>
	<path d="M997.749,835.482v6.976h14.271v7.232h-14.4v-7.104h-7.104v-21.504h7.104v-7.104h14.4v7.104h7.104v14.4H997.749z
		 M1011.828,821.274h-14.079v6.976h14.079V821.274z"/>
	<path d="M1026.74,849.69v-7.232h7.232v7.232H1026.74z"/>
	<path d="M1070.195,842.586v7.104h-21.504v-42.816h21.504v7.104h7.104v7.297h-7.104v6.976h7.104v14.336H1070.195z M1070.003,814.17
		h-14.079v6.912h14.079V814.17z M1070.003,828.378h-14.079v14.08h14.079V828.378z"/>
	<path d="M1092.146,835.482v6.976h14.271v7.232h-14.4v-7.104h-7.104v-21.504h7.104v-7.104h14.4v7.104h7.104v14.4H1092.146z
		 M1106.225,821.274h-14.079v6.976h14.079V821.274z"/>
	<path d="M1142.449,849.69v-28.416h-14.079v28.416h-7.232v-35.713h21.504v7.104h7.104v28.608H1142.449z"/>
	<path d="M1164.464,849.69v-7.104h-7.104v-21.504h7.104v-7.104h14.4v7.297h-14.271v21.184h14.271v7.232H1164.464z"/>
	<path d="M1207.793,849.69v-28.416h-14.079v28.416h-7.232v-49.921h7.232v14.208h14.271v7.104h7.104v28.608H1207.793z"/>
	<path d="M1229.937,849.69v7.104h-7.104v7.104h-7.232v-7.232h7.104v-7.104h7.104V814.17h-7.104v-7.168h-7.104v-7.232h7.232v7.104
		h7.104v7.104h7.104v35.713H1229.937z"/>
</g>
<g>
</g>
<g>
</g>
<g>
</g>
<g>
</g>
<g>
</g>
<g>
</g>
</svg>
